G04 #@! TF.GenerationSoftware,KiCad,Pcbnew,(5.1.2)-2*
G04 #@! TF.CreationDate,2019-11-01T09:46:42-03:00*
G04 #@! TF.ProjectId,PCB,5043422e-6b69-4636-9164-5f7063625858,rev?*
G04 #@! TF.SameCoordinates,Original*
G04 #@! TF.FileFunction,Soldermask,Top*
G04 #@! TF.FilePolarity,Negative*
%FSLAX46Y46*%
G04 Gerber Fmt 4.6, Leading zero omitted, Abs format (unit mm)*
G04 Created by KiCad (PCBNEW (5.1.2)-2) date 2019-11-01 09:46:42*
%MOMM*%
%LPD*%
G04 APERTURE LIST*
%ADD10C,0.100000*%
%ADD11C,0.150000*%
%ADD12C,0.300000*%
%ADD13C,0.400000*%
G04 APERTURE END LIST*
D10*
D11*
X177002200Y-166007200D02*
X177002200Y-198007200D01*
X285002200Y-198007200D01*
X285002200Y-166007200D01*
X177002200Y-166007200D01*
D10*
D11*
X10000000Y-10000000D02*
X10000000Y-200007200D01*
X287002200Y-200007200D01*
X287002200Y-10000000D01*
X10000000Y-10000000D01*
D10*
D11*
X12000000Y-12000000D02*
X12000000Y-198007200D01*
X285002200Y-198007200D01*
X285002200Y-12000000D01*
X12000000Y-12000000D01*
D10*
D11*
X60000000Y-12000000D02*
X60000000Y-10000000D01*
D10*
D11*
X110000000Y-12000000D02*
X110000000Y-10000000D01*
D10*
D11*
X160000000Y-12000000D02*
X160000000Y-10000000D01*
D10*
D11*
X210000000Y-12000000D02*
X210000000Y-10000000D01*
D10*
D11*
X260000000Y-12000000D02*
X260000000Y-10000000D01*
D10*
D11*
X36065476Y-11588095D02*
X35322619Y-11588095D01*
X35694047Y-11588095D02*
X35694047Y-10288095D01*
X35570238Y-10473809D01*
X35446428Y-10597619D01*
X35322619Y-10659523D01*
D10*
D11*
X85322619Y-10411904D02*
X85384523Y-10350000D01*
X85508333Y-10288095D01*
X85817857Y-10288095D01*
X85941666Y-10350000D01*
X86003571Y-10411904D01*
X86065476Y-10535714D01*
X86065476Y-10659523D01*
X86003571Y-10845238D01*
X85260714Y-11588095D01*
X86065476Y-11588095D01*
D10*
D11*
X135260714Y-10288095D02*
X136065476Y-10288095D01*
X135632142Y-10783333D01*
X135817857Y-10783333D01*
X135941666Y-10845238D01*
X136003571Y-10907142D01*
X136065476Y-11030952D01*
X136065476Y-11340476D01*
X136003571Y-11464285D01*
X135941666Y-11526190D01*
X135817857Y-11588095D01*
X135446428Y-11588095D01*
X135322619Y-11526190D01*
X135260714Y-11464285D01*
D10*
D11*
X185941666Y-10721428D02*
X185941666Y-11588095D01*
X185632142Y-10226190D02*
X185322619Y-11154761D01*
X186127380Y-11154761D01*
D10*
D11*
X236003571Y-10288095D02*
X235384523Y-10288095D01*
X235322619Y-10907142D01*
X235384523Y-10845238D01*
X235508333Y-10783333D01*
X235817857Y-10783333D01*
X235941666Y-10845238D01*
X236003571Y-10907142D01*
X236065476Y-11030952D01*
X236065476Y-11340476D01*
X236003571Y-11464285D01*
X235941666Y-11526190D01*
X235817857Y-11588095D01*
X235508333Y-11588095D01*
X235384523Y-11526190D01*
X235322619Y-11464285D01*
D10*
D11*
X285941666Y-10288095D02*
X285694047Y-10288095D01*
X285570238Y-10350000D01*
X285508333Y-10411904D01*
X285384523Y-10597619D01*
X285322619Y-10845238D01*
X285322619Y-11340476D01*
X285384523Y-11464285D01*
X285446428Y-11526190D01*
X285570238Y-11588095D01*
X285817857Y-11588095D01*
X285941666Y-11526190D01*
X286003571Y-11464285D01*
X286065476Y-11340476D01*
X286065476Y-11030952D01*
X286003571Y-10907142D01*
X285941666Y-10845238D01*
X285817857Y-10783333D01*
X285570238Y-10783333D01*
X285446428Y-10845238D01*
X285384523Y-10907142D01*
X285322619Y-11030952D01*
D10*
D11*
X60000000Y-198007200D02*
X60000000Y-200007200D01*
D10*
D11*
X110000000Y-198007200D02*
X110000000Y-200007200D01*
D10*
D11*
X160000000Y-198007200D02*
X160000000Y-200007200D01*
D10*
D11*
X210000000Y-198007200D02*
X210000000Y-200007200D01*
D10*
D11*
X260000000Y-198007200D02*
X260000000Y-200007200D01*
D10*
D11*
X36065476Y-199595295D02*
X35322619Y-199595295D01*
X35694047Y-199595295D02*
X35694047Y-198295295D01*
X35570238Y-198481009D01*
X35446428Y-198604819D01*
X35322619Y-198666723D01*
D10*
D11*
X85322619Y-198419104D02*
X85384523Y-198357200D01*
X85508333Y-198295295D01*
X85817857Y-198295295D01*
X85941666Y-198357200D01*
X86003571Y-198419104D01*
X86065476Y-198542914D01*
X86065476Y-198666723D01*
X86003571Y-198852438D01*
X85260714Y-199595295D01*
X86065476Y-199595295D01*
D10*
D11*
X135260714Y-198295295D02*
X136065476Y-198295295D01*
X135632142Y-198790533D01*
X135817857Y-198790533D01*
X135941666Y-198852438D01*
X136003571Y-198914342D01*
X136065476Y-199038152D01*
X136065476Y-199347676D01*
X136003571Y-199471485D01*
X135941666Y-199533390D01*
X135817857Y-199595295D01*
X135446428Y-199595295D01*
X135322619Y-199533390D01*
X135260714Y-199471485D01*
D10*
D11*
X185941666Y-198728628D02*
X185941666Y-199595295D01*
X185632142Y-198233390D02*
X185322619Y-199161961D01*
X186127380Y-199161961D01*
D10*
D11*
X236003571Y-198295295D02*
X235384523Y-198295295D01*
X235322619Y-198914342D01*
X235384523Y-198852438D01*
X235508333Y-198790533D01*
X235817857Y-198790533D01*
X235941666Y-198852438D01*
X236003571Y-198914342D01*
X236065476Y-199038152D01*
X236065476Y-199347676D01*
X236003571Y-199471485D01*
X235941666Y-199533390D01*
X235817857Y-199595295D01*
X235508333Y-199595295D01*
X235384523Y-199533390D01*
X235322619Y-199471485D01*
D10*
D11*
X285941666Y-198295295D02*
X285694047Y-198295295D01*
X285570238Y-198357200D01*
X285508333Y-198419104D01*
X285384523Y-198604819D01*
X285322619Y-198852438D01*
X285322619Y-199347676D01*
X285384523Y-199471485D01*
X285446428Y-199533390D01*
X285570238Y-199595295D01*
X285817857Y-199595295D01*
X285941666Y-199533390D01*
X286003571Y-199471485D01*
X286065476Y-199347676D01*
X286065476Y-199038152D01*
X286003571Y-198914342D01*
X285941666Y-198852438D01*
X285817857Y-198790533D01*
X285570238Y-198790533D01*
X285446428Y-198852438D01*
X285384523Y-198914342D01*
X285322619Y-199038152D01*
D10*
D11*
X10000000Y-60000000D02*
X12000000Y-60000000D01*
D10*
D11*
X10000000Y-110000000D02*
X12000000Y-110000000D01*
D10*
D11*
X10000000Y-160000000D02*
X12000000Y-160000000D01*
D10*
D11*
X10690476Y-35216666D02*
X11309523Y-35216666D01*
X10566666Y-35588095D02*
X11000000Y-34288095D01*
X11433333Y-35588095D01*
D10*
D11*
X11092857Y-84907142D02*
X11278571Y-84969047D01*
X11340476Y-85030952D01*
X11402380Y-85154761D01*
X11402380Y-85340476D01*
X11340476Y-85464285D01*
X11278571Y-85526190D01*
X11154761Y-85588095D01*
X10659523Y-85588095D01*
X10659523Y-84288095D01*
X11092857Y-84288095D01*
X11216666Y-84350000D01*
X11278571Y-84411904D01*
X11340476Y-84535714D01*
X11340476Y-84659523D01*
X11278571Y-84783333D01*
X11216666Y-84845238D01*
X11092857Y-84907142D01*
X10659523Y-84907142D01*
D10*
D11*
X11402380Y-135464285D02*
X11340476Y-135526190D01*
X11154761Y-135588095D01*
X11030952Y-135588095D01*
X10845238Y-135526190D01*
X10721428Y-135402380D01*
X10659523Y-135278571D01*
X10597619Y-135030952D01*
X10597619Y-134845238D01*
X10659523Y-134597619D01*
X10721428Y-134473809D01*
X10845238Y-134350000D01*
X11030952Y-134288095D01*
X11154761Y-134288095D01*
X11340476Y-134350000D01*
X11402380Y-134411904D01*
D10*
D11*
X10659523Y-185588095D02*
X10659523Y-184288095D01*
X10969047Y-184288095D01*
X11154761Y-184350000D01*
X11278571Y-184473809D01*
X11340476Y-184597619D01*
X11402380Y-184845238D01*
X11402380Y-185030952D01*
X11340476Y-185278571D01*
X11278571Y-185402380D01*
X11154761Y-185526190D01*
X10969047Y-185588095D01*
X10659523Y-185588095D01*
D10*
D11*
X287002200Y-60000000D02*
X285002200Y-60000000D01*
D10*
D11*
X287002200Y-110000000D02*
X285002200Y-110000000D01*
D10*
D11*
X287002200Y-160000000D02*
X285002200Y-160000000D01*
D10*
D11*
X285692676Y-35216666D02*
X286311723Y-35216666D01*
X285568866Y-35588095D02*
X286002200Y-34288095D01*
X286435533Y-35588095D01*
D10*
D11*
X286095057Y-84907142D02*
X286280771Y-84969047D01*
X286342676Y-85030952D01*
X286404580Y-85154761D01*
X286404580Y-85340476D01*
X286342676Y-85464285D01*
X286280771Y-85526190D01*
X286156961Y-85588095D01*
X285661723Y-85588095D01*
X285661723Y-84288095D01*
X286095057Y-84288095D01*
X286218866Y-84350000D01*
X286280771Y-84411904D01*
X286342676Y-84535714D01*
X286342676Y-84659523D01*
X286280771Y-84783333D01*
X286218866Y-84845238D01*
X286095057Y-84907142D01*
X285661723Y-84907142D01*
D10*
D11*
X286404580Y-135464285D02*
X286342676Y-135526190D01*
X286156961Y-135588095D01*
X286033152Y-135588095D01*
X285847438Y-135526190D01*
X285723628Y-135402380D01*
X285661723Y-135278571D01*
X285599819Y-135030952D01*
X285599819Y-134845238D01*
X285661723Y-134597619D01*
X285723628Y-134473809D01*
X285847438Y-134350000D01*
X286033152Y-134288095D01*
X286156961Y-134288095D01*
X286342676Y-134350000D01*
X286404580Y-134411904D01*
D10*
D11*
X285661723Y-185588095D02*
X285661723Y-184288095D01*
X285971247Y-184288095D01*
X286156961Y-184350000D01*
X286280771Y-184473809D01*
X286342676Y-184597619D01*
X286404580Y-184845238D01*
X286404580Y-185030952D01*
X286342676Y-185278571D01*
X286280771Y-185402380D01*
X286156961Y-185526190D01*
X285971247Y-185588095D01*
X285661723Y-185588095D01*
D10*
D11*
X200434342Y-193785771D02*
X200434342Y-192285771D01*
X200791485Y-192285771D01*
X201005771Y-192357200D01*
X201148628Y-192500057D01*
X201220057Y-192642914D01*
X201291485Y-192928628D01*
X201291485Y-193142914D01*
X201220057Y-193428628D01*
X201148628Y-193571485D01*
X201005771Y-193714342D01*
X200791485Y-193785771D01*
X200434342Y-193785771D01*
X202577200Y-193785771D02*
X202577200Y-193000057D01*
X202505771Y-192857200D01*
X202362914Y-192785771D01*
X202077200Y-192785771D01*
X201934342Y-192857200D01*
X202577200Y-193714342D02*
X202434342Y-193785771D01*
X202077200Y-193785771D01*
X201934342Y-193714342D01*
X201862914Y-193571485D01*
X201862914Y-193428628D01*
X201934342Y-193285771D01*
X202077200Y-193214342D01*
X202434342Y-193214342D01*
X202577200Y-193142914D01*
X203077200Y-192785771D02*
X203648628Y-192785771D01*
X203291485Y-192285771D02*
X203291485Y-193571485D01*
X203362914Y-193714342D01*
X203505771Y-193785771D01*
X203648628Y-193785771D01*
X204720057Y-193714342D02*
X204577200Y-193785771D01*
X204291485Y-193785771D01*
X204148628Y-193714342D01*
X204077200Y-193571485D01*
X204077200Y-193000057D01*
X204148628Y-192857200D01*
X204291485Y-192785771D01*
X204577200Y-192785771D01*
X204720057Y-192857200D01*
X204791485Y-193000057D01*
X204791485Y-193142914D01*
X204077200Y-193285771D01*
X205434342Y-193642914D02*
X205505771Y-193714342D01*
X205434342Y-193785771D01*
X205362914Y-193714342D01*
X205434342Y-193642914D01*
X205434342Y-193785771D01*
X205434342Y-192857200D02*
X205505771Y-192928628D01*
X205434342Y-193000057D01*
X205362914Y-192928628D01*
X205434342Y-192857200D01*
X205434342Y-193000057D01*
D10*
D11*
X177002200Y-194507200D02*
X285002200Y-194507200D01*
D10*
D11*
X178434342Y-196585771D02*
X178434342Y-195085771D01*
X179291485Y-196585771D02*
X178648628Y-195728628D01*
X179291485Y-195085771D02*
X178434342Y-195942914D01*
X179934342Y-196585771D02*
X179934342Y-195585771D01*
X179934342Y-195085771D02*
X179862914Y-195157200D01*
X179934342Y-195228628D01*
X180005771Y-195157200D01*
X179934342Y-195085771D01*
X179934342Y-195228628D01*
X181505771Y-196442914D02*
X181434342Y-196514342D01*
X181220057Y-196585771D01*
X181077200Y-196585771D01*
X180862914Y-196514342D01*
X180720057Y-196371485D01*
X180648628Y-196228628D01*
X180577200Y-195942914D01*
X180577200Y-195728628D01*
X180648628Y-195442914D01*
X180720057Y-195300057D01*
X180862914Y-195157200D01*
X181077200Y-195085771D01*
X181220057Y-195085771D01*
X181434342Y-195157200D01*
X181505771Y-195228628D01*
X182791485Y-196585771D02*
X182791485Y-195800057D01*
X182720057Y-195657200D01*
X182577200Y-195585771D01*
X182291485Y-195585771D01*
X182148628Y-195657200D01*
X182791485Y-196514342D02*
X182648628Y-196585771D01*
X182291485Y-196585771D01*
X182148628Y-196514342D01*
X182077200Y-196371485D01*
X182077200Y-196228628D01*
X182148628Y-196085771D01*
X182291485Y-196014342D01*
X182648628Y-196014342D01*
X182791485Y-195942914D01*
X184148628Y-196585771D02*
X184148628Y-195085771D01*
X184148628Y-196514342D02*
X184005771Y-196585771D01*
X183720057Y-196585771D01*
X183577200Y-196514342D01*
X183505771Y-196442914D01*
X183434342Y-196300057D01*
X183434342Y-195871485D01*
X183505771Y-195728628D01*
X183577200Y-195657200D01*
X183720057Y-195585771D01*
X184005771Y-195585771D01*
X184148628Y-195657200D01*
X186005771Y-195800057D02*
X186505771Y-195800057D01*
X186720057Y-196585771D02*
X186005771Y-196585771D01*
X186005771Y-195085771D01*
X186720057Y-195085771D01*
X187362914Y-196442914D02*
X187434342Y-196514342D01*
X187362914Y-196585771D01*
X187291485Y-196514342D01*
X187362914Y-196442914D01*
X187362914Y-196585771D01*
X188077200Y-196585771D02*
X188077200Y-195085771D01*
X188434342Y-195085771D01*
X188648628Y-195157200D01*
X188791485Y-195300057D01*
X188862914Y-195442914D01*
X188934342Y-195728628D01*
X188934342Y-195942914D01*
X188862914Y-196228628D01*
X188791485Y-196371485D01*
X188648628Y-196514342D01*
X188434342Y-196585771D01*
X188077200Y-196585771D01*
X189577200Y-196442914D02*
X189648628Y-196514342D01*
X189577200Y-196585771D01*
X189505771Y-196514342D01*
X189577200Y-196442914D01*
X189577200Y-196585771D01*
X190220057Y-196157200D02*
X190934342Y-196157200D01*
X190077200Y-196585771D02*
X190577200Y-195085771D01*
X191077200Y-196585771D01*
X191577200Y-196442914D02*
X191648628Y-196514342D01*
X191577200Y-196585771D01*
X191505771Y-196514342D01*
X191577200Y-196442914D01*
X191577200Y-196585771D01*
X194577200Y-196585771D02*
X194577200Y-195085771D01*
X194720057Y-196014342D02*
X195148628Y-196585771D01*
X195148628Y-195585771D02*
X194577200Y-196157200D01*
X195791485Y-196585771D02*
X195791485Y-195585771D01*
X195791485Y-195085771D02*
X195720057Y-195157200D01*
X195791485Y-195228628D01*
X195862914Y-195157200D01*
X195791485Y-195085771D01*
X195791485Y-195228628D01*
X197148628Y-196514342D02*
X197005771Y-196585771D01*
X196720057Y-196585771D01*
X196577200Y-196514342D01*
X196505771Y-196442914D01*
X196434342Y-196300057D01*
X196434342Y-195871485D01*
X196505771Y-195728628D01*
X196577200Y-195657200D01*
X196720057Y-195585771D01*
X197005771Y-195585771D01*
X197148628Y-195657200D01*
X198434342Y-196585771D02*
X198434342Y-195800057D01*
X198362914Y-195657200D01*
X198220057Y-195585771D01*
X197934342Y-195585771D01*
X197791485Y-195657200D01*
X198434342Y-196514342D02*
X198291485Y-196585771D01*
X197934342Y-196585771D01*
X197791485Y-196514342D01*
X197720057Y-196371485D01*
X197720057Y-196228628D01*
X197791485Y-196085771D01*
X197934342Y-196014342D01*
X198291485Y-196014342D01*
X198434342Y-195942914D01*
X199791485Y-196585771D02*
X199791485Y-195085771D01*
X199791485Y-196514342D02*
X199648628Y-196585771D01*
X199362914Y-196585771D01*
X199220057Y-196514342D01*
X199148628Y-196442914D01*
X199077200Y-196300057D01*
X199077200Y-195871485D01*
X199148628Y-195728628D01*
X199220057Y-195657200D01*
X199362914Y-195585771D01*
X199648628Y-195585771D01*
X199791485Y-195657200D01*
X202077200Y-197157200D02*
X202005771Y-197085771D01*
X201862914Y-196871485D01*
X201791485Y-196728628D01*
X201720057Y-196514342D01*
X201648628Y-196157200D01*
X201648628Y-195871485D01*
X201720057Y-195514342D01*
X201791485Y-195300057D01*
X201862914Y-195157200D01*
X202005771Y-194942914D01*
X202077200Y-194871485D01*
X203362914Y-195085771D02*
X202648628Y-195085771D01*
X202577200Y-195800057D01*
X202648628Y-195728628D01*
X202791485Y-195657200D01*
X203148628Y-195657200D01*
X203291485Y-195728628D01*
X203362914Y-195800057D01*
X203434342Y-195942914D01*
X203434342Y-196300057D01*
X203362914Y-196442914D01*
X203291485Y-196514342D01*
X203148628Y-196585771D01*
X202791485Y-196585771D01*
X202648628Y-196514342D01*
X202577200Y-196442914D01*
X204077200Y-196442914D02*
X204148628Y-196514342D01*
X204077200Y-196585771D01*
X204005771Y-196514342D01*
X204077200Y-196442914D01*
X204077200Y-196585771D01*
X205577200Y-196585771D02*
X204720057Y-196585771D01*
X205148628Y-196585771D02*
X205148628Y-195085771D01*
X205005771Y-195300057D01*
X204862914Y-195442914D01*
X204720057Y-195514342D01*
X206220057Y-196442914D02*
X206291485Y-196514342D01*
X206220057Y-196585771D01*
X206148628Y-196514342D01*
X206220057Y-196442914D01*
X206220057Y-196585771D01*
X206862914Y-195228628D02*
X206934342Y-195157200D01*
X207077200Y-195085771D01*
X207434342Y-195085771D01*
X207577200Y-195157200D01*
X207648628Y-195228628D01*
X207720057Y-195371485D01*
X207720057Y-195514342D01*
X207648628Y-195728628D01*
X206791485Y-196585771D01*
X207720057Y-196585771D01*
X208220057Y-197157200D02*
X208291485Y-197085771D01*
X208434342Y-196871485D01*
X208505771Y-196728628D01*
X208577200Y-196514342D01*
X208648628Y-196157200D01*
X208648628Y-195871485D01*
X208577200Y-195514342D01*
X208505771Y-195300057D01*
X208434342Y-195157200D01*
X208291485Y-194942914D01*
X208220057Y-194871485D01*
X209362914Y-196014342D02*
X210505771Y-196014342D01*
X211148628Y-195228628D02*
X211220057Y-195157200D01*
X211362914Y-195085771D01*
X211720057Y-195085771D01*
X211862914Y-195157200D01*
X211934342Y-195228628D01*
X212005771Y-195371485D01*
X212005771Y-195514342D01*
X211934342Y-195728628D01*
X211077200Y-196585771D01*
X212005771Y-196585771D01*
D10*
D11*
X177002200Y-191507200D02*
X285002200Y-191507200D01*
D10*
D12*
X264411485Y-193785771D02*
X263911485Y-193071485D01*
X263554342Y-193785771D02*
X263554342Y-192285771D01*
X264125771Y-192285771D01*
X264268628Y-192357200D01*
X264340057Y-192428628D01*
X264411485Y-192571485D01*
X264411485Y-192785771D01*
X264340057Y-192928628D01*
X264268628Y-193000057D01*
X264125771Y-193071485D01*
X263554342Y-193071485D01*
X265625771Y-193714342D02*
X265482914Y-193785771D01*
X265197200Y-193785771D01*
X265054342Y-193714342D01*
X264982914Y-193571485D01*
X264982914Y-193000057D01*
X265054342Y-192857200D01*
X265197200Y-192785771D01*
X265482914Y-192785771D01*
X265625771Y-192857200D01*
X265697200Y-193000057D01*
X265697200Y-193142914D01*
X264982914Y-193285771D01*
X266197200Y-192785771D02*
X266554342Y-193785771D01*
X266911485Y-192785771D01*
X267482914Y-193642914D02*
X267554342Y-193714342D01*
X267482914Y-193785771D01*
X267411485Y-193714342D01*
X267482914Y-193642914D01*
X267482914Y-193785771D01*
X267482914Y-192857200D02*
X267554342Y-192928628D01*
X267482914Y-193000057D01*
X267411485Y-192928628D01*
X267482914Y-192857200D01*
X267482914Y-193000057D01*
D10*
D11*
X178362914Y-193714342D02*
X178577200Y-193785771D01*
X178934342Y-193785771D01*
X179077200Y-193714342D01*
X179148628Y-193642914D01*
X179220057Y-193500057D01*
X179220057Y-193357200D01*
X179148628Y-193214342D01*
X179077200Y-193142914D01*
X178934342Y-193071485D01*
X178648628Y-193000057D01*
X178505771Y-192928628D01*
X178434342Y-192857200D01*
X178362914Y-192714342D01*
X178362914Y-192571485D01*
X178434342Y-192428628D01*
X178505771Y-192357200D01*
X178648628Y-192285771D01*
X179005771Y-192285771D01*
X179220057Y-192357200D01*
X179862914Y-193785771D02*
X179862914Y-192785771D01*
X179862914Y-192285771D02*
X179791485Y-192357200D01*
X179862914Y-192428628D01*
X179934342Y-192357200D01*
X179862914Y-192285771D01*
X179862914Y-192428628D01*
X180434342Y-192785771D02*
X181220057Y-192785771D01*
X180434342Y-193785771D01*
X181220057Y-193785771D01*
X182362914Y-193714342D02*
X182220057Y-193785771D01*
X181934342Y-193785771D01*
X181791485Y-193714342D01*
X181720057Y-193571485D01*
X181720057Y-193000057D01*
X181791485Y-192857200D01*
X181934342Y-192785771D01*
X182220057Y-192785771D01*
X182362914Y-192857200D01*
X182434342Y-193000057D01*
X182434342Y-193142914D01*
X181720057Y-193285771D01*
X183077200Y-193642914D02*
X183148628Y-193714342D01*
X183077200Y-193785771D01*
X183005771Y-193714342D01*
X183077200Y-193642914D01*
X183077200Y-193785771D01*
X183077200Y-192857200D02*
X183148628Y-192928628D01*
X183077200Y-193000057D01*
X183005771Y-192928628D01*
X183077200Y-192857200D01*
X183077200Y-193000057D01*
X184862914Y-193357200D02*
X185577200Y-193357200D01*
X184720057Y-193785771D02*
X185220057Y-192285771D01*
X185720057Y-193785771D01*
X186862914Y-192785771D02*
X186862914Y-193785771D01*
X186505771Y-192214342D02*
X186148628Y-193285771D01*
X187077200Y-193285771D01*
D10*
D11*
X263434342Y-196585771D02*
X263434342Y-195085771D01*
X264791485Y-196585771D02*
X264791485Y-195085771D01*
X264791485Y-196514342D02*
X264648628Y-196585771D01*
X264362914Y-196585771D01*
X264220057Y-196514342D01*
X264148628Y-196442914D01*
X264077200Y-196300057D01*
X264077200Y-195871485D01*
X264148628Y-195728628D01*
X264220057Y-195657200D01*
X264362914Y-195585771D01*
X264648628Y-195585771D01*
X264791485Y-195657200D01*
X265505771Y-196442914D02*
X265577200Y-196514342D01*
X265505771Y-196585771D01*
X265434342Y-196514342D01*
X265505771Y-196442914D01*
X265505771Y-196585771D01*
X265505771Y-195657200D02*
X265577200Y-195728628D01*
X265505771Y-195800057D01*
X265434342Y-195728628D01*
X265505771Y-195657200D01*
X265505771Y-195800057D01*
X268148628Y-196585771D02*
X267291485Y-196585771D01*
X267720057Y-196585771D02*
X267720057Y-195085771D01*
X267577200Y-195300057D01*
X267434342Y-195442914D01*
X267291485Y-195514342D01*
X269862914Y-195014342D02*
X268577200Y-196942914D01*
X271148628Y-196585771D02*
X270291485Y-196585771D01*
X270720057Y-196585771D02*
X270720057Y-195085771D01*
X270577200Y-195300057D01*
X270434342Y-195442914D01*
X270291485Y-195514342D01*
D10*
D11*
X177002200Y-187507200D02*
X285002200Y-187507200D01*
D10*
D13*
X178714580Y-188211961D02*
X179857438Y-188211961D01*
X179036009Y-190211961D02*
X179286009Y-188211961D01*
X180274104Y-190211961D02*
X180440771Y-188878628D01*
X180524104Y-188211961D02*
X180416961Y-188307200D01*
X180500295Y-188402438D01*
X180607438Y-188307200D01*
X180524104Y-188211961D01*
X180500295Y-188402438D01*
X181107438Y-188878628D02*
X181869342Y-188878628D01*
X181476485Y-188211961D02*
X181262200Y-189926247D01*
X181333628Y-190116723D01*
X181512200Y-190211961D01*
X181702676Y-190211961D01*
X182655057Y-190211961D02*
X182476485Y-190116723D01*
X182405057Y-189926247D01*
X182619342Y-188211961D01*
X184190771Y-190116723D02*
X183988390Y-190211961D01*
X183607438Y-190211961D01*
X183428866Y-190116723D01*
X183357438Y-189926247D01*
X183452676Y-189164342D01*
X183571723Y-188973866D01*
X183774104Y-188878628D01*
X184155057Y-188878628D01*
X184333628Y-188973866D01*
X184405057Y-189164342D01*
X184381247Y-189354819D01*
X183405057Y-189545295D01*
X185155057Y-190021485D02*
X185238390Y-190116723D01*
X185131247Y-190211961D01*
X185047914Y-190116723D01*
X185155057Y-190021485D01*
X185131247Y-190211961D01*
X185286009Y-188973866D02*
X185369342Y-189069104D01*
X185262200Y-189164342D01*
X185178866Y-189069104D01*
X185286009Y-188973866D01*
X185262200Y-189164342D01*
D10*
D11*
X178934342Y-185600057D02*
X178434342Y-185600057D01*
X178434342Y-186385771D02*
X178434342Y-184885771D01*
X179148628Y-184885771D01*
X179720057Y-186385771D02*
X179720057Y-185385771D01*
X179720057Y-184885771D02*
X179648628Y-184957200D01*
X179720057Y-185028628D01*
X179791485Y-184957200D01*
X179720057Y-184885771D01*
X179720057Y-185028628D01*
X180648628Y-186385771D02*
X180505771Y-186314342D01*
X180434342Y-186171485D01*
X180434342Y-184885771D01*
X181791485Y-186314342D02*
X181648628Y-186385771D01*
X181362914Y-186385771D01*
X181220057Y-186314342D01*
X181148628Y-186171485D01*
X181148628Y-185600057D01*
X181220057Y-185457200D01*
X181362914Y-185385771D01*
X181648628Y-185385771D01*
X181791485Y-185457200D01*
X181862914Y-185600057D01*
X181862914Y-185742914D01*
X181148628Y-185885771D01*
X182505771Y-186242914D02*
X182577200Y-186314342D01*
X182505771Y-186385771D01*
X182434342Y-186314342D01*
X182505771Y-186242914D01*
X182505771Y-186385771D01*
X182505771Y-185457200D02*
X182577200Y-185528628D01*
X182505771Y-185600057D01*
X182434342Y-185528628D01*
X182505771Y-185457200D01*
X182505771Y-185600057D01*
X184362914Y-186385771D02*
X184362914Y-184885771D01*
X184934342Y-184885771D01*
X185077200Y-184957200D01*
X185148628Y-185028628D01*
X185220057Y-185171485D01*
X185220057Y-185385771D01*
X185148628Y-185528628D01*
X185077200Y-185600057D01*
X184934342Y-185671485D01*
X184362914Y-185671485D01*
X186720057Y-186242914D02*
X186648628Y-186314342D01*
X186434342Y-186385771D01*
X186291485Y-186385771D01*
X186077200Y-186314342D01*
X185934342Y-186171485D01*
X185862914Y-186028628D01*
X185791485Y-185742914D01*
X185791485Y-185528628D01*
X185862914Y-185242914D01*
X185934342Y-185100057D01*
X186077200Y-184957200D01*
X186291485Y-184885771D01*
X186434342Y-184885771D01*
X186648628Y-184957200D01*
X186720057Y-185028628D01*
X187862914Y-185600057D02*
X188077200Y-185671485D01*
X188148628Y-185742914D01*
X188220057Y-185885771D01*
X188220057Y-186100057D01*
X188148628Y-186242914D01*
X188077200Y-186314342D01*
X187934342Y-186385771D01*
X187362914Y-186385771D01*
X187362914Y-184885771D01*
X187862914Y-184885771D01*
X188005771Y-184957200D01*
X188077200Y-185028628D01*
X188148628Y-185171485D01*
X188148628Y-185314342D01*
X188077200Y-185457200D01*
X188005771Y-185528628D01*
X187862914Y-185600057D01*
X187362914Y-185600057D01*
X188862914Y-186242914D02*
X188934342Y-186314342D01*
X188862914Y-186385771D01*
X188791485Y-186314342D01*
X188862914Y-186242914D01*
X188862914Y-186385771D01*
X189577200Y-186385771D02*
X189577200Y-184885771D01*
X189720057Y-185814342D02*
X190148628Y-186385771D01*
X190148628Y-185385771D02*
X189577200Y-185957200D01*
X190791485Y-186385771D02*
X190791485Y-185385771D01*
X190791485Y-184885771D02*
X190720057Y-184957200D01*
X190791485Y-185028628D01*
X190862914Y-184957200D01*
X190791485Y-184885771D01*
X190791485Y-185028628D01*
X192148628Y-186314342D02*
X192005771Y-186385771D01*
X191720057Y-186385771D01*
X191577200Y-186314342D01*
X191505771Y-186242914D01*
X191434342Y-186100057D01*
X191434342Y-185671485D01*
X191505771Y-185528628D01*
X191577200Y-185457200D01*
X191720057Y-185385771D01*
X192005771Y-185385771D01*
X192148628Y-185457200D01*
X193434342Y-186385771D02*
X193434342Y-185600057D01*
X193362914Y-185457200D01*
X193220057Y-185385771D01*
X192934342Y-185385771D01*
X192791485Y-185457200D01*
X193434342Y-186314342D02*
X193291485Y-186385771D01*
X192934342Y-186385771D01*
X192791485Y-186314342D01*
X192720057Y-186171485D01*
X192720057Y-186028628D01*
X192791485Y-185885771D01*
X192934342Y-185814342D01*
X193291485Y-185814342D01*
X193434342Y-185742914D01*
X194791485Y-186385771D02*
X194791485Y-184885771D01*
X194791485Y-186314342D02*
X194648628Y-186385771D01*
X194362914Y-186385771D01*
X194220057Y-186314342D01*
X194148628Y-186242914D01*
X194077200Y-186100057D01*
X194077200Y-185671485D01*
X194148628Y-185528628D01*
X194220057Y-185457200D01*
X194362914Y-185385771D01*
X194648628Y-185385771D01*
X194791485Y-185457200D01*
X195148628Y-186528628D02*
X196291485Y-186528628D01*
X196648628Y-185385771D02*
X196648628Y-186885771D01*
X196648628Y-185457200D02*
X196791485Y-185385771D01*
X197077200Y-185385771D01*
X197220057Y-185457200D01*
X197291485Y-185528628D01*
X197362914Y-185671485D01*
X197362914Y-186100057D01*
X197291485Y-186242914D01*
X197220057Y-186314342D01*
X197077200Y-186385771D01*
X196791485Y-186385771D01*
X196648628Y-186314342D01*
X198648628Y-186314342D02*
X198505771Y-186385771D01*
X198220057Y-186385771D01*
X198077200Y-186314342D01*
X198005771Y-186242914D01*
X197934342Y-186100057D01*
X197934342Y-185671485D01*
X198005771Y-185528628D01*
X198077200Y-185457200D01*
X198220057Y-185385771D01*
X198505771Y-185385771D01*
X198648628Y-185457200D01*
X199291485Y-186385771D02*
X199291485Y-184885771D01*
X199291485Y-185457200D02*
X199434342Y-185385771D01*
X199720057Y-185385771D01*
X199862914Y-185457200D01*
X199934342Y-185528628D01*
X200005771Y-185671485D01*
X200005771Y-186100057D01*
X199934342Y-186242914D01*
X199862914Y-186314342D01*
X199720057Y-186385771D01*
X199434342Y-186385771D01*
X199291485Y-186314342D01*
D10*
D11*
X177002200Y-181507200D02*
X285002200Y-181507200D01*
D10*
D11*
X178362914Y-183614342D02*
X178577200Y-183685771D01*
X178934342Y-183685771D01*
X179077200Y-183614342D01*
X179148628Y-183542914D01*
X179220057Y-183400057D01*
X179220057Y-183257200D01*
X179148628Y-183114342D01*
X179077200Y-183042914D01*
X178934342Y-182971485D01*
X178648628Y-182900057D01*
X178505771Y-182828628D01*
X178434342Y-182757200D01*
X178362914Y-182614342D01*
X178362914Y-182471485D01*
X178434342Y-182328628D01*
X178505771Y-182257200D01*
X178648628Y-182185771D01*
X179005771Y-182185771D01*
X179220057Y-182257200D01*
X179862914Y-183685771D02*
X179862914Y-182185771D01*
X180505771Y-183685771D02*
X180505771Y-182900057D01*
X180434342Y-182757200D01*
X180291485Y-182685771D01*
X180077200Y-182685771D01*
X179934342Y-182757200D01*
X179862914Y-182828628D01*
X181791485Y-183614342D02*
X181648628Y-183685771D01*
X181362914Y-183685771D01*
X181220057Y-183614342D01*
X181148628Y-183471485D01*
X181148628Y-182900057D01*
X181220057Y-182757200D01*
X181362914Y-182685771D01*
X181648628Y-182685771D01*
X181791485Y-182757200D01*
X181862914Y-182900057D01*
X181862914Y-183042914D01*
X181148628Y-183185771D01*
X183077200Y-183614342D02*
X182934342Y-183685771D01*
X182648628Y-183685771D01*
X182505771Y-183614342D01*
X182434342Y-183471485D01*
X182434342Y-182900057D01*
X182505771Y-182757200D01*
X182648628Y-182685771D01*
X182934342Y-182685771D01*
X183077200Y-182757200D01*
X183148628Y-182900057D01*
X183148628Y-183042914D01*
X182434342Y-183185771D01*
X183577200Y-182685771D02*
X184148628Y-182685771D01*
X183791485Y-182185771D02*
X183791485Y-183471485D01*
X183862914Y-183614342D01*
X184005771Y-183685771D01*
X184148628Y-183685771D01*
X184648628Y-183542914D02*
X184720057Y-183614342D01*
X184648628Y-183685771D01*
X184577200Y-183614342D01*
X184648628Y-183542914D01*
X184648628Y-183685771D01*
X184648628Y-182757200D02*
X184720057Y-182828628D01*
X184648628Y-182900057D01*
X184577200Y-182828628D01*
X184648628Y-182757200D01*
X184648628Y-182900057D01*
D10*
D11*
X197002200Y-191507200D02*
X197002200Y-194507200D01*
D10*
D11*
X261002200Y-191507200D02*
X261002200Y-198007200D01*
D10*
G36*
X168876000Y-128251000D02*
G01*
X167574000Y-128251000D01*
X167574000Y-125649000D01*
X168876000Y-125649000D01*
X168876000Y-128251000D01*
X168876000Y-128251000D01*
G37*
G36*
X273025331Y-123871971D02*
G01*
X273353092Y-124007734D01*
X273648070Y-124204832D01*
X273898928Y-124455690D01*
X274096026Y-124750668D01*
X274231789Y-125078429D01*
X274301000Y-125426376D01*
X274301000Y-125781144D01*
X274231789Y-126129091D01*
X274096026Y-126456852D01*
X273898928Y-126751830D01*
X273648070Y-127002688D01*
X273353092Y-127199786D01*
X273025331Y-127335549D01*
X272677384Y-127404760D01*
X272322616Y-127404760D01*
X271974669Y-127335549D01*
X271646908Y-127199786D01*
X271351930Y-127002688D01*
X271101072Y-126751830D01*
X270903974Y-126456852D01*
X270768211Y-126129091D01*
X270699000Y-125781144D01*
X270699000Y-125426376D01*
X270768211Y-125078429D01*
X270903974Y-124750668D01*
X271101072Y-124455690D01*
X271351930Y-124204832D01*
X271646908Y-124007734D01*
X271974669Y-123871971D01*
X272322616Y-123802760D01*
X272677384Y-123802760D01*
X273025331Y-123871971D01*
X273025331Y-123871971D01*
G37*
G36*
X178525331Y-123568211D02*
G01*
X178853092Y-123703974D01*
X179148070Y-123901072D01*
X179398928Y-124151930D01*
X179596026Y-124446908D01*
X179731789Y-124774669D01*
X179801000Y-125122616D01*
X179801000Y-125477384D01*
X179731789Y-125825331D01*
X179596026Y-126153092D01*
X179398928Y-126448070D01*
X179148070Y-126698928D01*
X178853092Y-126896026D01*
X178525331Y-127031789D01*
X178177384Y-127101000D01*
X177822616Y-127101000D01*
X177474669Y-127031789D01*
X177146908Y-126896026D01*
X176851930Y-126698928D01*
X176601072Y-126448070D01*
X176403974Y-126153092D01*
X176268211Y-125825331D01*
X176199000Y-125477384D01*
X176199000Y-125122616D01*
X176268211Y-124774669D01*
X176403974Y-124446908D01*
X176601072Y-124151930D01*
X176851930Y-123901072D01*
X177146908Y-123703974D01*
X177474669Y-123568211D01*
X177822616Y-123499000D01*
X178177384Y-123499000D01*
X178525331Y-123568211D01*
X178525331Y-123568211D01*
G37*
G36*
X165758642Y-122929781D02*
G01*
X165904414Y-122990162D01*
X165904416Y-122990163D01*
X166035608Y-123077822D01*
X166147178Y-123189392D01*
X166234837Y-123320584D01*
X166234838Y-123320586D01*
X166295219Y-123466358D01*
X166326000Y-123621107D01*
X166326000Y-123778893D01*
X166295219Y-123933642D01*
X166234838Y-124079414D01*
X166234837Y-124079416D01*
X166147178Y-124210608D01*
X166035608Y-124322178D01*
X165904416Y-124409837D01*
X165904415Y-124409838D01*
X165904414Y-124409838D01*
X165758642Y-124470219D01*
X165603893Y-124501000D01*
X165446107Y-124501000D01*
X165291358Y-124470219D01*
X165145586Y-124409838D01*
X165145585Y-124409838D01*
X165145584Y-124409837D01*
X165014392Y-124322178D01*
X164902822Y-124210608D01*
X164815163Y-124079416D01*
X164815162Y-124079414D01*
X164754781Y-123933642D01*
X164724000Y-123778893D01*
X164724000Y-123621107D01*
X164754781Y-123466358D01*
X164815162Y-123320586D01*
X164815163Y-123320584D01*
X164902822Y-123189392D01*
X165014392Y-123077822D01*
X165145584Y-122990163D01*
X165145586Y-122990162D01*
X165291358Y-122929781D01*
X165446107Y-122899000D01*
X165603893Y-122899000D01*
X165758642Y-122929781D01*
X165758642Y-122929781D01*
G37*
G36*
X158758642Y-122929781D02*
G01*
X158904414Y-122990162D01*
X158904416Y-122990163D01*
X159035608Y-123077822D01*
X159147178Y-123189392D01*
X159234837Y-123320584D01*
X159234838Y-123320586D01*
X159295219Y-123466358D01*
X159326000Y-123621107D01*
X159326000Y-123778893D01*
X159295219Y-123933642D01*
X159234838Y-124079414D01*
X159234837Y-124079416D01*
X159147178Y-124210608D01*
X159035608Y-124322178D01*
X158904416Y-124409837D01*
X158904415Y-124409838D01*
X158904414Y-124409838D01*
X158758642Y-124470219D01*
X158603893Y-124501000D01*
X158446107Y-124501000D01*
X158291358Y-124470219D01*
X158145586Y-124409838D01*
X158145585Y-124409838D01*
X158145584Y-124409837D01*
X158014392Y-124322178D01*
X157902822Y-124210608D01*
X157815163Y-124079416D01*
X157815162Y-124079414D01*
X157754781Y-123933642D01*
X157724000Y-123778893D01*
X157724000Y-123621107D01*
X157754781Y-123466358D01*
X157815162Y-123320586D01*
X157815163Y-123320584D01*
X157902822Y-123189392D01*
X158014392Y-123077822D01*
X158145584Y-122990163D01*
X158145586Y-122990162D01*
X158291358Y-122929781D01*
X158446107Y-122899000D01*
X158603893Y-122899000D01*
X158758642Y-122929781D01*
X158758642Y-122929781D01*
G37*
G36*
X232189040Y-123973060D02*
G01*
X230187040Y-123973060D01*
X230187040Y-123071060D01*
X232189040Y-123071060D01*
X232189040Y-123973060D01*
X232189040Y-123973060D01*
G37*
G36*
X221589040Y-123953060D02*
G01*
X219587040Y-123953060D01*
X219587040Y-123051060D01*
X221589040Y-123051060D01*
X221589040Y-123953060D01*
X221589040Y-123953060D01*
G37*
G36*
X195366140Y-123598760D02*
G01*
X193364140Y-123598760D01*
X193364140Y-122696760D01*
X195366140Y-122696760D01*
X195366140Y-123598760D01*
X195366140Y-123598760D01*
G37*
G36*
X229189040Y-123023060D02*
G01*
X227187040Y-123023060D01*
X227187040Y-122121060D01*
X229189040Y-122121060D01*
X229189040Y-123023060D01*
X229189040Y-123023060D01*
G37*
G36*
X224589040Y-123003060D02*
G01*
X222587040Y-123003060D01*
X222587040Y-122101060D01*
X224589040Y-122101060D01*
X224589040Y-123003060D01*
X224589040Y-123003060D01*
G37*
G36*
X215229040Y-123003060D02*
G01*
X214227040Y-123003060D01*
X214227040Y-122101060D01*
X215229040Y-122101060D01*
X215229040Y-123003060D01*
X215229040Y-123003060D01*
G37*
G36*
X241139514Y-121257225D02*
G01*
X241177207Y-121268659D01*
X241211943Y-121287226D01*
X241242388Y-121312212D01*
X241267374Y-121342657D01*
X241285941Y-121377393D01*
X241297375Y-121415086D01*
X241301840Y-121460421D01*
X241301840Y-122547099D01*
X241297375Y-122592434D01*
X241285941Y-122630127D01*
X241267374Y-122664863D01*
X241242388Y-122695308D01*
X241211943Y-122720294D01*
X241177207Y-122738861D01*
X241139514Y-122750295D01*
X241094179Y-122754760D01*
X240257501Y-122754760D01*
X240212166Y-122750295D01*
X240174473Y-122738861D01*
X240139737Y-122720294D01*
X240109292Y-122695308D01*
X240084306Y-122664863D01*
X240065739Y-122630127D01*
X240054305Y-122592434D01*
X240049840Y-122547099D01*
X240049840Y-121460421D01*
X240054305Y-121415086D01*
X240065739Y-121377393D01*
X240084306Y-121342657D01*
X240109292Y-121312212D01*
X240139737Y-121287226D01*
X240174473Y-121268659D01*
X240212166Y-121257225D01*
X240257501Y-121252760D01*
X241094179Y-121252760D01*
X241139514Y-121257225D01*
X241139514Y-121257225D01*
G37*
G36*
X239089514Y-121257225D02*
G01*
X239127207Y-121268659D01*
X239161943Y-121287226D01*
X239192388Y-121312212D01*
X239217374Y-121342657D01*
X239235941Y-121377393D01*
X239247375Y-121415086D01*
X239251840Y-121460421D01*
X239251840Y-122547099D01*
X239247375Y-122592434D01*
X239235941Y-122630127D01*
X239217374Y-122664863D01*
X239192388Y-122695308D01*
X239161943Y-122720294D01*
X239127207Y-122738861D01*
X239089514Y-122750295D01*
X239044179Y-122754760D01*
X238207501Y-122754760D01*
X238162166Y-122750295D01*
X238124473Y-122738861D01*
X238089737Y-122720294D01*
X238059292Y-122695308D01*
X238034306Y-122664863D01*
X238015739Y-122630127D01*
X238004305Y-122592434D01*
X237999840Y-122547099D01*
X237999840Y-121460421D01*
X238004305Y-121415086D01*
X238015739Y-121377393D01*
X238034306Y-121342657D01*
X238059292Y-121312212D01*
X238089737Y-121287226D01*
X238124473Y-121268659D01*
X238162166Y-121257225D01*
X238207501Y-121252760D01*
X239044179Y-121252760D01*
X239089514Y-121257225D01*
X239089514Y-121257225D01*
G37*
G36*
X198366140Y-122648760D02*
G01*
X196364140Y-122648760D01*
X196364140Y-121746760D01*
X198366140Y-121746760D01*
X198366140Y-122648760D01*
X198366140Y-122648760D01*
G37*
G36*
X232189040Y-122073060D02*
G01*
X230187040Y-122073060D01*
X230187040Y-121171060D01*
X232189040Y-121171060D01*
X232189040Y-122073060D01*
X232189040Y-122073060D01*
G37*
G36*
X221589040Y-122053060D02*
G01*
X219587040Y-122053060D01*
X219587040Y-121151060D01*
X221589040Y-121151060D01*
X221589040Y-122053060D01*
X221589040Y-122053060D01*
G37*
G36*
X217229040Y-122053060D02*
G01*
X216227040Y-122053060D01*
X216227040Y-121151060D01*
X217229040Y-121151060D01*
X217229040Y-122053060D01*
X217229040Y-122053060D01*
G37*
G36*
X163776000Y-121751000D02*
G01*
X162474000Y-121751000D01*
X162474000Y-119149000D01*
X163776000Y-119149000D01*
X163776000Y-121751000D01*
X163776000Y-121751000D01*
G37*
G36*
X160776000Y-121751000D02*
G01*
X159474000Y-121751000D01*
X159474000Y-119149000D01*
X160776000Y-119149000D01*
X160776000Y-121751000D01*
X160776000Y-121751000D01*
G37*
G36*
X167776000Y-121751000D02*
G01*
X166474000Y-121751000D01*
X166474000Y-119149000D01*
X167776000Y-119149000D01*
X167776000Y-121751000D01*
X167776000Y-121751000D01*
G37*
G36*
X195366140Y-121698760D02*
G01*
X193364140Y-121698760D01*
X193364140Y-120796760D01*
X195366140Y-120796760D01*
X195366140Y-121698760D01*
X195366140Y-121698760D01*
G37*
G36*
X183580914Y-120157525D02*
G01*
X183618607Y-120168959D01*
X183653343Y-120187526D01*
X183683788Y-120212512D01*
X183708774Y-120242957D01*
X183727341Y-120277693D01*
X183738775Y-120315386D01*
X183743240Y-120360721D01*
X183743240Y-121197399D01*
X183738775Y-121242734D01*
X183727341Y-121280427D01*
X183708774Y-121315163D01*
X183683788Y-121345608D01*
X183653343Y-121370594D01*
X183618607Y-121389161D01*
X183580914Y-121400595D01*
X183535579Y-121405060D01*
X182448901Y-121405060D01*
X182403566Y-121400595D01*
X182365873Y-121389161D01*
X182331137Y-121370594D01*
X182300692Y-121345608D01*
X182275706Y-121315163D01*
X182257139Y-121280427D01*
X182245705Y-121242734D01*
X182241240Y-121197399D01*
X182241240Y-120360721D01*
X182245705Y-120315386D01*
X182257139Y-120277693D01*
X182275706Y-120242957D01*
X182300692Y-120212512D01*
X182331137Y-120187526D01*
X182365873Y-120168959D01*
X182403566Y-120157525D01*
X182448901Y-120153060D01*
X183535579Y-120153060D01*
X183580914Y-120157525D01*
X183580914Y-120157525D01*
G37*
G36*
X187700240Y-121247660D02*
G01*
X185698240Y-121247660D01*
X185698240Y-120345660D01*
X187700240Y-120345660D01*
X187700240Y-121247660D01*
X187700240Y-121247660D01*
G37*
G36*
X215229040Y-121103060D02*
G01*
X214227040Y-121103060D01*
X214227040Y-120201060D01*
X215229040Y-120201060D01*
X215229040Y-121103060D01*
X215229040Y-121103060D01*
G37*
G36*
X212566714Y-119760525D02*
G01*
X212604407Y-119771959D01*
X212639143Y-119790526D01*
X212669588Y-119815512D01*
X212694574Y-119845957D01*
X212713141Y-119880693D01*
X212724575Y-119918386D01*
X212729040Y-119963721D01*
X212729040Y-120800399D01*
X212724575Y-120845734D01*
X212713141Y-120883427D01*
X212694574Y-120918163D01*
X212669588Y-120948608D01*
X212639143Y-120973594D01*
X212604407Y-120992161D01*
X212566714Y-121003595D01*
X212521379Y-121008060D01*
X211434701Y-121008060D01*
X211389366Y-121003595D01*
X211351673Y-120992161D01*
X211316937Y-120973594D01*
X211286492Y-120948608D01*
X211261506Y-120918163D01*
X211242939Y-120883427D01*
X211231505Y-120845734D01*
X211227040Y-120800399D01*
X211227040Y-119963721D01*
X211231505Y-119918386D01*
X211242939Y-119880693D01*
X211261506Y-119845957D01*
X211286492Y-119815512D01*
X211316937Y-119790526D01*
X211351673Y-119771959D01*
X211389366Y-119760525D01*
X211434701Y-119756060D01*
X212521379Y-119756060D01*
X212566714Y-119760525D01*
X212566714Y-119760525D01*
G37*
G36*
X245289513Y-118304473D02*
G01*
X245385080Y-118313885D01*
X245630320Y-118388278D01*
X245856334Y-118509085D01*
X245907939Y-118551436D01*
X246054437Y-118671663D01*
X246174664Y-118818161D01*
X246217015Y-118869766D01*
X246337822Y-119095780D01*
X246412215Y-119341020D01*
X246437334Y-119596060D01*
X246412215Y-119851100D01*
X246337822Y-120096340D01*
X246217015Y-120322354D01*
X246209160Y-120331925D01*
X246054437Y-120520457D01*
X245907939Y-120640684D01*
X245856334Y-120683035D01*
X245856332Y-120683036D01*
X245636762Y-120800399D01*
X245630320Y-120803842D01*
X245385080Y-120878235D01*
X245332364Y-120883427D01*
X245193946Y-120897060D01*
X243066134Y-120897060D01*
X242927716Y-120883427D01*
X242875000Y-120878235D01*
X242629760Y-120803842D01*
X242623319Y-120800399D01*
X242403748Y-120683036D01*
X242403746Y-120683035D01*
X242352141Y-120640684D01*
X242205643Y-120520457D01*
X242050920Y-120331925D01*
X242043065Y-120322354D01*
X241922258Y-120096340D01*
X241847865Y-119851100D01*
X241822746Y-119596060D01*
X241847865Y-119341020D01*
X241922258Y-119095780D01*
X242043065Y-118869766D01*
X242085416Y-118818161D01*
X242205643Y-118671663D01*
X242352141Y-118551436D01*
X242403746Y-118509085D01*
X242629760Y-118388278D01*
X242875000Y-118313885D01*
X242970567Y-118304473D01*
X243066134Y-118295060D01*
X245193946Y-118295060D01*
X245289513Y-118304473D01*
X245289513Y-118304473D01*
G37*
G36*
X208379040Y-120723060D02*
G01*
X207377040Y-120723060D01*
X207377040Y-119821060D01*
X208379040Y-119821060D01*
X208379040Y-120723060D01*
X208379040Y-120723060D01*
G37*
G36*
X178763674Y-119053465D02*
G01*
X178801367Y-119064899D01*
X178836103Y-119083466D01*
X178866548Y-119108452D01*
X178891534Y-119138897D01*
X178910101Y-119173633D01*
X178921535Y-119211326D01*
X178926000Y-119256661D01*
X178926000Y-120343339D01*
X178921535Y-120388674D01*
X178910101Y-120426367D01*
X178891534Y-120461103D01*
X178866548Y-120491548D01*
X178836103Y-120516534D01*
X178801367Y-120535101D01*
X178763674Y-120546535D01*
X178718339Y-120551000D01*
X177881661Y-120551000D01*
X177836326Y-120546535D01*
X177798633Y-120535101D01*
X177763897Y-120516534D01*
X177733452Y-120491548D01*
X177708466Y-120461103D01*
X177689899Y-120426367D01*
X177678465Y-120388674D01*
X177674000Y-120343339D01*
X177674000Y-119256661D01*
X177678465Y-119211326D01*
X177689899Y-119173633D01*
X177708466Y-119138897D01*
X177733452Y-119108452D01*
X177763897Y-119083466D01*
X177798633Y-119064899D01*
X177836326Y-119053465D01*
X177881661Y-119049000D01*
X178718339Y-119049000D01*
X178763674Y-119053465D01*
X178763674Y-119053465D01*
G37*
G36*
X176713674Y-119053465D02*
G01*
X176751367Y-119064899D01*
X176786103Y-119083466D01*
X176816548Y-119108452D01*
X176841534Y-119138897D01*
X176860101Y-119173633D01*
X176871535Y-119211326D01*
X176876000Y-119256661D01*
X176876000Y-120343339D01*
X176871535Y-120388674D01*
X176860101Y-120426367D01*
X176841534Y-120461103D01*
X176816548Y-120491548D01*
X176786103Y-120516534D01*
X176751367Y-120535101D01*
X176713674Y-120546535D01*
X176668339Y-120551000D01*
X175831661Y-120551000D01*
X175786326Y-120546535D01*
X175748633Y-120535101D01*
X175713897Y-120516534D01*
X175683452Y-120491548D01*
X175658466Y-120461103D01*
X175639899Y-120426367D01*
X175628465Y-120388674D01*
X175624000Y-120343339D01*
X175624000Y-119256661D01*
X175628465Y-119211326D01*
X175639899Y-119173633D01*
X175658466Y-119138897D01*
X175683452Y-119108452D01*
X175713897Y-119083466D01*
X175748633Y-119064899D01*
X175786326Y-119053465D01*
X175831661Y-119049000D01*
X176668339Y-119049000D01*
X176713674Y-119053465D01*
X176713674Y-119053465D01*
G37*
G36*
X190700240Y-120297660D02*
G01*
X188698240Y-120297660D01*
X188698240Y-119395660D01*
X190700240Y-119395660D01*
X190700240Y-120297660D01*
X190700240Y-120297660D01*
G37*
G36*
X202681714Y-118751525D02*
G01*
X202719407Y-118762959D01*
X202754143Y-118781526D01*
X202784588Y-118806512D01*
X202809574Y-118836957D01*
X202828141Y-118871693D01*
X202839575Y-118909386D01*
X202844040Y-118954721D01*
X202844040Y-119791399D01*
X202839575Y-119836734D01*
X202828141Y-119874427D01*
X202809574Y-119909163D01*
X202784588Y-119939608D01*
X202754143Y-119964594D01*
X202719407Y-119983161D01*
X202681714Y-119994595D01*
X202636379Y-119999060D01*
X201549701Y-119999060D01*
X201504366Y-119994595D01*
X201466673Y-119983161D01*
X201431937Y-119964594D01*
X201401492Y-119939608D01*
X201376506Y-119909163D01*
X201357939Y-119874427D01*
X201346505Y-119836734D01*
X201342040Y-119791399D01*
X201342040Y-118954721D01*
X201346505Y-118909386D01*
X201357939Y-118871693D01*
X201376506Y-118836957D01*
X201401492Y-118806512D01*
X201431937Y-118781526D01*
X201466673Y-118762959D01*
X201504366Y-118751525D01*
X201549701Y-118747060D01*
X202636379Y-118747060D01*
X202681714Y-118751525D01*
X202681714Y-118751525D01*
G37*
G36*
X206379040Y-119773060D02*
G01*
X205377040Y-119773060D01*
X205377040Y-118871060D01*
X206379040Y-118871060D01*
X206379040Y-119773060D01*
X206379040Y-119773060D01*
G37*
G36*
X237051402Y-117881941D02*
G01*
X237086321Y-117892534D01*
X237118503Y-117909736D01*
X237146713Y-117932887D01*
X237169864Y-117961097D01*
X237187066Y-117993279D01*
X237197659Y-118028198D01*
X237201840Y-118070655D01*
X237201840Y-119536865D01*
X237197659Y-119579322D01*
X237187066Y-119614241D01*
X237169864Y-119646423D01*
X237146713Y-119674633D01*
X237118503Y-119697784D01*
X237086321Y-119714986D01*
X237051402Y-119725579D01*
X237008945Y-119729760D01*
X235867735Y-119729760D01*
X235825278Y-119725579D01*
X235790359Y-119714986D01*
X235758177Y-119697784D01*
X235729967Y-119674633D01*
X235706816Y-119646423D01*
X235689614Y-119614241D01*
X235679021Y-119579322D01*
X235674840Y-119536865D01*
X235674840Y-118070655D01*
X235679021Y-118028198D01*
X235689614Y-117993279D01*
X235706816Y-117961097D01*
X235729967Y-117932887D01*
X235758177Y-117909736D01*
X235790359Y-117892534D01*
X235825278Y-117881941D01*
X235867735Y-117877760D01*
X237008945Y-117877760D01*
X237051402Y-117881941D01*
X237051402Y-117881941D01*
G37*
G36*
X234076402Y-117881941D02*
G01*
X234111321Y-117892534D01*
X234143503Y-117909736D01*
X234171713Y-117932887D01*
X234194864Y-117961097D01*
X234212066Y-117993279D01*
X234222659Y-118028198D01*
X234226840Y-118070655D01*
X234226840Y-119536865D01*
X234222659Y-119579322D01*
X234212066Y-119614241D01*
X234194864Y-119646423D01*
X234171713Y-119674633D01*
X234143503Y-119697784D01*
X234111321Y-119714986D01*
X234076402Y-119725579D01*
X234033945Y-119729760D01*
X232892735Y-119729760D01*
X232850278Y-119725579D01*
X232815359Y-119714986D01*
X232783177Y-119697784D01*
X232754967Y-119674633D01*
X232731816Y-119646423D01*
X232714614Y-119614241D01*
X232704021Y-119579322D01*
X232699840Y-119536865D01*
X232699840Y-118070655D01*
X232704021Y-118028198D01*
X232714614Y-117993279D01*
X232731816Y-117961097D01*
X232754967Y-117932887D01*
X232783177Y-117909736D01*
X232815359Y-117892534D01*
X232850278Y-117881941D01*
X232892735Y-117877760D01*
X234033945Y-117877760D01*
X234076402Y-117881941D01*
X234076402Y-117881941D01*
G37*
G36*
X183580914Y-118107525D02*
G01*
X183618607Y-118118959D01*
X183653343Y-118137526D01*
X183683788Y-118162512D01*
X183708774Y-118192957D01*
X183727341Y-118227693D01*
X183738775Y-118265386D01*
X183743240Y-118310721D01*
X183743240Y-119147399D01*
X183738775Y-119192734D01*
X183727341Y-119230427D01*
X183708774Y-119265163D01*
X183683788Y-119295608D01*
X183653343Y-119320594D01*
X183618607Y-119339161D01*
X183580914Y-119350595D01*
X183535579Y-119355060D01*
X182448901Y-119355060D01*
X182403566Y-119350595D01*
X182365873Y-119339161D01*
X182331137Y-119320594D01*
X182300692Y-119295608D01*
X182275706Y-119265163D01*
X182257139Y-119230427D01*
X182245705Y-119192734D01*
X182241240Y-119147399D01*
X182241240Y-118310721D01*
X182245705Y-118265386D01*
X182257139Y-118227693D01*
X182275706Y-118192957D01*
X182300692Y-118162512D01*
X182331137Y-118137526D01*
X182365873Y-118118959D01*
X182403566Y-118107525D01*
X182448901Y-118103060D01*
X183535579Y-118103060D01*
X183580914Y-118107525D01*
X183580914Y-118107525D01*
G37*
G36*
X187700240Y-119347660D02*
G01*
X185698240Y-119347660D01*
X185698240Y-118445660D01*
X187700240Y-118445660D01*
X187700240Y-119347660D01*
X187700240Y-119347660D01*
G37*
G36*
X271191275Y-115956661D02*
G01*
X271452410Y-116008604D01*
X271734674Y-116125521D01*
X271988705Y-116295259D01*
X272204741Y-116511295D01*
X272374479Y-116765326D01*
X272489635Y-117043339D01*
X272491396Y-117047591D01*
X272551000Y-117347239D01*
X272551000Y-117652761D01*
X272533369Y-117741399D01*
X272491396Y-117952410D01*
X272374479Y-118234674D01*
X272204741Y-118488705D01*
X271988705Y-118704741D01*
X271734674Y-118874479D01*
X271452410Y-118991396D01*
X271312464Y-119019233D01*
X271152761Y-119051000D01*
X270847239Y-119051000D01*
X270687536Y-119019233D01*
X270547590Y-118991396D01*
X270265326Y-118874479D01*
X270011295Y-118704741D01*
X269795259Y-118488705D01*
X269625521Y-118234674D01*
X269508604Y-117952410D01*
X269466631Y-117741399D01*
X269449000Y-117652761D01*
X269449000Y-117347239D01*
X269508604Y-117047591D01*
X269510365Y-117043339D01*
X269625521Y-116765326D01*
X269795259Y-116511295D01*
X270011295Y-116295259D01*
X270265326Y-116125521D01*
X270547590Y-116008604D01*
X270808725Y-115956661D01*
X270847239Y-115949000D01*
X271152761Y-115949000D01*
X271191275Y-115956661D01*
X271191275Y-115956661D01*
G37*
G36*
X212566714Y-117710525D02*
G01*
X212604407Y-117721959D01*
X212639143Y-117740526D01*
X212669588Y-117765512D01*
X212694574Y-117795957D01*
X212713141Y-117830693D01*
X212724575Y-117868386D01*
X212729040Y-117913721D01*
X212729040Y-118750399D01*
X212724575Y-118795734D01*
X212713141Y-118833427D01*
X212694574Y-118868163D01*
X212669588Y-118898608D01*
X212639143Y-118923594D01*
X212604407Y-118942161D01*
X212566714Y-118953595D01*
X212521379Y-118958060D01*
X211434701Y-118958060D01*
X211389366Y-118953595D01*
X211351673Y-118942161D01*
X211316937Y-118923594D01*
X211286492Y-118898608D01*
X211261506Y-118868163D01*
X211242939Y-118833427D01*
X211231505Y-118795734D01*
X211227040Y-118750399D01*
X211227040Y-117913721D01*
X211231505Y-117868386D01*
X211242939Y-117830693D01*
X211261506Y-117795957D01*
X211286492Y-117765512D01*
X211316937Y-117740526D01*
X211351673Y-117721959D01*
X211389366Y-117710525D01*
X211434701Y-117706060D01*
X212521379Y-117706060D01*
X212566714Y-117710525D01*
X212566714Y-117710525D01*
G37*
G36*
X208379040Y-118823060D02*
G01*
X207377040Y-118823060D01*
X207377040Y-117921060D01*
X208379040Y-117921060D01*
X208379040Y-118823060D01*
X208379040Y-118823060D01*
G37*
G36*
X229421714Y-116515525D02*
G01*
X229459407Y-116526959D01*
X229494143Y-116545526D01*
X229524588Y-116570512D01*
X229549574Y-116600957D01*
X229568141Y-116635693D01*
X229579575Y-116673386D01*
X229584040Y-116718721D01*
X229584040Y-117805399D01*
X229579575Y-117850734D01*
X229568141Y-117888427D01*
X229549574Y-117923163D01*
X229524588Y-117953608D01*
X229494143Y-117978594D01*
X229459407Y-117997161D01*
X229421714Y-118008595D01*
X229376379Y-118013060D01*
X228539701Y-118013060D01*
X228494366Y-118008595D01*
X228456673Y-117997161D01*
X228421937Y-117978594D01*
X228391492Y-117953608D01*
X228366506Y-117923163D01*
X228347939Y-117888427D01*
X228336505Y-117850734D01*
X228332040Y-117805399D01*
X228332040Y-116718721D01*
X228336505Y-116673386D01*
X228347939Y-116635693D01*
X228366506Y-116600957D01*
X228391492Y-116570512D01*
X228421937Y-116545526D01*
X228456673Y-116526959D01*
X228494366Y-116515525D01*
X228539701Y-116511060D01*
X229376379Y-116511060D01*
X229421714Y-116515525D01*
X229421714Y-116515525D01*
G37*
G36*
X231471714Y-116515525D02*
G01*
X231509407Y-116526959D01*
X231544143Y-116545526D01*
X231574588Y-116570512D01*
X231599574Y-116600957D01*
X231618141Y-116635693D01*
X231629575Y-116673386D01*
X231634040Y-116718721D01*
X231634040Y-117805399D01*
X231629575Y-117850734D01*
X231618141Y-117888427D01*
X231599574Y-117923163D01*
X231574588Y-117953608D01*
X231544143Y-117978594D01*
X231509407Y-117997161D01*
X231471714Y-118008595D01*
X231426379Y-118013060D01*
X230589701Y-118013060D01*
X230544366Y-118008595D01*
X230506673Y-117997161D01*
X230471937Y-117978594D01*
X230441492Y-117953608D01*
X230416506Y-117923163D01*
X230397939Y-117888427D01*
X230386505Y-117850734D01*
X230382040Y-117805399D01*
X230382040Y-116718721D01*
X230386505Y-116673386D01*
X230397939Y-116635693D01*
X230416506Y-116600957D01*
X230441492Y-116570512D01*
X230471937Y-116545526D01*
X230506673Y-116526959D01*
X230544366Y-116515525D01*
X230589701Y-116511060D01*
X231426379Y-116511060D01*
X231471714Y-116515525D01*
X231471714Y-116515525D01*
G37*
G36*
X202681714Y-116701525D02*
G01*
X202719407Y-116712959D01*
X202754143Y-116731526D01*
X202784588Y-116756512D01*
X202809574Y-116786957D01*
X202828141Y-116821693D01*
X202839575Y-116859386D01*
X202844040Y-116904721D01*
X202844040Y-117741399D01*
X202839575Y-117786734D01*
X202828141Y-117824427D01*
X202809574Y-117859163D01*
X202784588Y-117889608D01*
X202754143Y-117914594D01*
X202719407Y-117933161D01*
X202681714Y-117944595D01*
X202636379Y-117949060D01*
X201549701Y-117949060D01*
X201504366Y-117944595D01*
X201466673Y-117933161D01*
X201431937Y-117914594D01*
X201401492Y-117889608D01*
X201376506Y-117859163D01*
X201357939Y-117824427D01*
X201346505Y-117786734D01*
X201342040Y-117741399D01*
X201342040Y-116904721D01*
X201346505Y-116859386D01*
X201357939Y-116821693D01*
X201376506Y-116786957D01*
X201401492Y-116756512D01*
X201431937Y-116731526D01*
X201466673Y-116712959D01*
X201504366Y-116701525D01*
X201549701Y-116697060D01*
X202636379Y-116697060D01*
X202681714Y-116701525D01*
X202681714Y-116701525D01*
G37*
G36*
X179938674Y-115753465D02*
G01*
X179976367Y-115764899D01*
X180011103Y-115783466D01*
X180041548Y-115808452D01*
X180066534Y-115838897D01*
X180085101Y-115873633D01*
X180096535Y-115911326D01*
X180101000Y-115956661D01*
X180101000Y-117043339D01*
X180096535Y-117088674D01*
X180085101Y-117126367D01*
X180066534Y-117161103D01*
X180041548Y-117191548D01*
X180011103Y-117216534D01*
X179976367Y-117235101D01*
X179938674Y-117246535D01*
X179893339Y-117251000D01*
X179056661Y-117251000D01*
X179011326Y-117246535D01*
X178973633Y-117235101D01*
X178938897Y-117216534D01*
X178908452Y-117191548D01*
X178883466Y-117161103D01*
X178864899Y-117126367D01*
X178853465Y-117088674D01*
X178849000Y-117043339D01*
X178849000Y-115956661D01*
X178853465Y-115911326D01*
X178864899Y-115873633D01*
X178883466Y-115838897D01*
X178908452Y-115808452D01*
X178938897Y-115783466D01*
X178973633Y-115764899D01*
X179011326Y-115753465D01*
X179056661Y-115749000D01*
X179893339Y-115749000D01*
X179938674Y-115753465D01*
X179938674Y-115753465D01*
G37*
G36*
X181988674Y-115753465D02*
G01*
X182026367Y-115764899D01*
X182061103Y-115783466D01*
X182091548Y-115808452D01*
X182116534Y-115838897D01*
X182135101Y-115873633D01*
X182146535Y-115911326D01*
X182151000Y-115956661D01*
X182151000Y-117043339D01*
X182146535Y-117088674D01*
X182135101Y-117126367D01*
X182116534Y-117161103D01*
X182091548Y-117191548D01*
X182061103Y-117216534D01*
X182026367Y-117235101D01*
X181988674Y-117246535D01*
X181943339Y-117251000D01*
X181106661Y-117251000D01*
X181061326Y-117246535D01*
X181023633Y-117235101D01*
X180988897Y-117216534D01*
X180958452Y-117191548D01*
X180933466Y-117161103D01*
X180914899Y-117126367D01*
X180903465Y-117088674D01*
X180899000Y-117043339D01*
X180899000Y-115956661D01*
X180903465Y-115911326D01*
X180914899Y-115873633D01*
X180933466Y-115838897D01*
X180958452Y-115808452D01*
X180988897Y-115783466D01*
X181023633Y-115764899D01*
X181061326Y-115753465D01*
X181106661Y-115749000D01*
X181943339Y-115749000D01*
X181988674Y-115753465D01*
X181988674Y-115753465D01*
G37*
G36*
X175951000Y-117151000D02*
G01*
X174049000Y-117151000D01*
X174049000Y-115249000D01*
X175951000Y-115249000D01*
X175951000Y-117151000D01*
X175951000Y-117151000D01*
G37*
G36*
X185284740Y-117039060D02*
G01*
X184382740Y-117039060D01*
X184382740Y-115037060D01*
X185284740Y-115037060D01*
X185284740Y-117039060D01*
X185284740Y-117039060D01*
G37*
G36*
X167034840Y-117013660D02*
G01*
X166132840Y-117013660D01*
X166132840Y-115011660D01*
X167034840Y-115011660D01*
X167034840Y-117013660D01*
X167034840Y-117013660D01*
G37*
G36*
X194325114Y-115008725D02*
G01*
X194362807Y-115020159D01*
X194397543Y-115038726D01*
X194427988Y-115063712D01*
X194452974Y-115094157D01*
X194471541Y-115128893D01*
X194482975Y-115166586D01*
X194487440Y-115211921D01*
X194487440Y-116048599D01*
X194482975Y-116093934D01*
X194471541Y-116131627D01*
X194452974Y-116166363D01*
X194427988Y-116196808D01*
X194397543Y-116221794D01*
X194362807Y-116240361D01*
X194325114Y-116251795D01*
X194279779Y-116256260D01*
X193193101Y-116256260D01*
X193147766Y-116251795D01*
X193110073Y-116240361D01*
X193075337Y-116221794D01*
X193044892Y-116196808D01*
X193019906Y-116166363D01*
X193001339Y-116131627D01*
X192989905Y-116093934D01*
X192985440Y-116048599D01*
X192985440Y-115211921D01*
X192989905Y-115166586D01*
X193001339Y-115128893D01*
X193019906Y-115094157D01*
X193044892Y-115063712D01*
X193075337Y-115038726D01*
X193110073Y-115020159D01*
X193147766Y-115008725D01*
X193193101Y-115004260D01*
X194279779Y-115004260D01*
X194325114Y-115008725D01*
X194325114Y-115008725D01*
G37*
G36*
X220701714Y-114685525D02*
G01*
X220739407Y-114696959D01*
X220774143Y-114715526D01*
X220804588Y-114740512D01*
X220829574Y-114770957D01*
X220848141Y-114805693D01*
X220859575Y-114843386D01*
X220864040Y-114888721D01*
X220864040Y-115975399D01*
X220859575Y-116020734D01*
X220848141Y-116058427D01*
X220829574Y-116093163D01*
X220804588Y-116123608D01*
X220774143Y-116148594D01*
X220739407Y-116167161D01*
X220701714Y-116178595D01*
X220656379Y-116183060D01*
X219819701Y-116183060D01*
X219774366Y-116178595D01*
X219736673Y-116167161D01*
X219701937Y-116148594D01*
X219671492Y-116123608D01*
X219646506Y-116093163D01*
X219627939Y-116058427D01*
X219616505Y-116020734D01*
X219612040Y-115975399D01*
X219612040Y-114888721D01*
X219616505Y-114843386D01*
X219627939Y-114805693D01*
X219646506Y-114770957D01*
X219671492Y-114740512D01*
X219701937Y-114715526D01*
X219736673Y-114696959D01*
X219774366Y-114685525D01*
X219819701Y-114681060D01*
X220656379Y-114681060D01*
X220701714Y-114685525D01*
X220701714Y-114685525D01*
G37*
G36*
X222751714Y-114685525D02*
G01*
X222789407Y-114696959D01*
X222824143Y-114715526D01*
X222854588Y-114740512D01*
X222879574Y-114770957D01*
X222898141Y-114805693D01*
X222909575Y-114843386D01*
X222914040Y-114888721D01*
X222914040Y-115975399D01*
X222909575Y-116020734D01*
X222898141Y-116058427D01*
X222879574Y-116093163D01*
X222854588Y-116123608D01*
X222824143Y-116148594D01*
X222789407Y-116167161D01*
X222751714Y-116178595D01*
X222706379Y-116183060D01*
X221869701Y-116183060D01*
X221824366Y-116178595D01*
X221786673Y-116167161D01*
X221751937Y-116148594D01*
X221721492Y-116123608D01*
X221696506Y-116093163D01*
X221677939Y-116058427D01*
X221666505Y-116020734D01*
X221662040Y-115975399D01*
X221662040Y-114888721D01*
X221666505Y-114843386D01*
X221677939Y-114805693D01*
X221696506Y-114770957D01*
X221721492Y-114740512D01*
X221751937Y-114715526D01*
X221786673Y-114696959D01*
X221824366Y-114685525D01*
X221869701Y-114681060D01*
X222706379Y-114681060D01*
X222751714Y-114685525D01*
X222751714Y-114685525D01*
G37*
G36*
X234749040Y-116163060D02*
G01*
X233847040Y-116163060D01*
X233847040Y-114161060D01*
X234749040Y-114161060D01*
X234749040Y-116163060D01*
X234749040Y-116163060D01*
G37*
G36*
X236649040Y-116163060D02*
G01*
X235747040Y-116163060D01*
X235747040Y-114161060D01*
X236649040Y-114161060D01*
X236649040Y-116163060D01*
X236649040Y-116163060D01*
G37*
G36*
X216469040Y-116103060D02*
G01*
X215567040Y-116103060D01*
X215567040Y-114101060D01*
X216469040Y-114101060D01*
X216469040Y-116103060D01*
X216469040Y-116103060D01*
G37*
G36*
X260479840Y-115720760D02*
G01*
X257377840Y-115720760D01*
X257377840Y-112618760D01*
X260479840Y-112618760D01*
X260479840Y-115720760D01*
X260479840Y-115720760D01*
G37*
G36*
X245289512Y-112854472D02*
G01*
X245385080Y-112863885D01*
X245630320Y-112938278D01*
X245630322Y-112938279D01*
X245656757Y-112952409D01*
X245856334Y-113059085D01*
X245898076Y-113093342D01*
X246054437Y-113221663D01*
X246174664Y-113368161D01*
X246217015Y-113419766D01*
X246337822Y-113645780D01*
X246412215Y-113891020D01*
X246437334Y-114146060D01*
X246412215Y-114401100D01*
X246337822Y-114646340D01*
X246217015Y-114872354D01*
X246174664Y-114923959D01*
X246054437Y-115070457D01*
X245928763Y-115173594D01*
X245856334Y-115233035D01*
X245630320Y-115353842D01*
X245385080Y-115428235D01*
X245289512Y-115437648D01*
X245193946Y-115447060D01*
X243066134Y-115447060D01*
X242970568Y-115437648D01*
X242875000Y-115428235D01*
X242629760Y-115353842D01*
X242403746Y-115233035D01*
X242331317Y-115173594D01*
X242205643Y-115070457D01*
X242085416Y-114923959D01*
X242043065Y-114872354D01*
X241922258Y-114646340D01*
X241847865Y-114401100D01*
X241822746Y-114146060D01*
X241847865Y-113891020D01*
X241922258Y-113645780D01*
X242043065Y-113419766D01*
X242085416Y-113368161D01*
X242205643Y-113221663D01*
X242362004Y-113093342D01*
X242403746Y-113059085D01*
X242603323Y-112952409D01*
X242629758Y-112938279D01*
X242629760Y-112938278D01*
X242875000Y-112863885D01*
X242970568Y-112854472D01*
X243066134Y-112845060D01*
X245193946Y-112845060D01*
X245289512Y-112854472D01*
X245289512Y-112854472D01*
G37*
G36*
X211156714Y-114010525D02*
G01*
X211194407Y-114021959D01*
X211229143Y-114040526D01*
X211259588Y-114065512D01*
X211284574Y-114095957D01*
X211303141Y-114130693D01*
X211314575Y-114168386D01*
X211319040Y-114213721D01*
X211319040Y-115050399D01*
X211314575Y-115095734D01*
X211303141Y-115133427D01*
X211284574Y-115168163D01*
X211259588Y-115198608D01*
X211229143Y-115223594D01*
X211194407Y-115242161D01*
X211156714Y-115253595D01*
X211111379Y-115258060D01*
X210024701Y-115258060D01*
X209979366Y-115253595D01*
X209941673Y-115242161D01*
X209906937Y-115223594D01*
X209876492Y-115198608D01*
X209851506Y-115168163D01*
X209832939Y-115133427D01*
X209821505Y-115095734D01*
X209817040Y-115050399D01*
X209817040Y-114213721D01*
X209821505Y-114168386D01*
X209832939Y-114130693D01*
X209851506Y-114095957D01*
X209876492Y-114065512D01*
X209906937Y-114040526D01*
X209941673Y-114021959D01*
X209979366Y-114010525D01*
X210024701Y-114006060D01*
X211111379Y-114006060D01*
X211156714Y-114010525D01*
X211156714Y-114010525D01*
G37*
G36*
X207306714Y-113960525D02*
G01*
X207344407Y-113971959D01*
X207379143Y-113990526D01*
X207409588Y-114015512D01*
X207434574Y-114045957D01*
X207453141Y-114080693D01*
X207464575Y-114118386D01*
X207469040Y-114163721D01*
X207469040Y-115000399D01*
X207464575Y-115045734D01*
X207453141Y-115083427D01*
X207434574Y-115118163D01*
X207409588Y-115148608D01*
X207379143Y-115173594D01*
X207344407Y-115192161D01*
X207306714Y-115203595D01*
X207261379Y-115208060D01*
X206174701Y-115208060D01*
X206129366Y-115203595D01*
X206091673Y-115192161D01*
X206056937Y-115173594D01*
X206026492Y-115148608D01*
X206001506Y-115118163D01*
X205982939Y-115083427D01*
X205971505Y-115045734D01*
X205967040Y-115000399D01*
X205967040Y-114163721D01*
X205971505Y-114118386D01*
X205982939Y-114080693D01*
X206001506Y-114045957D01*
X206026492Y-114015512D01*
X206056937Y-113990526D01*
X206091673Y-113971959D01*
X206129366Y-113960525D01*
X206174701Y-113956060D01*
X207261379Y-113956060D01*
X207306714Y-113960525D01*
X207306714Y-113960525D01*
G37*
G36*
X202681714Y-113916525D02*
G01*
X202719407Y-113927959D01*
X202754143Y-113946526D01*
X202784588Y-113971512D01*
X202809574Y-114001957D01*
X202828141Y-114036693D01*
X202839575Y-114074386D01*
X202844040Y-114119721D01*
X202844040Y-114956399D01*
X202839575Y-115001734D01*
X202828141Y-115039427D01*
X202809574Y-115074163D01*
X202784588Y-115104608D01*
X202754143Y-115129594D01*
X202719407Y-115148161D01*
X202681714Y-115159595D01*
X202636379Y-115164060D01*
X201549701Y-115164060D01*
X201504366Y-115159595D01*
X201466673Y-115148161D01*
X201431937Y-115129594D01*
X201401492Y-115104608D01*
X201376506Y-115074163D01*
X201357939Y-115039427D01*
X201346505Y-115001734D01*
X201342040Y-114956399D01*
X201342040Y-114119721D01*
X201346505Y-114074386D01*
X201357939Y-114036693D01*
X201376506Y-114001957D01*
X201401492Y-113971512D01*
X201431937Y-113946526D01*
X201466673Y-113927959D01*
X201504366Y-113916525D01*
X201549701Y-113912060D01*
X202636379Y-113912060D01*
X202681714Y-113916525D01*
X202681714Y-113916525D01*
G37*
G36*
X175277395Y-112745546D02*
G01*
X175450466Y-112817234D01*
X175450467Y-112817235D01*
X175606227Y-112921310D01*
X175738690Y-113053773D01*
X175771622Y-113103060D01*
X175842766Y-113209534D01*
X175914454Y-113382605D01*
X175951000Y-113566333D01*
X175951000Y-113753667D01*
X175914454Y-113937395D01*
X175842766Y-114110466D01*
X175828955Y-114131135D01*
X175738690Y-114266227D01*
X175606227Y-114398690D01*
X175602620Y-114401100D01*
X175450466Y-114502766D01*
X175277395Y-114574454D01*
X175093667Y-114611000D01*
X174906333Y-114611000D01*
X174722605Y-114574454D01*
X174549534Y-114502766D01*
X174397380Y-114401100D01*
X174393773Y-114398690D01*
X174261310Y-114266227D01*
X174171045Y-114131135D01*
X174157234Y-114110466D01*
X174085546Y-113937395D01*
X174049000Y-113753667D01*
X174049000Y-113566333D01*
X174085546Y-113382605D01*
X174157234Y-113209534D01*
X174228378Y-113103060D01*
X174261310Y-113053773D01*
X174393773Y-112921310D01*
X174549533Y-112817235D01*
X174549534Y-112817234D01*
X174722605Y-112745546D01*
X174906333Y-112709000D01*
X175093667Y-112709000D01*
X175277395Y-112745546D01*
X175277395Y-112745546D01*
G37*
G36*
X194325114Y-112958725D02*
G01*
X194362807Y-112970159D01*
X194397543Y-112988726D01*
X194427988Y-113013712D01*
X194452974Y-113044157D01*
X194471541Y-113078893D01*
X194482975Y-113116586D01*
X194487440Y-113161921D01*
X194487440Y-113998599D01*
X194482975Y-114043934D01*
X194471541Y-114081627D01*
X194452974Y-114116363D01*
X194427988Y-114146808D01*
X194397543Y-114171794D01*
X194362807Y-114190361D01*
X194325114Y-114201795D01*
X194279779Y-114206260D01*
X193193101Y-114206260D01*
X193147766Y-114201795D01*
X193110073Y-114190361D01*
X193075337Y-114171794D01*
X193044892Y-114146808D01*
X193019906Y-114116363D01*
X193001339Y-114081627D01*
X192989905Y-114043934D01*
X192985440Y-113998599D01*
X192985440Y-113161921D01*
X192989905Y-113116586D01*
X193001339Y-113078893D01*
X193019906Y-113044157D01*
X193044892Y-113013712D01*
X193075337Y-112988726D01*
X193110073Y-112970159D01*
X193147766Y-112958725D01*
X193193101Y-112954260D01*
X194279779Y-112954260D01*
X194325114Y-112958725D01*
X194325114Y-112958725D01*
G37*
G36*
X271302585Y-110978802D02*
G01*
X271452410Y-111008604D01*
X271734674Y-111125521D01*
X271988705Y-111295259D01*
X272204741Y-111511295D01*
X272374479Y-111765326D01*
X272491396Y-112047590D01*
X272551000Y-112347240D01*
X272551000Y-112652760D01*
X272491396Y-112952410D01*
X272374479Y-113234674D01*
X272204741Y-113488705D01*
X271988705Y-113704741D01*
X271734674Y-113874479D01*
X271452410Y-113991396D01*
X271356242Y-114010525D01*
X271152761Y-114051000D01*
X270847239Y-114051000D01*
X270643758Y-114010525D01*
X270547590Y-113991396D01*
X270265326Y-113874479D01*
X270011295Y-113704741D01*
X269795259Y-113488705D01*
X269625521Y-113234674D01*
X269508604Y-112952410D01*
X269449000Y-112652760D01*
X269449000Y-112347240D01*
X269508604Y-112047590D01*
X269625521Y-111765326D01*
X269795259Y-111511295D01*
X270011295Y-111295259D01*
X270265326Y-111125521D01*
X270547590Y-111008604D01*
X270697415Y-110978802D01*
X270847239Y-110949000D01*
X271152761Y-110949000D01*
X271302585Y-110978802D01*
X271302585Y-110978802D01*
G37*
G36*
X186234740Y-114039060D02*
G01*
X185332740Y-114039060D01*
X185332740Y-112037060D01*
X186234740Y-112037060D01*
X186234740Y-114039060D01*
X186234740Y-114039060D01*
G37*
G36*
X184334740Y-114039060D02*
G01*
X183432740Y-114039060D01*
X183432740Y-112037060D01*
X184334740Y-112037060D01*
X184334740Y-114039060D01*
X184334740Y-114039060D01*
G37*
G36*
X166084840Y-114013660D02*
G01*
X165182840Y-114013660D01*
X165182840Y-112011660D01*
X166084840Y-112011660D01*
X166084840Y-114013660D01*
X166084840Y-114013660D01*
G37*
G36*
X167984840Y-114013660D02*
G01*
X167082840Y-114013660D01*
X167082840Y-112011660D01*
X167984840Y-112011660D01*
X167984840Y-114013660D01*
X167984840Y-114013660D01*
G37*
G36*
X211156714Y-111960525D02*
G01*
X211194407Y-111971959D01*
X211229143Y-111990526D01*
X211259588Y-112015512D01*
X211284574Y-112045957D01*
X211303141Y-112080693D01*
X211314575Y-112118386D01*
X211319040Y-112163721D01*
X211319040Y-113000399D01*
X211314575Y-113045734D01*
X211303141Y-113083427D01*
X211284574Y-113118163D01*
X211259588Y-113148608D01*
X211229143Y-113173594D01*
X211194407Y-113192161D01*
X211156714Y-113203595D01*
X211111379Y-113208060D01*
X210024701Y-113208060D01*
X209979366Y-113203595D01*
X209941673Y-113192161D01*
X209906937Y-113173594D01*
X209876492Y-113148608D01*
X209851506Y-113118163D01*
X209832939Y-113083427D01*
X209821505Y-113045734D01*
X209817040Y-113000399D01*
X209817040Y-112163721D01*
X209821505Y-112118386D01*
X209832939Y-112080693D01*
X209851506Y-112045957D01*
X209876492Y-112015512D01*
X209906937Y-111990526D01*
X209941673Y-111971959D01*
X209979366Y-111960525D01*
X210024701Y-111956060D01*
X211111379Y-111956060D01*
X211156714Y-111960525D01*
X211156714Y-111960525D01*
G37*
G36*
X225989040Y-113193060D02*
G01*
X224987040Y-113193060D01*
X224987040Y-112291060D01*
X225989040Y-112291060D01*
X225989040Y-113193060D01*
X225989040Y-113193060D01*
G37*
G36*
X235699040Y-113163060D02*
G01*
X234797040Y-113163060D01*
X234797040Y-111161060D01*
X235699040Y-111161060D01*
X235699040Y-113163060D01*
X235699040Y-113163060D01*
G37*
G36*
X207306714Y-111910525D02*
G01*
X207344407Y-111921959D01*
X207379143Y-111940526D01*
X207409588Y-111965512D01*
X207434574Y-111995957D01*
X207453141Y-112030693D01*
X207464575Y-112068386D01*
X207469040Y-112113721D01*
X207469040Y-112950399D01*
X207464575Y-112995734D01*
X207453141Y-113033427D01*
X207434574Y-113068163D01*
X207409588Y-113098608D01*
X207379143Y-113123594D01*
X207344407Y-113142161D01*
X207306714Y-113153595D01*
X207261379Y-113158060D01*
X206174701Y-113158060D01*
X206129366Y-113153595D01*
X206091673Y-113142161D01*
X206056937Y-113123594D01*
X206026492Y-113098608D01*
X206001506Y-113068163D01*
X205982939Y-113033427D01*
X205971505Y-112995734D01*
X205967040Y-112950399D01*
X205967040Y-112113721D01*
X205971505Y-112068386D01*
X205982939Y-112030693D01*
X206001506Y-111995957D01*
X206026492Y-111965512D01*
X206056937Y-111940526D01*
X206091673Y-111921959D01*
X206129366Y-111910525D01*
X206174701Y-111906060D01*
X207261379Y-111906060D01*
X207306714Y-111910525D01*
X207306714Y-111910525D01*
G37*
G36*
X202681714Y-111866525D02*
G01*
X202719407Y-111877959D01*
X202754143Y-111896526D01*
X202784588Y-111921512D01*
X202809574Y-111951957D01*
X202828141Y-111986693D01*
X202839575Y-112024386D01*
X202844040Y-112069721D01*
X202844040Y-112906399D01*
X202839575Y-112951734D01*
X202828141Y-112989427D01*
X202809574Y-113024163D01*
X202784588Y-113054608D01*
X202754143Y-113079594D01*
X202719407Y-113098161D01*
X202681714Y-113109595D01*
X202636379Y-113114060D01*
X201549701Y-113114060D01*
X201504366Y-113109595D01*
X201466673Y-113098161D01*
X201431937Y-113079594D01*
X201401492Y-113054608D01*
X201376506Y-113024163D01*
X201357939Y-112989427D01*
X201346505Y-112951734D01*
X201342040Y-112906399D01*
X201342040Y-112069721D01*
X201346505Y-112024386D01*
X201357939Y-111986693D01*
X201376506Y-111951957D01*
X201401492Y-111921512D01*
X201431937Y-111896526D01*
X201466673Y-111877959D01*
X201504366Y-111866525D01*
X201549701Y-111862060D01*
X202636379Y-111862060D01*
X202681714Y-111866525D01*
X202681714Y-111866525D01*
G37*
G36*
X217419040Y-113103060D02*
G01*
X216517040Y-113103060D01*
X216517040Y-111101060D01*
X217419040Y-111101060D01*
X217419040Y-113103060D01*
X217419040Y-113103060D01*
G37*
G36*
X215519040Y-113103060D02*
G01*
X214617040Y-113103060D01*
X214617040Y-111101060D01*
X215519040Y-111101060D01*
X215519040Y-113103060D01*
X215519040Y-113103060D01*
G37*
G36*
X227989040Y-112243060D02*
G01*
X226987040Y-112243060D01*
X226987040Y-111341060D01*
X227989040Y-111341060D01*
X227989040Y-112243060D01*
X227989040Y-112243060D01*
G37*
G36*
X259231425Y-108768562D02*
G01*
X259381250Y-108798364D01*
X259663514Y-108915281D01*
X259917545Y-109085019D01*
X260133581Y-109301055D01*
X260303319Y-109555086D01*
X260351895Y-109672360D01*
X260420236Y-109837351D01*
X260479840Y-110136999D01*
X260479840Y-110442521D01*
X260467447Y-110504826D01*
X260420236Y-110742170D01*
X260303319Y-111024434D01*
X260133581Y-111278465D01*
X259917545Y-111494501D01*
X259663514Y-111664239D01*
X259381250Y-111781156D01*
X259231425Y-111810958D01*
X259081601Y-111840760D01*
X258776079Y-111840760D01*
X258626255Y-111810958D01*
X258476430Y-111781156D01*
X258194166Y-111664239D01*
X257940135Y-111494501D01*
X257724099Y-111278465D01*
X257554361Y-111024434D01*
X257437444Y-110742170D01*
X257390233Y-110504826D01*
X257377840Y-110442521D01*
X257377840Y-110136999D01*
X257437444Y-109837351D01*
X257505785Y-109672360D01*
X257554361Y-109555086D01*
X257724099Y-109301055D01*
X257940135Y-109085019D01*
X258194166Y-108915281D01*
X258476430Y-108798364D01*
X258626255Y-108768562D01*
X258776079Y-108738760D01*
X259081601Y-108738760D01*
X259231425Y-108768562D01*
X259231425Y-108768562D01*
G37*
G36*
X194325114Y-110474825D02*
G01*
X194362807Y-110486259D01*
X194397543Y-110504826D01*
X194427988Y-110529812D01*
X194452974Y-110560257D01*
X194471541Y-110594993D01*
X194482975Y-110632686D01*
X194487440Y-110678021D01*
X194487440Y-111514699D01*
X194482975Y-111560034D01*
X194471541Y-111597727D01*
X194452974Y-111632463D01*
X194427988Y-111662908D01*
X194397543Y-111687894D01*
X194362807Y-111706461D01*
X194325114Y-111717895D01*
X194279779Y-111722360D01*
X193193101Y-111722360D01*
X193147766Y-111717895D01*
X193110073Y-111706461D01*
X193075337Y-111687894D01*
X193044892Y-111662908D01*
X193019906Y-111632463D01*
X193001339Y-111597727D01*
X192989905Y-111560034D01*
X192985440Y-111514699D01*
X192985440Y-110678021D01*
X192989905Y-110632686D01*
X193001339Y-110594993D01*
X193019906Y-110560257D01*
X193044892Y-110529812D01*
X193075337Y-110504826D01*
X193110073Y-110486259D01*
X193147766Y-110474825D01*
X193193101Y-110470360D01*
X194279779Y-110470360D01*
X194325114Y-110474825D01*
X194325114Y-110474825D01*
G37*
G36*
X225989040Y-111293060D02*
G01*
X224987040Y-111293060D01*
X224987040Y-110391060D01*
X225989040Y-110391060D01*
X225989040Y-111293060D01*
X225989040Y-111293060D01*
G37*
G36*
X171731814Y-109527625D02*
G01*
X171769507Y-109539059D01*
X171804243Y-109557626D01*
X171834688Y-109582612D01*
X171859674Y-109613057D01*
X171878241Y-109647793D01*
X171889675Y-109685486D01*
X171894140Y-109730821D01*
X171894140Y-110567499D01*
X171889675Y-110612834D01*
X171878241Y-110650527D01*
X171859674Y-110685263D01*
X171834688Y-110715708D01*
X171804243Y-110740694D01*
X171769507Y-110759261D01*
X171731814Y-110770695D01*
X171686479Y-110775160D01*
X170599801Y-110775160D01*
X170554466Y-110770695D01*
X170516773Y-110759261D01*
X170482037Y-110740694D01*
X170451592Y-110715708D01*
X170426606Y-110685263D01*
X170408039Y-110650527D01*
X170396605Y-110612834D01*
X170392140Y-110567499D01*
X170392140Y-109730821D01*
X170396605Y-109685486D01*
X170408039Y-109647793D01*
X170426606Y-109613057D01*
X170451592Y-109582612D01*
X170482037Y-109557626D01*
X170516773Y-109539059D01*
X170554466Y-109527625D01*
X170599801Y-109523160D01*
X171686479Y-109523160D01*
X171731814Y-109527625D01*
X171731814Y-109527625D01*
G37*
G36*
X161127314Y-109340825D02*
G01*
X161165007Y-109352259D01*
X161199743Y-109370826D01*
X161230188Y-109395812D01*
X161255174Y-109426257D01*
X161273741Y-109460993D01*
X161285175Y-109498686D01*
X161289640Y-109544021D01*
X161289640Y-110380699D01*
X161285175Y-110426034D01*
X161273741Y-110463727D01*
X161255174Y-110498463D01*
X161230188Y-110528908D01*
X161199743Y-110553894D01*
X161165007Y-110572461D01*
X161127314Y-110583895D01*
X161081979Y-110588360D01*
X159995301Y-110588360D01*
X159949966Y-110583895D01*
X159912273Y-110572461D01*
X159877537Y-110553894D01*
X159847092Y-110528908D01*
X159822106Y-110498463D01*
X159803539Y-110463727D01*
X159792105Y-110426034D01*
X159787640Y-110380699D01*
X159787640Y-109544021D01*
X159792105Y-109498686D01*
X159803539Y-109460993D01*
X159822106Y-109426257D01*
X159847092Y-109395812D01*
X159877537Y-109370826D01*
X159912273Y-109352259D01*
X159949966Y-109340825D01*
X159995301Y-109336360D01*
X161081979Y-109336360D01*
X161127314Y-109340825D01*
X161127314Y-109340825D01*
G37*
G36*
X177566000Y-110416000D02*
G01*
X175434000Y-110416000D01*
X175434000Y-108584000D01*
X177566000Y-108584000D01*
X177566000Y-110416000D01*
X177566000Y-110416000D01*
G37*
G36*
X246431040Y-109997060D02*
G01*
X241829040Y-109997060D01*
X241829040Y-107395060D01*
X246431040Y-107395060D01*
X246431040Y-109997060D01*
X246431040Y-109997060D01*
G37*
G36*
X194325114Y-108424825D02*
G01*
X194362807Y-108436259D01*
X194397543Y-108454826D01*
X194427988Y-108479812D01*
X194452974Y-108510257D01*
X194471541Y-108544993D01*
X194482975Y-108582686D01*
X194487440Y-108628021D01*
X194487440Y-109464699D01*
X194482975Y-109510034D01*
X194471541Y-109547727D01*
X194452974Y-109582463D01*
X194427988Y-109612908D01*
X194397543Y-109637894D01*
X194362807Y-109656461D01*
X194325114Y-109667895D01*
X194279779Y-109672360D01*
X193193101Y-109672360D01*
X193147766Y-109667895D01*
X193110073Y-109656461D01*
X193075337Y-109637894D01*
X193044892Y-109612908D01*
X193019906Y-109582463D01*
X193001339Y-109547727D01*
X192989905Y-109510034D01*
X192985440Y-109464699D01*
X192985440Y-108628021D01*
X192989905Y-108582686D01*
X193001339Y-108544993D01*
X193019906Y-108510257D01*
X193044892Y-108479812D01*
X193075337Y-108454826D01*
X193110073Y-108436259D01*
X193147766Y-108424825D01*
X193193101Y-108420360D01*
X194279779Y-108420360D01*
X194325114Y-108424825D01*
X194325114Y-108424825D01*
G37*
G36*
X183088674Y-108378465D02*
G01*
X183126367Y-108389899D01*
X183161103Y-108408466D01*
X183191548Y-108433452D01*
X183216534Y-108463897D01*
X183235101Y-108498633D01*
X183246535Y-108536326D01*
X183251000Y-108581661D01*
X183251000Y-109418339D01*
X183246535Y-109463674D01*
X183235101Y-109501367D01*
X183216534Y-109536103D01*
X183191548Y-109566548D01*
X183161103Y-109591534D01*
X183126367Y-109610101D01*
X183088674Y-109621535D01*
X183043339Y-109626000D01*
X181956661Y-109626000D01*
X181911326Y-109621535D01*
X181873633Y-109610101D01*
X181838897Y-109591534D01*
X181808452Y-109566548D01*
X181783466Y-109536103D01*
X181764899Y-109501367D01*
X181753465Y-109463674D01*
X181749000Y-109418339D01*
X181749000Y-108581661D01*
X181753465Y-108536326D01*
X181764899Y-108498633D01*
X181783466Y-108463897D01*
X181808452Y-108433452D01*
X181838897Y-108408466D01*
X181873633Y-108389899D01*
X181911326Y-108378465D01*
X181956661Y-108374000D01*
X183043339Y-108374000D01*
X183088674Y-108378465D01*
X183088674Y-108378465D01*
G37*
G36*
X207513602Y-107590241D02*
G01*
X207548521Y-107600834D01*
X207580703Y-107618036D01*
X207608913Y-107641187D01*
X207632064Y-107669397D01*
X207649266Y-107701579D01*
X207659859Y-107736498D01*
X207664040Y-107778955D01*
X207664040Y-108920165D01*
X207659859Y-108962622D01*
X207649266Y-108997541D01*
X207632064Y-109029723D01*
X207608913Y-109057933D01*
X207580703Y-109081084D01*
X207548521Y-109098286D01*
X207513602Y-109108879D01*
X207471145Y-109113060D01*
X206004935Y-109113060D01*
X205962478Y-109108879D01*
X205927559Y-109098286D01*
X205895377Y-109081084D01*
X205867167Y-109057933D01*
X205844016Y-109029723D01*
X205826814Y-108997541D01*
X205816221Y-108962622D01*
X205812040Y-108920165D01*
X205812040Y-107778955D01*
X205816221Y-107736498D01*
X205826814Y-107701579D01*
X205844016Y-107669397D01*
X205867167Y-107641187D01*
X205895377Y-107618036D01*
X205927559Y-107600834D01*
X205962478Y-107590241D01*
X206004935Y-107586060D01*
X207471145Y-107586060D01*
X207513602Y-107590241D01*
X207513602Y-107590241D01*
G37*
G36*
X171731814Y-107477625D02*
G01*
X171769507Y-107489059D01*
X171804243Y-107507626D01*
X171834688Y-107532612D01*
X171859674Y-107563057D01*
X171878241Y-107597793D01*
X171889675Y-107635486D01*
X171894140Y-107680821D01*
X171894140Y-108517499D01*
X171889675Y-108562834D01*
X171878241Y-108600527D01*
X171859674Y-108635263D01*
X171834688Y-108665708D01*
X171804243Y-108690694D01*
X171769507Y-108709261D01*
X171731814Y-108720695D01*
X171686479Y-108725160D01*
X170599801Y-108725160D01*
X170554466Y-108720695D01*
X170516773Y-108709261D01*
X170482037Y-108690694D01*
X170451592Y-108665708D01*
X170426606Y-108635263D01*
X170408039Y-108600527D01*
X170396605Y-108562834D01*
X170392140Y-108517499D01*
X170392140Y-107680821D01*
X170396605Y-107635486D01*
X170408039Y-107597793D01*
X170426606Y-107563057D01*
X170451592Y-107532612D01*
X170482037Y-107507626D01*
X170516773Y-107489059D01*
X170554466Y-107477625D01*
X170599801Y-107473160D01*
X171686479Y-107473160D01*
X171731814Y-107477625D01*
X171731814Y-107477625D01*
G37*
G36*
X235703714Y-107187525D02*
G01*
X235741407Y-107198959D01*
X235776143Y-107217526D01*
X235806588Y-107242512D01*
X235831574Y-107272957D01*
X235850141Y-107307693D01*
X235861575Y-107345386D01*
X235866040Y-107390721D01*
X235866040Y-108477399D01*
X235861575Y-108522734D01*
X235850141Y-108560427D01*
X235831574Y-108595163D01*
X235806588Y-108625608D01*
X235776143Y-108650594D01*
X235741407Y-108669161D01*
X235703714Y-108680595D01*
X235658379Y-108685060D01*
X234821701Y-108685060D01*
X234776366Y-108680595D01*
X234738673Y-108669161D01*
X234703937Y-108650594D01*
X234673492Y-108625608D01*
X234648506Y-108595163D01*
X234629939Y-108560427D01*
X234618505Y-108522734D01*
X234614040Y-108477399D01*
X234614040Y-107390721D01*
X234618505Y-107345386D01*
X234629939Y-107307693D01*
X234648506Y-107272957D01*
X234673492Y-107242512D01*
X234703937Y-107217526D01*
X234738673Y-107198959D01*
X234776366Y-107187525D01*
X234821701Y-107183060D01*
X235658379Y-107183060D01*
X235703714Y-107187525D01*
X235703714Y-107187525D01*
G37*
G36*
X233653714Y-107187525D02*
G01*
X233691407Y-107198959D01*
X233726143Y-107217526D01*
X233756588Y-107242512D01*
X233781574Y-107272957D01*
X233800141Y-107307693D01*
X233811575Y-107345386D01*
X233816040Y-107390721D01*
X233816040Y-108477399D01*
X233811575Y-108522734D01*
X233800141Y-108560427D01*
X233781574Y-108595163D01*
X233756588Y-108625608D01*
X233726143Y-108650594D01*
X233691407Y-108669161D01*
X233653714Y-108680595D01*
X233608379Y-108685060D01*
X232771701Y-108685060D01*
X232726366Y-108680595D01*
X232688673Y-108669161D01*
X232653937Y-108650594D01*
X232623492Y-108625608D01*
X232598506Y-108595163D01*
X232579939Y-108560427D01*
X232568505Y-108522734D01*
X232564040Y-108477399D01*
X232564040Y-107390721D01*
X232568505Y-107345386D01*
X232579939Y-107307693D01*
X232598506Y-107272957D01*
X232623492Y-107242512D01*
X232653937Y-107217526D01*
X232688673Y-107198959D01*
X232726366Y-107187525D01*
X232771701Y-107183060D01*
X233608379Y-107183060D01*
X233653714Y-107187525D01*
X233653714Y-107187525D01*
G37*
G36*
X161127314Y-107290825D02*
G01*
X161165007Y-107302259D01*
X161199743Y-107320826D01*
X161230188Y-107345812D01*
X161255174Y-107376257D01*
X161273741Y-107410993D01*
X161285175Y-107448686D01*
X161289640Y-107494021D01*
X161289640Y-108330699D01*
X161285175Y-108376034D01*
X161273741Y-108413727D01*
X161255174Y-108448463D01*
X161230188Y-108478908D01*
X161199743Y-108503894D01*
X161165007Y-108522461D01*
X161127314Y-108533895D01*
X161081979Y-108538360D01*
X159995301Y-108538360D01*
X159949966Y-108533895D01*
X159912273Y-108522461D01*
X159877537Y-108503894D01*
X159847092Y-108478908D01*
X159822106Y-108448463D01*
X159803539Y-108413727D01*
X159792105Y-108376034D01*
X159787640Y-108330699D01*
X159787640Y-107494021D01*
X159792105Y-107448686D01*
X159803539Y-107410993D01*
X159822106Y-107376257D01*
X159847092Y-107345812D01*
X159877537Y-107320826D01*
X159912273Y-107302259D01*
X159949966Y-107290825D01*
X159995301Y-107286360D01*
X161081979Y-107286360D01*
X161127314Y-107290825D01*
X161127314Y-107290825D01*
G37*
G36*
X217761714Y-106895525D02*
G01*
X217799407Y-106906959D01*
X217834143Y-106925526D01*
X217864588Y-106950512D01*
X217889574Y-106980957D01*
X217908141Y-107015693D01*
X217919575Y-107053386D01*
X217924040Y-107098721D01*
X217924040Y-108185399D01*
X217919575Y-108230734D01*
X217908141Y-108268427D01*
X217889574Y-108303163D01*
X217864588Y-108333608D01*
X217834143Y-108358594D01*
X217799407Y-108377161D01*
X217761714Y-108388595D01*
X217716379Y-108393060D01*
X216879701Y-108393060D01*
X216834366Y-108388595D01*
X216796673Y-108377161D01*
X216761937Y-108358594D01*
X216731492Y-108333608D01*
X216706506Y-108303163D01*
X216687939Y-108268427D01*
X216676505Y-108230734D01*
X216672040Y-108185399D01*
X216672040Y-107098721D01*
X216676505Y-107053386D01*
X216687939Y-107015693D01*
X216706506Y-106980957D01*
X216731492Y-106950512D01*
X216761937Y-106925526D01*
X216796673Y-106906959D01*
X216834366Y-106895525D01*
X216879701Y-106891060D01*
X217716379Y-106891060D01*
X217761714Y-106895525D01*
X217761714Y-106895525D01*
G37*
G36*
X219811714Y-106895525D02*
G01*
X219849407Y-106906959D01*
X219884143Y-106925526D01*
X219914588Y-106950512D01*
X219939574Y-106980957D01*
X219958141Y-107015693D01*
X219969575Y-107053386D01*
X219974040Y-107098721D01*
X219974040Y-108185399D01*
X219969575Y-108230734D01*
X219958141Y-108268427D01*
X219939574Y-108303163D01*
X219914588Y-108333608D01*
X219884143Y-108358594D01*
X219849407Y-108377161D01*
X219811714Y-108388595D01*
X219766379Y-108393060D01*
X218929701Y-108393060D01*
X218884366Y-108388595D01*
X218846673Y-108377161D01*
X218811937Y-108358594D01*
X218781492Y-108333608D01*
X218756506Y-108303163D01*
X218737939Y-108268427D01*
X218726505Y-108230734D01*
X218722040Y-108185399D01*
X218722040Y-107098721D01*
X218726505Y-107053386D01*
X218737939Y-107015693D01*
X218756506Y-106980957D01*
X218781492Y-106950512D01*
X218811937Y-106925526D01*
X218846673Y-106906959D01*
X218884366Y-106895525D01*
X218929701Y-106891060D01*
X219766379Y-106891060D01*
X219811714Y-106895525D01*
X219811714Y-106895525D01*
G37*
G36*
X212046714Y-106835525D02*
G01*
X212084407Y-106846959D01*
X212119143Y-106865526D01*
X212149588Y-106890512D01*
X212174574Y-106920957D01*
X212193141Y-106955693D01*
X212204575Y-106993386D01*
X212209040Y-107038721D01*
X212209040Y-107875399D01*
X212204575Y-107920734D01*
X212193141Y-107958427D01*
X212174574Y-107993163D01*
X212149588Y-108023608D01*
X212119143Y-108048594D01*
X212084407Y-108067161D01*
X212046714Y-108078595D01*
X212001379Y-108083060D01*
X210914701Y-108083060D01*
X210869366Y-108078595D01*
X210831673Y-108067161D01*
X210796937Y-108048594D01*
X210766492Y-108023608D01*
X210741506Y-107993163D01*
X210722939Y-107958427D01*
X210711505Y-107920734D01*
X210707040Y-107875399D01*
X210707040Y-107038721D01*
X210711505Y-106993386D01*
X210722939Y-106955693D01*
X210741506Y-106920957D01*
X210766492Y-106890512D01*
X210796937Y-106865526D01*
X210831673Y-106846959D01*
X210869366Y-106835525D01*
X210914701Y-106831060D01*
X212001379Y-106831060D01*
X212046714Y-106835525D01*
X212046714Y-106835525D01*
G37*
G36*
X176810343Y-106055361D02*
G01*
X176829568Y-106057254D01*
X176914219Y-106082933D01*
X177002234Y-106109632D01*
X177161365Y-106194689D01*
X177300844Y-106309156D01*
X177415311Y-106448635D01*
X177500368Y-106607766D01*
X177552746Y-106780433D01*
X177570432Y-106960000D01*
X177552746Y-107139567D01*
X177500368Y-107312234D01*
X177415311Y-107471365D01*
X177300844Y-107610844D01*
X177161365Y-107725311D01*
X177002234Y-107810368D01*
X176915900Y-107836557D01*
X176829568Y-107862746D01*
X176810343Y-107864639D01*
X176694998Y-107876000D01*
X176305002Y-107876000D01*
X176189657Y-107864639D01*
X176170432Y-107862746D01*
X176084100Y-107836557D01*
X175997766Y-107810368D01*
X175838635Y-107725311D01*
X175699156Y-107610844D01*
X175584689Y-107471365D01*
X175499632Y-107312234D01*
X175447254Y-107139567D01*
X175429568Y-106960000D01*
X175447254Y-106780433D01*
X175499632Y-106607766D01*
X175584689Y-106448635D01*
X175699156Y-106309156D01*
X175838635Y-106194689D01*
X175997766Y-106109632D01*
X176085781Y-106082933D01*
X176170432Y-106057254D01*
X176189657Y-106055361D01*
X176305002Y-106044000D01*
X176694998Y-106044000D01*
X176810343Y-106055361D01*
X176810343Y-106055361D01*
G37*
G36*
X183088674Y-106328465D02*
G01*
X183126367Y-106339899D01*
X183161103Y-106358466D01*
X183191548Y-106383452D01*
X183216534Y-106413897D01*
X183235101Y-106448633D01*
X183246535Y-106486326D01*
X183251000Y-106531661D01*
X183251000Y-107368339D01*
X183246535Y-107413674D01*
X183235101Y-107451367D01*
X183216534Y-107486103D01*
X183191548Y-107516548D01*
X183161103Y-107541534D01*
X183126367Y-107560101D01*
X183088674Y-107571535D01*
X183043339Y-107576000D01*
X181956661Y-107576000D01*
X181911326Y-107571535D01*
X181873633Y-107560101D01*
X181838897Y-107541534D01*
X181808452Y-107516548D01*
X181783466Y-107486103D01*
X181764899Y-107451367D01*
X181753465Y-107413674D01*
X181749000Y-107368339D01*
X181749000Y-106531661D01*
X181753465Y-106486326D01*
X181764899Y-106448633D01*
X181783466Y-106413897D01*
X181808452Y-106383452D01*
X181838897Y-106358466D01*
X181873633Y-106339899D01*
X181911326Y-106328465D01*
X181956661Y-106324000D01*
X183043339Y-106324000D01*
X183088674Y-106328465D01*
X183088674Y-106328465D01*
G37*
G36*
X225973040Y-107387060D02*
G01*
X225071040Y-107387060D01*
X225071040Y-105385060D01*
X225973040Y-105385060D01*
X225973040Y-107387060D01*
X225973040Y-107387060D01*
G37*
G36*
X224073040Y-107387060D02*
G01*
X223171040Y-107387060D01*
X223171040Y-105385060D01*
X224073040Y-105385060D01*
X224073040Y-107387060D01*
X224073040Y-107387060D01*
G37*
G36*
X207513602Y-104615241D02*
G01*
X207548521Y-104625834D01*
X207580703Y-104643036D01*
X207608913Y-104666187D01*
X207632064Y-104694397D01*
X207649266Y-104726579D01*
X207659859Y-104761498D01*
X207664040Y-104803955D01*
X207664040Y-105945165D01*
X207659859Y-105987622D01*
X207649266Y-106022541D01*
X207632064Y-106054723D01*
X207608913Y-106082933D01*
X207580703Y-106106084D01*
X207548521Y-106123286D01*
X207513602Y-106133879D01*
X207471145Y-106138060D01*
X206004935Y-106138060D01*
X205962478Y-106133879D01*
X205927559Y-106123286D01*
X205895377Y-106106084D01*
X205867167Y-106082933D01*
X205844016Y-106054723D01*
X205826814Y-106022541D01*
X205816221Y-105987622D01*
X205812040Y-105945165D01*
X205812040Y-104803955D01*
X205816221Y-104761498D01*
X205826814Y-104726579D01*
X205844016Y-104694397D01*
X205867167Y-104666187D01*
X205895377Y-104643036D01*
X205927559Y-104625834D01*
X205962478Y-104615241D01*
X206004935Y-104611060D01*
X207471145Y-104611060D01*
X207513602Y-104615241D01*
X207513602Y-104615241D01*
G37*
G36*
X212046714Y-104785525D02*
G01*
X212084407Y-104796959D01*
X212119143Y-104815526D01*
X212149588Y-104840512D01*
X212174574Y-104870957D01*
X212193141Y-104905693D01*
X212204575Y-104943386D01*
X212209040Y-104988721D01*
X212209040Y-105825399D01*
X212204575Y-105870734D01*
X212193141Y-105908427D01*
X212174574Y-105943163D01*
X212149588Y-105973608D01*
X212119143Y-105998594D01*
X212084407Y-106017161D01*
X212046714Y-106028595D01*
X212001379Y-106033060D01*
X210914701Y-106033060D01*
X210869366Y-106028595D01*
X210831673Y-106017161D01*
X210796937Y-105998594D01*
X210766492Y-105973608D01*
X210741506Y-105943163D01*
X210722939Y-105908427D01*
X210711505Y-105870734D01*
X210707040Y-105825399D01*
X210707040Y-104988721D01*
X210711505Y-104943386D01*
X210722939Y-104905693D01*
X210741506Y-104870957D01*
X210766492Y-104840512D01*
X210796937Y-104815526D01*
X210831673Y-104796959D01*
X210869366Y-104785525D01*
X210914701Y-104781060D01*
X212001379Y-104781060D01*
X212046714Y-104785525D01*
X212046714Y-104785525D01*
G37*
G36*
X203589040Y-105913060D02*
G01*
X202687040Y-105913060D01*
X202687040Y-104911060D01*
X203589040Y-104911060D01*
X203589040Y-105913060D01*
X203589040Y-105913060D01*
G37*
G36*
X201689040Y-105913060D02*
G01*
X200787040Y-105913060D01*
X200787040Y-104911060D01*
X201689040Y-104911060D01*
X201689040Y-105913060D01*
X201689040Y-105913060D01*
G37*
G36*
X176810343Y-103515361D02*
G01*
X176829568Y-103517254D01*
X176915900Y-103543443D01*
X177002234Y-103569632D01*
X177161365Y-103654689D01*
X177300844Y-103769156D01*
X177415311Y-103908635D01*
X177500368Y-104067766D01*
X177552746Y-104240433D01*
X177570432Y-104420000D01*
X177554332Y-104583468D01*
X177552746Y-104599568D01*
X177547698Y-104616208D01*
X177500368Y-104772234D01*
X177415311Y-104931365D01*
X177300844Y-105070844D01*
X177161365Y-105185311D01*
X177002234Y-105270368D01*
X176950234Y-105286142D01*
X176829568Y-105322746D01*
X176810343Y-105324639D01*
X176694998Y-105336000D01*
X176305002Y-105336000D01*
X176189657Y-105324639D01*
X176170432Y-105322746D01*
X176049766Y-105286142D01*
X175997766Y-105270368D01*
X175838635Y-105185311D01*
X175699156Y-105070844D01*
X175584689Y-104931365D01*
X175499632Y-104772234D01*
X175452302Y-104616208D01*
X175447254Y-104599568D01*
X175445668Y-104583468D01*
X175429568Y-104420000D01*
X175447254Y-104240433D01*
X175499632Y-104067766D01*
X175584689Y-103908635D01*
X175699156Y-103769156D01*
X175838635Y-103654689D01*
X175997766Y-103569632D01*
X176084100Y-103543443D01*
X176170432Y-103517254D01*
X176189657Y-103515361D01*
X176305002Y-103504000D01*
X176694998Y-103504000D01*
X176810343Y-103515361D01*
X176810343Y-103515361D01*
G37*
G36*
X167319514Y-103809325D02*
G01*
X167357207Y-103820759D01*
X167391943Y-103839326D01*
X167422388Y-103864312D01*
X167447374Y-103894757D01*
X167465941Y-103929493D01*
X167477375Y-103967186D01*
X167481840Y-104012521D01*
X167481840Y-105099199D01*
X167477375Y-105144534D01*
X167465941Y-105182227D01*
X167447374Y-105216963D01*
X167422388Y-105247408D01*
X167391943Y-105272394D01*
X167357207Y-105290961D01*
X167319514Y-105302395D01*
X167274179Y-105306860D01*
X166437501Y-105306860D01*
X166392166Y-105302395D01*
X166354473Y-105290961D01*
X166319737Y-105272394D01*
X166289292Y-105247408D01*
X166264306Y-105216963D01*
X166245739Y-105182227D01*
X166234305Y-105144534D01*
X166229840Y-105099199D01*
X166229840Y-104012521D01*
X166234305Y-103967186D01*
X166245739Y-103929493D01*
X166264306Y-103894757D01*
X166289292Y-103864312D01*
X166319737Y-103839326D01*
X166354473Y-103820759D01*
X166392166Y-103809325D01*
X166437501Y-103804860D01*
X167274179Y-103804860D01*
X167319514Y-103809325D01*
X167319514Y-103809325D01*
G37*
G36*
X165269514Y-103809325D02*
G01*
X165307207Y-103820759D01*
X165341943Y-103839326D01*
X165372388Y-103864312D01*
X165397374Y-103894757D01*
X165415941Y-103929493D01*
X165427375Y-103967186D01*
X165431840Y-104012521D01*
X165431840Y-105099199D01*
X165427375Y-105144534D01*
X165415941Y-105182227D01*
X165397374Y-105216963D01*
X165372388Y-105247408D01*
X165341943Y-105272394D01*
X165307207Y-105290961D01*
X165269514Y-105302395D01*
X165224179Y-105306860D01*
X164387501Y-105306860D01*
X164342166Y-105302395D01*
X164304473Y-105290961D01*
X164269737Y-105272394D01*
X164239292Y-105247408D01*
X164214306Y-105216963D01*
X164195739Y-105182227D01*
X164184305Y-105144534D01*
X164179840Y-105099199D01*
X164179840Y-104012521D01*
X164184305Y-103967186D01*
X164195739Y-103929493D01*
X164214306Y-103894757D01*
X164239292Y-103864312D01*
X164269737Y-103839326D01*
X164304473Y-103820759D01*
X164342166Y-103809325D01*
X164387501Y-103804860D01*
X165224179Y-103804860D01*
X165269514Y-103809325D01*
X165269514Y-103809325D01*
G37*
G36*
X171568740Y-105023460D02*
G01*
X170666740Y-105023460D01*
X170666740Y-103021460D01*
X171568740Y-103021460D01*
X171568740Y-105023460D01*
X171568740Y-105023460D01*
G37*
G36*
X160989640Y-104720060D02*
G01*
X160087640Y-104720060D01*
X160087640Y-102718060D01*
X160989640Y-102718060D01*
X160989640Y-104720060D01*
X160989640Y-104720060D01*
G37*
G36*
X225023040Y-104387060D02*
G01*
X224121040Y-104387060D01*
X224121040Y-102385060D01*
X225023040Y-102385060D01*
X225023040Y-104387060D01*
X225023040Y-104387060D01*
G37*
G36*
X186344114Y-102640925D02*
G01*
X186381807Y-102652359D01*
X186416543Y-102670926D01*
X186446988Y-102695912D01*
X186471974Y-102726357D01*
X186490541Y-102761093D01*
X186501975Y-102798786D01*
X186506440Y-102844121D01*
X186506440Y-103930799D01*
X186501975Y-103976134D01*
X186490541Y-104013827D01*
X186471974Y-104048563D01*
X186446988Y-104079008D01*
X186416543Y-104103994D01*
X186381807Y-104122561D01*
X186344114Y-104133995D01*
X186298779Y-104138460D01*
X185462101Y-104138460D01*
X185416766Y-104133995D01*
X185379073Y-104122561D01*
X185344337Y-104103994D01*
X185313892Y-104079008D01*
X185288906Y-104048563D01*
X185270339Y-104013827D01*
X185258905Y-103976134D01*
X185254440Y-103930799D01*
X185254440Y-102844121D01*
X185258905Y-102798786D01*
X185270339Y-102761093D01*
X185288906Y-102726357D01*
X185313892Y-102695912D01*
X185344337Y-102670926D01*
X185379073Y-102652359D01*
X185416766Y-102640925D01*
X185462101Y-102636460D01*
X186298779Y-102636460D01*
X186344114Y-102640925D01*
X186344114Y-102640925D01*
G37*
G36*
X184294114Y-102640925D02*
G01*
X184331807Y-102652359D01*
X184366543Y-102670926D01*
X184396988Y-102695912D01*
X184421974Y-102726357D01*
X184440541Y-102761093D01*
X184451975Y-102798786D01*
X184456440Y-102844121D01*
X184456440Y-103930799D01*
X184451975Y-103976134D01*
X184440541Y-104013827D01*
X184421974Y-104048563D01*
X184396988Y-104079008D01*
X184366543Y-104103994D01*
X184331807Y-104122561D01*
X184294114Y-104133995D01*
X184248779Y-104138460D01*
X183412101Y-104138460D01*
X183366766Y-104133995D01*
X183329073Y-104122561D01*
X183294337Y-104103994D01*
X183263892Y-104079008D01*
X183238906Y-104048563D01*
X183220339Y-104013827D01*
X183208905Y-103976134D01*
X183204440Y-103930799D01*
X183204440Y-102844121D01*
X183208905Y-102798786D01*
X183220339Y-102761093D01*
X183238906Y-102726357D01*
X183263892Y-102695912D01*
X183294337Y-102670926D01*
X183329073Y-102652359D01*
X183366766Y-102640925D01*
X183412101Y-102636460D01*
X184248779Y-102636460D01*
X184294114Y-102640925D01*
X184294114Y-102640925D01*
G37*
G36*
X233662714Y-102615525D02*
G01*
X233700407Y-102626959D01*
X233735143Y-102645526D01*
X233765588Y-102670512D01*
X233790574Y-102700957D01*
X233809141Y-102735693D01*
X233820575Y-102773386D01*
X233825040Y-102818721D01*
X233825040Y-103905399D01*
X233820575Y-103950734D01*
X233809141Y-103988427D01*
X233790574Y-104023163D01*
X233765588Y-104053608D01*
X233735143Y-104078594D01*
X233700407Y-104097161D01*
X233662714Y-104108595D01*
X233617379Y-104113060D01*
X232780701Y-104113060D01*
X232735366Y-104108595D01*
X232697673Y-104097161D01*
X232662937Y-104078594D01*
X232632492Y-104053608D01*
X232607506Y-104023163D01*
X232588939Y-103988427D01*
X232577505Y-103950734D01*
X232573040Y-103905399D01*
X232573040Y-102818721D01*
X232577505Y-102773386D01*
X232588939Y-102735693D01*
X232607506Y-102700957D01*
X232632492Y-102670512D01*
X232662937Y-102645526D01*
X232697673Y-102626959D01*
X232735366Y-102615525D01*
X232780701Y-102611060D01*
X233617379Y-102611060D01*
X233662714Y-102615525D01*
X233662714Y-102615525D01*
G37*
G36*
X235712714Y-102615525D02*
G01*
X235750407Y-102626959D01*
X235785143Y-102645526D01*
X235815588Y-102670512D01*
X235840574Y-102700957D01*
X235859141Y-102735693D01*
X235870575Y-102773386D01*
X235875040Y-102818721D01*
X235875040Y-103905399D01*
X235870575Y-103950734D01*
X235859141Y-103988427D01*
X235840574Y-104023163D01*
X235815588Y-104053608D01*
X235785143Y-104078594D01*
X235750407Y-104097161D01*
X235712714Y-104108595D01*
X235667379Y-104113060D01*
X234830701Y-104113060D01*
X234785366Y-104108595D01*
X234747673Y-104097161D01*
X234712937Y-104078594D01*
X234682492Y-104053608D01*
X234657506Y-104023163D01*
X234638939Y-103988427D01*
X234627505Y-103950734D01*
X234623040Y-103905399D01*
X234623040Y-102818721D01*
X234627505Y-102773386D01*
X234638939Y-102735693D01*
X234657506Y-102700957D01*
X234682492Y-102670512D01*
X234712937Y-102645526D01*
X234747673Y-102626959D01*
X234785366Y-102615525D01*
X234830701Y-102611060D01*
X235667379Y-102611060D01*
X235712714Y-102615525D01*
X235712714Y-102615525D01*
G37*
G36*
X217896714Y-102690525D02*
G01*
X217934407Y-102701959D01*
X217969143Y-102720526D01*
X217999588Y-102745512D01*
X218024574Y-102775957D01*
X218043141Y-102810693D01*
X218054575Y-102848386D01*
X218059040Y-102893721D01*
X218059040Y-103730399D01*
X218054575Y-103775734D01*
X218043141Y-103813427D01*
X218024574Y-103848163D01*
X217999588Y-103878608D01*
X217969143Y-103903594D01*
X217934407Y-103922161D01*
X217896714Y-103933595D01*
X217851379Y-103938060D01*
X216764701Y-103938060D01*
X216719366Y-103933595D01*
X216681673Y-103922161D01*
X216646937Y-103903594D01*
X216616492Y-103878608D01*
X216591506Y-103848163D01*
X216572939Y-103813427D01*
X216561505Y-103775734D01*
X216557040Y-103730399D01*
X216557040Y-102893721D01*
X216561505Y-102848386D01*
X216572939Y-102810693D01*
X216591506Y-102775957D01*
X216616492Y-102745512D01*
X216646937Y-102720526D01*
X216681673Y-102701959D01*
X216719366Y-102690525D01*
X216764701Y-102686060D01*
X217851379Y-102686060D01*
X217896714Y-102690525D01*
X217896714Y-102690525D01*
G37*
G36*
X202639040Y-103913060D02*
G01*
X201737040Y-103913060D01*
X201737040Y-102911060D01*
X202639040Y-102911060D01*
X202639040Y-103913060D01*
X202639040Y-103913060D01*
G37*
G36*
X192819740Y-103871560D02*
G01*
X190817740Y-103871560D01*
X190817740Y-102969560D01*
X192819740Y-102969560D01*
X192819740Y-103871560D01*
X192819740Y-103871560D01*
G37*
G36*
X245247513Y-100778473D02*
G01*
X245343080Y-100787885D01*
X245588320Y-100862278D01*
X245814334Y-100983085D01*
X245865939Y-101025436D01*
X246012437Y-101145663D01*
X246130233Y-101289199D01*
X246175015Y-101343766D01*
X246295822Y-101569780D01*
X246370215Y-101815020D01*
X246395334Y-102070060D01*
X246370215Y-102325100D01*
X246295822Y-102570340D01*
X246175015Y-102796354D01*
X246147291Y-102830135D01*
X246012437Y-102994457D01*
X245865939Y-103114684D01*
X245814334Y-103157035D01*
X245588320Y-103277842D01*
X245343080Y-103352235D01*
X245247513Y-103361647D01*
X245151946Y-103371060D01*
X243024134Y-103371060D01*
X242928567Y-103361647D01*
X242833000Y-103352235D01*
X242587760Y-103277842D01*
X242361746Y-103157035D01*
X242310141Y-103114684D01*
X242163643Y-102994457D01*
X242028789Y-102830135D01*
X242001065Y-102796354D01*
X241880258Y-102570340D01*
X241805865Y-102325100D01*
X241780746Y-102070060D01*
X241805865Y-101815020D01*
X241880258Y-101569780D01*
X242001065Y-101343766D01*
X242045847Y-101289199D01*
X242163643Y-101145663D01*
X242310141Y-101025436D01*
X242361746Y-100983085D01*
X242587760Y-100862278D01*
X242833000Y-100787885D01*
X242928567Y-100778473D01*
X243024134Y-100769060D01*
X245151946Y-100769060D01*
X245247513Y-100778473D01*
X245247513Y-100778473D01*
G37*
G36*
X195819740Y-102921560D02*
G01*
X193817740Y-102921560D01*
X193817740Y-102019560D01*
X195819740Y-102019560D01*
X195819740Y-102921560D01*
X195819740Y-102921560D01*
G37*
G36*
X207649040Y-102523060D02*
G01*
X205647040Y-102523060D01*
X205647040Y-101621060D01*
X207649040Y-101621060D01*
X207649040Y-102523060D01*
X207649040Y-102523060D01*
G37*
G36*
X170618740Y-102023460D02*
G01*
X169716740Y-102023460D01*
X169716740Y-100021460D01*
X170618740Y-100021460D01*
X170618740Y-102023460D01*
X170618740Y-102023460D01*
G37*
G36*
X172518740Y-102023460D02*
G01*
X171616740Y-102023460D01*
X171616740Y-100021460D01*
X172518740Y-100021460D01*
X172518740Y-102023460D01*
X172518740Y-102023460D01*
G37*
G36*
X192819740Y-101971560D02*
G01*
X190817740Y-101971560D01*
X190817740Y-101069560D01*
X192819740Y-101069560D01*
X192819740Y-101971560D01*
X192819740Y-101971560D01*
G37*
G36*
X217896714Y-100640525D02*
G01*
X217934407Y-100651959D01*
X217969143Y-100670526D01*
X217999588Y-100695512D01*
X218024574Y-100725957D01*
X218043141Y-100760693D01*
X218054575Y-100798386D01*
X218059040Y-100843721D01*
X218059040Y-101680399D01*
X218054575Y-101725734D01*
X218043141Y-101763427D01*
X218024574Y-101798163D01*
X217999588Y-101828608D01*
X217969143Y-101853594D01*
X217934407Y-101872161D01*
X217896714Y-101883595D01*
X217851379Y-101888060D01*
X216764701Y-101888060D01*
X216719366Y-101883595D01*
X216681673Y-101872161D01*
X216646937Y-101853594D01*
X216616492Y-101828608D01*
X216591506Y-101798163D01*
X216572939Y-101763427D01*
X216561505Y-101725734D01*
X216557040Y-101680399D01*
X216557040Y-100843721D01*
X216561505Y-100798386D01*
X216572939Y-100760693D01*
X216591506Y-100725957D01*
X216616492Y-100695512D01*
X216646937Y-100670526D01*
X216681673Y-100651959D01*
X216719366Y-100640525D01*
X216764701Y-100636060D01*
X217851379Y-100636060D01*
X217896714Y-100640525D01*
X217896714Y-100640525D01*
G37*
G36*
X161939640Y-101720060D02*
G01*
X161037640Y-101720060D01*
X161037640Y-99718060D01*
X161939640Y-99718060D01*
X161939640Y-101720060D01*
X161939640Y-101720060D01*
G37*
G36*
X160039640Y-101720060D02*
G01*
X159137640Y-101720060D01*
X159137640Y-99718060D01*
X160039640Y-99718060D01*
X160039640Y-101720060D01*
X160039640Y-101720060D01*
G37*
G36*
X210649040Y-101573060D02*
G01*
X208647040Y-101573060D01*
X208647040Y-100671060D01*
X210649040Y-100671060D01*
X210649040Y-101573060D01*
X210649040Y-101573060D01*
G37*
G36*
X271302585Y-98478802D02*
G01*
X271452410Y-98508604D01*
X271734674Y-98625521D01*
X271988705Y-98795259D01*
X272204741Y-99011295D01*
X272374479Y-99265326D01*
X272491396Y-99547590D01*
X272551000Y-99847240D01*
X272551000Y-100152760D01*
X272491396Y-100452410D01*
X272374479Y-100734674D01*
X272204741Y-100988705D01*
X271988705Y-101204741D01*
X271734674Y-101374479D01*
X271452410Y-101491396D01*
X271379091Y-101505980D01*
X271152761Y-101551000D01*
X270847239Y-101551000D01*
X270620909Y-101505980D01*
X270547590Y-101491396D01*
X270265326Y-101374479D01*
X270011295Y-101204741D01*
X269795259Y-100988705D01*
X269625521Y-100734674D01*
X269508604Y-100452410D01*
X269449000Y-100152760D01*
X269449000Y-99847240D01*
X269508604Y-99547590D01*
X269625521Y-99265326D01*
X269795259Y-99011295D01*
X270011295Y-98795259D01*
X270265326Y-98625521D01*
X270547590Y-98508604D01*
X270697415Y-98478802D01*
X270847239Y-98449000D01*
X271152761Y-98449000D01*
X271302585Y-98478802D01*
X271302585Y-98478802D01*
G37*
G36*
X180014499Y-100478445D02*
G01*
X180051995Y-100489820D01*
X180086554Y-100508292D01*
X180116847Y-100533153D01*
X180141708Y-100563446D01*
X180160180Y-100598005D01*
X180171555Y-100635501D01*
X180176000Y-100680638D01*
X180176000Y-101319362D01*
X180171555Y-101364499D01*
X180160180Y-101401995D01*
X180141708Y-101436554D01*
X180116847Y-101466847D01*
X180086554Y-101491708D01*
X180051995Y-101510180D01*
X180014499Y-101521555D01*
X179969362Y-101526000D01*
X179230638Y-101526000D01*
X179185501Y-101521555D01*
X179148005Y-101510180D01*
X179113446Y-101491708D01*
X179083153Y-101466847D01*
X179058292Y-101436554D01*
X179039820Y-101401995D01*
X179028445Y-101364499D01*
X179024000Y-101319362D01*
X179024000Y-100680638D01*
X179028445Y-100635501D01*
X179039820Y-100598005D01*
X179058292Y-100563446D01*
X179083153Y-100533153D01*
X179113446Y-100508292D01*
X179148005Y-100489820D01*
X179185501Y-100478445D01*
X179230638Y-100474000D01*
X179969362Y-100474000D01*
X180014499Y-100478445D01*
X180014499Y-100478445D01*
G37*
G36*
X181764499Y-100478445D02*
G01*
X181801995Y-100489820D01*
X181836554Y-100508292D01*
X181866847Y-100533153D01*
X181891708Y-100563446D01*
X181910180Y-100598005D01*
X181921555Y-100635501D01*
X181926000Y-100680638D01*
X181926000Y-101319362D01*
X181921555Y-101364499D01*
X181910180Y-101401995D01*
X181891708Y-101436554D01*
X181866847Y-101466847D01*
X181836554Y-101491708D01*
X181801995Y-101510180D01*
X181764499Y-101521555D01*
X181719362Y-101526000D01*
X180980638Y-101526000D01*
X180935501Y-101521555D01*
X180898005Y-101510180D01*
X180863446Y-101491708D01*
X180833153Y-101466847D01*
X180808292Y-101436554D01*
X180789820Y-101401995D01*
X180778445Y-101364499D01*
X180774000Y-101319362D01*
X180774000Y-100680638D01*
X180778445Y-100635501D01*
X180789820Y-100598005D01*
X180808292Y-100563446D01*
X180833153Y-100533153D01*
X180863446Y-100508292D01*
X180898005Y-100489820D01*
X180935501Y-100478445D01*
X180980638Y-100474000D01*
X181719362Y-100474000D01*
X181764499Y-100478445D01*
X181764499Y-100478445D01*
G37*
G36*
X167348614Y-99999325D02*
G01*
X167386307Y-100010759D01*
X167421043Y-100029326D01*
X167451488Y-100054312D01*
X167476474Y-100084757D01*
X167495041Y-100119493D01*
X167506475Y-100157186D01*
X167510940Y-100202521D01*
X167510940Y-101289199D01*
X167506475Y-101334534D01*
X167495041Y-101372227D01*
X167476474Y-101406963D01*
X167451488Y-101437408D01*
X167421043Y-101462394D01*
X167386307Y-101480961D01*
X167348614Y-101492395D01*
X167303279Y-101496860D01*
X166466601Y-101496860D01*
X166421266Y-101492395D01*
X166383573Y-101480961D01*
X166348837Y-101462394D01*
X166318392Y-101437408D01*
X166293406Y-101406963D01*
X166274839Y-101372227D01*
X166263405Y-101334534D01*
X166258940Y-101289199D01*
X166258940Y-100202521D01*
X166263405Y-100157186D01*
X166274839Y-100119493D01*
X166293406Y-100084757D01*
X166318392Y-100054312D01*
X166348837Y-100029326D01*
X166383573Y-100010759D01*
X166421266Y-99999325D01*
X166466601Y-99994860D01*
X167303279Y-99994860D01*
X167348614Y-99999325D01*
X167348614Y-99999325D01*
G37*
G36*
X165298614Y-99999325D02*
G01*
X165336307Y-100010759D01*
X165371043Y-100029326D01*
X165401488Y-100054312D01*
X165426474Y-100084757D01*
X165445041Y-100119493D01*
X165456475Y-100157186D01*
X165460940Y-100202521D01*
X165460940Y-101289199D01*
X165456475Y-101334534D01*
X165445041Y-101372227D01*
X165426474Y-101406963D01*
X165401488Y-101437408D01*
X165371043Y-101462394D01*
X165336307Y-101480961D01*
X165298614Y-101492395D01*
X165253279Y-101496860D01*
X164416601Y-101496860D01*
X164371266Y-101492395D01*
X164333573Y-101480961D01*
X164298837Y-101462394D01*
X164268392Y-101437408D01*
X164243406Y-101406963D01*
X164224839Y-101372227D01*
X164213405Y-101334534D01*
X164208940Y-101289199D01*
X164208940Y-100202521D01*
X164213405Y-100157186D01*
X164224839Y-100119493D01*
X164243406Y-100084757D01*
X164268392Y-100054312D01*
X164298837Y-100029326D01*
X164333573Y-100010759D01*
X164371266Y-99999325D01*
X164416601Y-99994860D01*
X165253279Y-99994860D01*
X165298614Y-99999325D01*
X165298614Y-99999325D01*
G37*
G36*
X207649040Y-100623060D02*
G01*
X205647040Y-100623060D01*
X205647040Y-99721060D01*
X207649040Y-99721060D01*
X207649040Y-100623060D01*
X207649040Y-100623060D01*
G37*
G36*
X186836640Y-99556060D02*
G01*
X184834640Y-99556060D01*
X184834640Y-98654060D01*
X186836640Y-98654060D01*
X186836640Y-99556060D01*
X186836640Y-99556060D01*
G37*
G36*
X258698796Y-95695663D02*
G01*
X258873250Y-95730364D01*
X259155514Y-95847281D01*
X259409545Y-96017019D01*
X259625581Y-96233055D01*
X259795319Y-96487086D01*
X259912236Y-96769350D01*
X259971840Y-97069000D01*
X259971840Y-97374520D01*
X259912236Y-97674170D01*
X259795319Y-97956434D01*
X259625581Y-98210465D01*
X259409545Y-98426501D01*
X259155514Y-98596239D01*
X258873250Y-98713156D01*
X258723425Y-98742958D01*
X258573601Y-98772760D01*
X258268079Y-98772760D01*
X258118255Y-98742958D01*
X257968430Y-98713156D01*
X257686166Y-98596239D01*
X257432135Y-98426501D01*
X257216099Y-98210465D01*
X257046361Y-97956434D01*
X256929444Y-97674170D01*
X256869840Y-97374520D01*
X256869840Y-97069000D01*
X256929444Y-96769350D01*
X257046361Y-96487086D01*
X257216099Y-96233055D01*
X257432135Y-96017019D01*
X257686166Y-95847281D01*
X257968430Y-95730364D01*
X258142884Y-95695663D01*
X258268079Y-95670760D01*
X258573601Y-95670760D01*
X258698796Y-95695663D01*
X258698796Y-95695663D01*
G37*
G36*
X189836640Y-98606060D02*
G01*
X187834640Y-98606060D01*
X187834640Y-97704060D01*
X189836640Y-97704060D01*
X189836640Y-98606060D01*
X189836640Y-98606060D01*
G37*
G36*
X245247513Y-95328473D02*
G01*
X245343080Y-95337885D01*
X245588320Y-95412278D01*
X245814334Y-95533085D01*
X245865939Y-95575436D01*
X246012437Y-95695663D01*
X246132664Y-95842161D01*
X246175015Y-95893766D01*
X246295822Y-96119780D01*
X246370215Y-96365020D01*
X246395334Y-96620060D01*
X246370215Y-96875100D01*
X246295822Y-97120340D01*
X246175015Y-97346354D01*
X246151899Y-97374521D01*
X246012437Y-97544457D01*
X245876447Y-97656060D01*
X245814334Y-97707035D01*
X245588320Y-97827842D01*
X245343080Y-97902235D01*
X245247512Y-97911648D01*
X245151946Y-97921060D01*
X243024134Y-97921060D01*
X242928568Y-97911648D01*
X242833000Y-97902235D01*
X242587760Y-97827842D01*
X242361746Y-97707035D01*
X242299633Y-97656060D01*
X242163643Y-97544457D01*
X242024181Y-97374521D01*
X242001065Y-97346354D01*
X241880258Y-97120340D01*
X241805865Y-96875100D01*
X241780746Y-96620060D01*
X241805865Y-96365020D01*
X241880258Y-96119780D01*
X242001065Y-95893766D01*
X242043416Y-95842161D01*
X242163643Y-95695663D01*
X242310141Y-95575436D01*
X242361746Y-95533085D01*
X242587760Y-95412278D01*
X242833000Y-95337885D01*
X242928567Y-95328473D01*
X243024134Y-95319060D01*
X245151946Y-95319060D01*
X245247513Y-95328473D01*
X245247513Y-95328473D01*
G37*
G36*
X186836640Y-97656060D02*
G01*
X184834640Y-97656060D01*
X184834640Y-96754060D01*
X186836640Y-96754060D01*
X186836640Y-97656060D01*
X186836640Y-97656060D01*
G37*
G36*
X210103040Y-97497060D02*
G01*
X209201040Y-97497060D01*
X209201040Y-96495060D01*
X210103040Y-96495060D01*
X210103040Y-97497060D01*
X210103040Y-97497060D01*
G37*
G36*
X212003040Y-97497060D02*
G01*
X211101040Y-97497060D01*
X211101040Y-96495060D01*
X212003040Y-96495060D01*
X212003040Y-97497060D01*
X212003040Y-97497060D01*
G37*
G36*
X271302585Y-93478802D02*
G01*
X271452410Y-93508604D01*
X271734674Y-93625521D01*
X271988705Y-93795259D01*
X272204741Y-94011295D01*
X272374479Y-94265326D01*
X272491396Y-94547590D01*
X272551000Y-94847240D01*
X272551000Y-95152760D01*
X272491396Y-95452410D01*
X272374479Y-95734674D01*
X272204741Y-95988705D01*
X271988705Y-96204741D01*
X271734674Y-96374479D01*
X271452410Y-96491396D01*
X271302585Y-96521198D01*
X271152761Y-96551000D01*
X270847239Y-96551000D01*
X270697415Y-96521198D01*
X270547590Y-96491396D01*
X270265326Y-96374479D01*
X270011295Y-96204741D01*
X269795259Y-95988705D01*
X269625521Y-95734674D01*
X269508604Y-95452410D01*
X269449000Y-95152760D01*
X269449000Y-94847240D01*
X269508604Y-94547590D01*
X269625521Y-94265326D01*
X269795259Y-94011295D01*
X270011295Y-93795259D01*
X270265326Y-93625521D01*
X270547590Y-93508604D01*
X270697415Y-93478802D01*
X270847239Y-93449000D01*
X271152761Y-93449000D01*
X271302585Y-93478802D01*
X271302585Y-93478802D01*
G37*
G36*
X161949840Y-96362060D02*
G01*
X161047840Y-96362060D01*
X161047840Y-94360060D01*
X161949840Y-94360060D01*
X161949840Y-96362060D01*
X161949840Y-96362060D01*
G37*
G36*
X160049840Y-96362060D02*
G01*
X159147840Y-96362060D01*
X159147840Y-94360060D01*
X160049840Y-94360060D01*
X160049840Y-96362060D01*
X160049840Y-96362060D01*
G37*
G36*
X173801840Y-95604760D02*
G01*
X172899840Y-95604760D01*
X172899840Y-93602760D01*
X173801840Y-93602760D01*
X173801840Y-95604760D01*
X173801840Y-95604760D01*
G37*
G36*
X171901840Y-95604760D02*
G01*
X170999840Y-95604760D01*
X170999840Y-93602760D01*
X171901840Y-93602760D01*
X171901840Y-95604760D01*
X171901840Y-95604760D01*
G37*
G36*
X211053040Y-95497060D02*
G01*
X210151040Y-95497060D01*
X210151040Y-94495060D01*
X211053040Y-94495060D01*
X211053040Y-95497060D01*
X211053040Y-95497060D01*
G37*
G36*
X196926171Y-91871971D02*
G01*
X197253932Y-92007734D01*
X197548910Y-92204832D01*
X197799768Y-92455690D01*
X197996866Y-92750668D01*
X198132629Y-93078429D01*
X198201840Y-93426376D01*
X198201840Y-93781144D01*
X198132629Y-94129091D01*
X197996866Y-94456852D01*
X197799768Y-94751830D01*
X197548910Y-95002688D01*
X197253932Y-95199786D01*
X196926171Y-95335549D01*
X196578224Y-95404760D01*
X196223456Y-95404760D01*
X195875509Y-95335549D01*
X195547748Y-95199786D01*
X195252770Y-95002688D01*
X195001912Y-94751830D01*
X194804814Y-94456852D01*
X194669051Y-94129091D01*
X194599840Y-93781144D01*
X194599840Y-93426376D01*
X194669051Y-93078429D01*
X194804814Y-92750668D01*
X195001912Y-92455690D01*
X195252770Y-92204832D01*
X195547748Y-92007734D01*
X195875509Y-91871971D01*
X196223456Y-91802760D01*
X196578224Y-91802760D01*
X196926171Y-91871971D01*
X196926171Y-91871971D01*
G37*
G36*
X259971840Y-94892760D02*
G01*
X256869840Y-94892760D01*
X256869840Y-91790760D01*
X259971840Y-91790760D01*
X259971840Y-94892760D01*
X259971840Y-94892760D01*
G37*
G36*
X224952943Y-92329135D02*
G01*
X225148650Y-92410199D01*
X225180611Y-92423438D01*
X225385506Y-92560345D01*
X225559755Y-92734594D01*
X225696662Y-92939489D01*
X225790965Y-93167157D01*
X225839040Y-93408847D01*
X225839040Y-93655273D01*
X225790965Y-93896963D01*
X225696662Y-94124631D01*
X225559755Y-94329526D01*
X225385506Y-94503775D01*
X225180611Y-94640682D01*
X225180610Y-94640683D01*
X225180609Y-94640683D01*
X224952943Y-94734985D01*
X224711254Y-94783060D01*
X224464826Y-94783060D01*
X224223137Y-94734985D01*
X223995471Y-94640683D01*
X223995470Y-94640683D01*
X223995469Y-94640682D01*
X223790574Y-94503775D01*
X223616325Y-94329526D01*
X223479418Y-94124631D01*
X223385115Y-93896963D01*
X223337040Y-93655273D01*
X223337040Y-93408847D01*
X223385115Y-93167157D01*
X223479418Y-92939489D01*
X223616325Y-92734594D01*
X223790574Y-92560345D01*
X223995469Y-92423438D01*
X224027431Y-92410199D01*
X224223137Y-92329135D01*
X224464826Y-92281060D01*
X224711254Y-92281060D01*
X224952943Y-92329135D01*
X224952943Y-92329135D01*
G37*
G36*
X232453279Y-92299161D02*
G01*
X232689093Y-92370694D01*
X232906421Y-92486859D01*
X233096911Y-92643189D01*
X233253241Y-92833679D01*
X233369406Y-93051007D01*
X233440939Y-93286821D01*
X233465093Y-93532060D01*
X233440939Y-93777299D01*
X233369406Y-94013113D01*
X233253241Y-94230441D01*
X233096911Y-94420931D01*
X232906421Y-94577261D01*
X232689093Y-94693426D01*
X232453279Y-94764959D01*
X232269497Y-94783060D01*
X232146583Y-94783060D01*
X231962801Y-94764959D01*
X231726987Y-94693426D01*
X231509659Y-94577261D01*
X231319169Y-94420931D01*
X231162839Y-94230441D01*
X231046674Y-94013113D01*
X230975141Y-93777299D01*
X230950987Y-93532060D01*
X230975141Y-93286821D01*
X231046674Y-93051007D01*
X231162839Y-92833679D01*
X231319169Y-92643189D01*
X231509659Y-92486859D01*
X231726987Y-92370694D01*
X231962801Y-92299161D01*
X232146583Y-92281060D01*
X232269497Y-92281060D01*
X232453279Y-92299161D01*
X232453279Y-92299161D01*
G37*
G36*
X160999840Y-93362060D02*
G01*
X160097840Y-93362060D01*
X160097840Y-91360060D01*
X160999840Y-91360060D01*
X160999840Y-93362060D01*
X160999840Y-93362060D01*
G37*
G36*
X167540814Y-91370325D02*
G01*
X167578507Y-91381759D01*
X167613243Y-91400326D01*
X167643688Y-91425312D01*
X167668674Y-91455757D01*
X167687241Y-91490493D01*
X167698675Y-91528186D01*
X167703140Y-91573521D01*
X167703140Y-92410199D01*
X167698675Y-92455534D01*
X167687241Y-92493227D01*
X167668674Y-92527963D01*
X167643688Y-92558408D01*
X167613243Y-92583394D01*
X167578507Y-92601961D01*
X167540814Y-92613395D01*
X167495479Y-92617860D01*
X166408801Y-92617860D01*
X166363466Y-92613395D01*
X166325773Y-92601961D01*
X166291037Y-92583394D01*
X166260592Y-92558408D01*
X166235606Y-92527963D01*
X166217039Y-92493227D01*
X166205605Y-92455534D01*
X166201140Y-92410199D01*
X166201140Y-91573521D01*
X166205605Y-91528186D01*
X166217039Y-91490493D01*
X166235606Y-91455757D01*
X166260592Y-91425312D01*
X166291037Y-91400326D01*
X166325773Y-91381759D01*
X166363466Y-91370325D01*
X166408801Y-91365860D01*
X167495479Y-91365860D01*
X167540814Y-91370325D01*
X167540814Y-91370325D01*
G37*
G36*
X172851840Y-92604760D02*
G01*
X171949840Y-92604760D01*
X171949840Y-90602760D01*
X172851840Y-90602760D01*
X172851840Y-92604760D01*
X172851840Y-92604760D01*
G37*
G36*
X246389040Y-92471060D02*
G01*
X241787040Y-92471060D01*
X241787040Y-89869060D01*
X246389040Y-89869060D01*
X246389040Y-92471060D01*
X246389040Y-92471060D01*
G37*
G36*
X177865914Y-90396125D02*
G01*
X177903607Y-90407559D01*
X177938343Y-90426126D01*
X177968788Y-90451112D01*
X177993774Y-90481557D01*
X178012341Y-90516293D01*
X178023775Y-90553986D01*
X178028240Y-90599321D01*
X178028240Y-91435999D01*
X178023775Y-91481334D01*
X178012341Y-91519027D01*
X177993774Y-91553763D01*
X177968788Y-91584208D01*
X177938343Y-91609194D01*
X177903607Y-91627761D01*
X177865914Y-91639195D01*
X177820579Y-91643660D01*
X176733901Y-91643660D01*
X176688566Y-91639195D01*
X176650873Y-91627761D01*
X176616137Y-91609194D01*
X176585692Y-91584208D01*
X176560706Y-91553763D01*
X176542139Y-91519027D01*
X176530705Y-91481334D01*
X176526240Y-91435999D01*
X176526240Y-90599321D01*
X176530705Y-90553986D01*
X176542139Y-90516293D01*
X176560706Y-90481557D01*
X176585692Y-90451112D01*
X176616137Y-90426126D01*
X176650873Y-90407559D01*
X176688566Y-90396125D01*
X176733901Y-90391660D01*
X177820579Y-90391660D01*
X177865914Y-90396125D01*
X177865914Y-90396125D01*
G37*
G36*
X186768614Y-90358025D02*
G01*
X186806307Y-90369459D01*
X186841043Y-90388026D01*
X186871488Y-90413012D01*
X186896474Y-90443457D01*
X186915041Y-90478193D01*
X186926475Y-90515886D01*
X186930940Y-90561221D01*
X186930940Y-91397899D01*
X186926475Y-91443234D01*
X186915041Y-91480927D01*
X186896474Y-91515663D01*
X186871488Y-91546108D01*
X186841043Y-91571094D01*
X186806307Y-91589661D01*
X186768614Y-91601095D01*
X186723279Y-91605560D01*
X185636601Y-91605560D01*
X185591266Y-91601095D01*
X185553573Y-91589661D01*
X185518837Y-91571094D01*
X185488392Y-91546108D01*
X185463406Y-91515663D01*
X185444839Y-91480927D01*
X185433405Y-91443234D01*
X185428940Y-91397899D01*
X185428940Y-90561221D01*
X185433405Y-90515886D01*
X185444839Y-90478193D01*
X185463406Y-90443457D01*
X185488392Y-90413012D01*
X185518837Y-90388026D01*
X185553573Y-90369459D01*
X185591266Y-90358025D01*
X185636601Y-90353560D01*
X186723279Y-90353560D01*
X186768614Y-90358025D01*
X186768614Y-90358025D01*
G37*
G36*
X190997714Y-90350625D02*
G01*
X191035407Y-90362059D01*
X191070143Y-90380626D01*
X191100588Y-90405612D01*
X191125574Y-90436057D01*
X191144141Y-90470793D01*
X191155575Y-90508486D01*
X191160040Y-90553821D01*
X191160040Y-91390499D01*
X191155575Y-91435834D01*
X191144141Y-91473527D01*
X191125574Y-91508263D01*
X191100588Y-91538708D01*
X191070143Y-91563694D01*
X191035407Y-91582261D01*
X190997714Y-91593695D01*
X190952379Y-91598160D01*
X189865701Y-91598160D01*
X189820366Y-91593695D01*
X189782673Y-91582261D01*
X189747937Y-91563694D01*
X189717492Y-91538708D01*
X189692506Y-91508263D01*
X189673939Y-91473527D01*
X189662505Y-91435834D01*
X189658040Y-91390499D01*
X189658040Y-90553821D01*
X189662505Y-90508486D01*
X189673939Y-90470793D01*
X189692506Y-90436057D01*
X189717492Y-90405612D01*
X189747937Y-90380626D01*
X189782673Y-90362059D01*
X189820366Y-90350625D01*
X189865701Y-90346160D01*
X190952379Y-90346160D01*
X190997714Y-90350625D01*
X190997714Y-90350625D01*
G37*
G36*
X182031514Y-90345325D02*
G01*
X182069207Y-90356759D01*
X182103943Y-90375326D01*
X182134388Y-90400312D01*
X182159374Y-90430757D01*
X182177941Y-90465493D01*
X182189375Y-90503186D01*
X182193840Y-90548521D01*
X182193840Y-91385199D01*
X182189375Y-91430534D01*
X182177941Y-91468227D01*
X182159374Y-91502963D01*
X182134388Y-91533408D01*
X182103943Y-91558394D01*
X182069207Y-91576961D01*
X182031514Y-91588395D01*
X181986179Y-91592860D01*
X180899501Y-91592860D01*
X180854166Y-91588395D01*
X180816473Y-91576961D01*
X180781737Y-91558394D01*
X180751292Y-91533408D01*
X180726306Y-91502963D01*
X180707739Y-91468227D01*
X180696305Y-91430534D01*
X180691840Y-91385199D01*
X180691840Y-90548521D01*
X180696305Y-90503186D01*
X180707739Y-90465493D01*
X180726306Y-90430757D01*
X180751292Y-90400312D01*
X180781737Y-90375326D01*
X180816473Y-90356759D01*
X180854166Y-90345325D01*
X180899501Y-90340860D01*
X181986179Y-90340860D01*
X182031514Y-90345325D01*
X182031514Y-90345325D01*
G37*
G36*
X212839824Y-88380757D02*
G01*
X213040450Y-88420664D01*
X213322714Y-88537581D01*
X213576745Y-88707319D01*
X213792781Y-88923355D01*
X213962519Y-89177386D01*
X214079436Y-89459650D01*
X214139040Y-89759300D01*
X214139040Y-90064820D01*
X214079436Y-90364470D01*
X213962519Y-90646734D01*
X213792781Y-90900765D01*
X213576745Y-91116801D01*
X213322714Y-91286539D01*
X213040450Y-91403456D01*
X212934227Y-91424585D01*
X212740801Y-91463060D01*
X212435279Y-91463060D01*
X212241853Y-91424585D01*
X212135630Y-91403456D01*
X211853366Y-91286539D01*
X211599335Y-91116801D01*
X211383299Y-90900765D01*
X211213561Y-90646734D01*
X211096644Y-90364470D01*
X211037040Y-90064820D01*
X211037040Y-89759300D01*
X211096644Y-89459650D01*
X211213561Y-89177386D01*
X211383299Y-88923355D01*
X211599335Y-88707319D01*
X211853366Y-88537581D01*
X212135630Y-88420664D01*
X212336256Y-88380757D01*
X212435279Y-88361060D01*
X212740801Y-88361060D01*
X212839824Y-88380757D01*
X212839824Y-88380757D01*
G37*
G36*
X167540814Y-89320325D02*
G01*
X167578507Y-89331759D01*
X167613243Y-89350326D01*
X167643688Y-89375312D01*
X167668674Y-89405757D01*
X167687241Y-89440493D01*
X167698675Y-89478186D01*
X167703140Y-89523521D01*
X167703140Y-90360199D01*
X167698675Y-90405534D01*
X167687241Y-90443227D01*
X167668674Y-90477963D01*
X167643688Y-90508408D01*
X167613243Y-90533394D01*
X167578507Y-90551961D01*
X167540814Y-90563395D01*
X167495479Y-90567860D01*
X166408801Y-90567860D01*
X166363466Y-90563395D01*
X166325773Y-90551961D01*
X166291037Y-90533394D01*
X166260592Y-90508408D01*
X166235606Y-90477963D01*
X166217039Y-90443227D01*
X166205605Y-90405534D01*
X166201140Y-90360199D01*
X166201140Y-89523521D01*
X166205605Y-89478186D01*
X166217039Y-89440493D01*
X166235606Y-89405757D01*
X166260592Y-89375312D01*
X166291037Y-89350326D01*
X166325773Y-89331759D01*
X166363466Y-89320325D01*
X166408801Y-89315860D01*
X167495479Y-89315860D01*
X167540814Y-89320325D01*
X167540814Y-89320325D01*
G37*
G36*
X177865914Y-88346125D02*
G01*
X177903607Y-88357559D01*
X177938343Y-88376126D01*
X177968788Y-88401112D01*
X177993774Y-88431557D01*
X178012341Y-88466293D01*
X178023775Y-88503986D01*
X178028240Y-88549321D01*
X178028240Y-89385999D01*
X178023775Y-89431334D01*
X178012341Y-89469027D01*
X177993774Y-89503763D01*
X177968788Y-89534208D01*
X177938343Y-89559194D01*
X177903607Y-89577761D01*
X177865914Y-89589195D01*
X177820579Y-89593660D01*
X176733901Y-89593660D01*
X176688566Y-89589195D01*
X176650873Y-89577761D01*
X176616137Y-89559194D01*
X176585692Y-89534208D01*
X176560706Y-89503763D01*
X176542139Y-89469027D01*
X176530705Y-89431334D01*
X176526240Y-89385999D01*
X176526240Y-88549321D01*
X176530705Y-88503986D01*
X176542139Y-88466293D01*
X176560706Y-88431557D01*
X176585692Y-88401112D01*
X176616137Y-88376126D01*
X176650873Y-88357559D01*
X176688566Y-88346125D01*
X176733901Y-88341660D01*
X177820579Y-88341660D01*
X177865914Y-88346125D01*
X177865914Y-88346125D01*
G37*
G36*
X186768614Y-88308025D02*
G01*
X186806307Y-88319459D01*
X186841043Y-88338026D01*
X186871488Y-88363012D01*
X186896474Y-88393457D01*
X186915041Y-88428193D01*
X186926475Y-88465886D01*
X186930940Y-88511221D01*
X186930940Y-89347899D01*
X186926475Y-89393234D01*
X186915041Y-89430927D01*
X186896474Y-89465663D01*
X186871488Y-89496108D01*
X186841043Y-89521094D01*
X186806307Y-89539661D01*
X186768614Y-89551095D01*
X186723279Y-89555560D01*
X185636601Y-89555560D01*
X185591266Y-89551095D01*
X185553573Y-89539661D01*
X185518837Y-89521094D01*
X185488392Y-89496108D01*
X185463406Y-89465663D01*
X185444839Y-89430927D01*
X185433405Y-89393234D01*
X185428940Y-89347899D01*
X185428940Y-88511221D01*
X185433405Y-88465886D01*
X185444839Y-88428193D01*
X185463406Y-88393457D01*
X185488392Y-88363012D01*
X185518837Y-88338026D01*
X185553573Y-88319459D01*
X185591266Y-88308025D01*
X185636601Y-88303560D01*
X186723279Y-88303560D01*
X186768614Y-88308025D01*
X186768614Y-88308025D01*
G37*
G36*
X190997714Y-88300625D02*
G01*
X191035407Y-88312059D01*
X191070143Y-88330626D01*
X191100588Y-88355612D01*
X191125574Y-88386057D01*
X191144141Y-88420793D01*
X191155575Y-88458486D01*
X191160040Y-88503821D01*
X191160040Y-89340499D01*
X191155575Y-89385834D01*
X191144141Y-89423527D01*
X191125574Y-89458263D01*
X191100588Y-89488708D01*
X191070143Y-89513694D01*
X191035407Y-89532261D01*
X190997714Y-89543695D01*
X190952379Y-89548160D01*
X189865701Y-89548160D01*
X189820366Y-89543695D01*
X189782673Y-89532261D01*
X189747937Y-89513694D01*
X189717492Y-89488708D01*
X189692506Y-89458263D01*
X189673939Y-89423527D01*
X189662505Y-89385834D01*
X189658040Y-89340499D01*
X189658040Y-88503821D01*
X189662505Y-88458486D01*
X189673939Y-88420793D01*
X189692506Y-88386057D01*
X189717492Y-88355612D01*
X189747937Y-88330626D01*
X189782673Y-88312059D01*
X189820366Y-88300625D01*
X189865701Y-88296160D01*
X190952379Y-88296160D01*
X190997714Y-88300625D01*
X190997714Y-88300625D01*
G37*
G36*
X182031514Y-88295325D02*
G01*
X182069207Y-88306759D01*
X182103943Y-88325326D01*
X182134388Y-88350312D01*
X182159374Y-88380757D01*
X182177941Y-88415493D01*
X182189375Y-88453186D01*
X182193840Y-88498521D01*
X182193840Y-89335199D01*
X182189375Y-89380534D01*
X182177941Y-89418227D01*
X182159374Y-89452963D01*
X182134388Y-89483408D01*
X182103943Y-89508394D01*
X182069207Y-89526961D01*
X182031514Y-89538395D01*
X181986179Y-89542860D01*
X180899501Y-89542860D01*
X180854166Y-89538395D01*
X180816473Y-89526961D01*
X180781737Y-89508394D01*
X180751292Y-89483408D01*
X180726306Y-89452963D01*
X180707739Y-89418227D01*
X180696305Y-89380534D01*
X180691840Y-89335199D01*
X180691840Y-88498521D01*
X180696305Y-88453186D01*
X180707739Y-88415493D01*
X180726306Y-88380757D01*
X180751292Y-88350312D01*
X180781737Y-88325326D01*
X180816473Y-88306759D01*
X180854166Y-88295325D01*
X180899501Y-88290860D01*
X181986179Y-88290860D01*
X182031514Y-88295325D01*
X182031514Y-88295325D01*
G37*
G36*
X198433940Y-87917360D02*
G01*
X196531940Y-87917360D01*
X196531940Y-86015360D01*
X198433940Y-86015360D01*
X198433940Y-87917360D01*
X198433940Y-87917360D01*
G37*
G36*
X202749365Y-86029120D02*
G01*
X202749368Y-86029121D01*
X202749369Y-86029121D01*
X202928633Y-86083500D01*
X202928636Y-86083502D01*
X202928637Y-86083502D01*
X203093843Y-86171806D01*
X203238652Y-86290648D01*
X203357494Y-86435457D01*
X203443319Y-86596025D01*
X203445800Y-86600667D01*
X203485575Y-86731788D01*
X203500180Y-86779935D01*
X203518541Y-86966360D01*
X203500180Y-87152785D01*
X203500179Y-87152788D01*
X203500179Y-87152789D01*
X203445800Y-87332053D01*
X203445798Y-87332056D01*
X203445798Y-87332057D01*
X203357494Y-87497263D01*
X203238652Y-87642072D01*
X203093843Y-87760914D01*
X202928637Y-87849218D01*
X202928633Y-87849220D01*
X202749369Y-87903599D01*
X202749368Y-87903599D01*
X202749365Y-87903600D01*
X202609658Y-87917360D01*
X202516222Y-87917360D01*
X202376515Y-87903600D01*
X202376512Y-87903599D01*
X202376511Y-87903599D01*
X202197247Y-87849220D01*
X202197243Y-87849218D01*
X202032037Y-87760914D01*
X201887228Y-87642072D01*
X201768386Y-87497263D01*
X201680082Y-87332057D01*
X201680082Y-87332056D01*
X201680080Y-87332053D01*
X201625701Y-87152789D01*
X201625701Y-87152788D01*
X201625700Y-87152785D01*
X201607339Y-86966360D01*
X201625700Y-86779935D01*
X201640305Y-86731788D01*
X201680080Y-86600667D01*
X201682561Y-86596025D01*
X201768386Y-86435457D01*
X201887228Y-86290648D01*
X202032037Y-86171806D01*
X202197243Y-86083502D01*
X202197244Y-86083502D01*
X202197247Y-86083500D01*
X202376511Y-86029121D01*
X202376512Y-86029121D01*
X202376515Y-86029120D01*
X202516222Y-86015360D01*
X202609658Y-86015360D01*
X202749365Y-86029120D01*
X202749365Y-86029120D01*
G37*
G36*
X200209365Y-86029120D02*
G01*
X200209368Y-86029121D01*
X200209369Y-86029121D01*
X200388633Y-86083500D01*
X200388636Y-86083502D01*
X200388637Y-86083502D01*
X200553843Y-86171806D01*
X200698652Y-86290648D01*
X200817494Y-86435457D01*
X200903319Y-86596025D01*
X200905800Y-86600667D01*
X200945575Y-86731788D01*
X200960180Y-86779935D01*
X200978541Y-86966360D01*
X200960180Y-87152785D01*
X200960179Y-87152788D01*
X200960179Y-87152789D01*
X200905800Y-87332053D01*
X200905798Y-87332056D01*
X200905798Y-87332057D01*
X200817494Y-87497263D01*
X200698652Y-87642072D01*
X200553843Y-87760914D01*
X200388637Y-87849218D01*
X200388633Y-87849220D01*
X200209369Y-87903599D01*
X200209368Y-87903599D01*
X200209365Y-87903600D01*
X200069658Y-87917360D01*
X199976222Y-87917360D01*
X199836515Y-87903600D01*
X199836512Y-87903599D01*
X199836511Y-87903599D01*
X199657247Y-87849220D01*
X199657243Y-87849218D01*
X199492037Y-87760914D01*
X199347228Y-87642072D01*
X199228386Y-87497263D01*
X199140082Y-87332057D01*
X199140082Y-87332056D01*
X199140080Y-87332053D01*
X199085701Y-87152789D01*
X199085701Y-87152788D01*
X199085700Y-87152785D01*
X199067339Y-86966360D01*
X199085700Y-86779935D01*
X199100305Y-86731788D01*
X199140080Y-86600667D01*
X199142561Y-86596025D01*
X199228386Y-86435457D01*
X199347228Y-86290648D01*
X199492037Y-86171806D01*
X199657243Y-86083502D01*
X199657244Y-86083502D01*
X199657247Y-86083500D01*
X199836511Y-86029121D01*
X199836512Y-86029121D01*
X199836515Y-86029120D01*
X199976222Y-86015360D01*
X200069658Y-86015360D01*
X200209365Y-86029120D01*
X200209365Y-86029120D01*
G37*
G36*
X214139040Y-87583060D02*
G01*
X211037040Y-87583060D01*
X211037040Y-84481060D01*
X214139040Y-84481060D01*
X214139040Y-87583060D01*
X214139040Y-87583060D01*
G37*
G36*
X252125331Y-83268211D02*
G01*
X252453092Y-83403974D01*
X252748070Y-83601072D01*
X252998928Y-83851930D01*
X253196026Y-84146908D01*
X253331789Y-84474669D01*
X253401000Y-84822616D01*
X253401000Y-85177384D01*
X253331789Y-85525331D01*
X253196026Y-85853092D01*
X252998928Y-86148070D01*
X252748070Y-86398928D01*
X252453092Y-86596026D01*
X252125331Y-86731789D01*
X251777384Y-86801000D01*
X251422616Y-86801000D01*
X251074669Y-86731789D01*
X250746908Y-86596026D01*
X250451930Y-86398928D01*
X250201072Y-86148070D01*
X250003974Y-85853092D01*
X249868211Y-85525331D01*
X249799000Y-85177384D01*
X249799000Y-84822616D01*
X249868211Y-84474669D01*
X250003974Y-84146908D01*
X250201072Y-83851930D01*
X250451930Y-83601072D01*
X250746908Y-83403974D01*
X251074669Y-83268211D01*
X251422616Y-83199000D01*
X251777384Y-83199000D01*
X252125331Y-83268211D01*
X252125331Y-83268211D01*
G37*
G36*
X245289512Y-82998472D02*
G01*
X245385080Y-83007885D01*
X245630320Y-83082278D01*
X245856334Y-83203085D01*
X245894825Y-83234674D01*
X246054437Y-83365663D01*
X246155413Y-83488704D01*
X246217015Y-83563766D01*
X246337822Y-83789780D01*
X246412215Y-84035020D01*
X246437334Y-84290060D01*
X246412215Y-84545100D01*
X246337822Y-84790340D01*
X246217015Y-85016354D01*
X246174664Y-85067959D01*
X246054437Y-85214457D01*
X245907939Y-85334684D01*
X245856334Y-85377035D01*
X245630320Y-85497842D01*
X245385080Y-85572235D01*
X245289513Y-85581647D01*
X245193946Y-85591060D01*
X243066134Y-85591060D01*
X242970568Y-85581648D01*
X242875000Y-85572235D01*
X242629760Y-85497842D01*
X242403746Y-85377035D01*
X242352141Y-85334684D01*
X242205643Y-85214457D01*
X242085416Y-85067959D01*
X242043065Y-85016354D01*
X241922258Y-84790340D01*
X241847865Y-84545100D01*
X241822746Y-84290060D01*
X241847865Y-84035020D01*
X241922258Y-83789780D01*
X242043065Y-83563766D01*
X242104667Y-83488704D01*
X242205643Y-83365663D01*
X242365255Y-83234674D01*
X242403746Y-83203085D01*
X242629760Y-83082278D01*
X242875000Y-83007885D01*
X242970567Y-82998473D01*
X243066134Y-82989060D01*
X245193946Y-82989060D01*
X245289512Y-82998472D01*
X245289512Y-82998472D01*
G37*
G36*
X169704940Y-85426560D02*
G01*
X167602940Y-85426560D01*
X167602940Y-83324560D01*
X169704940Y-83324560D01*
X169704940Y-85426560D01*
X169704940Y-85426560D01*
G37*
G36*
X271302585Y-80978802D02*
G01*
X271452410Y-81008604D01*
X271734674Y-81125521D01*
X271988705Y-81295259D01*
X272204741Y-81511295D01*
X272374479Y-81765326D01*
X272491396Y-82047590D01*
X272551000Y-82347240D01*
X272551000Y-82652760D01*
X272491396Y-82952410D01*
X272374479Y-83234674D01*
X272204741Y-83488705D01*
X271988705Y-83704741D01*
X271734674Y-83874479D01*
X271452410Y-83991396D01*
X271302585Y-84021198D01*
X271152761Y-84051000D01*
X270847239Y-84051000D01*
X270697415Y-84021198D01*
X270547590Y-83991396D01*
X270265326Y-83874479D01*
X270011295Y-83704741D01*
X269795259Y-83488705D01*
X269625521Y-83234674D01*
X269508604Y-82952410D01*
X269449000Y-82652760D01*
X269449000Y-82347240D01*
X269508604Y-82047590D01*
X269625521Y-81765326D01*
X269795259Y-81511295D01*
X270011295Y-81295259D01*
X270265326Y-81125521D01*
X270547590Y-81008604D01*
X270697415Y-80978802D01*
X270847239Y-80949000D01*
X271152761Y-80949000D01*
X271302585Y-80978802D01*
X271302585Y-80978802D01*
G37*
G36*
X232453279Y-81299161D02*
G01*
X232689093Y-81370694D01*
X232906421Y-81486859D01*
X233096911Y-81643189D01*
X233253241Y-81833679D01*
X233369406Y-82051007D01*
X233440939Y-82286821D01*
X233465093Y-82532060D01*
X233440939Y-82777299D01*
X233369406Y-83013113D01*
X233253241Y-83230441D01*
X233096911Y-83420931D01*
X232906421Y-83577261D01*
X232689093Y-83693426D01*
X232453279Y-83764959D01*
X232269497Y-83783060D01*
X232146583Y-83783060D01*
X231962801Y-83764959D01*
X231726987Y-83693426D01*
X231509659Y-83577261D01*
X231319169Y-83420931D01*
X231162839Y-83230441D01*
X231046674Y-83013113D01*
X230975141Y-82777299D01*
X230950987Y-82532060D01*
X230975141Y-82286821D01*
X231046674Y-82051007D01*
X231162839Y-81833679D01*
X231319169Y-81643189D01*
X231509659Y-81486859D01*
X231726987Y-81370694D01*
X231962801Y-81299161D01*
X232146583Y-81281060D01*
X232269497Y-81281060D01*
X232453279Y-81299161D01*
X232453279Y-81299161D01*
G37*
G36*
X224952943Y-81329135D02*
G01*
X225053276Y-81370694D01*
X225180611Y-81423438D01*
X225385506Y-81560345D01*
X225559755Y-81734594D01*
X225625962Y-81833680D01*
X225696663Y-81939491D01*
X225790965Y-82167157D01*
X225826786Y-82347239D01*
X225839040Y-82408847D01*
X225839040Y-82655273D01*
X225790965Y-82896963D01*
X225696662Y-83124631D01*
X225559755Y-83329526D01*
X225385506Y-83503775D01*
X225180611Y-83640682D01*
X225180610Y-83640683D01*
X225180609Y-83640683D01*
X224952943Y-83734985D01*
X224711254Y-83783060D01*
X224464826Y-83783060D01*
X224223137Y-83734985D01*
X223995471Y-83640683D01*
X223995470Y-83640683D01*
X223995469Y-83640682D01*
X223790574Y-83503775D01*
X223616325Y-83329526D01*
X223479418Y-83124631D01*
X223385115Y-82896963D01*
X223337040Y-82655273D01*
X223337040Y-82408847D01*
X223349295Y-82347239D01*
X223385115Y-82167157D01*
X223479417Y-81939491D01*
X223550118Y-81833680D01*
X223616325Y-81734594D01*
X223790574Y-81560345D01*
X223995469Y-81423438D01*
X224122805Y-81370694D01*
X224223137Y-81329135D01*
X224464826Y-81281060D01*
X224711254Y-81281060D01*
X224952943Y-81329135D01*
X224952943Y-81329135D01*
G37*
G36*
X258723425Y-79190562D02*
G01*
X258873250Y-79220364D01*
X259155514Y-79337281D01*
X259409545Y-79507019D01*
X259625581Y-79723055D01*
X259795319Y-79977086D01*
X259912236Y-80259350D01*
X259971840Y-80559000D01*
X259971840Y-80864520D01*
X259912236Y-81164170D01*
X259795319Y-81446434D01*
X259625581Y-81700465D01*
X259409545Y-81916501D01*
X259155514Y-82086239D01*
X258873250Y-82203156D01*
X258723425Y-82232958D01*
X258573601Y-82262760D01*
X258268079Y-82262760D01*
X258118255Y-82232958D01*
X257968430Y-82203156D01*
X257686166Y-82086239D01*
X257432135Y-81916501D01*
X257216099Y-81700465D01*
X257046361Y-81446434D01*
X256929444Y-81164170D01*
X256869840Y-80864520D01*
X256869840Y-80559000D01*
X256929444Y-80259350D01*
X257046361Y-79977086D01*
X257216099Y-79723055D01*
X257432135Y-79507019D01*
X257686166Y-79337281D01*
X257968430Y-79220364D01*
X258118255Y-79190562D01*
X258268079Y-79160760D01*
X258573601Y-79160760D01*
X258723425Y-79190562D01*
X258723425Y-79190562D01*
G37*
G36*
X210103040Y-81241060D02*
G01*
X209201040Y-81241060D01*
X209201040Y-80239060D01*
X210103040Y-80239060D01*
X210103040Y-81241060D01*
X210103040Y-81241060D01*
G37*
G36*
X212003040Y-81241060D02*
G01*
X211101040Y-81241060D01*
X211101040Y-80239060D01*
X212003040Y-80239060D01*
X212003040Y-81241060D01*
X212003040Y-81241060D01*
G37*
G36*
X187739514Y-79057025D02*
G01*
X187777207Y-79068459D01*
X187811943Y-79087026D01*
X187842388Y-79112012D01*
X187867374Y-79142457D01*
X187885941Y-79177193D01*
X187897375Y-79214886D01*
X187901840Y-79260221D01*
X187901840Y-80346899D01*
X187897375Y-80392234D01*
X187885941Y-80429927D01*
X187867374Y-80464663D01*
X187842388Y-80495108D01*
X187811943Y-80520094D01*
X187777207Y-80538661D01*
X187739514Y-80550095D01*
X187694179Y-80554560D01*
X186857501Y-80554560D01*
X186812166Y-80550095D01*
X186774473Y-80538661D01*
X186739737Y-80520094D01*
X186709292Y-80495108D01*
X186684306Y-80464663D01*
X186665739Y-80429927D01*
X186654305Y-80392234D01*
X186649840Y-80346899D01*
X186649840Y-79260221D01*
X186654305Y-79214886D01*
X186665739Y-79177193D01*
X186684306Y-79142457D01*
X186709292Y-79112012D01*
X186739737Y-79087026D01*
X186774473Y-79068459D01*
X186812166Y-79057025D01*
X186857501Y-79052560D01*
X187694179Y-79052560D01*
X187739514Y-79057025D01*
X187739514Y-79057025D01*
G37*
G36*
X189789514Y-79057025D02*
G01*
X189827207Y-79068459D01*
X189861943Y-79087026D01*
X189892388Y-79112012D01*
X189917374Y-79142457D01*
X189935941Y-79177193D01*
X189947375Y-79214886D01*
X189951840Y-79260221D01*
X189951840Y-80346899D01*
X189947375Y-80392234D01*
X189935941Y-80429927D01*
X189917374Y-80464663D01*
X189892388Y-80495108D01*
X189861943Y-80520094D01*
X189827207Y-80538661D01*
X189789514Y-80550095D01*
X189744179Y-80554560D01*
X188907501Y-80554560D01*
X188862166Y-80550095D01*
X188824473Y-80538661D01*
X188789737Y-80520094D01*
X188759292Y-80495108D01*
X188734306Y-80464663D01*
X188715739Y-80429927D01*
X188704305Y-80392234D01*
X188699840Y-80346899D01*
X188699840Y-79260221D01*
X188704305Y-79214886D01*
X188715739Y-79177193D01*
X188734306Y-79142457D01*
X188759292Y-79112012D01*
X188789737Y-79087026D01*
X188824473Y-79068459D01*
X188862166Y-79057025D01*
X188907501Y-79052560D01*
X189744179Y-79052560D01*
X189789514Y-79057025D01*
X189789514Y-79057025D01*
G37*
G36*
X245259667Y-77545533D02*
G01*
X245385080Y-77557885D01*
X245630320Y-77632278D01*
X245856334Y-77753085D01*
X245907939Y-77795436D01*
X246054437Y-77915663D01*
X246140017Y-78019944D01*
X246217015Y-78113766D01*
X246337822Y-78339780D01*
X246412215Y-78585020D01*
X246437334Y-78840060D01*
X246412215Y-79095100D01*
X246337822Y-79340340D01*
X246217015Y-79566354D01*
X246174664Y-79617959D01*
X246054437Y-79764457D01*
X245944401Y-79854760D01*
X245856334Y-79927035D01*
X245630320Y-80047842D01*
X245385080Y-80122235D01*
X245289513Y-80131647D01*
X245193946Y-80141060D01*
X243066134Y-80141060D01*
X242970567Y-80131647D01*
X242875000Y-80122235D01*
X242629760Y-80047842D01*
X242403746Y-79927035D01*
X242315679Y-79854760D01*
X242205643Y-79764457D01*
X242085416Y-79617959D01*
X242043065Y-79566354D01*
X241922258Y-79340340D01*
X241847865Y-79095100D01*
X241822746Y-78840060D01*
X241847865Y-78585020D01*
X241922258Y-78339780D01*
X242043065Y-78113766D01*
X242120063Y-78019944D01*
X242205643Y-77915663D01*
X242352141Y-77795436D01*
X242403746Y-77753085D01*
X242629760Y-77632278D01*
X242875000Y-77557885D01*
X243000413Y-77545533D01*
X243066134Y-77539060D01*
X245193946Y-77539060D01*
X245259667Y-77545533D01*
X245259667Y-77545533D01*
G37*
G36*
X196389514Y-78357225D02*
G01*
X196427207Y-78368659D01*
X196461943Y-78387226D01*
X196492388Y-78412212D01*
X196517374Y-78442657D01*
X196535941Y-78477393D01*
X196547375Y-78515086D01*
X196551840Y-78560421D01*
X196551840Y-79647099D01*
X196547375Y-79692434D01*
X196535941Y-79730127D01*
X196517374Y-79764863D01*
X196492388Y-79795308D01*
X196461943Y-79820294D01*
X196427207Y-79838861D01*
X196389514Y-79850295D01*
X196344179Y-79854760D01*
X195507501Y-79854760D01*
X195462166Y-79850295D01*
X195424473Y-79838861D01*
X195389737Y-79820294D01*
X195359292Y-79795308D01*
X195334306Y-79764863D01*
X195315739Y-79730127D01*
X195304305Y-79692434D01*
X195299840Y-79647099D01*
X195299840Y-78560421D01*
X195304305Y-78515086D01*
X195315739Y-78477393D01*
X195334306Y-78442657D01*
X195359292Y-78412212D01*
X195389737Y-78387226D01*
X195424473Y-78368659D01*
X195462166Y-78357225D01*
X195507501Y-78352760D01*
X196344179Y-78352760D01*
X196389514Y-78357225D01*
X196389514Y-78357225D01*
G37*
G36*
X194339514Y-78357225D02*
G01*
X194377207Y-78368659D01*
X194411943Y-78387226D01*
X194442388Y-78412212D01*
X194467374Y-78442657D01*
X194485941Y-78477393D01*
X194497375Y-78515086D01*
X194501840Y-78560421D01*
X194501840Y-79647099D01*
X194497375Y-79692434D01*
X194485941Y-79730127D01*
X194467374Y-79764863D01*
X194442388Y-79795308D01*
X194411943Y-79820294D01*
X194377207Y-79838861D01*
X194339514Y-79850295D01*
X194294179Y-79854760D01*
X193457501Y-79854760D01*
X193412166Y-79850295D01*
X193374473Y-79838861D01*
X193339737Y-79820294D01*
X193309292Y-79795308D01*
X193284306Y-79764863D01*
X193265739Y-79730127D01*
X193254305Y-79692434D01*
X193249840Y-79647099D01*
X193249840Y-78560421D01*
X193254305Y-78515086D01*
X193265739Y-78477393D01*
X193284306Y-78442657D01*
X193309292Y-78412212D01*
X193339737Y-78387226D01*
X193374473Y-78368659D01*
X193412166Y-78357225D01*
X193457501Y-78352760D01*
X194294179Y-78352760D01*
X194339514Y-78357225D01*
X194339514Y-78357225D01*
G37*
G36*
X211053040Y-79241060D02*
G01*
X210151040Y-79241060D01*
X210151040Y-78239060D01*
X211053040Y-78239060D01*
X211053040Y-79241060D01*
X211053040Y-79241060D01*
G37*
G36*
X271302585Y-75978802D02*
G01*
X271452410Y-76008604D01*
X271734674Y-76125521D01*
X271988705Y-76295259D01*
X272204741Y-76511295D01*
X272374479Y-76765326D01*
X272491396Y-77047590D01*
X272551000Y-77347240D01*
X272551000Y-77652760D01*
X272491396Y-77952410D01*
X272374479Y-78234674D01*
X272204741Y-78488705D01*
X271988705Y-78704741D01*
X271734674Y-78874479D01*
X271452410Y-78991396D01*
X271302585Y-79021198D01*
X271152761Y-79051000D01*
X270847239Y-79051000D01*
X270697415Y-79021198D01*
X270547590Y-78991396D01*
X270265326Y-78874479D01*
X270011295Y-78704741D01*
X269795259Y-78488705D01*
X269625521Y-78234674D01*
X269508604Y-77952410D01*
X269449000Y-77652760D01*
X269449000Y-77347240D01*
X269508604Y-77047590D01*
X269625521Y-76765326D01*
X269795259Y-76511295D01*
X270011295Y-76295259D01*
X270265326Y-76125521D01*
X270547590Y-76008604D01*
X270697415Y-75978802D01*
X270847239Y-75949000D01*
X271152761Y-75949000D01*
X271302585Y-75978802D01*
X271302585Y-75978802D01*
G37*
G36*
X202149068Y-77285463D02*
G01*
X202303940Y-77349613D01*
X202443321Y-77442745D01*
X202561855Y-77561279D01*
X202654987Y-77700660D01*
X202719137Y-77855532D01*
X202751840Y-78019944D01*
X202751840Y-78187576D01*
X202719137Y-78351988D01*
X202654987Y-78506860D01*
X202561855Y-78646241D01*
X202443321Y-78764775D01*
X202303940Y-78857907D01*
X202149068Y-78922057D01*
X201984656Y-78954760D01*
X201817024Y-78954760D01*
X201652612Y-78922057D01*
X201497740Y-78857907D01*
X201358359Y-78764775D01*
X201239825Y-78646241D01*
X201146693Y-78506860D01*
X201082543Y-78351988D01*
X201049840Y-78187576D01*
X201049840Y-78019944D01*
X201082543Y-77855532D01*
X201146693Y-77700660D01*
X201239825Y-77561279D01*
X201358359Y-77442745D01*
X201497740Y-77349613D01*
X201652612Y-77285463D01*
X201817024Y-77252760D01*
X201984656Y-77252760D01*
X202149068Y-77285463D01*
X202149068Y-77285463D01*
G37*
G36*
X204751840Y-78954760D02*
G01*
X203049840Y-78954760D01*
X203049840Y-77252760D01*
X204751840Y-77252760D01*
X204751840Y-78954760D01*
X204751840Y-78954760D01*
G37*
G36*
X259971840Y-78382760D02*
G01*
X256869840Y-78382760D01*
X256869840Y-75280760D01*
X259971840Y-75280760D01*
X259971840Y-78382760D01*
X259971840Y-78382760D01*
G37*
G36*
X168960504Y-75864949D02*
G01*
X169151773Y-75944175D01*
X169151775Y-75944176D01*
X169323913Y-76059195D01*
X169470305Y-76205587D01*
X169530223Y-76295260D01*
X169585325Y-76377727D01*
X169664551Y-76568996D01*
X169704940Y-76772044D01*
X169704940Y-76979076D01*
X169664551Y-77182124D01*
X169621746Y-77285465D01*
X169585324Y-77373395D01*
X169470305Y-77545533D01*
X169323913Y-77691925D01*
X169151775Y-77806944D01*
X169151774Y-77806945D01*
X169151773Y-77806945D01*
X168960504Y-77886171D01*
X168757456Y-77926560D01*
X168550424Y-77926560D01*
X168347376Y-77886171D01*
X168156107Y-77806945D01*
X168156106Y-77806945D01*
X168156105Y-77806944D01*
X167983967Y-77691925D01*
X167837575Y-77545533D01*
X167722556Y-77373395D01*
X167686134Y-77285465D01*
X167643329Y-77182124D01*
X167602940Y-76979076D01*
X167602940Y-76772044D01*
X167643329Y-76568996D01*
X167722555Y-76377727D01*
X167777658Y-76295260D01*
X167837575Y-76205587D01*
X167983967Y-76059195D01*
X168156105Y-75944176D01*
X168156107Y-75944175D01*
X168347376Y-75864949D01*
X168550424Y-75824560D01*
X168757456Y-75824560D01*
X168960504Y-75864949D01*
X168960504Y-75864949D01*
G37*
G36*
X218006714Y-74080525D02*
G01*
X218044407Y-74091959D01*
X218079143Y-74110526D01*
X218109588Y-74135512D01*
X218134574Y-74165957D01*
X218153141Y-74200693D01*
X218164575Y-74238386D01*
X218169040Y-74283721D01*
X218169040Y-75120399D01*
X218164575Y-75165734D01*
X218153141Y-75203427D01*
X218134574Y-75238163D01*
X218109588Y-75268608D01*
X218079143Y-75293594D01*
X218044407Y-75312161D01*
X218006714Y-75323595D01*
X217961379Y-75328060D01*
X216874701Y-75328060D01*
X216829366Y-75323595D01*
X216791673Y-75312161D01*
X216756937Y-75293594D01*
X216726492Y-75268608D01*
X216701506Y-75238163D01*
X216682939Y-75203427D01*
X216671505Y-75165734D01*
X216667040Y-75120399D01*
X216667040Y-74283721D01*
X216671505Y-74238386D01*
X216682939Y-74200693D01*
X216701506Y-74165957D01*
X216726492Y-74135512D01*
X216756937Y-74110526D01*
X216791673Y-74091959D01*
X216829366Y-74080525D01*
X216874701Y-74076060D01*
X217961379Y-74076060D01*
X218006714Y-74080525D01*
X218006714Y-74080525D01*
G37*
G36*
X191821514Y-73545225D02*
G01*
X191859207Y-73556659D01*
X191893943Y-73575226D01*
X191924388Y-73600212D01*
X191949374Y-73630657D01*
X191967941Y-73665393D01*
X191979375Y-73703086D01*
X191983840Y-73748421D01*
X191983840Y-74835099D01*
X191979375Y-74880434D01*
X191967941Y-74918127D01*
X191949374Y-74952863D01*
X191924388Y-74983308D01*
X191893943Y-75008294D01*
X191859207Y-75026861D01*
X191821514Y-75038295D01*
X191776179Y-75042760D01*
X190939501Y-75042760D01*
X190894166Y-75038295D01*
X190856473Y-75026861D01*
X190821737Y-75008294D01*
X190791292Y-74983308D01*
X190766306Y-74952863D01*
X190747739Y-74918127D01*
X190736305Y-74880434D01*
X190731840Y-74835099D01*
X190731840Y-73748421D01*
X190736305Y-73703086D01*
X190747739Y-73665393D01*
X190766306Y-73630657D01*
X190791292Y-73600212D01*
X190821737Y-73575226D01*
X190856473Y-73556659D01*
X190894166Y-73545225D01*
X190939501Y-73540760D01*
X191776179Y-73540760D01*
X191821514Y-73545225D01*
X191821514Y-73545225D01*
G37*
G36*
X189771988Y-73545214D02*
G01*
X189809568Y-73556614D01*
X189844204Y-73575127D01*
X189874560Y-73600040D01*
X189899473Y-73630396D01*
X189917986Y-73665032D01*
X189929386Y-73702612D01*
X189933840Y-73747835D01*
X189933840Y-74835685D01*
X189929386Y-74880908D01*
X189917986Y-74918488D01*
X189899473Y-74953124D01*
X189874560Y-74983480D01*
X189844204Y-75008393D01*
X189809568Y-75026906D01*
X189771988Y-75038306D01*
X189726765Y-75042760D01*
X188888915Y-75042760D01*
X188843692Y-75038306D01*
X188806112Y-75026906D01*
X188771476Y-75008393D01*
X188741120Y-74983480D01*
X188716207Y-74953124D01*
X188697694Y-74918488D01*
X188686294Y-74880908D01*
X188681840Y-74835685D01*
X188681840Y-73747835D01*
X188686294Y-73702612D01*
X188697694Y-73665032D01*
X188716207Y-73630396D01*
X188741120Y-73600040D01*
X188771476Y-73575127D01*
X188806112Y-73556614D01*
X188843692Y-73545214D01*
X188888915Y-73540760D01*
X189726765Y-73540760D01*
X189771988Y-73545214D01*
X189771988Y-73545214D01*
G37*
G36*
X246431040Y-74691060D02*
G01*
X241829040Y-74691060D01*
X241829040Y-72089060D01*
X246431040Y-72089060D01*
X246431040Y-74691060D01*
X246431040Y-74691060D01*
G37*
G36*
X211053040Y-74645060D02*
G01*
X210151040Y-74645060D01*
X210151040Y-72643060D01*
X211053040Y-72643060D01*
X211053040Y-74645060D01*
X211053040Y-74645060D01*
G37*
G36*
X225023040Y-73859060D02*
G01*
X224121040Y-73859060D01*
X224121040Y-71857060D01*
X225023040Y-71857060D01*
X225023040Y-73859060D01*
X225023040Y-73859060D01*
G37*
G36*
X236140714Y-72135525D02*
G01*
X236178407Y-72146959D01*
X236213143Y-72165526D01*
X236243588Y-72190512D01*
X236268574Y-72220957D01*
X236287141Y-72255693D01*
X236298575Y-72293386D01*
X236303040Y-72338721D01*
X236303040Y-73425399D01*
X236298575Y-73470734D01*
X236287141Y-73508427D01*
X236268574Y-73543163D01*
X236243588Y-73573608D01*
X236213143Y-73598594D01*
X236178407Y-73617161D01*
X236140714Y-73628595D01*
X236095379Y-73633060D01*
X235258701Y-73633060D01*
X235213366Y-73628595D01*
X235175673Y-73617161D01*
X235140937Y-73598594D01*
X235110492Y-73573608D01*
X235085506Y-73543163D01*
X235066939Y-73508427D01*
X235055505Y-73470734D01*
X235051040Y-73425399D01*
X235051040Y-72338721D01*
X235055505Y-72293386D01*
X235066939Y-72255693D01*
X235085506Y-72220957D01*
X235110492Y-72190512D01*
X235140937Y-72165526D01*
X235175673Y-72146959D01*
X235213366Y-72135525D01*
X235258701Y-72131060D01*
X236095379Y-72131060D01*
X236140714Y-72135525D01*
X236140714Y-72135525D01*
G37*
G36*
X234090714Y-72135525D02*
G01*
X234128407Y-72146959D01*
X234163143Y-72165526D01*
X234193588Y-72190512D01*
X234218574Y-72220957D01*
X234237141Y-72255693D01*
X234248575Y-72293386D01*
X234253040Y-72338721D01*
X234253040Y-73425399D01*
X234248575Y-73470734D01*
X234237141Y-73508427D01*
X234218574Y-73543163D01*
X234193588Y-73573608D01*
X234163143Y-73598594D01*
X234128407Y-73617161D01*
X234090714Y-73628595D01*
X234045379Y-73633060D01*
X233208701Y-73633060D01*
X233163366Y-73628595D01*
X233125673Y-73617161D01*
X233090937Y-73598594D01*
X233060492Y-73573608D01*
X233035506Y-73543163D01*
X233016939Y-73508427D01*
X233005505Y-73470734D01*
X233001040Y-73425399D01*
X233001040Y-72338721D01*
X233005505Y-72293386D01*
X233016939Y-72255693D01*
X233035506Y-72220957D01*
X233060492Y-72190512D01*
X233090937Y-72165526D01*
X233125673Y-72146959D01*
X233163366Y-72135525D01*
X233208701Y-72131060D01*
X234045379Y-72131060D01*
X234090714Y-72135525D01*
X234090714Y-72135525D01*
G37*
G36*
X180929040Y-73613060D02*
G01*
X178927040Y-73613060D01*
X178927040Y-72711060D01*
X180929040Y-72711060D01*
X180929040Y-73613060D01*
X180929040Y-73613060D01*
G37*
G36*
X198334102Y-71610241D02*
G01*
X198369021Y-71620834D01*
X198401203Y-71638036D01*
X198429413Y-71661187D01*
X198452564Y-71689397D01*
X198469766Y-71721579D01*
X198480359Y-71756498D01*
X198484540Y-71798955D01*
X198484540Y-73265165D01*
X198480359Y-73307622D01*
X198469766Y-73342541D01*
X198452564Y-73374723D01*
X198429413Y-73402933D01*
X198401203Y-73426084D01*
X198369021Y-73443286D01*
X198334102Y-73453879D01*
X198291645Y-73458060D01*
X197150435Y-73458060D01*
X197107978Y-73453879D01*
X197073059Y-73443286D01*
X197040877Y-73426084D01*
X197012667Y-73402933D01*
X196989516Y-73374723D01*
X196972314Y-73342541D01*
X196961721Y-73307622D01*
X196957540Y-73265165D01*
X196957540Y-71798955D01*
X196961721Y-71756498D01*
X196972314Y-71721579D01*
X196989516Y-71689397D01*
X197012667Y-71661187D01*
X197040877Y-71638036D01*
X197073059Y-71620834D01*
X197107978Y-71610241D01*
X197150435Y-71606060D01*
X198291645Y-71606060D01*
X198334102Y-71610241D01*
X198334102Y-71610241D01*
G37*
G36*
X201309102Y-71610241D02*
G01*
X201344021Y-71620834D01*
X201376203Y-71638036D01*
X201404413Y-71661187D01*
X201427564Y-71689397D01*
X201444766Y-71721579D01*
X201455359Y-71756498D01*
X201459540Y-71798955D01*
X201459540Y-73265165D01*
X201455359Y-73307622D01*
X201444766Y-73342541D01*
X201427564Y-73374723D01*
X201404413Y-73402933D01*
X201376203Y-73426084D01*
X201344021Y-73443286D01*
X201309102Y-73453879D01*
X201266645Y-73458060D01*
X200125435Y-73458060D01*
X200082978Y-73453879D01*
X200048059Y-73443286D01*
X200015877Y-73426084D01*
X199987667Y-73402933D01*
X199964516Y-73374723D01*
X199947314Y-73342541D01*
X199936721Y-73307622D01*
X199932540Y-73265165D01*
X199932540Y-71798955D01*
X199936721Y-71756498D01*
X199947314Y-71721579D01*
X199964516Y-71689397D01*
X199987667Y-71661187D01*
X200015877Y-71638036D01*
X200048059Y-71620834D01*
X200082978Y-71610241D01*
X200125435Y-71606060D01*
X201266645Y-71606060D01*
X201309102Y-71610241D01*
X201309102Y-71610241D01*
G37*
G36*
X218006714Y-72030525D02*
G01*
X218044407Y-72041959D01*
X218079143Y-72060526D01*
X218109588Y-72085512D01*
X218134574Y-72115957D01*
X218153141Y-72150693D01*
X218164575Y-72188386D01*
X218169040Y-72233721D01*
X218169040Y-73070399D01*
X218164575Y-73115734D01*
X218153141Y-73153427D01*
X218134574Y-73188163D01*
X218109588Y-73218608D01*
X218079143Y-73243594D01*
X218044407Y-73262161D01*
X218006714Y-73273595D01*
X217961379Y-73278060D01*
X216874701Y-73278060D01*
X216829366Y-73273595D01*
X216791673Y-73262161D01*
X216756937Y-73243594D01*
X216726492Y-73218608D01*
X216701506Y-73188163D01*
X216682939Y-73153427D01*
X216671505Y-73115734D01*
X216667040Y-73070399D01*
X216667040Y-72233721D01*
X216671505Y-72188386D01*
X216682939Y-72150693D01*
X216701506Y-72115957D01*
X216726492Y-72085512D01*
X216756937Y-72060526D01*
X216791673Y-72041959D01*
X216829366Y-72030525D01*
X216874701Y-72026060D01*
X217961379Y-72026060D01*
X218006714Y-72030525D01*
X218006714Y-72030525D01*
G37*
G36*
X177929040Y-72663060D02*
G01*
X175927040Y-72663060D01*
X175927040Y-71761060D01*
X177929040Y-71761060D01*
X177929040Y-72663060D01*
X177929040Y-72663060D01*
G37*
G36*
X180929040Y-71713060D02*
G01*
X178927040Y-71713060D01*
X178927040Y-70811060D01*
X180929040Y-70811060D01*
X180929040Y-71713060D01*
X180929040Y-71713060D01*
G37*
G36*
X212003040Y-71645060D02*
G01*
X211101040Y-71645060D01*
X211101040Y-69643060D01*
X212003040Y-69643060D01*
X212003040Y-71645060D01*
X212003040Y-71645060D01*
G37*
G36*
X210103040Y-71645060D02*
G01*
X209201040Y-71645060D01*
X209201040Y-69643060D01*
X210103040Y-69643060D01*
X210103040Y-71645060D01*
X210103040Y-71645060D01*
G37*
G36*
X205589040Y-70933060D02*
G01*
X204587040Y-70933060D01*
X204587040Y-70031060D01*
X205589040Y-70031060D01*
X205589040Y-70933060D01*
X205589040Y-70933060D01*
G37*
G36*
X225973040Y-70859060D02*
G01*
X225071040Y-70859060D01*
X225071040Y-68857060D01*
X225973040Y-68857060D01*
X225973040Y-70859060D01*
X225973040Y-70859060D01*
G37*
G36*
X224073040Y-70859060D02*
G01*
X223171040Y-70859060D01*
X223171040Y-68857060D01*
X224073040Y-68857060D01*
X224073040Y-70859060D01*
X224073040Y-70859060D01*
G37*
G36*
X203589040Y-69983060D02*
G01*
X202587040Y-69983060D01*
X202587040Y-69081060D01*
X203589040Y-69081060D01*
X203589040Y-69983060D01*
X203589040Y-69983060D01*
G37*
G36*
X194047714Y-68071525D02*
G01*
X194085407Y-68082959D01*
X194120143Y-68101526D01*
X194150588Y-68126512D01*
X194175574Y-68156957D01*
X194194141Y-68191693D01*
X194205575Y-68229386D01*
X194210040Y-68274721D01*
X194210040Y-69361399D01*
X194205575Y-69406734D01*
X194194141Y-69444427D01*
X194175574Y-69479163D01*
X194150588Y-69509608D01*
X194120143Y-69534594D01*
X194085407Y-69553161D01*
X194047714Y-69564595D01*
X194002379Y-69569060D01*
X193165701Y-69569060D01*
X193120366Y-69564595D01*
X193082673Y-69553161D01*
X193047937Y-69534594D01*
X193017492Y-69509608D01*
X192992506Y-69479163D01*
X192973939Y-69444427D01*
X192962505Y-69406734D01*
X192958040Y-69361399D01*
X192958040Y-68274721D01*
X192962505Y-68229386D01*
X192973939Y-68191693D01*
X192992506Y-68156957D01*
X193017492Y-68126512D01*
X193047937Y-68101526D01*
X193082673Y-68082959D01*
X193120366Y-68071525D01*
X193165701Y-68067060D01*
X194002379Y-68067060D01*
X194047714Y-68071525D01*
X194047714Y-68071525D01*
G37*
G36*
X191997714Y-68071525D02*
G01*
X192035407Y-68082959D01*
X192070143Y-68101526D01*
X192100588Y-68126512D01*
X192125574Y-68156957D01*
X192144141Y-68191693D01*
X192155575Y-68229386D01*
X192160040Y-68274721D01*
X192160040Y-69361399D01*
X192155575Y-69406734D01*
X192144141Y-69444427D01*
X192125574Y-69479163D01*
X192100588Y-69509608D01*
X192070143Y-69534594D01*
X192035407Y-69553161D01*
X191997714Y-69564595D01*
X191952379Y-69569060D01*
X191115701Y-69569060D01*
X191070366Y-69564595D01*
X191032673Y-69553161D01*
X190997937Y-69534594D01*
X190967492Y-69509608D01*
X190942506Y-69479163D01*
X190923939Y-69444427D01*
X190912505Y-69406734D01*
X190908040Y-69361399D01*
X190908040Y-68274721D01*
X190912505Y-68229386D01*
X190923939Y-68191693D01*
X190942506Y-68156957D01*
X190967492Y-68126512D01*
X190997937Y-68101526D01*
X191032673Y-68082959D01*
X191070366Y-68071525D01*
X191115701Y-68067060D01*
X191952379Y-68067060D01*
X191997714Y-68071525D01*
X191997714Y-68071525D01*
G37*
G36*
X205589040Y-69033060D02*
G01*
X204587040Y-69033060D01*
X204587040Y-68131060D01*
X205589040Y-68131060D01*
X205589040Y-69033060D01*
X205589040Y-69033060D01*
G37*
G36*
X235975714Y-67309525D02*
G01*
X236013407Y-67320959D01*
X236048143Y-67339526D01*
X236078588Y-67364512D01*
X236103574Y-67394957D01*
X236122141Y-67429693D01*
X236133575Y-67467386D01*
X236138040Y-67512721D01*
X236138040Y-68599399D01*
X236133575Y-68644734D01*
X236122141Y-68682427D01*
X236103574Y-68717163D01*
X236078588Y-68747608D01*
X236048143Y-68772594D01*
X236013407Y-68791161D01*
X235975714Y-68802595D01*
X235930379Y-68807060D01*
X235093701Y-68807060D01*
X235048366Y-68802595D01*
X235010673Y-68791161D01*
X234975937Y-68772594D01*
X234945492Y-68747608D01*
X234920506Y-68717163D01*
X234901939Y-68682427D01*
X234890505Y-68644734D01*
X234886040Y-68599399D01*
X234886040Y-67512721D01*
X234890505Y-67467386D01*
X234901939Y-67429693D01*
X234920506Y-67394957D01*
X234945492Y-67364512D01*
X234975937Y-67339526D01*
X235010673Y-67320959D01*
X235048366Y-67309525D01*
X235093701Y-67305060D01*
X235930379Y-67305060D01*
X235975714Y-67309525D01*
X235975714Y-67309525D01*
G37*
G36*
X233925714Y-67309525D02*
G01*
X233963407Y-67320959D01*
X233998143Y-67339526D01*
X234028588Y-67364512D01*
X234053574Y-67394957D01*
X234072141Y-67429693D01*
X234083575Y-67467386D01*
X234088040Y-67512721D01*
X234088040Y-68599399D01*
X234083575Y-68644734D01*
X234072141Y-68682427D01*
X234053574Y-68717163D01*
X234028588Y-68747608D01*
X233998143Y-68772594D01*
X233963407Y-68791161D01*
X233925714Y-68802595D01*
X233880379Y-68807060D01*
X233043701Y-68807060D01*
X232998366Y-68802595D01*
X232960673Y-68791161D01*
X232925937Y-68772594D01*
X232895492Y-68747608D01*
X232870506Y-68717163D01*
X232851939Y-68682427D01*
X232840505Y-68644734D01*
X232836040Y-68599399D01*
X232836040Y-67512721D01*
X232840505Y-67467386D01*
X232851939Y-67429693D01*
X232870506Y-67394957D01*
X232895492Y-67364512D01*
X232925937Y-67339526D01*
X232960673Y-67320959D01*
X232998366Y-67309525D01*
X233043701Y-67305060D01*
X233880379Y-67305060D01*
X233925714Y-67309525D01*
X233925714Y-67309525D01*
G37*
G36*
X161241614Y-67240325D02*
G01*
X161279307Y-67251759D01*
X161314043Y-67270326D01*
X161344488Y-67295312D01*
X161369474Y-67325757D01*
X161388041Y-67360493D01*
X161399475Y-67398186D01*
X161403940Y-67443521D01*
X161403940Y-68280199D01*
X161399475Y-68325534D01*
X161388041Y-68363227D01*
X161369474Y-68397963D01*
X161344488Y-68428408D01*
X161314043Y-68453394D01*
X161279307Y-68471961D01*
X161241614Y-68483395D01*
X161196279Y-68487860D01*
X160109601Y-68487860D01*
X160064266Y-68483395D01*
X160026573Y-68471961D01*
X159991837Y-68453394D01*
X159961392Y-68428408D01*
X159936406Y-68397963D01*
X159917839Y-68363227D01*
X159906405Y-68325534D01*
X159901940Y-68280199D01*
X159901940Y-67443521D01*
X159906405Y-67398186D01*
X159917839Y-67360493D01*
X159936406Y-67325757D01*
X159961392Y-67295312D01*
X159991837Y-67270326D01*
X160026573Y-67251759D01*
X160064266Y-67240325D01*
X160109601Y-67235860D01*
X161196279Y-67235860D01*
X161241614Y-67240325D01*
X161241614Y-67240325D01*
G37*
G36*
X177929040Y-68113060D02*
G01*
X175927040Y-68113060D01*
X175927040Y-67211060D01*
X177929040Y-67211060D01*
X177929040Y-68113060D01*
X177929040Y-68113060D01*
G37*
G36*
X214113714Y-66547525D02*
G01*
X214151407Y-66558959D01*
X214186143Y-66577526D01*
X214216588Y-66602512D01*
X214241574Y-66632957D01*
X214260141Y-66667693D01*
X214271575Y-66705386D01*
X214276040Y-66750721D01*
X214276040Y-67837399D01*
X214271575Y-67882734D01*
X214260141Y-67920427D01*
X214241574Y-67955163D01*
X214216588Y-67985608D01*
X214186143Y-68010594D01*
X214151407Y-68029161D01*
X214113714Y-68040595D01*
X214068379Y-68045060D01*
X213231701Y-68045060D01*
X213186366Y-68040595D01*
X213148673Y-68029161D01*
X213113937Y-68010594D01*
X213083492Y-67985608D01*
X213058506Y-67955163D01*
X213039939Y-67920427D01*
X213028505Y-67882734D01*
X213024040Y-67837399D01*
X213024040Y-66750721D01*
X213028505Y-66705386D01*
X213039939Y-66667693D01*
X213058506Y-66632957D01*
X213083492Y-66602512D01*
X213113937Y-66577526D01*
X213148673Y-66558959D01*
X213186366Y-66547525D01*
X213231701Y-66543060D01*
X214068379Y-66543060D01*
X214113714Y-66547525D01*
X214113714Y-66547525D01*
G37*
G36*
X212063714Y-66547525D02*
G01*
X212101407Y-66558959D01*
X212136143Y-66577526D01*
X212166588Y-66602512D01*
X212191574Y-66632957D01*
X212210141Y-66667693D01*
X212221575Y-66705386D01*
X212226040Y-66750721D01*
X212226040Y-67837399D01*
X212221575Y-67882734D01*
X212210141Y-67920427D01*
X212191574Y-67955163D01*
X212166588Y-67985608D01*
X212136143Y-68010594D01*
X212101407Y-68029161D01*
X212063714Y-68040595D01*
X212018379Y-68045060D01*
X211181701Y-68045060D01*
X211136366Y-68040595D01*
X211098673Y-68029161D01*
X211063937Y-68010594D01*
X211033492Y-67985608D01*
X211008506Y-67955163D01*
X210989939Y-67920427D01*
X210978505Y-67882734D01*
X210974040Y-67837399D01*
X210974040Y-66750721D01*
X210978505Y-66705386D01*
X210989939Y-66667693D01*
X211008506Y-66632957D01*
X211033492Y-66602512D01*
X211063937Y-66577526D01*
X211098673Y-66558959D01*
X211136366Y-66547525D01*
X211181701Y-66543060D01*
X212018379Y-66543060D01*
X212063714Y-66547525D01*
X212063714Y-66547525D01*
G37*
G36*
X219955714Y-66547525D02*
G01*
X219993407Y-66558959D01*
X220028143Y-66577526D01*
X220058588Y-66602512D01*
X220083574Y-66632957D01*
X220102141Y-66667693D01*
X220113575Y-66705386D01*
X220118040Y-66750721D01*
X220118040Y-67837399D01*
X220113575Y-67882734D01*
X220102141Y-67920427D01*
X220083574Y-67955163D01*
X220058588Y-67985608D01*
X220028143Y-68010594D01*
X219993407Y-68029161D01*
X219955714Y-68040595D01*
X219910379Y-68045060D01*
X219073701Y-68045060D01*
X219028366Y-68040595D01*
X218990673Y-68029161D01*
X218955937Y-68010594D01*
X218925492Y-67985608D01*
X218900506Y-67955163D01*
X218881939Y-67920427D01*
X218870505Y-67882734D01*
X218866040Y-67837399D01*
X218866040Y-66750721D01*
X218870505Y-66705386D01*
X218881939Y-66667693D01*
X218900506Y-66632957D01*
X218925492Y-66602512D01*
X218955937Y-66577526D01*
X218990673Y-66558959D01*
X219028366Y-66547525D01*
X219073701Y-66543060D01*
X219910379Y-66543060D01*
X219955714Y-66547525D01*
X219955714Y-66547525D01*
G37*
G36*
X217905714Y-66547525D02*
G01*
X217943407Y-66558959D01*
X217978143Y-66577526D01*
X218008588Y-66602512D01*
X218033574Y-66632957D01*
X218052141Y-66667693D01*
X218063575Y-66705386D01*
X218068040Y-66750721D01*
X218068040Y-67837399D01*
X218063575Y-67882734D01*
X218052141Y-67920427D01*
X218033574Y-67955163D01*
X218008588Y-67985608D01*
X217978143Y-68010594D01*
X217943407Y-68029161D01*
X217905714Y-68040595D01*
X217860379Y-68045060D01*
X217023701Y-68045060D01*
X216978366Y-68040595D01*
X216940673Y-68029161D01*
X216905937Y-68010594D01*
X216875492Y-67985608D01*
X216850506Y-67955163D01*
X216831939Y-67920427D01*
X216820505Y-67882734D01*
X216816040Y-67837399D01*
X216816040Y-66750721D01*
X216820505Y-66705386D01*
X216831939Y-66667693D01*
X216850506Y-66632957D01*
X216875492Y-66602512D01*
X216905937Y-66577526D01*
X216940673Y-66558959D01*
X216978366Y-66547525D01*
X217023701Y-66543060D01*
X217860379Y-66543060D01*
X217905714Y-66547525D01*
X217905714Y-66547525D01*
G37*
G36*
X245247513Y-65140473D02*
G01*
X245343080Y-65149885D01*
X245588320Y-65224278D01*
X245814334Y-65345085D01*
X245865939Y-65387436D01*
X246012437Y-65507663D01*
X246119481Y-65638098D01*
X246175015Y-65705766D01*
X246295822Y-65931780D01*
X246370215Y-66177020D01*
X246395334Y-66432060D01*
X246370215Y-66687100D01*
X246295822Y-66932340D01*
X246175015Y-67158354D01*
X246132664Y-67209959D01*
X246012437Y-67356457D01*
X245906348Y-67443521D01*
X245814334Y-67519035D01*
X245588320Y-67639842D01*
X245343080Y-67714235D01*
X245247512Y-67723648D01*
X245151946Y-67733060D01*
X243024134Y-67733060D01*
X242928568Y-67723648D01*
X242833000Y-67714235D01*
X242587760Y-67639842D01*
X242361746Y-67519035D01*
X242269732Y-67443521D01*
X242163643Y-67356457D01*
X242043416Y-67209959D01*
X242001065Y-67158354D01*
X241880258Y-66932340D01*
X241805865Y-66687100D01*
X241780746Y-66432060D01*
X241805865Y-66177020D01*
X241880258Y-65931780D01*
X242001065Y-65705766D01*
X242056599Y-65638098D01*
X242163643Y-65507663D01*
X242310141Y-65387436D01*
X242361746Y-65345085D01*
X242587760Y-65224278D01*
X242833000Y-65149885D01*
X242928567Y-65140473D01*
X243024134Y-65131060D01*
X245151946Y-65131060D01*
X245247513Y-65140473D01*
X245247513Y-65140473D01*
G37*
G36*
X184539040Y-67533060D02*
G01*
X183637040Y-67533060D01*
X183637040Y-65531060D01*
X184539040Y-65531060D01*
X184539040Y-67533060D01*
X184539040Y-67533060D01*
G37*
G36*
X174929040Y-67163060D02*
G01*
X172927040Y-67163060D01*
X172927040Y-66261060D01*
X174929040Y-66261060D01*
X174929040Y-67163060D01*
X174929040Y-67163060D01*
G37*
G36*
X224109040Y-67013060D02*
G01*
X223207040Y-67013060D01*
X223207040Y-66011060D01*
X224109040Y-66011060D01*
X224109040Y-67013060D01*
X224109040Y-67013060D01*
G37*
G36*
X271302585Y-63478802D02*
G01*
X271452410Y-63508604D01*
X271734674Y-63625521D01*
X271988705Y-63795259D01*
X272204741Y-64011295D01*
X272374479Y-64265326D01*
X272491396Y-64547590D01*
X272551000Y-64847240D01*
X272551000Y-65152760D01*
X272491396Y-65452410D01*
X272374479Y-65734674D01*
X272204741Y-65988705D01*
X271988705Y-66204741D01*
X271734674Y-66374479D01*
X271452410Y-66491396D01*
X271302585Y-66521198D01*
X271152761Y-66551000D01*
X270847239Y-66551000D01*
X270697415Y-66521198D01*
X270547590Y-66491396D01*
X270265326Y-66374479D01*
X270011295Y-66204741D01*
X269795259Y-65988705D01*
X269625521Y-65734674D01*
X269508604Y-65452410D01*
X269449000Y-65152760D01*
X269449000Y-64847240D01*
X269508604Y-64547590D01*
X269625521Y-64265326D01*
X269795259Y-64011295D01*
X270011295Y-63795259D01*
X270265326Y-63625521D01*
X270547590Y-63508604D01*
X270697415Y-63478802D01*
X270847239Y-63449000D01*
X271152761Y-63449000D01*
X271302585Y-63478802D01*
X271302585Y-63478802D01*
G37*
G36*
X161241614Y-65190325D02*
G01*
X161279307Y-65201759D01*
X161314043Y-65220326D01*
X161344488Y-65245312D01*
X161369474Y-65275757D01*
X161388041Y-65310493D01*
X161399475Y-65348186D01*
X161403940Y-65393521D01*
X161403940Y-66230199D01*
X161399475Y-66275534D01*
X161388041Y-66313227D01*
X161369474Y-66347963D01*
X161344488Y-66378408D01*
X161314043Y-66403394D01*
X161279307Y-66421961D01*
X161241614Y-66433395D01*
X161196279Y-66437860D01*
X160109601Y-66437860D01*
X160064266Y-66433395D01*
X160026573Y-66421961D01*
X159991837Y-66403394D01*
X159961392Y-66378408D01*
X159936406Y-66347963D01*
X159917839Y-66313227D01*
X159906405Y-66275534D01*
X159901940Y-66230199D01*
X159901940Y-65393521D01*
X159906405Y-65348186D01*
X159917839Y-65310493D01*
X159936406Y-65275757D01*
X159961392Y-65245312D01*
X159991837Y-65220326D01*
X160026573Y-65201759D01*
X160064266Y-65190325D01*
X160109601Y-65185860D01*
X161196279Y-65185860D01*
X161241614Y-65190325D01*
X161241614Y-65190325D01*
G37*
G36*
X177929040Y-66213060D02*
G01*
X175927040Y-66213060D01*
X175927040Y-65311060D01*
X177929040Y-65311060D01*
X177929040Y-66213060D01*
X177929040Y-66213060D01*
G37*
G36*
X191997714Y-64285525D02*
G01*
X192035407Y-64296959D01*
X192070143Y-64315526D01*
X192100588Y-64340512D01*
X192125574Y-64370957D01*
X192144141Y-64405693D01*
X192155575Y-64443386D01*
X192160040Y-64488721D01*
X192160040Y-65575399D01*
X192155575Y-65620734D01*
X192144141Y-65658427D01*
X192125574Y-65693163D01*
X192100588Y-65723608D01*
X192070143Y-65748594D01*
X192035407Y-65767161D01*
X191997714Y-65778595D01*
X191952379Y-65783060D01*
X191115701Y-65783060D01*
X191070366Y-65778595D01*
X191032673Y-65767161D01*
X190997937Y-65748594D01*
X190967492Y-65723608D01*
X190942506Y-65693163D01*
X190923939Y-65658427D01*
X190912505Y-65620734D01*
X190908040Y-65575399D01*
X190908040Y-64488721D01*
X190912505Y-64443386D01*
X190923939Y-64405693D01*
X190942506Y-64370957D01*
X190967492Y-64340512D01*
X190997937Y-64315526D01*
X191032673Y-64296959D01*
X191070366Y-64285525D01*
X191115701Y-64281060D01*
X191952379Y-64281060D01*
X191997714Y-64285525D01*
X191997714Y-64285525D01*
G37*
G36*
X194047714Y-64285525D02*
G01*
X194085407Y-64296959D01*
X194120143Y-64315526D01*
X194150588Y-64340512D01*
X194175574Y-64370957D01*
X194194141Y-64405693D01*
X194205575Y-64443386D01*
X194210040Y-64488721D01*
X194210040Y-65575399D01*
X194205575Y-65620734D01*
X194194141Y-65658427D01*
X194175574Y-65693163D01*
X194150588Y-65723608D01*
X194120143Y-65748594D01*
X194085407Y-65767161D01*
X194047714Y-65778595D01*
X194002379Y-65783060D01*
X193165701Y-65783060D01*
X193120366Y-65778595D01*
X193082673Y-65767161D01*
X193047937Y-65748594D01*
X193017492Y-65723608D01*
X192992506Y-65693163D01*
X192973939Y-65658427D01*
X192962505Y-65620734D01*
X192958040Y-65575399D01*
X192958040Y-64488721D01*
X192962505Y-64443386D01*
X192973939Y-64405693D01*
X192992506Y-64370957D01*
X193017492Y-64340512D01*
X193047937Y-64315526D01*
X193082673Y-64296959D01*
X193120366Y-64285525D01*
X193165701Y-64281060D01*
X194002379Y-64281060D01*
X194047714Y-64285525D01*
X194047714Y-64285525D01*
G37*
G36*
X200905714Y-64261525D02*
G01*
X200943407Y-64272959D01*
X200978143Y-64291526D01*
X201008588Y-64316512D01*
X201033574Y-64346957D01*
X201052141Y-64381693D01*
X201063575Y-64419386D01*
X201068040Y-64464721D01*
X201068040Y-65551399D01*
X201063575Y-65596734D01*
X201052141Y-65634427D01*
X201033574Y-65669163D01*
X201008588Y-65699608D01*
X200978143Y-65724594D01*
X200943407Y-65743161D01*
X200905714Y-65754595D01*
X200860379Y-65759060D01*
X200023701Y-65759060D01*
X199978366Y-65754595D01*
X199940673Y-65743161D01*
X199905937Y-65724594D01*
X199875492Y-65699608D01*
X199850506Y-65669163D01*
X199831939Y-65634427D01*
X199820505Y-65596734D01*
X199816040Y-65551399D01*
X199816040Y-64464721D01*
X199820505Y-64419386D01*
X199831939Y-64381693D01*
X199850506Y-64346957D01*
X199875492Y-64316512D01*
X199905937Y-64291526D01*
X199940673Y-64272959D01*
X199978366Y-64261525D01*
X200023701Y-64257060D01*
X200860379Y-64257060D01*
X200905714Y-64261525D01*
X200905714Y-64261525D01*
G37*
G36*
X198855714Y-64261525D02*
G01*
X198893407Y-64272959D01*
X198928143Y-64291526D01*
X198958588Y-64316512D01*
X198983574Y-64346957D01*
X199002141Y-64381693D01*
X199013575Y-64419386D01*
X199018040Y-64464721D01*
X199018040Y-65551399D01*
X199013575Y-65596734D01*
X199002141Y-65634427D01*
X198983574Y-65669163D01*
X198958588Y-65699608D01*
X198928143Y-65724594D01*
X198893407Y-65743161D01*
X198855714Y-65754595D01*
X198810379Y-65759060D01*
X197973701Y-65759060D01*
X197928366Y-65754595D01*
X197890673Y-65743161D01*
X197855937Y-65724594D01*
X197825492Y-65699608D01*
X197800506Y-65669163D01*
X197781939Y-65634427D01*
X197770505Y-65596734D01*
X197766040Y-65551399D01*
X197766040Y-64464721D01*
X197770505Y-64419386D01*
X197781939Y-64381693D01*
X197800506Y-64346957D01*
X197825492Y-64316512D01*
X197855937Y-64291526D01*
X197890673Y-64272959D01*
X197928366Y-64261525D01*
X197973701Y-64257060D01*
X198810379Y-64257060D01*
X198855714Y-64261525D01*
X198855714Y-64261525D01*
G37*
G36*
X260225840Y-65682760D02*
G01*
X257123840Y-65682760D01*
X257123840Y-62580760D01*
X260225840Y-62580760D01*
X260225840Y-65682760D01*
X260225840Y-65682760D01*
G37*
G36*
X225059040Y-65013060D02*
G01*
X224157040Y-65013060D01*
X224157040Y-64011060D01*
X225059040Y-64011060D01*
X225059040Y-65013060D01*
X225059040Y-65013060D01*
G37*
G36*
X223159040Y-65013060D02*
G01*
X222257040Y-65013060D01*
X222257040Y-64011060D01*
X223159040Y-64011060D01*
X223159040Y-65013060D01*
X223159040Y-65013060D01*
G37*
G36*
X207139040Y-64563060D02*
G01*
X206137040Y-64563060D01*
X206137040Y-63661060D01*
X207139040Y-63661060D01*
X207139040Y-64563060D01*
X207139040Y-64563060D01*
G37*
G36*
X183589040Y-64533060D02*
G01*
X182687040Y-64533060D01*
X182687040Y-62531060D01*
X183589040Y-62531060D01*
X183589040Y-64533060D01*
X183589040Y-64533060D01*
G37*
G36*
X185489040Y-64533060D02*
G01*
X184587040Y-64533060D01*
X184587040Y-62531060D01*
X185489040Y-62531060D01*
X185489040Y-64533060D01*
X185489040Y-64533060D01*
G37*
G36*
X231189602Y-62724741D02*
G01*
X231224521Y-62735334D01*
X231256703Y-62752536D01*
X231284913Y-62775687D01*
X231308064Y-62803897D01*
X231325266Y-62836079D01*
X231335859Y-62870998D01*
X231340040Y-62913455D01*
X231340040Y-64054665D01*
X231335859Y-64097122D01*
X231325266Y-64132041D01*
X231308064Y-64164223D01*
X231284913Y-64192433D01*
X231256703Y-64215584D01*
X231224521Y-64232786D01*
X231189602Y-64243379D01*
X231147145Y-64247560D01*
X229680935Y-64247560D01*
X229638478Y-64243379D01*
X229603559Y-64232786D01*
X229571377Y-64215584D01*
X229543167Y-64192433D01*
X229520016Y-64164223D01*
X229502814Y-64132041D01*
X229492221Y-64097122D01*
X229488040Y-64054665D01*
X229488040Y-62913455D01*
X229492221Y-62870998D01*
X229502814Y-62836079D01*
X229520016Y-62803897D01*
X229543167Y-62775687D01*
X229571377Y-62752536D01*
X229603559Y-62735334D01*
X229638478Y-62724741D01*
X229680935Y-62720560D01*
X231147145Y-62720560D01*
X231189602Y-62724741D01*
X231189602Y-62724741D01*
G37*
G36*
X214131714Y-62483525D02*
G01*
X214169407Y-62494959D01*
X214204143Y-62513526D01*
X214234588Y-62538512D01*
X214259574Y-62568957D01*
X214278141Y-62603693D01*
X214289575Y-62641386D01*
X214294040Y-62686721D01*
X214294040Y-63773399D01*
X214289575Y-63818734D01*
X214278141Y-63856427D01*
X214259574Y-63891163D01*
X214234588Y-63921608D01*
X214204143Y-63946594D01*
X214169407Y-63965161D01*
X214131714Y-63976595D01*
X214086379Y-63981060D01*
X213249701Y-63981060D01*
X213204366Y-63976595D01*
X213166673Y-63965161D01*
X213131937Y-63946594D01*
X213101492Y-63921608D01*
X213076506Y-63891163D01*
X213057939Y-63856427D01*
X213046505Y-63818734D01*
X213042040Y-63773399D01*
X213042040Y-62686721D01*
X213046505Y-62641386D01*
X213057939Y-62603693D01*
X213076506Y-62568957D01*
X213101492Y-62538512D01*
X213131937Y-62513526D01*
X213166673Y-62494959D01*
X213204366Y-62483525D01*
X213249701Y-62479060D01*
X214086379Y-62479060D01*
X214131714Y-62483525D01*
X214131714Y-62483525D01*
G37*
G36*
X212081714Y-62483525D02*
G01*
X212119407Y-62494959D01*
X212154143Y-62513526D01*
X212184588Y-62538512D01*
X212209574Y-62568957D01*
X212228141Y-62603693D01*
X212239575Y-62641386D01*
X212244040Y-62686721D01*
X212244040Y-63773399D01*
X212239575Y-63818734D01*
X212228141Y-63856427D01*
X212209574Y-63891163D01*
X212184588Y-63921608D01*
X212154143Y-63946594D01*
X212119407Y-63965161D01*
X212081714Y-63976595D01*
X212036379Y-63981060D01*
X211199701Y-63981060D01*
X211154366Y-63976595D01*
X211116673Y-63965161D01*
X211081937Y-63946594D01*
X211051492Y-63921608D01*
X211026506Y-63891163D01*
X211007939Y-63856427D01*
X210996505Y-63818734D01*
X210992040Y-63773399D01*
X210992040Y-62686721D01*
X210996505Y-62641386D01*
X211007939Y-62603693D01*
X211026506Y-62568957D01*
X211051492Y-62538512D01*
X211081937Y-62513526D01*
X211116673Y-62494959D01*
X211154366Y-62483525D01*
X211199701Y-62479060D01*
X212036379Y-62479060D01*
X212081714Y-62483525D01*
X212081714Y-62483525D01*
G37*
G36*
X205139040Y-63613060D02*
G01*
X204137040Y-63613060D01*
X204137040Y-62711060D01*
X205139040Y-62711060D01*
X205139040Y-63613060D01*
X205139040Y-63613060D01*
G37*
G36*
X235589040Y-63457060D02*
G01*
X233587040Y-63457060D01*
X233587040Y-62555060D01*
X235589040Y-62555060D01*
X235589040Y-63457060D01*
X235589040Y-63457060D01*
G37*
G36*
X207139040Y-62663060D02*
G01*
X206137040Y-62663060D01*
X206137040Y-61761060D01*
X207139040Y-61761060D01*
X207139040Y-62663060D01*
X207139040Y-62663060D01*
G37*
G36*
X238589040Y-62507060D02*
G01*
X236587040Y-62507060D01*
X236587040Y-61605060D01*
X238589040Y-61605060D01*
X238589040Y-62507060D01*
X238589040Y-62507060D01*
G37*
G36*
X245247512Y-59690472D02*
G01*
X245343080Y-59699885D01*
X245588320Y-59774278D01*
X245814334Y-59895085D01*
X245855753Y-59929077D01*
X246012437Y-60057663D01*
X246090480Y-60152760D01*
X246175015Y-60255766D01*
X246295822Y-60481780D01*
X246370215Y-60727020D01*
X246395334Y-60982060D01*
X246370215Y-61237100D01*
X246303661Y-61456500D01*
X246295821Y-61482342D01*
X246259122Y-61551000D01*
X246175015Y-61708354D01*
X246132664Y-61759959D01*
X246012437Y-61906457D01*
X245865939Y-62026684D01*
X245814334Y-62069035D01*
X245588320Y-62189842D01*
X245343080Y-62264235D01*
X245247512Y-62273648D01*
X245151946Y-62283060D01*
X243024134Y-62283060D01*
X242928568Y-62273648D01*
X242833000Y-62264235D01*
X242587760Y-62189842D01*
X242361746Y-62069035D01*
X242310141Y-62026684D01*
X242163643Y-61906457D01*
X242043416Y-61759959D01*
X242001065Y-61708354D01*
X241916958Y-61551000D01*
X241880259Y-61482342D01*
X241872420Y-61456500D01*
X241805865Y-61237100D01*
X241780746Y-60982060D01*
X241805865Y-60727020D01*
X241880258Y-60481780D01*
X242001065Y-60255766D01*
X242085600Y-60152760D01*
X242163643Y-60057663D01*
X242320327Y-59929077D01*
X242361746Y-59895085D01*
X242587760Y-59774278D01*
X242833000Y-59699885D01*
X242928568Y-59690472D01*
X243024134Y-59681060D01*
X245151946Y-59681060D01*
X245247512Y-59690472D01*
X245247512Y-59690472D01*
G37*
G36*
X258977425Y-58730562D02*
G01*
X259127250Y-58760364D01*
X259409514Y-58877281D01*
X259663545Y-59047019D01*
X259879581Y-59263055D01*
X260049319Y-59517086D01*
X260166236Y-59799350D01*
X260175762Y-59847239D01*
X260225840Y-60098999D01*
X260225840Y-60404521D01*
X260210472Y-60481780D01*
X260166236Y-60704170D01*
X260049319Y-60986434D01*
X259879581Y-61240465D01*
X259663545Y-61456501D01*
X259409514Y-61626239D01*
X259127250Y-61743156D01*
X259037240Y-61761060D01*
X258827601Y-61802760D01*
X258522079Y-61802760D01*
X258312440Y-61761060D01*
X258222430Y-61743156D01*
X257940166Y-61626239D01*
X257686135Y-61456501D01*
X257470099Y-61240465D01*
X257300361Y-60986434D01*
X257183444Y-60704170D01*
X257139208Y-60481780D01*
X257123840Y-60404521D01*
X257123840Y-60098999D01*
X257173918Y-59847239D01*
X257183444Y-59799350D01*
X257300361Y-59517086D01*
X257470099Y-59263055D01*
X257686135Y-59047019D01*
X257940166Y-58877281D01*
X258222430Y-58760364D01*
X258372255Y-58730562D01*
X258522079Y-58700760D01*
X258827601Y-58700760D01*
X258977425Y-58730562D01*
X258977425Y-58730562D01*
G37*
G36*
X235589040Y-61557060D02*
G01*
X233587040Y-61557060D01*
X233587040Y-60655060D01*
X235589040Y-60655060D01*
X235589040Y-61557060D01*
X235589040Y-61557060D01*
G37*
G36*
X271302585Y-58478802D02*
G01*
X271452410Y-58508604D01*
X271734674Y-58625521D01*
X271988705Y-58795259D01*
X272204741Y-59011295D01*
X272374479Y-59265326D01*
X272491396Y-59547590D01*
X272491396Y-59547591D01*
X272551000Y-59847239D01*
X272551000Y-60152761D01*
X272521198Y-60302585D01*
X272491396Y-60452410D01*
X272374479Y-60734674D01*
X272204741Y-60988705D01*
X271988705Y-61204741D01*
X271734674Y-61374479D01*
X271452410Y-61491396D01*
X271302585Y-61521198D01*
X271152761Y-61551000D01*
X270847239Y-61551000D01*
X270697415Y-61521198D01*
X270547590Y-61491396D01*
X270265326Y-61374479D01*
X270011295Y-61204741D01*
X269795259Y-60988705D01*
X269625521Y-60734674D01*
X269508604Y-60452410D01*
X269478802Y-60302585D01*
X269449000Y-60152761D01*
X269449000Y-59847239D01*
X269508604Y-59547591D01*
X269508604Y-59547590D01*
X269625521Y-59265326D01*
X269795259Y-59011295D01*
X270011295Y-58795259D01*
X270265326Y-58625521D01*
X270547590Y-58508604D01*
X270697415Y-58478802D01*
X270847239Y-58449000D01*
X271152761Y-58449000D01*
X271302585Y-58478802D01*
X271302585Y-58478802D01*
G37*
G36*
X231189602Y-59749741D02*
G01*
X231224521Y-59760334D01*
X231256703Y-59777536D01*
X231284913Y-59800687D01*
X231308064Y-59828897D01*
X231325266Y-59861079D01*
X231335859Y-59895998D01*
X231340040Y-59938455D01*
X231340040Y-61079665D01*
X231335859Y-61122122D01*
X231325266Y-61157041D01*
X231308064Y-61189223D01*
X231284913Y-61217433D01*
X231256703Y-61240584D01*
X231224521Y-61257786D01*
X231189602Y-61268379D01*
X231147145Y-61272560D01*
X229680935Y-61272560D01*
X229638478Y-61268379D01*
X229603559Y-61257786D01*
X229571377Y-61240584D01*
X229543167Y-61217433D01*
X229520016Y-61189223D01*
X229502814Y-61157041D01*
X229492221Y-61122122D01*
X229488040Y-61079665D01*
X229488040Y-59938455D01*
X229492221Y-59895998D01*
X229502814Y-59861079D01*
X229520016Y-59828897D01*
X229543167Y-59800687D01*
X229571377Y-59777536D01*
X229603559Y-59760334D01*
X229638478Y-59749741D01*
X229680935Y-59745560D01*
X231147145Y-59745560D01*
X231189602Y-59749741D01*
X231189602Y-59749741D01*
G37*
G36*
X223021714Y-59765525D02*
G01*
X223059407Y-59776959D01*
X223094143Y-59795526D01*
X223124588Y-59820512D01*
X223149574Y-59850957D01*
X223168141Y-59885693D01*
X223179575Y-59923386D01*
X223184040Y-59968721D01*
X223184040Y-61055399D01*
X223179575Y-61100734D01*
X223168141Y-61138427D01*
X223149574Y-61173163D01*
X223124588Y-61203608D01*
X223094143Y-61228594D01*
X223059407Y-61247161D01*
X223021714Y-61258595D01*
X222976379Y-61263060D01*
X222139701Y-61263060D01*
X222094366Y-61258595D01*
X222056673Y-61247161D01*
X222021937Y-61228594D01*
X221991492Y-61203608D01*
X221966506Y-61173163D01*
X221947939Y-61138427D01*
X221936505Y-61100734D01*
X221932040Y-61055399D01*
X221932040Y-59968721D01*
X221936505Y-59923386D01*
X221947939Y-59885693D01*
X221966506Y-59850957D01*
X221991492Y-59820512D01*
X222021937Y-59795526D01*
X222056673Y-59776959D01*
X222094366Y-59765525D01*
X222139701Y-59761060D01*
X222976379Y-59761060D01*
X223021714Y-59765525D01*
X223021714Y-59765525D01*
G37*
G36*
X225071714Y-59765525D02*
G01*
X225109407Y-59776959D01*
X225144143Y-59795526D01*
X225174588Y-59820512D01*
X225199574Y-59850957D01*
X225218141Y-59885693D01*
X225229575Y-59923386D01*
X225234040Y-59968721D01*
X225234040Y-61055399D01*
X225229575Y-61100734D01*
X225218141Y-61138427D01*
X225199574Y-61173163D01*
X225174588Y-61203608D01*
X225144143Y-61228594D01*
X225109407Y-61247161D01*
X225071714Y-61258595D01*
X225026379Y-61263060D01*
X224189701Y-61263060D01*
X224144366Y-61258595D01*
X224106673Y-61247161D01*
X224071937Y-61228594D01*
X224041492Y-61203608D01*
X224016506Y-61173163D01*
X223997939Y-61138427D01*
X223986505Y-61100734D01*
X223982040Y-61055399D01*
X223982040Y-59968721D01*
X223986505Y-59923386D01*
X223997939Y-59885693D01*
X224016506Y-59850957D01*
X224041492Y-59820512D01*
X224071937Y-59795526D01*
X224106673Y-59776959D01*
X224144366Y-59765525D01*
X224189701Y-59761060D01*
X225026379Y-59761060D01*
X225071714Y-59765525D01*
X225071714Y-59765525D01*
G37*
G36*
X220499040Y-59733060D02*
G01*
X219597040Y-59733060D01*
X219597040Y-57731060D01*
X220499040Y-57731060D01*
X220499040Y-59733060D01*
X220499040Y-59733060D01*
G37*
G36*
X218599040Y-59733060D02*
G01*
X217697040Y-59733060D01*
X217697040Y-57731060D01*
X218599040Y-57731060D01*
X218599040Y-59733060D01*
X218599040Y-59733060D01*
G37*
G36*
X211539040Y-59713060D02*
G01*
X210537040Y-59713060D01*
X210537040Y-58811060D01*
X211539040Y-58811060D01*
X211539040Y-59713060D01*
X211539040Y-59713060D01*
G37*
G36*
X204576714Y-57525525D02*
G01*
X204614407Y-57536959D01*
X204649143Y-57555526D01*
X204679588Y-57580512D01*
X204704574Y-57610957D01*
X204723141Y-57645693D01*
X204734575Y-57683386D01*
X204739040Y-57728721D01*
X204739040Y-58815399D01*
X204734575Y-58860734D01*
X204723141Y-58898427D01*
X204704574Y-58933163D01*
X204679588Y-58963608D01*
X204649143Y-58988594D01*
X204614407Y-59007161D01*
X204576714Y-59018595D01*
X204531379Y-59023060D01*
X203694701Y-59023060D01*
X203649366Y-59018595D01*
X203611673Y-59007161D01*
X203576937Y-58988594D01*
X203546492Y-58963608D01*
X203521506Y-58933163D01*
X203502939Y-58898427D01*
X203491505Y-58860734D01*
X203487040Y-58815399D01*
X203487040Y-57728721D01*
X203491505Y-57683386D01*
X203502939Y-57645693D01*
X203521506Y-57610957D01*
X203546492Y-57580512D01*
X203576937Y-57555526D01*
X203611673Y-57536959D01*
X203649366Y-57525525D01*
X203694701Y-57521060D01*
X204531379Y-57521060D01*
X204576714Y-57525525D01*
X204576714Y-57525525D01*
G37*
G36*
X206626714Y-57525525D02*
G01*
X206664407Y-57536959D01*
X206699143Y-57555526D01*
X206729588Y-57580512D01*
X206754574Y-57610957D01*
X206773141Y-57645693D01*
X206784575Y-57683386D01*
X206789040Y-57728721D01*
X206789040Y-58815399D01*
X206784575Y-58860734D01*
X206773141Y-58898427D01*
X206754574Y-58933163D01*
X206729588Y-58963608D01*
X206699143Y-58988594D01*
X206664407Y-59007161D01*
X206626714Y-59018595D01*
X206581379Y-59023060D01*
X205744701Y-59023060D01*
X205699366Y-59018595D01*
X205661673Y-59007161D01*
X205626937Y-58988594D01*
X205596492Y-58963608D01*
X205571506Y-58933163D01*
X205552939Y-58898427D01*
X205541505Y-58860734D01*
X205537040Y-58815399D01*
X205537040Y-57728721D01*
X205541505Y-57683386D01*
X205552939Y-57645693D01*
X205571506Y-57610957D01*
X205596492Y-57580512D01*
X205626937Y-57555526D01*
X205661673Y-57536959D01*
X205699366Y-57525525D01*
X205744701Y-57521060D01*
X206581379Y-57521060D01*
X206626714Y-57525525D01*
X206626714Y-57525525D01*
G37*
G36*
X209539040Y-58763060D02*
G01*
X208537040Y-58763060D01*
X208537040Y-57861060D01*
X209539040Y-57861060D01*
X209539040Y-58763060D01*
X209539040Y-58763060D01*
G37*
G36*
X211539040Y-57813060D02*
G01*
X210537040Y-57813060D01*
X210537040Y-56911060D01*
X211539040Y-56911060D01*
X211539040Y-57813060D01*
X211539040Y-57813060D01*
G37*
G36*
X246389040Y-56833060D02*
G01*
X241787040Y-56833060D01*
X241787040Y-54231060D01*
X246389040Y-54231060D01*
X246389040Y-56833060D01*
X246389040Y-56833060D01*
G37*
G36*
X219549040Y-56733060D02*
G01*
X218647040Y-56733060D01*
X218647040Y-54731060D01*
X219549040Y-54731060D01*
X219549040Y-56733060D01*
X219549040Y-56733060D01*
G37*
G36*
X229729040Y-56093060D02*
G01*
X227727040Y-56093060D01*
X227727040Y-55191060D01*
X229729040Y-55191060D01*
X229729040Y-56093060D01*
X229729040Y-56093060D01*
G37*
G36*
X160926171Y-51871971D02*
G01*
X161253932Y-52007734D01*
X161548910Y-52204832D01*
X161799768Y-52455690D01*
X161996866Y-52750668D01*
X162132629Y-53078429D01*
X162201840Y-53426376D01*
X162201840Y-53781144D01*
X162132629Y-54129091D01*
X161996866Y-54456852D01*
X161799768Y-54751830D01*
X161548910Y-55002688D01*
X161253932Y-55199786D01*
X160926171Y-55335549D01*
X160578224Y-55404760D01*
X160223456Y-55404760D01*
X159875509Y-55335549D01*
X159547748Y-55199786D01*
X159252770Y-55002688D01*
X159001912Y-54751830D01*
X158804814Y-54456852D01*
X158669051Y-54129091D01*
X158599840Y-53781144D01*
X158599840Y-53426376D01*
X158669051Y-53078429D01*
X158804814Y-52750668D01*
X159001912Y-52455690D01*
X159252770Y-52204832D01*
X159547748Y-52007734D01*
X159875509Y-51871971D01*
X160223456Y-51802760D01*
X160578224Y-51802760D01*
X160926171Y-51871971D01*
X160926171Y-51871971D01*
G37*
G36*
X273025331Y-51871971D02*
G01*
X273353092Y-52007734D01*
X273648070Y-52204832D01*
X273898928Y-52455690D01*
X274096026Y-52750668D01*
X274231789Y-53078429D01*
X274301000Y-53426376D01*
X274301000Y-53781144D01*
X274231789Y-54129091D01*
X274096026Y-54456852D01*
X273898928Y-54751830D01*
X273648070Y-55002688D01*
X273353092Y-55199786D01*
X273025331Y-55335549D01*
X272677384Y-55404760D01*
X272322616Y-55404760D01*
X271974669Y-55335549D01*
X271646908Y-55199786D01*
X271351930Y-55002688D01*
X271101072Y-54751830D01*
X270903974Y-54456852D01*
X270768211Y-54129091D01*
X270699000Y-53781144D01*
X270699000Y-53426376D01*
X270768211Y-53078429D01*
X270903974Y-52750668D01*
X271101072Y-52455690D01*
X271351930Y-52204832D01*
X271646908Y-52007734D01*
X271974669Y-51871971D01*
X272322616Y-51802760D01*
X272677384Y-51802760D01*
X273025331Y-51871971D01*
X273025331Y-51871971D01*
G37*
G36*
X226729040Y-55143060D02*
G01*
X224727040Y-55143060D01*
X224727040Y-54241060D01*
X226729040Y-54241060D01*
X226729040Y-55143060D01*
X226729040Y-55143060D01*
G37*
G36*
X235396714Y-52985525D02*
G01*
X235434407Y-52996959D01*
X235469143Y-53015526D01*
X235499588Y-53040512D01*
X235524574Y-53070957D01*
X235543141Y-53105693D01*
X235554575Y-53143386D01*
X235559040Y-53188721D01*
X235559040Y-54275399D01*
X235554575Y-54320734D01*
X235543141Y-54358427D01*
X235524574Y-54393163D01*
X235499588Y-54423608D01*
X235469143Y-54448594D01*
X235434407Y-54467161D01*
X235396714Y-54478595D01*
X235351379Y-54483060D01*
X234514701Y-54483060D01*
X234469366Y-54478595D01*
X234431673Y-54467161D01*
X234396937Y-54448594D01*
X234366492Y-54423608D01*
X234341506Y-54393163D01*
X234322939Y-54358427D01*
X234311505Y-54320734D01*
X234307040Y-54275399D01*
X234307040Y-53188721D01*
X234311505Y-53143386D01*
X234322939Y-53105693D01*
X234341506Y-53070957D01*
X234366492Y-53040512D01*
X234396937Y-53015526D01*
X234431673Y-52996959D01*
X234469366Y-52985525D01*
X234514701Y-52981060D01*
X235351379Y-52981060D01*
X235396714Y-52985525D01*
X235396714Y-52985525D01*
G37*
G36*
X237446714Y-52985525D02*
G01*
X237484407Y-52996959D01*
X237519143Y-53015526D01*
X237549588Y-53040512D01*
X237574574Y-53070957D01*
X237593141Y-53105693D01*
X237604575Y-53143386D01*
X237609040Y-53188721D01*
X237609040Y-54275399D01*
X237604575Y-54320734D01*
X237593141Y-54358427D01*
X237574574Y-54393163D01*
X237549588Y-54423608D01*
X237519143Y-54448594D01*
X237484407Y-54467161D01*
X237446714Y-54478595D01*
X237401379Y-54483060D01*
X236564701Y-54483060D01*
X236519366Y-54478595D01*
X236481673Y-54467161D01*
X236446937Y-54448594D01*
X236416492Y-54423608D01*
X236391506Y-54393163D01*
X236372939Y-54358427D01*
X236361505Y-54320734D01*
X236357040Y-54275399D01*
X236357040Y-53188721D01*
X236361505Y-53143386D01*
X236372939Y-53105693D01*
X236391506Y-53070957D01*
X236416492Y-53040512D01*
X236446937Y-53015526D01*
X236481673Y-52996959D01*
X236519366Y-52985525D01*
X236564701Y-52981060D01*
X237401379Y-52981060D01*
X237446714Y-52985525D01*
X237446714Y-52985525D01*
G37*
G36*
X229729040Y-54193060D02*
G01*
X227727040Y-54193060D01*
X227727040Y-53291060D01*
X229729040Y-53291060D01*
X229729040Y-54193060D01*
X229729040Y-54193060D01*
G37*
M02*
