G04 #@! TF.GenerationSoftware,KiCad,Pcbnew,(5.1.2)-2*
G04 #@! TF.CreationDate,2019-11-01T09:46:41-03:00*
G04 #@! TF.ProjectId,PCB,5043422e-6b69-4636-9164-5f7063625858,rev?*
G04 #@! TF.SameCoordinates,Original*
G04 #@! TF.FileFunction,Legend,Top*
G04 #@! TF.FilePolarity,Positive*
%FSLAX46Y46*%
G04 Gerber Fmt 4.6, Leading zero omitted, Abs format (unit mm)*
G04 Created by KiCad (PCBNEW (5.1.2)-2) date 2019-11-01 09:46:41*
%MOMM*%
%LPD*%
G04 APERTURE LIST*
%ADD10C,0.100000*%
%ADD11C,0.150000*%
%ADD12C,0.300000*%
%ADD13C,0.400000*%
%ADD14C,0.120000*%
G04 APERTURE END LIST*
D10*
D11*
X177002200Y-166007200D02*
X177002200Y-198007200D01*
X285002200Y-198007200D01*
X285002200Y-166007200D01*
X177002200Y-166007200D01*
D10*
D11*
X10000000Y-10000000D02*
X10000000Y-200007200D01*
X287002200Y-200007200D01*
X287002200Y-10000000D01*
X10000000Y-10000000D01*
D10*
D11*
X12000000Y-12000000D02*
X12000000Y-198007200D01*
X285002200Y-198007200D01*
X285002200Y-12000000D01*
X12000000Y-12000000D01*
D10*
D11*
X60000000Y-12000000D02*
X60000000Y-10000000D01*
D10*
D11*
X110000000Y-12000000D02*
X110000000Y-10000000D01*
D10*
D11*
X160000000Y-12000000D02*
X160000000Y-10000000D01*
D10*
D11*
X210000000Y-12000000D02*
X210000000Y-10000000D01*
D10*
D11*
X260000000Y-12000000D02*
X260000000Y-10000000D01*
D10*
D11*
X36065476Y-11588095D02*
X35322619Y-11588095D01*
X35694047Y-11588095D02*
X35694047Y-10288095D01*
X35570238Y-10473809D01*
X35446428Y-10597619D01*
X35322619Y-10659523D01*
D10*
D11*
X85322619Y-10411904D02*
X85384523Y-10350000D01*
X85508333Y-10288095D01*
X85817857Y-10288095D01*
X85941666Y-10350000D01*
X86003571Y-10411904D01*
X86065476Y-10535714D01*
X86065476Y-10659523D01*
X86003571Y-10845238D01*
X85260714Y-11588095D01*
X86065476Y-11588095D01*
D10*
D11*
X135260714Y-10288095D02*
X136065476Y-10288095D01*
X135632142Y-10783333D01*
X135817857Y-10783333D01*
X135941666Y-10845238D01*
X136003571Y-10907142D01*
X136065476Y-11030952D01*
X136065476Y-11340476D01*
X136003571Y-11464285D01*
X135941666Y-11526190D01*
X135817857Y-11588095D01*
X135446428Y-11588095D01*
X135322619Y-11526190D01*
X135260714Y-11464285D01*
D10*
D11*
X185941666Y-10721428D02*
X185941666Y-11588095D01*
X185632142Y-10226190D02*
X185322619Y-11154761D01*
X186127380Y-11154761D01*
D10*
D11*
X236003571Y-10288095D02*
X235384523Y-10288095D01*
X235322619Y-10907142D01*
X235384523Y-10845238D01*
X235508333Y-10783333D01*
X235817857Y-10783333D01*
X235941666Y-10845238D01*
X236003571Y-10907142D01*
X236065476Y-11030952D01*
X236065476Y-11340476D01*
X236003571Y-11464285D01*
X235941666Y-11526190D01*
X235817857Y-11588095D01*
X235508333Y-11588095D01*
X235384523Y-11526190D01*
X235322619Y-11464285D01*
D10*
D11*
X285941666Y-10288095D02*
X285694047Y-10288095D01*
X285570238Y-10350000D01*
X285508333Y-10411904D01*
X285384523Y-10597619D01*
X285322619Y-10845238D01*
X285322619Y-11340476D01*
X285384523Y-11464285D01*
X285446428Y-11526190D01*
X285570238Y-11588095D01*
X285817857Y-11588095D01*
X285941666Y-11526190D01*
X286003571Y-11464285D01*
X286065476Y-11340476D01*
X286065476Y-11030952D01*
X286003571Y-10907142D01*
X285941666Y-10845238D01*
X285817857Y-10783333D01*
X285570238Y-10783333D01*
X285446428Y-10845238D01*
X285384523Y-10907142D01*
X285322619Y-11030952D01*
D10*
D11*
X60000000Y-198007200D02*
X60000000Y-200007200D01*
D10*
D11*
X110000000Y-198007200D02*
X110000000Y-200007200D01*
D10*
D11*
X160000000Y-198007200D02*
X160000000Y-200007200D01*
D10*
D11*
X210000000Y-198007200D02*
X210000000Y-200007200D01*
D10*
D11*
X260000000Y-198007200D02*
X260000000Y-200007200D01*
D10*
D11*
X36065476Y-199595295D02*
X35322619Y-199595295D01*
X35694047Y-199595295D02*
X35694047Y-198295295D01*
X35570238Y-198481009D01*
X35446428Y-198604819D01*
X35322619Y-198666723D01*
D10*
D11*
X85322619Y-198419104D02*
X85384523Y-198357200D01*
X85508333Y-198295295D01*
X85817857Y-198295295D01*
X85941666Y-198357200D01*
X86003571Y-198419104D01*
X86065476Y-198542914D01*
X86065476Y-198666723D01*
X86003571Y-198852438D01*
X85260714Y-199595295D01*
X86065476Y-199595295D01*
D10*
D11*
X135260714Y-198295295D02*
X136065476Y-198295295D01*
X135632142Y-198790533D01*
X135817857Y-198790533D01*
X135941666Y-198852438D01*
X136003571Y-198914342D01*
X136065476Y-199038152D01*
X136065476Y-199347676D01*
X136003571Y-199471485D01*
X135941666Y-199533390D01*
X135817857Y-199595295D01*
X135446428Y-199595295D01*
X135322619Y-199533390D01*
X135260714Y-199471485D01*
D10*
D11*
X185941666Y-198728628D02*
X185941666Y-199595295D01*
X185632142Y-198233390D02*
X185322619Y-199161961D01*
X186127380Y-199161961D01*
D10*
D11*
X236003571Y-198295295D02*
X235384523Y-198295295D01*
X235322619Y-198914342D01*
X235384523Y-198852438D01*
X235508333Y-198790533D01*
X235817857Y-198790533D01*
X235941666Y-198852438D01*
X236003571Y-198914342D01*
X236065476Y-199038152D01*
X236065476Y-199347676D01*
X236003571Y-199471485D01*
X235941666Y-199533390D01*
X235817857Y-199595295D01*
X235508333Y-199595295D01*
X235384523Y-199533390D01*
X235322619Y-199471485D01*
D10*
D11*
X285941666Y-198295295D02*
X285694047Y-198295295D01*
X285570238Y-198357200D01*
X285508333Y-198419104D01*
X285384523Y-198604819D01*
X285322619Y-198852438D01*
X285322619Y-199347676D01*
X285384523Y-199471485D01*
X285446428Y-199533390D01*
X285570238Y-199595295D01*
X285817857Y-199595295D01*
X285941666Y-199533390D01*
X286003571Y-199471485D01*
X286065476Y-199347676D01*
X286065476Y-199038152D01*
X286003571Y-198914342D01*
X285941666Y-198852438D01*
X285817857Y-198790533D01*
X285570238Y-198790533D01*
X285446428Y-198852438D01*
X285384523Y-198914342D01*
X285322619Y-199038152D01*
D10*
D11*
X10000000Y-60000000D02*
X12000000Y-60000000D01*
D10*
D11*
X10000000Y-110000000D02*
X12000000Y-110000000D01*
D10*
D11*
X10000000Y-160000000D02*
X12000000Y-160000000D01*
D10*
D11*
X10690476Y-35216666D02*
X11309523Y-35216666D01*
X10566666Y-35588095D02*
X11000000Y-34288095D01*
X11433333Y-35588095D01*
D10*
D11*
X11092857Y-84907142D02*
X11278571Y-84969047D01*
X11340476Y-85030952D01*
X11402380Y-85154761D01*
X11402380Y-85340476D01*
X11340476Y-85464285D01*
X11278571Y-85526190D01*
X11154761Y-85588095D01*
X10659523Y-85588095D01*
X10659523Y-84288095D01*
X11092857Y-84288095D01*
X11216666Y-84350000D01*
X11278571Y-84411904D01*
X11340476Y-84535714D01*
X11340476Y-84659523D01*
X11278571Y-84783333D01*
X11216666Y-84845238D01*
X11092857Y-84907142D01*
X10659523Y-84907142D01*
D10*
D11*
X11402380Y-135464285D02*
X11340476Y-135526190D01*
X11154761Y-135588095D01*
X11030952Y-135588095D01*
X10845238Y-135526190D01*
X10721428Y-135402380D01*
X10659523Y-135278571D01*
X10597619Y-135030952D01*
X10597619Y-134845238D01*
X10659523Y-134597619D01*
X10721428Y-134473809D01*
X10845238Y-134350000D01*
X11030952Y-134288095D01*
X11154761Y-134288095D01*
X11340476Y-134350000D01*
X11402380Y-134411904D01*
D10*
D11*
X10659523Y-185588095D02*
X10659523Y-184288095D01*
X10969047Y-184288095D01*
X11154761Y-184350000D01*
X11278571Y-184473809D01*
X11340476Y-184597619D01*
X11402380Y-184845238D01*
X11402380Y-185030952D01*
X11340476Y-185278571D01*
X11278571Y-185402380D01*
X11154761Y-185526190D01*
X10969047Y-185588095D01*
X10659523Y-185588095D01*
D10*
D11*
X287002200Y-60000000D02*
X285002200Y-60000000D01*
D10*
D11*
X287002200Y-110000000D02*
X285002200Y-110000000D01*
D10*
D11*
X287002200Y-160000000D02*
X285002200Y-160000000D01*
D10*
D11*
X285692676Y-35216666D02*
X286311723Y-35216666D01*
X285568866Y-35588095D02*
X286002200Y-34288095D01*
X286435533Y-35588095D01*
D10*
D11*
X286095057Y-84907142D02*
X286280771Y-84969047D01*
X286342676Y-85030952D01*
X286404580Y-85154761D01*
X286404580Y-85340476D01*
X286342676Y-85464285D01*
X286280771Y-85526190D01*
X286156961Y-85588095D01*
X285661723Y-85588095D01*
X285661723Y-84288095D01*
X286095057Y-84288095D01*
X286218866Y-84350000D01*
X286280771Y-84411904D01*
X286342676Y-84535714D01*
X286342676Y-84659523D01*
X286280771Y-84783333D01*
X286218866Y-84845238D01*
X286095057Y-84907142D01*
X285661723Y-84907142D01*
D10*
D11*
X286404580Y-135464285D02*
X286342676Y-135526190D01*
X286156961Y-135588095D01*
X286033152Y-135588095D01*
X285847438Y-135526190D01*
X285723628Y-135402380D01*
X285661723Y-135278571D01*
X285599819Y-135030952D01*
X285599819Y-134845238D01*
X285661723Y-134597619D01*
X285723628Y-134473809D01*
X285847438Y-134350000D01*
X286033152Y-134288095D01*
X286156961Y-134288095D01*
X286342676Y-134350000D01*
X286404580Y-134411904D01*
D10*
D11*
X285661723Y-185588095D02*
X285661723Y-184288095D01*
X285971247Y-184288095D01*
X286156961Y-184350000D01*
X286280771Y-184473809D01*
X286342676Y-184597619D01*
X286404580Y-184845238D01*
X286404580Y-185030952D01*
X286342676Y-185278571D01*
X286280771Y-185402380D01*
X286156961Y-185526190D01*
X285971247Y-185588095D01*
X285661723Y-185588095D01*
D10*
D11*
X200434342Y-193785771D02*
X200434342Y-192285771D01*
X200791485Y-192285771D01*
X201005771Y-192357200D01*
X201148628Y-192500057D01*
X201220057Y-192642914D01*
X201291485Y-192928628D01*
X201291485Y-193142914D01*
X201220057Y-193428628D01*
X201148628Y-193571485D01*
X201005771Y-193714342D01*
X200791485Y-193785771D01*
X200434342Y-193785771D01*
X202577200Y-193785771D02*
X202577200Y-193000057D01*
X202505771Y-192857200D01*
X202362914Y-192785771D01*
X202077200Y-192785771D01*
X201934342Y-192857200D01*
X202577200Y-193714342D02*
X202434342Y-193785771D01*
X202077200Y-193785771D01*
X201934342Y-193714342D01*
X201862914Y-193571485D01*
X201862914Y-193428628D01*
X201934342Y-193285771D01*
X202077200Y-193214342D01*
X202434342Y-193214342D01*
X202577200Y-193142914D01*
X203077200Y-192785771D02*
X203648628Y-192785771D01*
X203291485Y-192285771D02*
X203291485Y-193571485D01*
X203362914Y-193714342D01*
X203505771Y-193785771D01*
X203648628Y-193785771D01*
X204720057Y-193714342D02*
X204577200Y-193785771D01*
X204291485Y-193785771D01*
X204148628Y-193714342D01*
X204077200Y-193571485D01*
X204077200Y-193000057D01*
X204148628Y-192857200D01*
X204291485Y-192785771D01*
X204577200Y-192785771D01*
X204720057Y-192857200D01*
X204791485Y-193000057D01*
X204791485Y-193142914D01*
X204077200Y-193285771D01*
X205434342Y-193642914D02*
X205505771Y-193714342D01*
X205434342Y-193785771D01*
X205362914Y-193714342D01*
X205434342Y-193642914D01*
X205434342Y-193785771D01*
X205434342Y-192857200D02*
X205505771Y-192928628D01*
X205434342Y-193000057D01*
X205362914Y-192928628D01*
X205434342Y-192857200D01*
X205434342Y-193000057D01*
D10*
D11*
X177002200Y-194507200D02*
X285002200Y-194507200D01*
D10*
D11*
X178434342Y-196585771D02*
X178434342Y-195085771D01*
X179291485Y-196585771D02*
X178648628Y-195728628D01*
X179291485Y-195085771D02*
X178434342Y-195942914D01*
X179934342Y-196585771D02*
X179934342Y-195585771D01*
X179934342Y-195085771D02*
X179862914Y-195157200D01*
X179934342Y-195228628D01*
X180005771Y-195157200D01*
X179934342Y-195085771D01*
X179934342Y-195228628D01*
X181505771Y-196442914D02*
X181434342Y-196514342D01*
X181220057Y-196585771D01*
X181077200Y-196585771D01*
X180862914Y-196514342D01*
X180720057Y-196371485D01*
X180648628Y-196228628D01*
X180577200Y-195942914D01*
X180577200Y-195728628D01*
X180648628Y-195442914D01*
X180720057Y-195300057D01*
X180862914Y-195157200D01*
X181077200Y-195085771D01*
X181220057Y-195085771D01*
X181434342Y-195157200D01*
X181505771Y-195228628D01*
X182791485Y-196585771D02*
X182791485Y-195800057D01*
X182720057Y-195657200D01*
X182577200Y-195585771D01*
X182291485Y-195585771D01*
X182148628Y-195657200D01*
X182791485Y-196514342D02*
X182648628Y-196585771D01*
X182291485Y-196585771D01*
X182148628Y-196514342D01*
X182077200Y-196371485D01*
X182077200Y-196228628D01*
X182148628Y-196085771D01*
X182291485Y-196014342D01*
X182648628Y-196014342D01*
X182791485Y-195942914D01*
X184148628Y-196585771D02*
X184148628Y-195085771D01*
X184148628Y-196514342D02*
X184005771Y-196585771D01*
X183720057Y-196585771D01*
X183577200Y-196514342D01*
X183505771Y-196442914D01*
X183434342Y-196300057D01*
X183434342Y-195871485D01*
X183505771Y-195728628D01*
X183577200Y-195657200D01*
X183720057Y-195585771D01*
X184005771Y-195585771D01*
X184148628Y-195657200D01*
X186005771Y-195800057D02*
X186505771Y-195800057D01*
X186720057Y-196585771D02*
X186005771Y-196585771D01*
X186005771Y-195085771D01*
X186720057Y-195085771D01*
X187362914Y-196442914D02*
X187434342Y-196514342D01*
X187362914Y-196585771D01*
X187291485Y-196514342D01*
X187362914Y-196442914D01*
X187362914Y-196585771D01*
X188077200Y-196585771D02*
X188077200Y-195085771D01*
X188434342Y-195085771D01*
X188648628Y-195157200D01*
X188791485Y-195300057D01*
X188862914Y-195442914D01*
X188934342Y-195728628D01*
X188934342Y-195942914D01*
X188862914Y-196228628D01*
X188791485Y-196371485D01*
X188648628Y-196514342D01*
X188434342Y-196585771D01*
X188077200Y-196585771D01*
X189577200Y-196442914D02*
X189648628Y-196514342D01*
X189577200Y-196585771D01*
X189505771Y-196514342D01*
X189577200Y-196442914D01*
X189577200Y-196585771D01*
X190220057Y-196157200D02*
X190934342Y-196157200D01*
X190077200Y-196585771D02*
X190577200Y-195085771D01*
X191077200Y-196585771D01*
X191577200Y-196442914D02*
X191648628Y-196514342D01*
X191577200Y-196585771D01*
X191505771Y-196514342D01*
X191577200Y-196442914D01*
X191577200Y-196585771D01*
X194577200Y-196585771D02*
X194577200Y-195085771D01*
X194720057Y-196014342D02*
X195148628Y-196585771D01*
X195148628Y-195585771D02*
X194577200Y-196157200D01*
X195791485Y-196585771D02*
X195791485Y-195585771D01*
X195791485Y-195085771D02*
X195720057Y-195157200D01*
X195791485Y-195228628D01*
X195862914Y-195157200D01*
X195791485Y-195085771D01*
X195791485Y-195228628D01*
X197148628Y-196514342D02*
X197005771Y-196585771D01*
X196720057Y-196585771D01*
X196577200Y-196514342D01*
X196505771Y-196442914D01*
X196434342Y-196300057D01*
X196434342Y-195871485D01*
X196505771Y-195728628D01*
X196577200Y-195657200D01*
X196720057Y-195585771D01*
X197005771Y-195585771D01*
X197148628Y-195657200D01*
X198434342Y-196585771D02*
X198434342Y-195800057D01*
X198362914Y-195657200D01*
X198220057Y-195585771D01*
X197934342Y-195585771D01*
X197791485Y-195657200D01*
X198434342Y-196514342D02*
X198291485Y-196585771D01*
X197934342Y-196585771D01*
X197791485Y-196514342D01*
X197720057Y-196371485D01*
X197720057Y-196228628D01*
X197791485Y-196085771D01*
X197934342Y-196014342D01*
X198291485Y-196014342D01*
X198434342Y-195942914D01*
X199791485Y-196585771D02*
X199791485Y-195085771D01*
X199791485Y-196514342D02*
X199648628Y-196585771D01*
X199362914Y-196585771D01*
X199220057Y-196514342D01*
X199148628Y-196442914D01*
X199077200Y-196300057D01*
X199077200Y-195871485D01*
X199148628Y-195728628D01*
X199220057Y-195657200D01*
X199362914Y-195585771D01*
X199648628Y-195585771D01*
X199791485Y-195657200D01*
X202077200Y-197157200D02*
X202005771Y-197085771D01*
X201862914Y-196871485D01*
X201791485Y-196728628D01*
X201720057Y-196514342D01*
X201648628Y-196157200D01*
X201648628Y-195871485D01*
X201720057Y-195514342D01*
X201791485Y-195300057D01*
X201862914Y-195157200D01*
X202005771Y-194942914D01*
X202077200Y-194871485D01*
X203362914Y-195085771D02*
X202648628Y-195085771D01*
X202577200Y-195800057D01*
X202648628Y-195728628D01*
X202791485Y-195657200D01*
X203148628Y-195657200D01*
X203291485Y-195728628D01*
X203362914Y-195800057D01*
X203434342Y-195942914D01*
X203434342Y-196300057D01*
X203362914Y-196442914D01*
X203291485Y-196514342D01*
X203148628Y-196585771D01*
X202791485Y-196585771D01*
X202648628Y-196514342D01*
X202577200Y-196442914D01*
X204077200Y-196442914D02*
X204148628Y-196514342D01*
X204077200Y-196585771D01*
X204005771Y-196514342D01*
X204077200Y-196442914D01*
X204077200Y-196585771D01*
X205577200Y-196585771D02*
X204720057Y-196585771D01*
X205148628Y-196585771D02*
X205148628Y-195085771D01*
X205005771Y-195300057D01*
X204862914Y-195442914D01*
X204720057Y-195514342D01*
X206220057Y-196442914D02*
X206291485Y-196514342D01*
X206220057Y-196585771D01*
X206148628Y-196514342D01*
X206220057Y-196442914D01*
X206220057Y-196585771D01*
X206862914Y-195228628D02*
X206934342Y-195157200D01*
X207077200Y-195085771D01*
X207434342Y-195085771D01*
X207577200Y-195157200D01*
X207648628Y-195228628D01*
X207720057Y-195371485D01*
X207720057Y-195514342D01*
X207648628Y-195728628D01*
X206791485Y-196585771D01*
X207720057Y-196585771D01*
X208220057Y-197157200D02*
X208291485Y-197085771D01*
X208434342Y-196871485D01*
X208505771Y-196728628D01*
X208577200Y-196514342D01*
X208648628Y-196157200D01*
X208648628Y-195871485D01*
X208577200Y-195514342D01*
X208505771Y-195300057D01*
X208434342Y-195157200D01*
X208291485Y-194942914D01*
X208220057Y-194871485D01*
X209362914Y-196014342D02*
X210505771Y-196014342D01*
X211148628Y-195228628D02*
X211220057Y-195157200D01*
X211362914Y-195085771D01*
X211720057Y-195085771D01*
X211862914Y-195157200D01*
X211934342Y-195228628D01*
X212005771Y-195371485D01*
X212005771Y-195514342D01*
X211934342Y-195728628D01*
X211077200Y-196585771D01*
X212005771Y-196585771D01*
D10*
D11*
X177002200Y-191507200D02*
X285002200Y-191507200D01*
D10*
D12*
X264411485Y-193785771D02*
X263911485Y-193071485D01*
X263554342Y-193785771D02*
X263554342Y-192285771D01*
X264125771Y-192285771D01*
X264268628Y-192357200D01*
X264340057Y-192428628D01*
X264411485Y-192571485D01*
X264411485Y-192785771D01*
X264340057Y-192928628D01*
X264268628Y-193000057D01*
X264125771Y-193071485D01*
X263554342Y-193071485D01*
X265625771Y-193714342D02*
X265482914Y-193785771D01*
X265197200Y-193785771D01*
X265054342Y-193714342D01*
X264982914Y-193571485D01*
X264982914Y-193000057D01*
X265054342Y-192857200D01*
X265197200Y-192785771D01*
X265482914Y-192785771D01*
X265625771Y-192857200D01*
X265697200Y-193000057D01*
X265697200Y-193142914D01*
X264982914Y-193285771D01*
X266197200Y-192785771D02*
X266554342Y-193785771D01*
X266911485Y-192785771D01*
X267482914Y-193642914D02*
X267554342Y-193714342D01*
X267482914Y-193785771D01*
X267411485Y-193714342D01*
X267482914Y-193642914D01*
X267482914Y-193785771D01*
X267482914Y-192857200D02*
X267554342Y-192928628D01*
X267482914Y-193000057D01*
X267411485Y-192928628D01*
X267482914Y-192857200D01*
X267482914Y-193000057D01*
D10*
D11*
X178362914Y-193714342D02*
X178577200Y-193785771D01*
X178934342Y-193785771D01*
X179077200Y-193714342D01*
X179148628Y-193642914D01*
X179220057Y-193500057D01*
X179220057Y-193357200D01*
X179148628Y-193214342D01*
X179077200Y-193142914D01*
X178934342Y-193071485D01*
X178648628Y-193000057D01*
X178505771Y-192928628D01*
X178434342Y-192857200D01*
X178362914Y-192714342D01*
X178362914Y-192571485D01*
X178434342Y-192428628D01*
X178505771Y-192357200D01*
X178648628Y-192285771D01*
X179005771Y-192285771D01*
X179220057Y-192357200D01*
X179862914Y-193785771D02*
X179862914Y-192785771D01*
X179862914Y-192285771D02*
X179791485Y-192357200D01*
X179862914Y-192428628D01*
X179934342Y-192357200D01*
X179862914Y-192285771D01*
X179862914Y-192428628D01*
X180434342Y-192785771D02*
X181220057Y-192785771D01*
X180434342Y-193785771D01*
X181220057Y-193785771D01*
X182362914Y-193714342D02*
X182220057Y-193785771D01*
X181934342Y-193785771D01*
X181791485Y-193714342D01*
X181720057Y-193571485D01*
X181720057Y-193000057D01*
X181791485Y-192857200D01*
X181934342Y-192785771D01*
X182220057Y-192785771D01*
X182362914Y-192857200D01*
X182434342Y-193000057D01*
X182434342Y-193142914D01*
X181720057Y-193285771D01*
X183077200Y-193642914D02*
X183148628Y-193714342D01*
X183077200Y-193785771D01*
X183005771Y-193714342D01*
X183077200Y-193642914D01*
X183077200Y-193785771D01*
X183077200Y-192857200D02*
X183148628Y-192928628D01*
X183077200Y-193000057D01*
X183005771Y-192928628D01*
X183077200Y-192857200D01*
X183077200Y-193000057D01*
X184862914Y-193357200D02*
X185577200Y-193357200D01*
X184720057Y-193785771D02*
X185220057Y-192285771D01*
X185720057Y-193785771D01*
X186862914Y-192785771D02*
X186862914Y-193785771D01*
X186505771Y-192214342D02*
X186148628Y-193285771D01*
X187077200Y-193285771D01*
D10*
D11*
X263434342Y-196585771D02*
X263434342Y-195085771D01*
X264791485Y-196585771D02*
X264791485Y-195085771D01*
X264791485Y-196514342D02*
X264648628Y-196585771D01*
X264362914Y-196585771D01*
X264220057Y-196514342D01*
X264148628Y-196442914D01*
X264077200Y-196300057D01*
X264077200Y-195871485D01*
X264148628Y-195728628D01*
X264220057Y-195657200D01*
X264362914Y-195585771D01*
X264648628Y-195585771D01*
X264791485Y-195657200D01*
X265505771Y-196442914D02*
X265577200Y-196514342D01*
X265505771Y-196585771D01*
X265434342Y-196514342D01*
X265505771Y-196442914D01*
X265505771Y-196585771D01*
X265505771Y-195657200D02*
X265577200Y-195728628D01*
X265505771Y-195800057D01*
X265434342Y-195728628D01*
X265505771Y-195657200D01*
X265505771Y-195800057D01*
X268148628Y-196585771D02*
X267291485Y-196585771D01*
X267720057Y-196585771D02*
X267720057Y-195085771D01*
X267577200Y-195300057D01*
X267434342Y-195442914D01*
X267291485Y-195514342D01*
X269862914Y-195014342D02*
X268577200Y-196942914D01*
X271148628Y-196585771D02*
X270291485Y-196585771D01*
X270720057Y-196585771D02*
X270720057Y-195085771D01*
X270577200Y-195300057D01*
X270434342Y-195442914D01*
X270291485Y-195514342D01*
D10*
D11*
X177002200Y-187507200D02*
X285002200Y-187507200D01*
D10*
D13*
X178714580Y-188211961D02*
X179857438Y-188211961D01*
X179036009Y-190211961D02*
X179286009Y-188211961D01*
X180274104Y-190211961D02*
X180440771Y-188878628D01*
X180524104Y-188211961D02*
X180416961Y-188307200D01*
X180500295Y-188402438D01*
X180607438Y-188307200D01*
X180524104Y-188211961D01*
X180500295Y-188402438D01*
X181107438Y-188878628D02*
X181869342Y-188878628D01*
X181476485Y-188211961D02*
X181262200Y-189926247D01*
X181333628Y-190116723D01*
X181512200Y-190211961D01*
X181702676Y-190211961D01*
X182655057Y-190211961D02*
X182476485Y-190116723D01*
X182405057Y-189926247D01*
X182619342Y-188211961D01*
X184190771Y-190116723D02*
X183988390Y-190211961D01*
X183607438Y-190211961D01*
X183428866Y-190116723D01*
X183357438Y-189926247D01*
X183452676Y-189164342D01*
X183571723Y-188973866D01*
X183774104Y-188878628D01*
X184155057Y-188878628D01*
X184333628Y-188973866D01*
X184405057Y-189164342D01*
X184381247Y-189354819D01*
X183405057Y-189545295D01*
X185155057Y-190021485D02*
X185238390Y-190116723D01*
X185131247Y-190211961D01*
X185047914Y-190116723D01*
X185155057Y-190021485D01*
X185131247Y-190211961D01*
X185286009Y-188973866D02*
X185369342Y-189069104D01*
X185262200Y-189164342D01*
X185178866Y-189069104D01*
X185286009Y-188973866D01*
X185262200Y-189164342D01*
D10*
D11*
X178934342Y-185600057D02*
X178434342Y-185600057D01*
X178434342Y-186385771D02*
X178434342Y-184885771D01*
X179148628Y-184885771D01*
X179720057Y-186385771D02*
X179720057Y-185385771D01*
X179720057Y-184885771D02*
X179648628Y-184957200D01*
X179720057Y-185028628D01*
X179791485Y-184957200D01*
X179720057Y-184885771D01*
X179720057Y-185028628D01*
X180648628Y-186385771D02*
X180505771Y-186314342D01*
X180434342Y-186171485D01*
X180434342Y-184885771D01*
X181791485Y-186314342D02*
X181648628Y-186385771D01*
X181362914Y-186385771D01*
X181220057Y-186314342D01*
X181148628Y-186171485D01*
X181148628Y-185600057D01*
X181220057Y-185457200D01*
X181362914Y-185385771D01*
X181648628Y-185385771D01*
X181791485Y-185457200D01*
X181862914Y-185600057D01*
X181862914Y-185742914D01*
X181148628Y-185885771D01*
X182505771Y-186242914D02*
X182577200Y-186314342D01*
X182505771Y-186385771D01*
X182434342Y-186314342D01*
X182505771Y-186242914D01*
X182505771Y-186385771D01*
X182505771Y-185457200D02*
X182577200Y-185528628D01*
X182505771Y-185600057D01*
X182434342Y-185528628D01*
X182505771Y-185457200D01*
X182505771Y-185600057D01*
X184362914Y-186385771D02*
X184362914Y-184885771D01*
X184934342Y-184885771D01*
X185077200Y-184957200D01*
X185148628Y-185028628D01*
X185220057Y-185171485D01*
X185220057Y-185385771D01*
X185148628Y-185528628D01*
X185077200Y-185600057D01*
X184934342Y-185671485D01*
X184362914Y-185671485D01*
X186720057Y-186242914D02*
X186648628Y-186314342D01*
X186434342Y-186385771D01*
X186291485Y-186385771D01*
X186077200Y-186314342D01*
X185934342Y-186171485D01*
X185862914Y-186028628D01*
X185791485Y-185742914D01*
X185791485Y-185528628D01*
X185862914Y-185242914D01*
X185934342Y-185100057D01*
X186077200Y-184957200D01*
X186291485Y-184885771D01*
X186434342Y-184885771D01*
X186648628Y-184957200D01*
X186720057Y-185028628D01*
X187862914Y-185600057D02*
X188077200Y-185671485D01*
X188148628Y-185742914D01*
X188220057Y-185885771D01*
X188220057Y-186100057D01*
X188148628Y-186242914D01*
X188077200Y-186314342D01*
X187934342Y-186385771D01*
X187362914Y-186385771D01*
X187362914Y-184885771D01*
X187862914Y-184885771D01*
X188005771Y-184957200D01*
X188077200Y-185028628D01*
X188148628Y-185171485D01*
X188148628Y-185314342D01*
X188077200Y-185457200D01*
X188005771Y-185528628D01*
X187862914Y-185600057D01*
X187362914Y-185600057D01*
X188862914Y-186242914D02*
X188934342Y-186314342D01*
X188862914Y-186385771D01*
X188791485Y-186314342D01*
X188862914Y-186242914D01*
X188862914Y-186385771D01*
X189577200Y-186385771D02*
X189577200Y-184885771D01*
X189720057Y-185814342D02*
X190148628Y-186385771D01*
X190148628Y-185385771D02*
X189577200Y-185957200D01*
X190791485Y-186385771D02*
X190791485Y-185385771D01*
X190791485Y-184885771D02*
X190720057Y-184957200D01*
X190791485Y-185028628D01*
X190862914Y-184957200D01*
X190791485Y-184885771D01*
X190791485Y-185028628D01*
X192148628Y-186314342D02*
X192005771Y-186385771D01*
X191720057Y-186385771D01*
X191577200Y-186314342D01*
X191505771Y-186242914D01*
X191434342Y-186100057D01*
X191434342Y-185671485D01*
X191505771Y-185528628D01*
X191577200Y-185457200D01*
X191720057Y-185385771D01*
X192005771Y-185385771D01*
X192148628Y-185457200D01*
X193434342Y-186385771D02*
X193434342Y-185600057D01*
X193362914Y-185457200D01*
X193220057Y-185385771D01*
X192934342Y-185385771D01*
X192791485Y-185457200D01*
X193434342Y-186314342D02*
X193291485Y-186385771D01*
X192934342Y-186385771D01*
X192791485Y-186314342D01*
X192720057Y-186171485D01*
X192720057Y-186028628D01*
X192791485Y-185885771D01*
X192934342Y-185814342D01*
X193291485Y-185814342D01*
X193434342Y-185742914D01*
X194791485Y-186385771D02*
X194791485Y-184885771D01*
X194791485Y-186314342D02*
X194648628Y-186385771D01*
X194362914Y-186385771D01*
X194220057Y-186314342D01*
X194148628Y-186242914D01*
X194077200Y-186100057D01*
X194077200Y-185671485D01*
X194148628Y-185528628D01*
X194220057Y-185457200D01*
X194362914Y-185385771D01*
X194648628Y-185385771D01*
X194791485Y-185457200D01*
X195148628Y-186528628D02*
X196291485Y-186528628D01*
X196648628Y-185385771D02*
X196648628Y-186885771D01*
X196648628Y-185457200D02*
X196791485Y-185385771D01*
X197077200Y-185385771D01*
X197220057Y-185457200D01*
X197291485Y-185528628D01*
X197362914Y-185671485D01*
X197362914Y-186100057D01*
X197291485Y-186242914D01*
X197220057Y-186314342D01*
X197077200Y-186385771D01*
X196791485Y-186385771D01*
X196648628Y-186314342D01*
X198648628Y-186314342D02*
X198505771Y-186385771D01*
X198220057Y-186385771D01*
X198077200Y-186314342D01*
X198005771Y-186242914D01*
X197934342Y-186100057D01*
X197934342Y-185671485D01*
X198005771Y-185528628D01*
X198077200Y-185457200D01*
X198220057Y-185385771D01*
X198505771Y-185385771D01*
X198648628Y-185457200D01*
X199291485Y-186385771D02*
X199291485Y-184885771D01*
X199291485Y-185457200D02*
X199434342Y-185385771D01*
X199720057Y-185385771D01*
X199862914Y-185457200D01*
X199934342Y-185528628D01*
X200005771Y-185671485D01*
X200005771Y-186100057D01*
X199934342Y-186242914D01*
X199862914Y-186314342D01*
X199720057Y-186385771D01*
X199434342Y-186385771D01*
X199291485Y-186314342D01*
D10*
D11*
X177002200Y-181507200D02*
X285002200Y-181507200D01*
D10*
D11*
X178362914Y-183614342D02*
X178577200Y-183685771D01*
X178934342Y-183685771D01*
X179077200Y-183614342D01*
X179148628Y-183542914D01*
X179220057Y-183400057D01*
X179220057Y-183257200D01*
X179148628Y-183114342D01*
X179077200Y-183042914D01*
X178934342Y-182971485D01*
X178648628Y-182900057D01*
X178505771Y-182828628D01*
X178434342Y-182757200D01*
X178362914Y-182614342D01*
X178362914Y-182471485D01*
X178434342Y-182328628D01*
X178505771Y-182257200D01*
X178648628Y-182185771D01*
X179005771Y-182185771D01*
X179220057Y-182257200D01*
X179862914Y-183685771D02*
X179862914Y-182185771D01*
X180505771Y-183685771D02*
X180505771Y-182900057D01*
X180434342Y-182757200D01*
X180291485Y-182685771D01*
X180077200Y-182685771D01*
X179934342Y-182757200D01*
X179862914Y-182828628D01*
X181791485Y-183614342D02*
X181648628Y-183685771D01*
X181362914Y-183685771D01*
X181220057Y-183614342D01*
X181148628Y-183471485D01*
X181148628Y-182900057D01*
X181220057Y-182757200D01*
X181362914Y-182685771D01*
X181648628Y-182685771D01*
X181791485Y-182757200D01*
X181862914Y-182900057D01*
X181862914Y-183042914D01*
X181148628Y-183185771D01*
X183077200Y-183614342D02*
X182934342Y-183685771D01*
X182648628Y-183685771D01*
X182505771Y-183614342D01*
X182434342Y-183471485D01*
X182434342Y-182900057D01*
X182505771Y-182757200D01*
X182648628Y-182685771D01*
X182934342Y-182685771D01*
X183077200Y-182757200D01*
X183148628Y-182900057D01*
X183148628Y-183042914D01*
X182434342Y-183185771D01*
X183577200Y-182685771D02*
X184148628Y-182685771D01*
X183791485Y-182185771D02*
X183791485Y-183471485D01*
X183862914Y-183614342D01*
X184005771Y-183685771D01*
X184148628Y-183685771D01*
X184648628Y-183542914D02*
X184720057Y-183614342D01*
X184648628Y-183685771D01*
X184577200Y-183614342D01*
X184648628Y-183542914D01*
X184648628Y-183685771D01*
X184648628Y-182757200D02*
X184720057Y-182828628D01*
X184648628Y-182900057D01*
X184577200Y-182828628D01*
X184648628Y-182757200D01*
X184648628Y-182900057D01*
D10*
D11*
X197002200Y-191507200D02*
X197002200Y-194507200D01*
D10*
D11*
X261002200Y-191507200D02*
X261002200Y-198007200D01*
D14*
X156925000Y-126200000D02*
X154925000Y-126200000D01*
X156925000Y-121200000D02*
X154925000Y-121200000D01*
X154925000Y-121200000D02*
X154925000Y-126200000D01*
X156925000Y-126200000D02*
X156925000Y-126800000D01*
X156925000Y-120600000D02*
X156925000Y-121200000D01*
X169025000Y-126800000D02*
X169025000Y-120600000D01*
X156925000Y-120600000D02*
X159425000Y-120600000D01*
X160825000Y-120600000D02*
X162425000Y-120600000D01*
X163825000Y-120600000D02*
X166425000Y-120600000D01*
X167825000Y-120600000D02*
X169025000Y-120600000D01*
X168925000Y-126800000D02*
X169025000Y-126800000D01*
X167525000Y-126800000D02*
X156925000Y-126800000D01*
X169537740Y-103282460D02*
X169537740Y-101822460D01*
X172697740Y-103282460D02*
X172697740Y-100122460D01*
X172697740Y-103282460D02*
X171767740Y-103282460D01*
X169537740Y-103282460D02*
X170467740Y-103282460D01*
X226152040Y-104126060D02*
X226152040Y-105586060D01*
X222992040Y-104126060D02*
X222992040Y-107286060D01*
X222992040Y-104126060D02*
X223922040Y-104126060D01*
X226152040Y-104126060D02*
X225222040Y-104126060D01*
X277370000Y-115000000D02*
G75*
G03X277370000Y-115000000I-6370000J0D01*
G01*
X277370000Y-62500000D02*
G75*
G03X277370000Y-62500000I-6370000J0D01*
G01*
X277370000Y-97500000D02*
G75*
G03X277370000Y-97500000I-6370000J0D01*
G01*
X277370000Y-80000000D02*
G75*
G03X277370000Y-80000000I-6370000J0D01*
G01*
X216488040Y-123182060D02*
X215028040Y-123182060D01*
X216488040Y-120022060D02*
X214328040Y-120022060D01*
X216488040Y-120022060D02*
X216488040Y-120952060D01*
X216488040Y-123182060D02*
X216488040Y-122252060D01*
X195162092Y-78393760D02*
X194639588Y-78393760D01*
X195162092Y-79813760D02*
X194639588Y-79813760D01*
X222078040Y-66272060D02*
X222078040Y-64812060D01*
X225238040Y-66272060D02*
X225238040Y-64112060D01*
X225238040Y-66272060D02*
X224308040Y-66272060D01*
X222078040Y-66272060D02*
X223008040Y-66272060D01*
X227248040Y-113372060D02*
X225788040Y-113372060D01*
X227248040Y-110212060D02*
X225088040Y-110212060D01*
X227248040Y-110212060D02*
X227248040Y-111142060D01*
X227248040Y-113372060D02*
X227248040Y-112442060D01*
X173980840Y-92343760D02*
X173980840Y-93803760D01*
X170820840Y-92343760D02*
X170820840Y-95503760D01*
X170820840Y-92343760D02*
X171750840Y-92343760D01*
X173980840Y-92343760D02*
X173050840Y-92343760D01*
X239389588Y-122713760D02*
X239912092Y-122713760D01*
X239389588Y-121293760D02*
X239912092Y-121293760D01*
X247250040Y-80441060D02*
X245510040Y-80441060D01*
X247250040Y-77240060D02*
X245510040Y-77240060D01*
X245510040Y-85690060D02*
X245510040Y-86710060D01*
X245510040Y-80240060D02*
X245510040Y-82890060D01*
X245510040Y-74790060D02*
X245510040Y-77441060D01*
X245510040Y-70970060D02*
X245510040Y-71990060D01*
X247250040Y-86710060D02*
X242510040Y-86710060D01*
X247250040Y-70970060D02*
X242510040Y-70970060D01*
X242510040Y-85690060D02*
X242510040Y-86710060D01*
X242510040Y-80240060D02*
X242510040Y-82890060D01*
X242510040Y-74790060D02*
X242510040Y-77441060D01*
X242510040Y-70970060D02*
X242510040Y-71990060D01*
X247250040Y-70970060D02*
X247250040Y-86710060D01*
X247250040Y-115747060D02*
X245510040Y-115747060D01*
X247250040Y-112546060D02*
X245510040Y-112546060D01*
X245510040Y-120996060D02*
X245510040Y-122016060D01*
X245510040Y-115546060D02*
X245510040Y-118196060D01*
X245510040Y-110096060D02*
X245510040Y-112747060D01*
X245510040Y-106276060D02*
X245510040Y-107296060D01*
X247250040Y-122016060D02*
X242510040Y-122016060D01*
X247250040Y-106276060D02*
X242510040Y-106276060D01*
X242510040Y-120996060D02*
X242510040Y-122016060D01*
X242510040Y-115546060D02*
X242510040Y-118196060D01*
X242510040Y-110096060D02*
X242510040Y-112747060D01*
X242510040Y-106276060D02*
X242510040Y-107296060D01*
X247250040Y-106276060D02*
X247250040Y-122016060D01*
X190071588Y-73581760D02*
X190594092Y-73581760D01*
X190071588Y-75001760D02*
X190594092Y-75001760D01*
X247208040Y-98221060D02*
X245468040Y-98221060D01*
X247208040Y-95020060D02*
X245468040Y-95020060D01*
X245468040Y-103470060D02*
X245468040Y-104490060D01*
X245468040Y-98020060D02*
X245468040Y-100670060D01*
X245468040Y-92570060D02*
X245468040Y-95221060D01*
X245468040Y-88750060D02*
X245468040Y-89770060D01*
X247208040Y-104490060D02*
X242468040Y-104490060D01*
X247208040Y-88750060D02*
X242468040Y-88750060D01*
X242468040Y-103470060D02*
X242468040Y-104490060D01*
X242468040Y-98020060D02*
X242468040Y-100670060D01*
X242468040Y-92570060D02*
X242468040Y-95221060D01*
X242468040Y-88750060D02*
X242468040Y-89770060D01*
X247208040Y-88750060D02*
X247208040Y-104490060D01*
X247208040Y-62583060D02*
X245468040Y-62583060D01*
X247208040Y-59382060D02*
X245468040Y-59382060D01*
X245468040Y-67832060D02*
X245468040Y-68852060D01*
X245468040Y-62382060D02*
X245468040Y-65032060D01*
X245468040Y-56932060D02*
X245468040Y-59583060D01*
X245468040Y-53112060D02*
X245468040Y-54132060D01*
X247208040Y-68852060D02*
X242468040Y-68852060D01*
X247208040Y-53112060D02*
X242468040Y-53112060D01*
X242468040Y-67832060D02*
X242468040Y-68852060D01*
X242468040Y-62382060D02*
X242468040Y-65032060D01*
X242468040Y-56932060D02*
X242468040Y-59583060D01*
X242468040Y-53112060D02*
X242468040Y-54132060D01*
X247208040Y-53112060D02*
X247208040Y-68852060D01*
X234476292Y-107224060D02*
X233953788Y-107224060D01*
X234476292Y-108644060D02*
X233953788Y-108644060D01*
X200595118Y-79283483D02*
G75*
G03X205206420Y-79283760I2305722J1179723D01*
G01*
X200595118Y-76924037D02*
G75*
G02X205206420Y-76923760I2305722J-1179723D01*
G01*
X200595118Y-76924037D02*
G75*
G03X200595260Y-79283760I2305722J-1179723D01*
G01*
X202900840Y-80653760D02*
X202900840Y-75553760D01*
X202860840Y-80653760D02*
X202860840Y-79083760D01*
X202860840Y-77123760D02*
X202860840Y-75553760D01*
X202820840Y-80652760D02*
X202820840Y-79083760D01*
X202820840Y-77123760D02*
X202820840Y-75554760D01*
X202780840Y-80651760D02*
X202780840Y-79083760D01*
X202780840Y-77123760D02*
X202780840Y-75555760D01*
X202740840Y-80649760D02*
X202740840Y-79083760D01*
X202740840Y-77123760D02*
X202740840Y-75557760D01*
X202700840Y-80646760D02*
X202700840Y-79083760D01*
X202700840Y-77123760D02*
X202700840Y-75560760D01*
X202660840Y-80642760D02*
X202660840Y-79083760D01*
X202660840Y-77123760D02*
X202660840Y-75564760D01*
X202620840Y-80638760D02*
X202620840Y-79083760D01*
X202620840Y-77123760D02*
X202620840Y-75568760D01*
X202580840Y-80634760D02*
X202580840Y-79083760D01*
X202580840Y-77123760D02*
X202580840Y-75572760D01*
X202540840Y-80628760D02*
X202540840Y-79083760D01*
X202540840Y-77123760D02*
X202540840Y-75578760D01*
X202500840Y-80622760D02*
X202500840Y-79083760D01*
X202500840Y-77123760D02*
X202500840Y-75584760D01*
X202460840Y-80616760D02*
X202460840Y-79083760D01*
X202460840Y-77123760D02*
X202460840Y-75590760D01*
X202420840Y-80609760D02*
X202420840Y-79083760D01*
X202420840Y-77123760D02*
X202420840Y-75597760D01*
X202380840Y-80601760D02*
X202380840Y-79083760D01*
X202380840Y-77123760D02*
X202380840Y-75605760D01*
X202340840Y-80592760D02*
X202340840Y-79083760D01*
X202340840Y-77123760D02*
X202340840Y-75614760D01*
X202300840Y-80583760D02*
X202300840Y-79083760D01*
X202300840Y-77123760D02*
X202300840Y-75623760D01*
X202260840Y-80573760D02*
X202260840Y-79083760D01*
X202260840Y-77123760D02*
X202260840Y-75633760D01*
X202220840Y-80563760D02*
X202220840Y-79083760D01*
X202220840Y-77123760D02*
X202220840Y-75643760D01*
X202179840Y-80551760D02*
X202179840Y-79083760D01*
X202179840Y-77123760D02*
X202179840Y-75655760D01*
X202139840Y-80539760D02*
X202139840Y-79083760D01*
X202139840Y-77123760D02*
X202139840Y-75667760D01*
X202099840Y-80527760D02*
X202099840Y-79083760D01*
X202099840Y-77123760D02*
X202099840Y-75679760D01*
X202059840Y-80513760D02*
X202059840Y-79083760D01*
X202059840Y-77123760D02*
X202059840Y-75693760D01*
X202019840Y-80499760D02*
X202019840Y-79083760D01*
X202019840Y-77123760D02*
X202019840Y-75707760D01*
X201979840Y-80485760D02*
X201979840Y-79083760D01*
X201979840Y-77123760D02*
X201979840Y-75721760D01*
X201939840Y-80469760D02*
X201939840Y-79083760D01*
X201939840Y-77123760D02*
X201939840Y-75737760D01*
X201899840Y-80453760D02*
X201899840Y-79083760D01*
X201899840Y-77123760D02*
X201899840Y-75753760D01*
X201859840Y-80436760D02*
X201859840Y-79083760D01*
X201859840Y-77123760D02*
X201859840Y-75770760D01*
X201819840Y-80418760D02*
X201819840Y-79083760D01*
X201819840Y-77123760D02*
X201819840Y-75788760D01*
X201779840Y-80399760D02*
X201779840Y-79083760D01*
X201779840Y-77123760D02*
X201779840Y-75807760D01*
X201739840Y-80379760D02*
X201739840Y-79083760D01*
X201739840Y-77123760D02*
X201739840Y-75827760D01*
X201699840Y-80359760D02*
X201699840Y-79083760D01*
X201699840Y-77123760D02*
X201699840Y-75847760D01*
X201659840Y-80337760D02*
X201659840Y-79083760D01*
X201659840Y-77123760D02*
X201659840Y-75869760D01*
X201619840Y-80315760D02*
X201619840Y-79083760D01*
X201619840Y-77123760D02*
X201619840Y-75891760D01*
X201579840Y-80292760D02*
X201579840Y-79083760D01*
X201579840Y-77123760D02*
X201579840Y-75914760D01*
X201539840Y-80268760D02*
X201539840Y-79083760D01*
X201539840Y-77123760D02*
X201539840Y-75938760D01*
X201499840Y-80243760D02*
X201499840Y-79083760D01*
X201499840Y-77123760D02*
X201499840Y-75963760D01*
X201459840Y-80216760D02*
X201459840Y-79083760D01*
X201459840Y-77123760D02*
X201459840Y-75990760D01*
X201419840Y-80189760D02*
X201419840Y-79083760D01*
X201419840Y-77123760D02*
X201419840Y-76017760D01*
X201379840Y-80161760D02*
X201379840Y-79083760D01*
X201379840Y-77123760D02*
X201379840Y-76045760D01*
X201339840Y-80131760D02*
X201339840Y-79083760D01*
X201339840Y-77123760D02*
X201339840Y-76075760D01*
X201299840Y-80100760D02*
X201299840Y-79083760D01*
X201299840Y-77123760D02*
X201299840Y-76106760D01*
X201259840Y-80068760D02*
X201259840Y-79083760D01*
X201259840Y-77123760D02*
X201259840Y-76138760D01*
X201219840Y-80035760D02*
X201219840Y-79083760D01*
X201219840Y-77123760D02*
X201219840Y-76171760D01*
X201179840Y-80000760D02*
X201179840Y-79083760D01*
X201179840Y-77123760D02*
X201179840Y-76206760D01*
X201139840Y-79964760D02*
X201139840Y-79083760D01*
X201139840Y-77123760D02*
X201139840Y-76242760D01*
X201099840Y-79926760D02*
X201099840Y-79083760D01*
X201099840Y-77123760D02*
X201099840Y-76280760D01*
X201059840Y-79886760D02*
X201059840Y-79083760D01*
X201059840Y-77123760D02*
X201059840Y-76320760D01*
X201019840Y-79845760D02*
X201019840Y-79083760D01*
X201019840Y-77123760D02*
X201019840Y-76361760D01*
X200979840Y-79802760D02*
X200979840Y-79083760D01*
X200979840Y-77123760D02*
X200979840Y-76404760D01*
X200939840Y-79757760D02*
X200939840Y-79083760D01*
X200939840Y-77123760D02*
X200939840Y-76449760D01*
X200899840Y-79709760D02*
X200899840Y-76497760D01*
X200859840Y-79659760D02*
X200859840Y-76547760D01*
X200819840Y-79607760D02*
X200819840Y-76599760D01*
X200779840Y-79551760D02*
X200779840Y-76655760D01*
X200739840Y-79493760D02*
X200739840Y-76713760D01*
X200699840Y-79430760D02*
X200699840Y-76776760D01*
X200659840Y-79364760D02*
X200659840Y-76842760D01*
X200619840Y-79292760D02*
X200619840Y-76914760D01*
X200579840Y-79215760D02*
X200579840Y-76991760D01*
X200539840Y-79131760D02*
X200539840Y-77075760D01*
X200499840Y-79037760D02*
X200499840Y-77169760D01*
X200459840Y-78932760D02*
X200459840Y-77274760D01*
X200419840Y-78810760D02*
X200419840Y-77396760D01*
X200379840Y-78662760D02*
X200379840Y-77544760D01*
X200339840Y-78457760D02*
X200339840Y-77749760D01*
X206100840Y-78103760D02*
X204900840Y-78103760D01*
X205500840Y-78753760D02*
X205500840Y-77453760D01*
X201623940Y-87506360D02*
X201623940Y-88336360D01*
X201623940Y-84846360D02*
X201623940Y-86426360D01*
X198422940Y-88016360D02*
X198422940Y-88336360D01*
X198422940Y-84846360D02*
X198422940Y-85916360D01*
X204142940Y-84846360D02*
X204142940Y-88336360D01*
X195902940Y-84846360D02*
X195902940Y-88336360D01*
X195902940Y-88336360D02*
X204142940Y-88336360D01*
X195902940Y-84846360D02*
X204142940Y-84846360D01*
X229208040Y-93532060D02*
X230708040Y-93532060D01*
X229208040Y-88912060D02*
X219968040Y-88912060D01*
X229208040Y-98152060D02*
X229208040Y-88912060D01*
X219968040Y-98152060D02*
X229208040Y-98152060D01*
X219968040Y-88912060D02*
X219968040Y-98152060D01*
X229208040Y-82532060D02*
X230708040Y-82532060D01*
X229208040Y-77912060D02*
X219968040Y-77912060D01*
X229208040Y-87152060D02*
X229208040Y-77912060D01*
X219968040Y-87152060D02*
X229208040Y-87152060D01*
X219968040Y-77912060D02*
X219968040Y-87152060D01*
X234748292Y-67346060D02*
X234225788Y-67346060D01*
X234748292Y-68766060D02*
X234225788Y-68766060D01*
X222992040Y-72118060D02*
X222992040Y-70658060D01*
X226152040Y-72118060D02*
X226152040Y-68958060D01*
X226152040Y-72118060D02*
X225222040Y-72118060D01*
X222992040Y-72118060D02*
X223922040Y-72118060D01*
X236848040Y-63636060D02*
X235388040Y-63636060D01*
X236848040Y-60476060D02*
X233688040Y-60476060D01*
X236848040Y-60476060D02*
X236848040Y-61406060D01*
X236848040Y-63636060D02*
X236848040Y-62706060D01*
X236828040Y-112902060D02*
X236828040Y-114362060D01*
X233668040Y-112902060D02*
X233668040Y-116062060D01*
X233668040Y-112902060D02*
X234598040Y-112902060D01*
X236828040Y-112902060D02*
X235898040Y-112902060D01*
X234913292Y-72172060D02*
X234390788Y-72172060D01*
X234913292Y-73592060D02*
X234390788Y-73592060D01*
X223321788Y-61222060D02*
X223844292Y-61222060D01*
X223321788Y-59802060D02*
X223844292Y-59802060D01*
X235696788Y-54442060D02*
X236219292Y-54442060D01*
X235696788Y-53022060D02*
X236219292Y-53022060D01*
X209022040Y-72904060D02*
X209952040Y-72904060D01*
X212182040Y-72904060D02*
X211252040Y-72904060D01*
X212182040Y-72904060D02*
X212182040Y-69744060D01*
X209022040Y-72904060D02*
X209022040Y-71444060D01*
X208908040Y-102702060D02*
X207448040Y-102702060D01*
X208908040Y-99542060D02*
X205748040Y-99542060D01*
X208908040Y-99542060D02*
X208908040Y-100472060D01*
X208908040Y-102702060D02*
X208908040Y-101772060D01*
X214438040Y-114362060D02*
X215368040Y-114362060D01*
X217598040Y-114362060D02*
X216668040Y-114362060D01*
X217598040Y-114362060D02*
X217598040Y-111202060D01*
X214438040Y-114362060D02*
X214438040Y-112902060D01*
X182508040Y-65792060D02*
X182508040Y-64332060D01*
X185668040Y-65792060D02*
X185668040Y-62632060D01*
X185668040Y-65792060D02*
X184738040Y-65792060D01*
X182508040Y-65792060D02*
X183438040Y-65792060D01*
X222848040Y-124132060D02*
X222848040Y-123202060D01*
X222848040Y-120972060D02*
X222848040Y-121902060D01*
X222848040Y-120972060D02*
X219688040Y-120972060D01*
X222848040Y-124132060D02*
X221388040Y-124132060D01*
X228928040Y-120992060D02*
X230388040Y-120992060D01*
X228928040Y-124152060D02*
X232088040Y-124152060D01*
X228928040Y-124152060D02*
X228928040Y-123222060D01*
X228928040Y-120992060D02*
X228928040Y-121922060D01*
X226468040Y-53112060D02*
X226468040Y-54042060D01*
X226468040Y-56272060D02*
X226468040Y-55342060D01*
X226468040Y-56272060D02*
X229628040Y-56272060D01*
X226468040Y-53112060D02*
X227928040Y-53112060D01*
X220678040Y-56472060D02*
X219748040Y-56472060D01*
X217518040Y-56472060D02*
X218448040Y-56472060D01*
X217518040Y-56472060D02*
X217518040Y-59632060D01*
X220678040Y-56472060D02*
X220678040Y-57932060D01*
X196625140Y-123777760D02*
X195165140Y-123777760D01*
X196625140Y-120617760D02*
X193465140Y-120617760D01*
X196625140Y-120617760D02*
X196625140Y-121547760D01*
X196625140Y-123777760D02*
X196625140Y-122847760D01*
X174668040Y-65132060D02*
X174668040Y-66062060D01*
X174668040Y-68292060D02*
X174668040Y-67362060D01*
X174668040Y-68292060D02*
X177828040Y-68292060D01*
X174668040Y-65132060D02*
X176128040Y-65132060D01*
X188959240Y-121426660D02*
X187499240Y-121426660D01*
X188959240Y-118266660D02*
X185799240Y-118266660D01*
X188959240Y-118266660D02*
X188959240Y-119196660D01*
X188959240Y-121426660D02*
X188959240Y-120496660D01*
X177668040Y-70632060D02*
X179128040Y-70632060D01*
X177668040Y-73792060D02*
X180828040Y-73792060D01*
X177668040Y-73792060D02*
X177668040Y-72862060D01*
X177668040Y-70632060D02*
X177668040Y-71562060D01*
X183253740Y-115298060D02*
X183253740Y-113838060D01*
X186413740Y-115298060D02*
X186413740Y-112138060D01*
X186413740Y-115298060D02*
X185483740Y-115298060D01*
X183253740Y-115298060D02*
X184183740Y-115298060D01*
X194078740Y-104050560D02*
X194078740Y-103120560D01*
X194078740Y-100890560D02*
X194078740Y-101820560D01*
X194078740Y-100890560D02*
X190918740Y-100890560D01*
X194078740Y-104050560D02*
X192618740Y-104050560D01*
X188095640Y-99735060D02*
X186635640Y-99735060D01*
X188095640Y-96575060D02*
X184935640Y-96575060D01*
X188095640Y-96575060D02*
X188095640Y-97505060D01*
X188095640Y-99735060D02*
X188095640Y-98805060D01*
X158958640Y-102979060D02*
X159888640Y-102979060D01*
X162118640Y-102979060D02*
X161188640Y-102979060D01*
X162118640Y-102979060D02*
X162118640Y-99819060D01*
X158958640Y-102979060D02*
X158958640Y-101519060D01*
X162128840Y-93101060D02*
X161198840Y-93101060D01*
X158968840Y-93101060D02*
X159898840Y-93101060D01*
X158968840Y-93101060D02*
X158968840Y-96261060D01*
X162128840Y-93101060D02*
X162128840Y-94561060D01*
X165003840Y-115272660D02*
X165933840Y-115272660D01*
X168163840Y-115272660D02*
X167233840Y-115272660D01*
X168163840Y-115272660D02*
X168163840Y-112112660D01*
X165003840Y-115272660D02*
X165003840Y-113812660D01*
X212182040Y-95236060D02*
X212182040Y-96696060D01*
X209022040Y-95236060D02*
X209022040Y-97396060D01*
X209022040Y-95236060D02*
X209952040Y-95236060D01*
X212182040Y-95236060D02*
X211252040Y-95236060D01*
X212182040Y-78980060D02*
X212182040Y-80440060D01*
X209022040Y-78980060D02*
X209022040Y-81140060D01*
X209022040Y-78980060D02*
X209952040Y-78980060D01*
X212182040Y-78980060D02*
X211252040Y-78980060D01*
X203328040Y-67952060D02*
X204788040Y-67952060D01*
X203328040Y-71112060D02*
X205488040Y-71112060D01*
X203328040Y-71112060D02*
X203328040Y-70182060D01*
X203328040Y-67952060D02*
X203328040Y-68882060D01*
X203768040Y-103652060D02*
X203768040Y-105112060D01*
X200608040Y-103652060D02*
X200608040Y-105812060D01*
X200608040Y-103652060D02*
X201538040Y-103652060D01*
X203768040Y-103652060D02*
X202838040Y-103652060D01*
X206118040Y-117742060D02*
X207578040Y-117742060D01*
X206118040Y-120902060D02*
X208278040Y-120902060D01*
X206118040Y-120902060D02*
X206118040Y-119972060D01*
X206118040Y-117742060D02*
X206118040Y-118672060D01*
X204878040Y-61582060D02*
X206338040Y-61582060D01*
X204878040Y-64742060D02*
X207038040Y-64742060D01*
X204878040Y-64742060D02*
X204878040Y-63812060D01*
X204878040Y-61582060D02*
X204878040Y-62512060D01*
X209278040Y-56732060D02*
X210738040Y-56732060D01*
X209278040Y-59892060D02*
X211438040Y-59892060D01*
X209278040Y-59892060D02*
X209278040Y-58962060D01*
X209278040Y-56732060D02*
X209278040Y-57662060D01*
X207758040Y-92002060D02*
X212588040Y-92002060D01*
X212588040Y-83872060D02*
X207758040Y-83872060D01*
X214498040Y-83872060D02*
X214498040Y-92002060D01*
X214498040Y-85142060D02*
X215888040Y-85142060D01*
X214498040Y-90732060D02*
X215888040Y-90732060D01*
X215888040Y-85142060D02*
X215888040Y-90732060D01*
X214498040Y-83872060D02*
X212588040Y-83872060D01*
X214498040Y-92002060D02*
X212588040Y-92002060D01*
X215638040Y-85142060D02*
X215638040Y-90732060D01*
X214748040Y-85142060D02*
X214748040Y-90732060D01*
X208018040Y-88322060D02*
X207758040Y-88322060D01*
X208018040Y-87552060D02*
X208018040Y-88322060D01*
X207758040Y-87552060D02*
X208018040Y-87552060D01*
X207758040Y-87552060D02*
X207758040Y-83872060D01*
X207758040Y-88322060D02*
X207758040Y-92002060D01*
X214788040Y-84832060D02*
X214788040Y-83532060D01*
X214788040Y-83532060D02*
X212588040Y-83532060D01*
X180303733Y-100490000D02*
X180646267Y-100490000D01*
X180303733Y-101510000D02*
X180646267Y-101510000D01*
X184594188Y-104097460D02*
X185116692Y-104097460D01*
X184594188Y-102677460D02*
X185116692Y-102677460D01*
X189699040Y-90208412D02*
X189699040Y-89685908D01*
X191119040Y-90208412D02*
X191119040Y-89685908D01*
X205828040Y-106259996D02*
X205828040Y-107464124D01*
X207648040Y-106259996D02*
X207648040Y-107464124D01*
X198606476Y-71622060D02*
X199810604Y-71622060D01*
X198606476Y-73442060D02*
X199810604Y-73442060D01*
X235552904Y-119713760D02*
X234348776Y-119713760D01*
X235552904Y-117893760D02*
X234348776Y-117893760D01*
X229504040Y-61394496D02*
X229504040Y-62598624D01*
X231324040Y-61394496D02*
X231324040Y-62598624D01*
X165598688Y-100035860D02*
X166121192Y-100035860D01*
X165598688Y-101455860D02*
X166121192Y-101455860D01*
X175000462Y-111940000D02*
G75*
G03X173455170Y-117490000I-462J-2990000D01*
G01*
X174999538Y-111940000D02*
G75*
G02X176544830Y-117490000I462J-2990000D01*
G01*
X177500000Y-114930000D02*
G75*
G03X177500000Y-114930000I-2500000J0D01*
G01*
X173455000Y-117490000D02*
X176545000Y-117490000D01*
X181790000Y-107713748D02*
X181790000Y-108236252D01*
X183210000Y-107713748D02*
X183210000Y-108236252D01*
X194446440Y-110332612D02*
X194446440Y-109810108D01*
X193026440Y-110332612D02*
X193026440Y-109810108D01*
X176567240Y-89731408D02*
X176567240Y-90253912D01*
X177987240Y-89731408D02*
X177987240Y-90253912D01*
X171853140Y-108862908D02*
X171853140Y-109385412D01*
X170433140Y-108862908D02*
X170433140Y-109385412D01*
X194446440Y-114866512D02*
X194446440Y-114344008D01*
X193026440Y-114866512D02*
X193026440Y-114344008D01*
X177013748Y-119090000D02*
X177536252Y-119090000D01*
X177013748Y-120510000D02*
X177536252Y-120510000D01*
X161362940Y-66575608D02*
X161362940Y-67098112D01*
X159942940Y-66575608D02*
X159942940Y-67098112D01*
X161248640Y-108676108D02*
X161248640Y-109198612D01*
X159828640Y-108676108D02*
X159828640Y-109198612D01*
X166242140Y-91228112D02*
X166242140Y-90705608D01*
X167662140Y-91228112D02*
X167662140Y-90705608D01*
X182152840Y-89680608D02*
X182152840Y-90203112D01*
X180732840Y-89680608D02*
X180732840Y-90203112D01*
X188039588Y-80513560D02*
X188562092Y-80513560D01*
X188039588Y-79093560D02*
X188562092Y-79093560D01*
X186889940Y-89693308D02*
X186889940Y-90215812D01*
X185469940Y-89693308D02*
X185469940Y-90215812D01*
X182282240Y-119492808D02*
X182282240Y-120015312D01*
X183702240Y-119492808D02*
X183702240Y-120015312D01*
X221001788Y-116142060D02*
X221524292Y-116142060D01*
X221001788Y-114722060D02*
X221524292Y-114722060D01*
X212688040Y-119618312D02*
X212688040Y-119095808D01*
X211268040Y-119618312D02*
X211268040Y-119095808D01*
X205399292Y-57562060D02*
X204876788Y-57562060D01*
X205399292Y-58982060D02*
X204876788Y-58982060D01*
X212904292Y-63940060D02*
X212381788Y-63940060D01*
X212904292Y-62520060D02*
X212381788Y-62520060D01*
X201383040Y-118609312D02*
X201383040Y-118086808D01*
X202803040Y-118609312D02*
X202803040Y-118086808D01*
X229721788Y-116552060D02*
X230244292Y-116552060D01*
X229721788Y-117972060D02*
X230244292Y-117972060D01*
X199678292Y-65718060D02*
X199155788Y-65718060D01*
X199678292Y-64298060D02*
X199155788Y-64298060D01*
X192820292Y-64322060D02*
X192297788Y-64322060D01*
X192820292Y-65742060D02*
X192297788Y-65742060D01*
X209858040Y-113868312D02*
X209858040Y-113345808D01*
X211278040Y-113868312D02*
X211278040Y-113345808D01*
X212168040Y-106693312D02*
X212168040Y-106170808D01*
X210748040Y-106693312D02*
X210748040Y-106170808D01*
X206008040Y-113818312D02*
X206008040Y-113295808D01*
X207428040Y-113818312D02*
X207428040Y-113295808D01*
X192820292Y-69528060D02*
X192297788Y-69528060D01*
X192820292Y-68108060D02*
X192297788Y-68108060D01*
X201383040Y-113251808D02*
X201383040Y-113774312D01*
X202803040Y-113251808D02*
X202803040Y-113774312D01*
X212363788Y-68004060D02*
X212886292Y-68004060D01*
X212363788Y-66584060D02*
X212886292Y-66584060D01*
X218128040Y-73415808D02*
X218128040Y-73938312D01*
X216708040Y-73415808D02*
X216708040Y-73938312D01*
X218018040Y-102025808D02*
X218018040Y-102548312D01*
X216598040Y-102025808D02*
X216598040Y-102548312D01*
X218205788Y-68004060D02*
X218728292Y-68004060D01*
X218205788Y-66584060D02*
X218728292Y-66584060D01*
X218061788Y-108352060D02*
X218584292Y-108352060D01*
X218061788Y-106932060D02*
X218584292Y-106932060D01*
X233962788Y-104072060D02*
X234485292Y-104072060D01*
X233962788Y-102652060D02*
X234485292Y-102652060D01*
X166092092Y-105265860D02*
X165569588Y-105265860D01*
X166092092Y-103845860D02*
X165569588Y-103845860D01*
X180238748Y-115790000D02*
X180761252Y-115790000D01*
X180238748Y-117210000D02*
X180761252Y-117210000D01*
X167903940Y-86325560D02*
X169403940Y-86325560D01*
X168653940Y-87075560D02*
X168653940Y-85575560D01*
X168374940Y-75544560D02*
X168932940Y-75544560D01*
X167981940Y-75584560D02*
X169325940Y-75584560D01*
X167740940Y-75624560D02*
X169566940Y-75624560D01*
X167549940Y-75664560D02*
X169757940Y-75664560D01*
X169834940Y-75704560D02*
X169918940Y-75704560D01*
X167388940Y-75704560D02*
X167472940Y-75704560D01*
X169834940Y-75744560D02*
X170060940Y-75744560D01*
X167246940Y-75744560D02*
X167472940Y-75744560D01*
X169834940Y-75784560D02*
X170189940Y-75784560D01*
X167117940Y-75784560D02*
X167472940Y-75784560D01*
X169834940Y-75824560D02*
X170307940Y-75824560D01*
X166999940Y-75824560D02*
X167472940Y-75824560D01*
X169834940Y-75864560D02*
X170416940Y-75864560D01*
X166890940Y-75864560D02*
X167472940Y-75864560D01*
X169834940Y-75904560D02*
X170519940Y-75904560D01*
X166787940Y-75904560D02*
X167472940Y-75904560D01*
X169834940Y-75944560D02*
X170615940Y-75944560D01*
X166691940Y-75944560D02*
X167472940Y-75944560D01*
X169834940Y-75984560D02*
X170706940Y-75984560D01*
X166600940Y-75984560D02*
X167472940Y-75984560D01*
X169834940Y-76024560D02*
X170793940Y-76024560D01*
X166513940Y-76024560D02*
X167472940Y-76024560D01*
X169834940Y-76064560D02*
X170875940Y-76064560D01*
X166431940Y-76064560D02*
X167472940Y-76064560D01*
X169834940Y-76104560D02*
X170954940Y-76104560D01*
X166352940Y-76104560D02*
X167472940Y-76104560D01*
X169834940Y-76144560D02*
X171030940Y-76144560D01*
X166276940Y-76144560D02*
X167472940Y-76144560D01*
X169834940Y-76184560D02*
X171102940Y-76184560D01*
X166204940Y-76184560D02*
X167472940Y-76184560D01*
X169834940Y-76224560D02*
X171172940Y-76224560D01*
X166134940Y-76224560D02*
X167472940Y-76224560D01*
X169834940Y-76264560D02*
X171240940Y-76264560D01*
X166066940Y-76264560D02*
X167472940Y-76264560D01*
X169834940Y-76304560D02*
X171305940Y-76304560D01*
X166001940Y-76304560D02*
X167472940Y-76304560D01*
X169834940Y-76344560D02*
X171368940Y-76344560D01*
X165938940Y-76344560D02*
X167472940Y-76344560D01*
X169834940Y-76384560D02*
X171430940Y-76384560D01*
X165876940Y-76384560D02*
X167472940Y-76384560D01*
X169834940Y-76424560D02*
X171489940Y-76424560D01*
X165817940Y-76424560D02*
X167472940Y-76424560D01*
X169834940Y-76464560D02*
X171547940Y-76464560D01*
X165759940Y-76464560D02*
X167472940Y-76464560D01*
X169834940Y-76504560D02*
X171602940Y-76504560D01*
X165704940Y-76504560D02*
X167472940Y-76504560D01*
X169834940Y-76544560D02*
X171657940Y-76544560D01*
X165649940Y-76544560D02*
X167472940Y-76544560D01*
X169834940Y-76584560D02*
X171710940Y-76584560D01*
X165596940Y-76584560D02*
X167472940Y-76584560D01*
X169834940Y-76624560D02*
X171761940Y-76624560D01*
X165545940Y-76624560D02*
X167472940Y-76624560D01*
X169834940Y-76664560D02*
X171811940Y-76664560D01*
X165495940Y-76664560D02*
X167472940Y-76664560D01*
X169834940Y-76704560D02*
X171860940Y-76704560D01*
X165446940Y-76704560D02*
X167472940Y-76704560D01*
X169834940Y-76744560D02*
X171908940Y-76744560D01*
X165398940Y-76744560D02*
X167472940Y-76744560D01*
X169834940Y-76784560D02*
X171955940Y-76784560D01*
X165351940Y-76784560D02*
X167472940Y-76784560D01*
X169834940Y-76824560D02*
X172000940Y-76824560D01*
X165306940Y-76824560D02*
X167472940Y-76824560D01*
X169834940Y-76864560D02*
X172044940Y-76864560D01*
X165262940Y-76864560D02*
X167472940Y-76864560D01*
X169834940Y-76904560D02*
X172088940Y-76904560D01*
X165218940Y-76904560D02*
X167472940Y-76904560D01*
X169834940Y-76944560D02*
X172130940Y-76944560D01*
X165176940Y-76944560D02*
X167472940Y-76944560D01*
X169834940Y-76984560D02*
X172171940Y-76984560D01*
X165135940Y-76984560D02*
X167472940Y-76984560D01*
X169834940Y-77024560D02*
X172212940Y-77024560D01*
X165094940Y-77024560D02*
X167472940Y-77024560D01*
X169834940Y-77064560D02*
X172251940Y-77064560D01*
X165055940Y-77064560D02*
X167472940Y-77064560D01*
X169834940Y-77104560D02*
X172290940Y-77104560D01*
X165016940Y-77104560D02*
X167472940Y-77104560D01*
X169834940Y-77144560D02*
X172328940Y-77144560D01*
X164978940Y-77144560D02*
X167472940Y-77144560D01*
X169834940Y-77184560D02*
X172365940Y-77184560D01*
X164941940Y-77184560D02*
X167472940Y-77184560D01*
X169834940Y-77224560D02*
X172401940Y-77224560D01*
X164905940Y-77224560D02*
X167472940Y-77224560D01*
X169834940Y-77264560D02*
X172437940Y-77264560D01*
X164869940Y-77264560D02*
X167472940Y-77264560D01*
X169834940Y-77304560D02*
X172472940Y-77304560D01*
X164834940Y-77304560D02*
X167472940Y-77304560D01*
X169834940Y-77344560D02*
X172506940Y-77344560D01*
X164800940Y-77344560D02*
X167472940Y-77344560D01*
X169834940Y-77384560D02*
X172539940Y-77384560D01*
X164767940Y-77384560D02*
X167472940Y-77384560D01*
X169834940Y-77424560D02*
X172572940Y-77424560D01*
X164734940Y-77424560D02*
X167472940Y-77424560D01*
X169834940Y-77464560D02*
X172604940Y-77464560D01*
X164702940Y-77464560D02*
X167472940Y-77464560D01*
X169834940Y-77504560D02*
X172635940Y-77504560D01*
X164671940Y-77504560D02*
X167472940Y-77504560D01*
X169834940Y-77544560D02*
X172666940Y-77544560D01*
X164640940Y-77544560D02*
X167472940Y-77544560D01*
X169834940Y-77584560D02*
X172696940Y-77584560D01*
X164610940Y-77584560D02*
X167472940Y-77584560D01*
X169834940Y-77624560D02*
X172725940Y-77624560D01*
X164581940Y-77624560D02*
X167472940Y-77624560D01*
X169834940Y-77664560D02*
X172754940Y-77664560D01*
X164552940Y-77664560D02*
X167472940Y-77664560D01*
X169834940Y-77704560D02*
X172783940Y-77704560D01*
X164523940Y-77704560D02*
X167472940Y-77704560D01*
X169834940Y-77744560D02*
X172810940Y-77744560D01*
X164496940Y-77744560D02*
X167472940Y-77744560D01*
X169834940Y-77784560D02*
X172838940Y-77784560D01*
X164468940Y-77784560D02*
X167472940Y-77784560D01*
X169834940Y-77824560D02*
X172864940Y-77824560D01*
X164442940Y-77824560D02*
X167472940Y-77824560D01*
X169834940Y-77864560D02*
X172890940Y-77864560D01*
X164416940Y-77864560D02*
X167472940Y-77864560D01*
X169834940Y-77904560D02*
X172916940Y-77904560D01*
X164390940Y-77904560D02*
X167472940Y-77904560D01*
X169834940Y-77944560D02*
X172941940Y-77944560D01*
X164365940Y-77944560D02*
X167472940Y-77944560D01*
X169834940Y-77984560D02*
X172965940Y-77984560D01*
X164341940Y-77984560D02*
X167472940Y-77984560D01*
X169834940Y-78024560D02*
X172989940Y-78024560D01*
X164317940Y-78024560D02*
X167472940Y-78024560D01*
X164293940Y-78064560D02*
X173013940Y-78064560D01*
X164270940Y-78104560D02*
X173036940Y-78104560D01*
X164248940Y-78144560D02*
X173058940Y-78144560D01*
X164225940Y-78184560D02*
X173081940Y-78184560D01*
X164204940Y-78224560D02*
X173102940Y-78224560D01*
X164183940Y-78264560D02*
X173123940Y-78264560D01*
X164162940Y-78304560D02*
X173144940Y-78304560D01*
X164142940Y-78344560D02*
X173164940Y-78344560D01*
X164122940Y-78384560D02*
X173184940Y-78384560D01*
X164103940Y-78424560D02*
X173203940Y-78424560D01*
X164084940Y-78464560D02*
X173222940Y-78464560D01*
X164065940Y-78504560D02*
X173241940Y-78504560D01*
X164047940Y-78544560D02*
X173259940Y-78544560D01*
X164029940Y-78584560D02*
X173277940Y-78584560D01*
X164012940Y-78624560D02*
X173294940Y-78624560D01*
X163995940Y-78664560D02*
X173311940Y-78664560D01*
X163979940Y-78704560D02*
X173327940Y-78704560D01*
X163962940Y-78744560D02*
X173344940Y-78744560D01*
X163947940Y-78784560D02*
X173359940Y-78784560D01*
X163931940Y-78824560D02*
X173375940Y-78824560D01*
X163916940Y-78864560D02*
X173390940Y-78864560D01*
X163902940Y-78904560D02*
X173404940Y-78904560D01*
X163888940Y-78944560D02*
X173418940Y-78944560D01*
X163874940Y-78984560D02*
X173432940Y-78984560D01*
X163861940Y-79024560D02*
X173445940Y-79024560D01*
X163847940Y-79064560D02*
X173459940Y-79064560D01*
X163835940Y-79104560D02*
X173471940Y-79104560D01*
X163822940Y-79144560D02*
X173484940Y-79144560D01*
X163810940Y-79184560D02*
X173496940Y-79184560D01*
X163799940Y-79224560D02*
X173507940Y-79224560D01*
X163788940Y-79264560D02*
X173518940Y-79264560D01*
X163777940Y-79304560D02*
X173529940Y-79304560D01*
X163766940Y-79344560D02*
X173540940Y-79344560D01*
X163756940Y-79384560D02*
X173550940Y-79384560D01*
X163746940Y-79424560D02*
X173560940Y-79424560D01*
X163736940Y-79464560D02*
X173570940Y-79464560D01*
X163727940Y-79504560D02*
X173579940Y-79504560D01*
X163718940Y-79544560D02*
X173588940Y-79544560D01*
X163710940Y-79584560D02*
X173596940Y-79584560D01*
X163702940Y-79624560D02*
X173604940Y-79624560D01*
X163694940Y-79664560D02*
X173612940Y-79664560D01*
X163686940Y-79704560D02*
X173620940Y-79704560D01*
X163679940Y-79744560D02*
X173627940Y-79744560D01*
X163672940Y-79784560D02*
X173634940Y-79784560D01*
X163666940Y-79824560D02*
X173640940Y-79824560D01*
X163660940Y-79864560D02*
X173646940Y-79864560D01*
X163654940Y-79904560D02*
X173652940Y-79904560D01*
X163648940Y-79945560D02*
X173658940Y-79945560D01*
X163643940Y-79985560D02*
X173663940Y-79985560D01*
X163638940Y-80025560D02*
X173668940Y-80025560D01*
X163633940Y-80065560D02*
X173673940Y-80065560D01*
X163629940Y-80105560D02*
X173677940Y-80105560D01*
X163625940Y-80145560D02*
X173681940Y-80145560D01*
X163622940Y-80185560D02*
X173684940Y-80185560D01*
X163618940Y-80225560D02*
X173688940Y-80225560D01*
X163615940Y-80265560D02*
X173691940Y-80265560D01*
X163613940Y-80305560D02*
X173693940Y-80305560D01*
X163610940Y-80345560D02*
X173696940Y-80345560D01*
X163608940Y-80385560D02*
X173698940Y-80385560D01*
X163606940Y-80425560D02*
X173700940Y-80425560D01*
X163605940Y-80465560D02*
X173701940Y-80465560D01*
X163604940Y-80505560D02*
X173702940Y-80505560D01*
X163603940Y-80545560D02*
X173703940Y-80545560D01*
X163603940Y-80585560D02*
X173703940Y-80585560D01*
X163603940Y-80625560D02*
X173703940Y-80625560D01*
X170037204Y-75727123D02*
G75*
G03X167273940Y-75726203I-1383264J-4898437D01*
G01*
X170037204Y-75727123D02*
G75*
G02X170033940Y-85524917I-1383264J-4898437D01*
G01*
X167270676Y-75727123D02*
G75*
G03X167273940Y-85524917I1383264J-4898437D01*
G01*
X178790000Y-104420000D02*
X179800000Y-104420000D01*
X178790000Y-109500000D02*
X178790000Y-104420000D01*
X179800000Y-109500000D02*
X178790000Y-109500000D01*
X179900000Y-103050000D02*
X179900000Y-110850000D01*
X173850000Y-103050000D02*
X179900000Y-103050000D01*
X173850000Y-110850000D02*
X173850000Y-103050000D01*
X179900000Y-110850000D02*
X173850000Y-110850000D01*
D11*
X163041666Y-116802380D02*
X163041666Y-117516666D01*
X162994047Y-117659523D01*
X162898809Y-117754761D01*
X162755952Y-117802380D01*
X162660714Y-117802380D01*
X164041666Y-117802380D02*
X163470238Y-117802380D01*
X163755952Y-117802380D02*
X163755952Y-116802380D01*
X163660714Y-116945238D01*
X163565476Y-117040476D01*
X163470238Y-117088095D01*
X174165359Y-102617698D02*
X174117740Y-102712936D01*
X174022501Y-102808174D01*
X173879644Y-102951031D01*
X173832025Y-103046269D01*
X173832025Y-103141507D01*
X174070120Y-103093888D02*
X174022501Y-103189126D01*
X173927263Y-103284364D01*
X173736787Y-103331983D01*
X173403454Y-103331983D01*
X173212978Y-103284364D01*
X173117740Y-103189126D01*
X173070120Y-103093888D01*
X173070120Y-102903412D01*
X173117740Y-102808174D01*
X173212978Y-102712936D01*
X173403454Y-102665317D01*
X173736787Y-102665317D01*
X173927263Y-102712936D01*
X174022501Y-102808174D01*
X174070120Y-102903412D01*
X174070120Y-103093888D01*
X174070120Y-101712936D02*
X174070120Y-102284364D01*
X174070120Y-101998650D02*
X173070120Y-101998650D01*
X173212978Y-102093888D01*
X173308216Y-102189126D01*
X173355835Y-102284364D01*
X222619659Y-105457488D02*
X222572040Y-105552726D01*
X222476801Y-105647964D01*
X222333944Y-105790821D01*
X222286325Y-105886060D01*
X222286325Y-105981298D01*
X222524420Y-105933679D02*
X222476801Y-106028917D01*
X222381563Y-106124155D01*
X222191087Y-106171774D01*
X221857754Y-106171774D01*
X221667278Y-106124155D01*
X221572040Y-106028917D01*
X221524420Y-105933679D01*
X221524420Y-105743202D01*
X221572040Y-105647964D01*
X221667278Y-105552726D01*
X221857754Y-105505107D01*
X222191087Y-105505107D01*
X222381563Y-105552726D01*
X222476801Y-105647964D01*
X222524420Y-105743202D01*
X222524420Y-105933679D01*
X221619659Y-105124155D02*
X221572040Y-105076536D01*
X221524420Y-104981298D01*
X221524420Y-104743202D01*
X221572040Y-104647964D01*
X221619659Y-104600345D01*
X221714897Y-104552726D01*
X221810135Y-104552726D01*
X221952992Y-104600345D01*
X222524420Y-105171774D01*
X222524420Y-104552726D01*
X222524420Y-104076536D02*
X222524420Y-103886060D01*
X222476801Y-103790821D01*
X222429182Y-103743202D01*
X222286325Y-103647964D01*
X222095849Y-103600345D01*
X221714897Y-103600345D01*
X221619659Y-103647964D01*
X221572040Y-103695583D01*
X221524420Y-103790821D01*
X221524420Y-103981298D01*
X221572040Y-104076536D01*
X221619659Y-104124155D01*
X221714897Y-104171774D01*
X221952992Y-104171774D01*
X222048230Y-104124155D01*
X222095849Y-104076536D01*
X222143468Y-103981298D01*
X222143468Y-103790821D01*
X222095849Y-103695583D01*
X222048230Y-103647964D01*
X221952992Y-103600345D01*
X278857142Y-115642857D02*
X278904761Y-115690476D01*
X278952380Y-115833333D01*
X278952380Y-115928571D01*
X278904761Y-116071428D01*
X278809523Y-116166666D01*
X278714285Y-116214285D01*
X278523809Y-116261904D01*
X278380952Y-116261904D01*
X278190476Y-116214285D01*
X278095238Y-116166666D01*
X278000000Y-116071428D01*
X277952380Y-115928571D01*
X277952380Y-115833333D01*
X278000000Y-115690476D01*
X278047619Y-115642857D01*
X278952380Y-114690476D02*
X278952380Y-115261904D01*
X278952380Y-114976190D02*
X277952380Y-114976190D01*
X278095238Y-115071428D01*
X278190476Y-115166666D01*
X278238095Y-115261904D01*
X278047619Y-114309523D02*
X278000000Y-114261904D01*
X277952380Y-114166666D01*
X277952380Y-113928571D01*
X278000000Y-113833333D01*
X278047619Y-113785714D01*
X278142857Y-113738095D01*
X278238095Y-113738095D01*
X278380952Y-113785714D01*
X278952380Y-114357142D01*
X278952380Y-113738095D01*
X278857142Y-63142857D02*
X278904761Y-63190476D01*
X278952380Y-63333333D01*
X278952380Y-63428571D01*
X278904761Y-63571428D01*
X278809523Y-63666666D01*
X278714285Y-63714285D01*
X278523809Y-63761904D01*
X278380952Y-63761904D01*
X278190476Y-63714285D01*
X278095238Y-63666666D01*
X278000000Y-63571428D01*
X277952380Y-63428571D01*
X277952380Y-63333333D01*
X278000000Y-63190476D01*
X278047619Y-63142857D01*
X278952380Y-62190476D02*
X278952380Y-62761904D01*
X278952380Y-62476190D02*
X277952380Y-62476190D01*
X278095238Y-62571428D01*
X278190476Y-62666666D01*
X278238095Y-62761904D01*
X278952380Y-61238095D02*
X278952380Y-61809523D01*
X278952380Y-61523809D02*
X277952380Y-61523809D01*
X278095238Y-61619047D01*
X278190476Y-61714285D01*
X278238095Y-61809523D01*
X278857142Y-98142857D02*
X278904761Y-98190476D01*
X278952380Y-98333333D01*
X278952380Y-98428571D01*
X278904761Y-98571428D01*
X278809523Y-98666666D01*
X278714285Y-98714285D01*
X278523809Y-98761904D01*
X278380952Y-98761904D01*
X278190476Y-98714285D01*
X278095238Y-98666666D01*
X278000000Y-98571428D01*
X277952380Y-98428571D01*
X277952380Y-98333333D01*
X278000000Y-98190476D01*
X278047619Y-98142857D01*
X278952380Y-97190476D02*
X278952380Y-97761904D01*
X278952380Y-97476190D02*
X277952380Y-97476190D01*
X278095238Y-97571428D01*
X278190476Y-97666666D01*
X278238095Y-97761904D01*
X278285714Y-96333333D02*
X278952380Y-96333333D01*
X277904761Y-96571428D02*
X278619047Y-96809523D01*
X278619047Y-96190476D01*
X278857142Y-80642857D02*
X278904761Y-80690476D01*
X278952380Y-80833333D01*
X278952380Y-80928571D01*
X278904761Y-81071428D01*
X278809523Y-81166666D01*
X278714285Y-81214285D01*
X278523809Y-81261904D01*
X278380952Y-81261904D01*
X278190476Y-81214285D01*
X278095238Y-81166666D01*
X278000000Y-81071428D01*
X277952380Y-80928571D01*
X277952380Y-80833333D01*
X278000000Y-80690476D01*
X278047619Y-80642857D01*
X278952380Y-79690476D02*
X278952380Y-80261904D01*
X278952380Y-79976190D02*
X277952380Y-79976190D01*
X278095238Y-80071428D01*
X278190476Y-80166666D01*
X278238095Y-80261904D01*
X277952380Y-79357142D02*
X277952380Y-78738095D01*
X278333333Y-79071428D01*
X278333333Y-78928571D01*
X278380952Y-78833333D01*
X278428571Y-78785714D01*
X278523809Y-78738095D01*
X278761904Y-78738095D01*
X278857142Y-78785714D01*
X278904761Y-78833333D01*
X278952380Y-78928571D01*
X278952380Y-79214285D01*
X278904761Y-79309523D01*
X278857142Y-79357142D01*
X214989944Y-119554440D02*
X214989944Y-118554440D01*
X215228040Y-118554440D01*
X215370897Y-118602060D01*
X215466135Y-118697298D01*
X215513754Y-118792536D01*
X215561373Y-118983012D01*
X215561373Y-119125869D01*
X215513754Y-119316345D01*
X215466135Y-119411583D01*
X215370897Y-119506821D01*
X215228040Y-119554440D01*
X214989944Y-119554440D01*
X216418516Y-118887774D02*
X216418516Y-119554440D01*
X216180420Y-118506821D02*
X215942325Y-119221107D01*
X216561373Y-119221107D01*
X194257982Y-81206140D02*
X193924649Y-80729950D01*
X193686554Y-81206140D02*
X193686554Y-80206140D01*
X194067506Y-80206140D01*
X194162744Y-80253760D01*
X194210363Y-80301379D01*
X194257982Y-80396617D01*
X194257982Y-80539474D01*
X194210363Y-80634712D01*
X194162744Y-80682331D01*
X194067506Y-80729950D01*
X193686554Y-80729950D01*
X195210363Y-81206140D02*
X194638935Y-81206140D01*
X194924649Y-81206140D02*
X194924649Y-80206140D01*
X194829411Y-80348998D01*
X194734173Y-80444236D01*
X194638935Y-80491855D01*
X195591316Y-80301379D02*
X195638935Y-80253760D01*
X195734173Y-80206140D01*
X195972268Y-80206140D01*
X196067506Y-80253760D01*
X196115125Y-80301379D01*
X196162744Y-80396617D01*
X196162744Y-80491855D01*
X196115125Y-80634712D01*
X195543697Y-81206140D01*
X196162744Y-81206140D01*
X226610420Y-66726345D02*
X225610420Y-66726345D01*
X225610420Y-66488250D01*
X225658040Y-66345393D01*
X225753278Y-66250155D01*
X225848516Y-66202536D01*
X226038992Y-66154917D01*
X226181849Y-66154917D01*
X226372325Y-66202536D01*
X226467563Y-66250155D01*
X226562801Y-66345393D01*
X226610420Y-66488250D01*
X226610420Y-66726345D01*
X226610420Y-65202536D02*
X226610420Y-65773964D01*
X226610420Y-65488250D02*
X225610420Y-65488250D01*
X225753278Y-65583488D01*
X225848516Y-65678726D01*
X225896135Y-65773964D01*
X225705659Y-64821583D02*
X225658040Y-64773964D01*
X225610420Y-64678726D01*
X225610420Y-64440631D01*
X225658040Y-64345393D01*
X225705659Y-64297774D01*
X225800897Y-64250155D01*
X225896135Y-64250155D01*
X226038992Y-64297774D01*
X226610420Y-64869202D01*
X226610420Y-64250155D01*
X225273754Y-109744440D02*
X225273754Y-108744440D01*
X225511849Y-108744440D01*
X225654706Y-108792060D01*
X225749944Y-108887298D01*
X225797563Y-108982536D01*
X225845182Y-109173012D01*
X225845182Y-109315869D01*
X225797563Y-109506345D01*
X225749944Y-109601583D01*
X225654706Y-109696821D01*
X225511849Y-109744440D01*
X225273754Y-109744440D01*
X226797563Y-109744440D02*
X226226135Y-109744440D01*
X226511849Y-109744440D02*
X226511849Y-108744440D01*
X226416611Y-108887298D01*
X226321373Y-108982536D01*
X226226135Y-109030155D01*
X227749944Y-109744440D02*
X227178516Y-109744440D01*
X227464230Y-109744440D02*
X227464230Y-108744440D01*
X227368992Y-108887298D01*
X227273754Y-108982536D01*
X227178516Y-109030155D01*
X170448459Y-93198998D02*
X170400840Y-93294236D01*
X170305601Y-93389474D01*
X170162744Y-93532331D01*
X170115125Y-93627569D01*
X170115125Y-93722807D01*
X170353220Y-93675188D02*
X170305601Y-93770426D01*
X170210363Y-93865664D01*
X170019887Y-93913283D01*
X169686554Y-93913283D01*
X169496078Y-93865664D01*
X169400840Y-93770426D01*
X169353220Y-93675188D01*
X169353220Y-93484712D01*
X169400840Y-93389474D01*
X169496078Y-93294236D01*
X169686554Y-93246617D01*
X170019887Y-93246617D01*
X170210363Y-93294236D01*
X170305601Y-93389474D01*
X170353220Y-93484712D01*
X170353220Y-93675188D01*
X169448459Y-92865664D02*
X169400840Y-92818045D01*
X169353220Y-92722807D01*
X169353220Y-92484712D01*
X169400840Y-92389474D01*
X169448459Y-92341855D01*
X169543697Y-92294236D01*
X169638935Y-92294236D01*
X169781792Y-92341855D01*
X170353220Y-92913283D01*
X170353220Y-92294236D01*
X250266666Y-80952380D02*
X249933333Y-80476190D01*
X249695238Y-80952380D02*
X249695238Y-79952380D01*
X250076190Y-79952380D01*
X250171428Y-80000000D01*
X250219047Y-80047619D01*
X250266666Y-80142857D01*
X250266666Y-80285714D01*
X250219047Y-80380952D01*
X250171428Y-80428571D01*
X250076190Y-80476190D01*
X249695238Y-80476190D01*
X250695238Y-80428571D02*
X251028571Y-80428571D01*
X251171428Y-80952380D02*
X250695238Y-80952380D01*
X250695238Y-79952380D01*
X251171428Y-79952380D01*
X251933333Y-80428571D02*
X251600000Y-80428571D01*
X251600000Y-80952380D02*
X251600000Y-79952380D01*
X252076190Y-79952380D01*
X252600000Y-79952380D02*
X252600000Y-80190476D01*
X252361904Y-80095238D02*
X252600000Y-80190476D01*
X252838095Y-80095238D01*
X252457142Y-80380952D02*
X252600000Y-80190476D01*
X252742857Y-80380952D01*
X253361904Y-79952380D02*
X253361904Y-80190476D01*
X253123809Y-80095238D02*
X253361904Y-80190476D01*
X253600000Y-80095238D01*
X253219047Y-80380952D02*
X253361904Y-80190476D01*
X253504761Y-80380952D01*
X195067506Y-89556140D02*
X194734173Y-89079950D01*
X194496078Y-89556140D02*
X194496078Y-88556140D01*
X194877030Y-88556140D01*
X194972268Y-88603760D01*
X195019887Y-88651379D01*
X195067506Y-88746617D01*
X195067506Y-88889474D01*
X195019887Y-88984712D01*
X194972268Y-89032331D01*
X194877030Y-89079950D01*
X194496078Y-89079950D01*
X195496078Y-89032331D02*
X195829411Y-89032331D01*
X195972268Y-89556140D02*
X195496078Y-89556140D01*
X195496078Y-88556140D01*
X195972268Y-88556140D01*
X196734173Y-89032331D02*
X196400840Y-89032331D01*
X196400840Y-89556140D02*
X196400840Y-88556140D01*
X196877030Y-88556140D01*
X197400840Y-88556140D02*
X197400840Y-88794236D01*
X197162744Y-88698998D02*
X197400840Y-88794236D01*
X197638935Y-88698998D01*
X197257982Y-88984712D02*
X197400840Y-88794236D01*
X197543697Y-88984712D01*
X198162744Y-88556140D02*
X198162744Y-88794236D01*
X197924649Y-88698998D02*
X198162744Y-88794236D01*
X198400840Y-88698998D01*
X198019887Y-88984712D02*
X198162744Y-88794236D01*
X198305601Y-88984712D01*
X271166666Y-49556140D02*
X270833333Y-49079950D01*
X270595238Y-49556140D02*
X270595238Y-48556140D01*
X270976190Y-48556140D01*
X271071428Y-48603760D01*
X271119047Y-48651379D01*
X271166666Y-48746617D01*
X271166666Y-48889474D01*
X271119047Y-48984712D01*
X271071428Y-49032331D01*
X270976190Y-49079950D01*
X270595238Y-49079950D01*
X271595238Y-49032331D02*
X271928571Y-49032331D01*
X272071428Y-49556140D02*
X271595238Y-49556140D01*
X271595238Y-48556140D01*
X272071428Y-48556140D01*
X272833333Y-49032331D02*
X272500000Y-49032331D01*
X272500000Y-49556140D02*
X272500000Y-48556140D01*
X272976190Y-48556140D01*
X273500000Y-48556140D02*
X273500000Y-48794236D01*
X273261904Y-48698998D02*
X273500000Y-48794236D01*
X273738095Y-48698998D01*
X273357142Y-48984712D02*
X273500000Y-48794236D01*
X273642857Y-48984712D01*
X274261904Y-48556140D02*
X274261904Y-48794236D01*
X274023809Y-48698998D02*
X274261904Y-48794236D01*
X274500000Y-48698998D01*
X274119047Y-48984712D02*
X274261904Y-48794236D01*
X274404761Y-48984712D01*
X271166666Y-121556140D02*
X270833333Y-121079950D01*
X270595238Y-121556140D02*
X270595238Y-120556140D01*
X270976190Y-120556140D01*
X271071428Y-120603760D01*
X271119047Y-120651379D01*
X271166666Y-120746617D01*
X271166666Y-120889474D01*
X271119047Y-120984712D01*
X271071428Y-121032331D01*
X270976190Y-121079950D01*
X270595238Y-121079950D01*
X271595238Y-121032331D02*
X271928571Y-121032331D01*
X272071428Y-121556140D02*
X271595238Y-121556140D01*
X271595238Y-120556140D01*
X272071428Y-120556140D01*
X272833333Y-121032331D02*
X272500000Y-121032331D01*
X272500000Y-121556140D02*
X272500000Y-120556140D01*
X272976190Y-120556140D01*
X273500000Y-120556140D02*
X273500000Y-120794236D01*
X273261904Y-120698998D02*
X273500000Y-120794236D01*
X273738095Y-120698998D01*
X273357142Y-120984712D02*
X273500000Y-120794236D01*
X273642857Y-120984712D01*
X274261904Y-120556140D02*
X274261904Y-120794236D01*
X274023809Y-120698998D02*
X274261904Y-120794236D01*
X274500000Y-120698998D01*
X274119047Y-120984712D02*
X274261904Y-120794236D01*
X274404761Y-120984712D01*
X176666666Y-121252380D02*
X176333333Y-120776190D01*
X176095238Y-121252380D02*
X176095238Y-120252380D01*
X176476190Y-120252380D01*
X176571428Y-120300000D01*
X176619047Y-120347619D01*
X176666666Y-120442857D01*
X176666666Y-120585714D01*
X176619047Y-120680952D01*
X176571428Y-120728571D01*
X176476190Y-120776190D01*
X176095238Y-120776190D01*
X177095238Y-120728571D02*
X177428571Y-120728571D01*
X177571428Y-121252380D02*
X177095238Y-121252380D01*
X177095238Y-120252380D01*
X177571428Y-120252380D01*
X178333333Y-120728571D02*
X178000000Y-120728571D01*
X178000000Y-121252380D02*
X178000000Y-120252380D01*
X178476190Y-120252380D01*
X179000000Y-120252380D02*
X179000000Y-120490476D01*
X178761904Y-120395238D02*
X179000000Y-120490476D01*
X179238095Y-120395238D01*
X178857142Y-120680952D02*
X179000000Y-120490476D01*
X179142857Y-120680952D01*
X179761904Y-120252380D02*
X179761904Y-120490476D01*
X179523809Y-120395238D02*
X179761904Y-120490476D01*
X180000000Y-120395238D01*
X179619047Y-120680952D02*
X179761904Y-120490476D01*
X179904761Y-120680952D01*
X159067506Y-49556140D02*
X158734173Y-49079950D01*
X158496078Y-49556140D02*
X158496078Y-48556140D01*
X158877030Y-48556140D01*
X158972268Y-48603760D01*
X159019887Y-48651379D01*
X159067506Y-48746617D01*
X159067506Y-48889474D01*
X159019887Y-48984712D01*
X158972268Y-49032331D01*
X158877030Y-49079950D01*
X158496078Y-49079950D01*
X159496078Y-49032331D02*
X159829411Y-49032331D01*
X159972268Y-49556140D02*
X159496078Y-49556140D01*
X159496078Y-48556140D01*
X159972268Y-48556140D01*
X160734173Y-49032331D02*
X160400840Y-49032331D01*
X160400840Y-49556140D02*
X160400840Y-48556140D01*
X160877030Y-48556140D01*
X161400840Y-48556140D02*
X161400840Y-48794236D01*
X161162744Y-48698998D02*
X161400840Y-48794236D01*
X161638935Y-48698998D01*
X161257982Y-48984712D02*
X161400840Y-48794236D01*
X161543697Y-48984712D01*
X162162744Y-48556140D02*
X162162744Y-48794236D01*
X161924649Y-48698998D02*
X162162744Y-48794236D01*
X162400840Y-48698998D01*
X162019887Y-48984712D02*
X162162744Y-48794236D01*
X162305601Y-48984712D01*
X239007982Y-120806140D02*
X238674649Y-120329950D01*
X238436554Y-120806140D02*
X238436554Y-119806140D01*
X238817506Y-119806140D01*
X238912744Y-119853760D01*
X238960363Y-119901379D01*
X239007982Y-119996617D01*
X239007982Y-120139474D01*
X238960363Y-120234712D01*
X238912744Y-120282331D01*
X238817506Y-120329950D01*
X238436554Y-120329950D01*
X239341316Y-119806140D02*
X239960363Y-119806140D01*
X239627030Y-120187093D01*
X239769887Y-120187093D01*
X239865125Y-120234712D01*
X239912744Y-120282331D01*
X239960363Y-120377569D01*
X239960363Y-120615664D01*
X239912744Y-120710902D01*
X239865125Y-120758521D01*
X239769887Y-120806140D01*
X239484173Y-120806140D01*
X239388935Y-120758521D01*
X239341316Y-120710902D01*
X240865125Y-119806140D02*
X240388935Y-119806140D01*
X240341316Y-120282331D01*
X240388935Y-120234712D01*
X240484173Y-120187093D01*
X240722268Y-120187093D01*
X240817506Y-120234712D01*
X240865125Y-120282331D01*
X240912744Y-120377569D01*
X240912744Y-120615664D01*
X240865125Y-120710902D01*
X240817506Y-120758521D01*
X240722268Y-120806140D01*
X240484173Y-120806140D01*
X240388935Y-120758521D01*
X240341316Y-120710902D01*
X248797659Y-79411488D02*
X248750040Y-79506726D01*
X248654801Y-79601964D01*
X248511944Y-79744821D01*
X248464325Y-79840060D01*
X248464325Y-79935298D01*
X248702420Y-79887679D02*
X248654801Y-79982917D01*
X248559563Y-80078155D01*
X248369087Y-80125774D01*
X248035754Y-80125774D01*
X247845278Y-80078155D01*
X247750040Y-79982917D01*
X247702420Y-79887679D01*
X247702420Y-79697202D01*
X247750040Y-79601964D01*
X247845278Y-79506726D01*
X248035754Y-79459107D01*
X248369087Y-79459107D01*
X248559563Y-79506726D01*
X248654801Y-79601964D01*
X248702420Y-79697202D01*
X248702420Y-79887679D01*
X247797659Y-79078155D02*
X247750040Y-79030536D01*
X247702420Y-78935298D01*
X247702420Y-78697202D01*
X247750040Y-78601964D01*
X247797659Y-78554345D01*
X247892897Y-78506726D01*
X247988135Y-78506726D01*
X248130992Y-78554345D01*
X248702420Y-79125774D01*
X248702420Y-78506726D01*
X247702420Y-77649583D02*
X247702420Y-77840060D01*
X247750040Y-77935298D01*
X247797659Y-77982917D01*
X247940516Y-78078155D01*
X248130992Y-78125774D01*
X248511944Y-78125774D01*
X248607182Y-78078155D01*
X248654801Y-78030536D01*
X248702420Y-77935298D01*
X248702420Y-77744821D01*
X248654801Y-77649583D01*
X248607182Y-77601964D01*
X248511944Y-77554345D01*
X248273849Y-77554345D01*
X248178611Y-77601964D01*
X248130992Y-77649583D01*
X248083373Y-77744821D01*
X248083373Y-77935298D01*
X248130992Y-78030536D01*
X248178611Y-78078155D01*
X248273849Y-78125774D01*
X248797659Y-114717488D02*
X248750040Y-114812726D01*
X248654801Y-114907964D01*
X248511944Y-115050821D01*
X248464325Y-115146060D01*
X248464325Y-115241298D01*
X248702420Y-115193679D02*
X248654801Y-115288917D01*
X248559563Y-115384155D01*
X248369087Y-115431774D01*
X248035754Y-115431774D01*
X247845278Y-115384155D01*
X247750040Y-115288917D01*
X247702420Y-115193679D01*
X247702420Y-115003202D01*
X247750040Y-114907964D01*
X247845278Y-114812726D01*
X248035754Y-114765107D01*
X248369087Y-114765107D01*
X248559563Y-114812726D01*
X248654801Y-114907964D01*
X248702420Y-115003202D01*
X248702420Y-115193679D01*
X247797659Y-114384155D02*
X247750040Y-114336536D01*
X247702420Y-114241298D01*
X247702420Y-114003202D01*
X247750040Y-113907964D01*
X247797659Y-113860345D01*
X247892897Y-113812726D01*
X247988135Y-113812726D01*
X248130992Y-113860345D01*
X248702420Y-114431774D01*
X248702420Y-113812726D01*
X247702420Y-113479393D02*
X247702420Y-112860345D01*
X248083373Y-113193679D01*
X248083373Y-113050821D01*
X248130992Y-112955583D01*
X248178611Y-112907964D01*
X248273849Y-112860345D01*
X248511944Y-112860345D01*
X248607182Y-112907964D01*
X248654801Y-112955583D01*
X248702420Y-113050821D01*
X248702420Y-113336536D01*
X248654801Y-113431774D01*
X248607182Y-113479393D01*
X189689982Y-73094140D02*
X189356649Y-72617950D01*
X189118554Y-73094140D02*
X189118554Y-72094140D01*
X189499506Y-72094140D01*
X189594744Y-72141760D01*
X189642363Y-72189379D01*
X189689982Y-72284617D01*
X189689982Y-72427474D01*
X189642363Y-72522712D01*
X189594744Y-72570331D01*
X189499506Y-72617950D01*
X189118554Y-72617950D01*
X190642363Y-73094140D02*
X190070935Y-73094140D01*
X190356649Y-73094140D02*
X190356649Y-72094140D01*
X190261411Y-72236998D01*
X190166173Y-72332236D01*
X190070935Y-72379855D01*
X191547125Y-72094140D02*
X191070935Y-72094140D01*
X191023316Y-72570331D01*
X191070935Y-72522712D01*
X191166173Y-72475093D01*
X191404268Y-72475093D01*
X191499506Y-72522712D01*
X191547125Y-72570331D01*
X191594744Y-72665569D01*
X191594744Y-72903664D01*
X191547125Y-72998902D01*
X191499506Y-73046521D01*
X191404268Y-73094140D01*
X191166173Y-73094140D01*
X191070935Y-73046521D01*
X191023316Y-72998902D01*
X248755659Y-97191488D02*
X248708040Y-97286726D01*
X248612801Y-97381964D01*
X248469944Y-97524821D01*
X248422325Y-97620060D01*
X248422325Y-97715298D01*
X248660420Y-97667679D02*
X248612801Y-97762917D01*
X248517563Y-97858155D01*
X248327087Y-97905774D01*
X247993754Y-97905774D01*
X247803278Y-97858155D01*
X247708040Y-97762917D01*
X247660420Y-97667679D01*
X247660420Y-97477202D01*
X247708040Y-97381964D01*
X247803278Y-97286726D01*
X247993754Y-97239107D01*
X248327087Y-97239107D01*
X248517563Y-97286726D01*
X248612801Y-97381964D01*
X248660420Y-97477202D01*
X248660420Y-97667679D01*
X247755659Y-96858155D02*
X247708040Y-96810536D01*
X247660420Y-96715298D01*
X247660420Y-96477202D01*
X247708040Y-96381964D01*
X247755659Y-96334345D01*
X247850897Y-96286726D01*
X247946135Y-96286726D01*
X248088992Y-96334345D01*
X248660420Y-96905774D01*
X248660420Y-96286726D01*
X247660420Y-95953393D02*
X247660420Y-95286726D01*
X248660420Y-95715298D01*
X248755659Y-61553488D02*
X248708040Y-61648726D01*
X248612801Y-61743964D01*
X248469944Y-61886821D01*
X248422325Y-61982060D01*
X248422325Y-62077298D01*
X248660420Y-62029679D02*
X248612801Y-62124917D01*
X248517563Y-62220155D01*
X248327087Y-62267774D01*
X247993754Y-62267774D01*
X247803278Y-62220155D01*
X247708040Y-62124917D01*
X247660420Y-62029679D01*
X247660420Y-61839202D01*
X247708040Y-61743964D01*
X247803278Y-61648726D01*
X247993754Y-61601107D01*
X248327087Y-61601107D01*
X248517563Y-61648726D01*
X248612801Y-61743964D01*
X248660420Y-61839202D01*
X248660420Y-62029679D01*
X247755659Y-61220155D02*
X247708040Y-61172536D01*
X247660420Y-61077298D01*
X247660420Y-60839202D01*
X247708040Y-60743964D01*
X247755659Y-60696345D01*
X247850897Y-60648726D01*
X247946135Y-60648726D01*
X248088992Y-60696345D01*
X248660420Y-61267774D01*
X248660420Y-60648726D01*
X247755659Y-60267774D02*
X247708040Y-60220155D01*
X247660420Y-60124917D01*
X247660420Y-59886821D01*
X247708040Y-59791583D01*
X247755659Y-59743964D01*
X247850897Y-59696345D01*
X247946135Y-59696345D01*
X248088992Y-59743964D01*
X248660420Y-60315393D01*
X248660420Y-59696345D01*
X233572182Y-110036440D02*
X233238849Y-109560250D01*
X233000754Y-110036440D02*
X233000754Y-109036440D01*
X233381706Y-109036440D01*
X233476944Y-109084060D01*
X233524563Y-109131679D01*
X233572182Y-109226917D01*
X233572182Y-109369774D01*
X233524563Y-109465012D01*
X233476944Y-109512631D01*
X233381706Y-109560250D01*
X233000754Y-109560250D01*
X234429325Y-109369774D02*
X234429325Y-110036440D01*
X234191230Y-108988821D02*
X233953135Y-109703107D01*
X234572182Y-109703107D01*
X235381706Y-109369774D02*
X235381706Y-110036440D01*
X235143611Y-108988821D02*
X234905516Y-109703107D01*
X235524563Y-109703107D01*
X202734173Y-82270902D02*
X202686554Y-82318521D01*
X202543697Y-82366140D01*
X202448459Y-82366140D01*
X202305601Y-82318521D01*
X202210363Y-82223283D01*
X202162744Y-82128045D01*
X202115125Y-81937569D01*
X202115125Y-81794712D01*
X202162744Y-81604236D01*
X202210363Y-81508998D01*
X202305601Y-81413760D01*
X202448459Y-81366140D01*
X202543697Y-81366140D01*
X202686554Y-81413760D01*
X202734173Y-81461379D01*
X203638935Y-81366140D02*
X203162744Y-81366140D01*
X203115125Y-81842331D01*
X203162744Y-81794712D01*
X203257982Y-81747093D01*
X203496078Y-81747093D01*
X203591316Y-81794712D01*
X203638935Y-81842331D01*
X203686554Y-81937569D01*
X203686554Y-82175664D01*
X203638935Y-82270902D01*
X203591316Y-82318521D01*
X203496078Y-82366140D01*
X203257982Y-82366140D01*
X203162744Y-82318521D01*
X203115125Y-82270902D01*
X199927701Y-84393979D02*
X199832463Y-84346360D01*
X199737225Y-84251121D01*
X199594368Y-84108264D01*
X199499130Y-84060645D01*
X199403892Y-84060645D01*
X199451511Y-84298740D02*
X199356273Y-84251121D01*
X199261035Y-84155883D01*
X199213416Y-83965407D01*
X199213416Y-83632074D01*
X199261035Y-83441598D01*
X199356273Y-83346360D01*
X199451511Y-83298740D01*
X199641987Y-83298740D01*
X199737225Y-83346360D01*
X199832463Y-83441598D01*
X199880082Y-83632074D01*
X199880082Y-83965407D01*
X199832463Y-84155883D01*
X199737225Y-84251121D01*
X199641987Y-84298740D01*
X199451511Y-84298740D01*
X200451511Y-83727312D02*
X200356273Y-83679693D01*
X200308654Y-83632074D01*
X200261035Y-83536836D01*
X200261035Y-83489217D01*
X200308654Y-83393979D01*
X200356273Y-83346360D01*
X200451511Y-83298740D01*
X200641987Y-83298740D01*
X200737225Y-83346360D01*
X200784844Y-83393979D01*
X200832463Y-83489217D01*
X200832463Y-83536836D01*
X200784844Y-83632074D01*
X200737225Y-83679693D01*
X200641987Y-83727312D01*
X200451511Y-83727312D01*
X200356273Y-83774931D01*
X200308654Y-83822550D01*
X200261035Y-83917788D01*
X200261035Y-84108264D01*
X200308654Y-84203502D01*
X200356273Y-84251121D01*
X200451511Y-84298740D01*
X200641987Y-84298740D01*
X200737225Y-84251121D01*
X200784844Y-84203502D01*
X200832463Y-84108264D01*
X200832463Y-83917788D01*
X200784844Y-83822550D01*
X200737225Y-83774931D01*
X200641987Y-83727312D01*
X227755182Y-88364440D02*
X227421849Y-87888250D01*
X227183754Y-88364440D02*
X227183754Y-87364440D01*
X227564706Y-87364440D01*
X227659944Y-87412060D01*
X227707563Y-87459679D01*
X227755182Y-87554917D01*
X227755182Y-87697774D01*
X227707563Y-87793012D01*
X227659944Y-87840631D01*
X227564706Y-87888250D01*
X227183754Y-87888250D01*
X228612325Y-87697774D02*
X228612325Y-88364440D01*
X228374230Y-87316821D02*
X228136135Y-88031107D01*
X228755182Y-88031107D01*
X229326611Y-87364440D02*
X229421849Y-87364440D01*
X229517087Y-87412060D01*
X229564706Y-87459679D01*
X229612325Y-87554917D01*
X229659944Y-87745393D01*
X229659944Y-87983488D01*
X229612325Y-88173964D01*
X229564706Y-88269202D01*
X229517087Y-88316821D01*
X229421849Y-88364440D01*
X229326611Y-88364440D01*
X229231373Y-88316821D01*
X229183754Y-88269202D01*
X229136135Y-88173964D01*
X229088516Y-87983488D01*
X229088516Y-87745393D01*
X229136135Y-87554917D01*
X229183754Y-87459679D01*
X229231373Y-87412060D01*
X229326611Y-87364440D01*
X227755182Y-77364440D02*
X227421849Y-76888250D01*
X227183754Y-77364440D02*
X227183754Y-76364440D01*
X227564706Y-76364440D01*
X227659944Y-76412060D01*
X227707563Y-76459679D01*
X227755182Y-76554917D01*
X227755182Y-76697774D01*
X227707563Y-76793012D01*
X227659944Y-76840631D01*
X227564706Y-76888250D01*
X227183754Y-76888250D01*
X228088516Y-76364440D02*
X228707563Y-76364440D01*
X228374230Y-76745393D01*
X228517087Y-76745393D01*
X228612325Y-76793012D01*
X228659944Y-76840631D01*
X228707563Y-76935869D01*
X228707563Y-77173964D01*
X228659944Y-77269202D01*
X228612325Y-77316821D01*
X228517087Y-77364440D01*
X228231373Y-77364440D01*
X228136135Y-77316821D01*
X228088516Y-77269202D01*
X229183754Y-77364440D02*
X229374230Y-77364440D01*
X229469468Y-77316821D01*
X229517087Y-77269202D01*
X229612325Y-77126345D01*
X229659944Y-76935869D01*
X229659944Y-76554917D01*
X229612325Y-76459679D01*
X229564706Y-76412060D01*
X229469468Y-76364440D01*
X229278992Y-76364440D01*
X229183754Y-76412060D01*
X229136135Y-76459679D01*
X229088516Y-76554917D01*
X229088516Y-76793012D01*
X229136135Y-76888250D01*
X229183754Y-76935869D01*
X229278992Y-76983488D01*
X229469468Y-76983488D01*
X229564706Y-76935869D01*
X229612325Y-76888250D01*
X229659944Y-76793012D01*
X233844182Y-70158440D02*
X233510849Y-69682250D01*
X233272754Y-70158440D02*
X233272754Y-69158440D01*
X233653706Y-69158440D01*
X233748944Y-69206060D01*
X233796563Y-69253679D01*
X233844182Y-69348917D01*
X233844182Y-69491774D01*
X233796563Y-69587012D01*
X233748944Y-69634631D01*
X233653706Y-69682250D01*
X233272754Y-69682250D01*
X234701325Y-69491774D02*
X234701325Y-70158440D01*
X234463230Y-69110821D02*
X234225135Y-69825107D01*
X234844182Y-69825107D01*
X235177516Y-69253679D02*
X235225135Y-69206060D01*
X235320373Y-69158440D01*
X235558468Y-69158440D01*
X235653706Y-69206060D01*
X235701325Y-69253679D01*
X235748944Y-69348917D01*
X235748944Y-69444155D01*
X235701325Y-69587012D01*
X235129897Y-70158440D01*
X235748944Y-70158440D01*
X227619659Y-71929488D02*
X227572040Y-72024726D01*
X227476801Y-72119964D01*
X227333944Y-72262821D01*
X227286325Y-72358060D01*
X227286325Y-72453298D01*
X227524420Y-72405679D02*
X227476801Y-72500917D01*
X227381563Y-72596155D01*
X227191087Y-72643774D01*
X226857754Y-72643774D01*
X226667278Y-72596155D01*
X226572040Y-72500917D01*
X226524420Y-72405679D01*
X226524420Y-72215202D01*
X226572040Y-72119964D01*
X226667278Y-72024726D01*
X226857754Y-71977107D01*
X227191087Y-71977107D01*
X227381563Y-72024726D01*
X227476801Y-72119964D01*
X227524420Y-72215202D01*
X227524420Y-72405679D01*
X226619659Y-71596155D02*
X226572040Y-71548536D01*
X226524420Y-71453298D01*
X226524420Y-71215202D01*
X226572040Y-71119964D01*
X226619659Y-71072345D01*
X226714897Y-71024726D01*
X226810135Y-71024726D01*
X226952992Y-71072345D01*
X227524420Y-71643774D01*
X227524420Y-71024726D01*
X226952992Y-70453298D02*
X226905373Y-70548536D01*
X226857754Y-70596155D01*
X226762516Y-70643774D01*
X226714897Y-70643774D01*
X226619659Y-70596155D01*
X226572040Y-70548536D01*
X226524420Y-70453298D01*
X226524420Y-70262821D01*
X226572040Y-70167583D01*
X226619659Y-70119964D01*
X226714897Y-70072345D01*
X226762516Y-70072345D01*
X226857754Y-70119964D01*
X226905373Y-70167583D01*
X226952992Y-70262821D01*
X226952992Y-70453298D01*
X227000611Y-70548536D01*
X227048230Y-70596155D01*
X227143468Y-70643774D01*
X227333944Y-70643774D01*
X227429182Y-70596155D01*
X227476801Y-70548536D01*
X227524420Y-70453298D01*
X227524420Y-70262821D01*
X227476801Y-70167583D01*
X227429182Y-70119964D01*
X227333944Y-70072345D01*
X227143468Y-70072345D01*
X227048230Y-70119964D01*
X227000611Y-70167583D01*
X226952992Y-70262821D01*
X235516611Y-60103679D02*
X235421373Y-60056060D01*
X235326135Y-59960821D01*
X235183278Y-59817964D01*
X235088040Y-59770345D01*
X234992801Y-59770345D01*
X235040420Y-60008440D02*
X234945182Y-59960821D01*
X234849944Y-59865583D01*
X234802325Y-59675107D01*
X234802325Y-59341774D01*
X234849944Y-59151298D01*
X234945182Y-59056060D01*
X235040420Y-59008440D01*
X235230897Y-59008440D01*
X235326135Y-59056060D01*
X235421373Y-59151298D01*
X235468992Y-59341774D01*
X235468992Y-59675107D01*
X235421373Y-59865583D01*
X235326135Y-59960821D01*
X235230897Y-60008440D01*
X235040420Y-60008440D01*
X235849944Y-59103679D02*
X235897563Y-59056060D01*
X235992801Y-59008440D01*
X236230897Y-59008440D01*
X236326135Y-59056060D01*
X236373754Y-59103679D01*
X236421373Y-59198917D01*
X236421373Y-59294155D01*
X236373754Y-59437012D01*
X235802325Y-60008440D01*
X236421373Y-60008440D01*
X237326135Y-59008440D02*
X236849944Y-59008440D01*
X236802325Y-59484631D01*
X236849944Y-59437012D01*
X236945182Y-59389393D01*
X237183278Y-59389393D01*
X237278516Y-59437012D01*
X237326135Y-59484631D01*
X237373754Y-59579869D01*
X237373754Y-59817964D01*
X237326135Y-59913202D01*
X237278516Y-59960821D01*
X237183278Y-60008440D01*
X236945182Y-60008440D01*
X236849944Y-59960821D01*
X236802325Y-59913202D01*
X233295659Y-114233488D02*
X233248040Y-114328726D01*
X233152801Y-114423964D01*
X233009944Y-114566821D01*
X232962325Y-114662060D01*
X232962325Y-114757298D01*
X233200420Y-114709679D02*
X233152801Y-114804917D01*
X233057563Y-114900155D01*
X232867087Y-114947774D01*
X232533754Y-114947774D01*
X232343278Y-114900155D01*
X232248040Y-114804917D01*
X232200420Y-114709679D01*
X232200420Y-114519202D01*
X232248040Y-114423964D01*
X232343278Y-114328726D01*
X232533754Y-114281107D01*
X232867087Y-114281107D01*
X233057563Y-114328726D01*
X233152801Y-114423964D01*
X233200420Y-114519202D01*
X233200420Y-114709679D01*
X232295659Y-113900155D02*
X232248040Y-113852536D01*
X232200420Y-113757298D01*
X232200420Y-113519202D01*
X232248040Y-113423964D01*
X232295659Y-113376345D01*
X232390897Y-113328726D01*
X232486135Y-113328726D01*
X232628992Y-113376345D01*
X233200420Y-113947774D01*
X233200420Y-113328726D01*
X232533754Y-112471583D02*
X233200420Y-112471583D01*
X232152801Y-112709679D02*
X232867087Y-112947774D01*
X232867087Y-112328726D01*
X234009182Y-74984440D02*
X233675849Y-74508250D01*
X233437754Y-74984440D02*
X233437754Y-73984440D01*
X233818706Y-73984440D01*
X233913944Y-74032060D01*
X233961563Y-74079679D01*
X234009182Y-74174917D01*
X234009182Y-74317774D01*
X233961563Y-74413012D01*
X233913944Y-74460631D01*
X233818706Y-74508250D01*
X233437754Y-74508250D01*
X234342516Y-73984440D02*
X234961563Y-73984440D01*
X234628230Y-74365393D01*
X234771087Y-74365393D01*
X234866325Y-74413012D01*
X234913944Y-74460631D01*
X234961563Y-74555869D01*
X234961563Y-74793964D01*
X234913944Y-74889202D01*
X234866325Y-74936821D01*
X234771087Y-74984440D01*
X234485373Y-74984440D01*
X234390135Y-74936821D01*
X234342516Y-74889202D01*
X235294897Y-73984440D02*
X235961563Y-73984440D01*
X235532992Y-74984440D01*
X222940182Y-59314440D02*
X222606849Y-58838250D01*
X222368754Y-59314440D02*
X222368754Y-58314440D01*
X222749706Y-58314440D01*
X222844944Y-58362060D01*
X222892563Y-58409679D01*
X222940182Y-58504917D01*
X222940182Y-58647774D01*
X222892563Y-58743012D01*
X222844944Y-58790631D01*
X222749706Y-58838250D01*
X222368754Y-58838250D01*
X223321135Y-58409679D02*
X223368754Y-58362060D01*
X223463992Y-58314440D01*
X223702087Y-58314440D01*
X223797325Y-58362060D01*
X223844944Y-58409679D01*
X223892563Y-58504917D01*
X223892563Y-58600155D01*
X223844944Y-58743012D01*
X223273516Y-59314440D01*
X223892563Y-59314440D01*
X224844944Y-59314440D02*
X224273516Y-59314440D01*
X224559230Y-59314440D02*
X224559230Y-58314440D01*
X224463992Y-58457298D01*
X224368754Y-58552536D01*
X224273516Y-58600155D01*
X235315182Y-52534440D02*
X234981849Y-52058250D01*
X234743754Y-52534440D02*
X234743754Y-51534440D01*
X235124706Y-51534440D01*
X235219944Y-51582060D01*
X235267563Y-51629679D01*
X235315182Y-51724917D01*
X235315182Y-51867774D01*
X235267563Y-51963012D01*
X235219944Y-52010631D01*
X235124706Y-52058250D01*
X234743754Y-52058250D01*
X235648516Y-51534440D02*
X236267563Y-51534440D01*
X235934230Y-51915393D01*
X236077087Y-51915393D01*
X236172325Y-51963012D01*
X236219944Y-52010631D01*
X236267563Y-52105869D01*
X236267563Y-52343964D01*
X236219944Y-52439202D01*
X236172325Y-52486821D01*
X236077087Y-52534440D01*
X235791373Y-52534440D01*
X235696135Y-52486821D01*
X235648516Y-52439202D01*
X237124706Y-51867774D02*
X237124706Y-52534440D01*
X236886611Y-51486821D02*
X236648516Y-52201107D01*
X237267563Y-52201107D01*
X213649659Y-72715488D02*
X213602040Y-72810726D01*
X213506801Y-72905964D01*
X213363944Y-73048821D01*
X213316325Y-73144060D01*
X213316325Y-73239298D01*
X213554420Y-73191679D02*
X213506801Y-73286917D01*
X213411563Y-73382155D01*
X213221087Y-73429774D01*
X212887754Y-73429774D01*
X212697278Y-73382155D01*
X212602040Y-73286917D01*
X212554420Y-73191679D01*
X212554420Y-73001202D01*
X212602040Y-72905964D01*
X212697278Y-72810726D01*
X212887754Y-72763107D01*
X213221087Y-72763107D01*
X213411563Y-72810726D01*
X213506801Y-72905964D01*
X213554420Y-73001202D01*
X213554420Y-73191679D01*
X212649659Y-72382155D02*
X212602040Y-72334536D01*
X212554420Y-72239298D01*
X212554420Y-72001202D01*
X212602040Y-71905964D01*
X212649659Y-71858345D01*
X212744897Y-71810726D01*
X212840135Y-71810726D01*
X212982992Y-71858345D01*
X213554420Y-72429774D01*
X213554420Y-71810726D01*
X213554420Y-70858345D02*
X213554420Y-71429774D01*
X213554420Y-71144060D02*
X212554420Y-71144060D01*
X212697278Y-71239298D01*
X212792516Y-71334536D01*
X212840135Y-71429774D01*
X207576611Y-99169679D02*
X207481373Y-99122060D01*
X207386135Y-99026821D01*
X207243278Y-98883964D01*
X207148040Y-98836345D01*
X207052801Y-98836345D01*
X207100420Y-99074440D02*
X207005182Y-99026821D01*
X206909944Y-98931583D01*
X206862325Y-98741107D01*
X206862325Y-98407774D01*
X206909944Y-98217298D01*
X207005182Y-98122060D01*
X207100420Y-98074440D01*
X207290897Y-98074440D01*
X207386135Y-98122060D01*
X207481373Y-98217298D01*
X207528992Y-98407774D01*
X207528992Y-98741107D01*
X207481373Y-98931583D01*
X207386135Y-99026821D01*
X207290897Y-99074440D01*
X207100420Y-99074440D01*
X207909944Y-98169679D02*
X207957563Y-98122060D01*
X208052801Y-98074440D01*
X208290897Y-98074440D01*
X208386135Y-98122060D01*
X208433754Y-98169679D01*
X208481373Y-98264917D01*
X208481373Y-98360155D01*
X208433754Y-98503012D01*
X207862325Y-99074440D01*
X208481373Y-99074440D01*
X209100420Y-98074440D02*
X209195659Y-98074440D01*
X209290897Y-98122060D01*
X209338516Y-98169679D01*
X209386135Y-98264917D01*
X209433754Y-98455393D01*
X209433754Y-98693488D01*
X209386135Y-98883964D01*
X209338516Y-98979202D01*
X209290897Y-99026821D01*
X209195659Y-99074440D01*
X209100420Y-99074440D01*
X209005182Y-99026821D01*
X208957563Y-98979202D01*
X208909944Y-98883964D01*
X208862325Y-98693488D01*
X208862325Y-98455393D01*
X208909944Y-98264917D01*
X208957563Y-98169679D01*
X209005182Y-98122060D01*
X209100420Y-98074440D01*
X219065659Y-114173488D02*
X219018040Y-114268726D01*
X218922801Y-114363964D01*
X218779944Y-114506821D01*
X218732325Y-114602060D01*
X218732325Y-114697298D01*
X218970420Y-114649679D02*
X218922801Y-114744917D01*
X218827563Y-114840155D01*
X218637087Y-114887774D01*
X218303754Y-114887774D01*
X218113278Y-114840155D01*
X218018040Y-114744917D01*
X217970420Y-114649679D01*
X217970420Y-114459202D01*
X218018040Y-114363964D01*
X218113278Y-114268726D01*
X218303754Y-114221107D01*
X218637087Y-114221107D01*
X218827563Y-114268726D01*
X218922801Y-114363964D01*
X218970420Y-114459202D01*
X218970420Y-114649679D01*
X218970420Y-113268726D02*
X218970420Y-113840155D01*
X218970420Y-113554440D02*
X217970420Y-113554440D01*
X218113278Y-113649679D01*
X218208516Y-113744917D01*
X218256135Y-113840155D01*
X218970420Y-112792536D02*
X218970420Y-112602060D01*
X218922801Y-112506821D01*
X218875182Y-112459202D01*
X218732325Y-112363964D01*
X218541849Y-112316345D01*
X218160897Y-112316345D01*
X218065659Y-112363964D01*
X218018040Y-112411583D01*
X217970420Y-112506821D01*
X217970420Y-112697298D01*
X218018040Y-112792536D01*
X218065659Y-112840155D01*
X218160897Y-112887774D01*
X218398992Y-112887774D01*
X218494230Y-112840155D01*
X218541849Y-112792536D01*
X218589468Y-112697298D01*
X218589468Y-112506821D01*
X218541849Y-112411583D01*
X218494230Y-112363964D01*
X218398992Y-112316345D01*
X187135659Y-65603488D02*
X187088040Y-65698726D01*
X186992801Y-65793964D01*
X186849944Y-65936821D01*
X186802325Y-66032060D01*
X186802325Y-66127298D01*
X187040420Y-66079679D02*
X186992801Y-66174917D01*
X186897563Y-66270155D01*
X186707087Y-66317774D01*
X186373754Y-66317774D01*
X186183278Y-66270155D01*
X186088040Y-66174917D01*
X186040420Y-66079679D01*
X186040420Y-65889202D01*
X186088040Y-65793964D01*
X186183278Y-65698726D01*
X186373754Y-65651107D01*
X186707087Y-65651107D01*
X186897563Y-65698726D01*
X186992801Y-65793964D01*
X187040420Y-65889202D01*
X187040420Y-66079679D01*
X187040420Y-64698726D02*
X187040420Y-65270155D01*
X187040420Y-64984440D02*
X186040420Y-64984440D01*
X186183278Y-65079679D01*
X186278516Y-65174917D01*
X186326135Y-65270155D01*
X186468992Y-64127298D02*
X186421373Y-64222536D01*
X186373754Y-64270155D01*
X186278516Y-64317774D01*
X186230897Y-64317774D01*
X186135659Y-64270155D01*
X186088040Y-64222536D01*
X186040420Y-64127298D01*
X186040420Y-63936821D01*
X186088040Y-63841583D01*
X186135659Y-63793964D01*
X186230897Y-63746345D01*
X186278516Y-63746345D01*
X186373754Y-63793964D01*
X186421373Y-63841583D01*
X186468992Y-63936821D01*
X186468992Y-64127298D01*
X186516611Y-64222536D01*
X186564230Y-64270155D01*
X186659468Y-64317774D01*
X186849944Y-64317774D01*
X186945182Y-64270155D01*
X186992801Y-64222536D01*
X187040420Y-64127298D01*
X187040420Y-63936821D01*
X186992801Y-63841583D01*
X186945182Y-63793964D01*
X186849944Y-63746345D01*
X186659468Y-63746345D01*
X186564230Y-63793964D01*
X186516611Y-63841583D01*
X186468992Y-63936821D01*
X221516611Y-120599679D02*
X221421373Y-120552060D01*
X221326135Y-120456821D01*
X221183278Y-120313964D01*
X221088040Y-120266345D01*
X220992801Y-120266345D01*
X221040420Y-120504440D02*
X220945182Y-120456821D01*
X220849944Y-120361583D01*
X220802325Y-120171107D01*
X220802325Y-119837774D01*
X220849944Y-119647298D01*
X220945182Y-119552060D01*
X221040420Y-119504440D01*
X221230897Y-119504440D01*
X221326135Y-119552060D01*
X221421373Y-119647298D01*
X221468992Y-119837774D01*
X221468992Y-120171107D01*
X221421373Y-120361583D01*
X221326135Y-120456821D01*
X221230897Y-120504440D01*
X221040420Y-120504440D01*
X222421373Y-120504440D02*
X221849944Y-120504440D01*
X222135659Y-120504440D02*
X222135659Y-119504440D01*
X222040420Y-119647298D01*
X221945182Y-119742536D01*
X221849944Y-119790155D01*
X222754706Y-119504440D02*
X223421373Y-119504440D01*
X222992801Y-120504440D01*
X229116611Y-125619679D02*
X229021373Y-125572060D01*
X228926135Y-125476821D01*
X228783278Y-125333964D01*
X228688040Y-125286345D01*
X228592801Y-125286345D01*
X228640420Y-125524440D02*
X228545182Y-125476821D01*
X228449944Y-125381583D01*
X228402325Y-125191107D01*
X228402325Y-124857774D01*
X228449944Y-124667298D01*
X228545182Y-124572060D01*
X228640420Y-124524440D01*
X228830897Y-124524440D01*
X228926135Y-124572060D01*
X229021373Y-124667298D01*
X229068992Y-124857774D01*
X229068992Y-125191107D01*
X229021373Y-125381583D01*
X228926135Y-125476821D01*
X228830897Y-125524440D01*
X228640420Y-125524440D01*
X230021373Y-125524440D02*
X229449944Y-125524440D01*
X229735659Y-125524440D02*
X229735659Y-124524440D01*
X229640420Y-124667298D01*
X229545182Y-124762536D01*
X229449944Y-124810155D01*
X230878516Y-124524440D02*
X230688040Y-124524440D01*
X230592801Y-124572060D01*
X230545182Y-124619679D01*
X230449944Y-124762536D01*
X230402325Y-124953012D01*
X230402325Y-125333964D01*
X230449944Y-125429202D01*
X230497563Y-125476821D01*
X230592801Y-125524440D01*
X230783278Y-125524440D01*
X230878516Y-125476821D01*
X230926135Y-125429202D01*
X230973754Y-125333964D01*
X230973754Y-125095869D01*
X230926135Y-125000631D01*
X230878516Y-124953012D01*
X230783278Y-124905393D01*
X230592801Y-124905393D01*
X230497563Y-124953012D01*
X230449944Y-125000631D01*
X230402325Y-125095869D01*
X226656611Y-57739679D02*
X226561373Y-57692060D01*
X226466135Y-57596821D01*
X226323278Y-57453964D01*
X226228040Y-57406345D01*
X226132801Y-57406345D01*
X226180420Y-57644440D02*
X226085182Y-57596821D01*
X225989944Y-57501583D01*
X225942325Y-57311107D01*
X225942325Y-56977774D01*
X225989944Y-56787298D01*
X226085182Y-56692060D01*
X226180420Y-56644440D01*
X226370897Y-56644440D01*
X226466135Y-56692060D01*
X226561373Y-56787298D01*
X226608992Y-56977774D01*
X226608992Y-57311107D01*
X226561373Y-57501583D01*
X226466135Y-57596821D01*
X226370897Y-57644440D01*
X226180420Y-57644440D01*
X227561373Y-57644440D02*
X226989944Y-57644440D01*
X227275659Y-57644440D02*
X227275659Y-56644440D01*
X227180420Y-56787298D01*
X227085182Y-56882536D01*
X226989944Y-56930155D01*
X228466135Y-56644440D02*
X227989944Y-56644440D01*
X227942325Y-57120631D01*
X227989944Y-57073012D01*
X228085182Y-57025393D01*
X228323278Y-57025393D01*
X228418516Y-57073012D01*
X228466135Y-57120631D01*
X228513754Y-57215869D01*
X228513754Y-57453964D01*
X228466135Y-57549202D01*
X228418516Y-57596821D01*
X228323278Y-57644440D01*
X228085182Y-57644440D01*
X227989944Y-57596821D01*
X227942325Y-57549202D01*
X217145659Y-57803488D02*
X217098040Y-57898726D01*
X217002801Y-57993964D01*
X216859944Y-58136821D01*
X216812325Y-58232060D01*
X216812325Y-58327298D01*
X217050420Y-58279679D02*
X217002801Y-58374917D01*
X216907563Y-58470155D01*
X216717087Y-58517774D01*
X216383754Y-58517774D01*
X216193278Y-58470155D01*
X216098040Y-58374917D01*
X216050420Y-58279679D01*
X216050420Y-58089202D01*
X216098040Y-57993964D01*
X216193278Y-57898726D01*
X216383754Y-57851107D01*
X216717087Y-57851107D01*
X216907563Y-57898726D01*
X217002801Y-57993964D01*
X217050420Y-58089202D01*
X217050420Y-58279679D01*
X217050420Y-56898726D02*
X217050420Y-57470155D01*
X217050420Y-57184440D02*
X216050420Y-57184440D01*
X216193278Y-57279679D01*
X216288516Y-57374917D01*
X216336135Y-57470155D01*
X216383754Y-56041583D02*
X217050420Y-56041583D01*
X216002801Y-56279679D02*
X216717087Y-56517774D01*
X216717087Y-55898726D01*
X195293711Y-120245379D02*
X195198473Y-120197760D01*
X195103235Y-120102521D01*
X194960378Y-119959664D01*
X194865140Y-119912045D01*
X194769901Y-119912045D01*
X194817520Y-120150140D02*
X194722282Y-120102521D01*
X194627044Y-120007283D01*
X194579425Y-119816807D01*
X194579425Y-119483474D01*
X194627044Y-119292998D01*
X194722282Y-119197760D01*
X194817520Y-119150140D01*
X195007997Y-119150140D01*
X195103235Y-119197760D01*
X195198473Y-119292998D01*
X195246092Y-119483474D01*
X195246092Y-119816807D01*
X195198473Y-120007283D01*
X195103235Y-120102521D01*
X195007997Y-120150140D01*
X194817520Y-120150140D01*
X196198473Y-120150140D02*
X195627044Y-120150140D01*
X195912759Y-120150140D02*
X195912759Y-119150140D01*
X195817520Y-119292998D01*
X195722282Y-119388236D01*
X195627044Y-119435855D01*
X196531806Y-119150140D02*
X197150854Y-119150140D01*
X196817520Y-119531093D01*
X196960378Y-119531093D01*
X197055616Y-119578712D01*
X197103235Y-119626331D01*
X197150854Y-119721569D01*
X197150854Y-119959664D01*
X197103235Y-120054902D01*
X197055616Y-120102521D01*
X196960378Y-120150140D01*
X196674663Y-120150140D01*
X196579425Y-120102521D01*
X196531806Y-120054902D01*
X174856611Y-69759679D02*
X174761373Y-69712060D01*
X174666135Y-69616821D01*
X174523278Y-69473964D01*
X174428040Y-69426345D01*
X174332801Y-69426345D01*
X174380420Y-69664440D02*
X174285182Y-69616821D01*
X174189944Y-69521583D01*
X174142325Y-69331107D01*
X174142325Y-68997774D01*
X174189944Y-68807298D01*
X174285182Y-68712060D01*
X174380420Y-68664440D01*
X174570897Y-68664440D01*
X174666135Y-68712060D01*
X174761373Y-68807298D01*
X174808992Y-68997774D01*
X174808992Y-69331107D01*
X174761373Y-69521583D01*
X174666135Y-69616821D01*
X174570897Y-69664440D01*
X174380420Y-69664440D01*
X175761373Y-69664440D02*
X175189944Y-69664440D01*
X175475659Y-69664440D02*
X175475659Y-68664440D01*
X175380420Y-68807298D01*
X175285182Y-68902536D01*
X175189944Y-68950155D01*
X176142325Y-68759679D02*
X176189944Y-68712060D01*
X176285182Y-68664440D01*
X176523278Y-68664440D01*
X176618516Y-68712060D01*
X176666135Y-68759679D01*
X176713754Y-68854917D01*
X176713754Y-68950155D01*
X176666135Y-69093012D01*
X176094706Y-69664440D01*
X176713754Y-69664440D01*
X187627811Y-117894279D02*
X187532573Y-117846660D01*
X187437335Y-117751421D01*
X187294478Y-117608564D01*
X187199240Y-117560945D01*
X187104001Y-117560945D01*
X187151620Y-117799040D02*
X187056382Y-117751421D01*
X186961144Y-117656183D01*
X186913525Y-117465707D01*
X186913525Y-117132374D01*
X186961144Y-116941898D01*
X187056382Y-116846660D01*
X187151620Y-116799040D01*
X187342097Y-116799040D01*
X187437335Y-116846660D01*
X187532573Y-116941898D01*
X187580192Y-117132374D01*
X187580192Y-117465707D01*
X187532573Y-117656183D01*
X187437335Y-117751421D01*
X187342097Y-117799040D01*
X187151620Y-117799040D01*
X188532573Y-117799040D02*
X187961144Y-117799040D01*
X188246859Y-117799040D02*
X188246859Y-116799040D01*
X188151620Y-116941898D01*
X188056382Y-117037136D01*
X187961144Y-117084755D01*
X189484954Y-117799040D02*
X188913525Y-117799040D01*
X189199240Y-117799040D02*
X189199240Y-116799040D01*
X189104001Y-116941898D01*
X189008763Y-117037136D01*
X188913525Y-117084755D01*
X177856611Y-75259679D02*
X177761373Y-75212060D01*
X177666135Y-75116821D01*
X177523278Y-74973964D01*
X177428040Y-74926345D01*
X177332801Y-74926345D01*
X177380420Y-75164440D02*
X177285182Y-75116821D01*
X177189944Y-75021583D01*
X177142325Y-74831107D01*
X177142325Y-74497774D01*
X177189944Y-74307298D01*
X177285182Y-74212060D01*
X177380420Y-74164440D01*
X177570897Y-74164440D01*
X177666135Y-74212060D01*
X177761373Y-74307298D01*
X177808992Y-74497774D01*
X177808992Y-74831107D01*
X177761373Y-75021583D01*
X177666135Y-75116821D01*
X177570897Y-75164440D01*
X177380420Y-75164440D01*
X178761373Y-75164440D02*
X178189944Y-75164440D01*
X178475659Y-75164440D02*
X178475659Y-74164440D01*
X178380420Y-74307298D01*
X178285182Y-74402536D01*
X178189944Y-74450155D01*
X179380420Y-74164440D02*
X179475659Y-74164440D01*
X179570897Y-74212060D01*
X179618516Y-74259679D01*
X179666135Y-74354917D01*
X179713754Y-74545393D01*
X179713754Y-74783488D01*
X179666135Y-74973964D01*
X179618516Y-75069202D01*
X179570897Y-75116821D01*
X179475659Y-75164440D01*
X179380420Y-75164440D01*
X179285182Y-75116821D01*
X179237563Y-75069202D01*
X179189944Y-74973964D01*
X179142325Y-74783488D01*
X179142325Y-74545393D01*
X179189944Y-74354917D01*
X179237563Y-74259679D01*
X179285182Y-74212060D01*
X179380420Y-74164440D01*
X187881359Y-114633298D02*
X187833740Y-114728536D01*
X187738501Y-114823774D01*
X187595644Y-114966631D01*
X187548025Y-115061869D01*
X187548025Y-115157107D01*
X187786120Y-115109488D02*
X187738501Y-115204726D01*
X187643263Y-115299964D01*
X187452787Y-115347583D01*
X187119454Y-115347583D01*
X186928978Y-115299964D01*
X186833740Y-115204726D01*
X186786120Y-115109488D01*
X186786120Y-114919012D01*
X186833740Y-114823774D01*
X186928978Y-114728536D01*
X187119454Y-114680917D01*
X187452787Y-114680917D01*
X187643263Y-114728536D01*
X187738501Y-114823774D01*
X187786120Y-114919012D01*
X187786120Y-115109488D01*
X187786120Y-114204726D02*
X187786120Y-114014250D01*
X187738501Y-113919012D01*
X187690882Y-113871393D01*
X187548025Y-113776155D01*
X187357549Y-113728536D01*
X186976597Y-113728536D01*
X186881359Y-113776155D01*
X186833740Y-113823774D01*
X186786120Y-113919012D01*
X186786120Y-114109488D01*
X186833740Y-114204726D01*
X186881359Y-114252345D01*
X186976597Y-114299964D01*
X187214692Y-114299964D01*
X187309930Y-114252345D01*
X187357549Y-114204726D01*
X187405168Y-114109488D01*
X187405168Y-113919012D01*
X187357549Y-113823774D01*
X187309930Y-113776155D01*
X187214692Y-113728536D01*
X193223501Y-100518179D02*
X193128263Y-100470560D01*
X193033025Y-100375321D01*
X192890168Y-100232464D01*
X192794930Y-100184845D01*
X192699692Y-100184845D01*
X192747311Y-100422940D02*
X192652073Y-100375321D01*
X192556835Y-100280083D01*
X192509216Y-100089607D01*
X192509216Y-99756274D01*
X192556835Y-99565798D01*
X192652073Y-99470560D01*
X192747311Y-99422940D01*
X192937787Y-99422940D01*
X193033025Y-99470560D01*
X193128263Y-99565798D01*
X193175882Y-99756274D01*
X193175882Y-100089607D01*
X193128263Y-100280083D01*
X193033025Y-100375321D01*
X192937787Y-100422940D01*
X192747311Y-100422940D01*
X193509216Y-99422940D02*
X194175882Y-99422940D01*
X193747311Y-100422940D01*
X187240401Y-96202679D02*
X187145163Y-96155060D01*
X187049925Y-96059821D01*
X186907068Y-95916964D01*
X186811830Y-95869345D01*
X186716592Y-95869345D01*
X186764211Y-96107440D02*
X186668973Y-96059821D01*
X186573735Y-95964583D01*
X186526116Y-95774107D01*
X186526116Y-95440774D01*
X186573735Y-95250298D01*
X186668973Y-95155060D01*
X186764211Y-95107440D01*
X186954687Y-95107440D01*
X187049925Y-95155060D01*
X187145163Y-95250298D01*
X187192782Y-95440774D01*
X187192782Y-95774107D01*
X187145163Y-95964583D01*
X187049925Y-96059821D01*
X186954687Y-96107440D01*
X186764211Y-96107440D01*
X188049925Y-95107440D02*
X187859449Y-95107440D01*
X187764211Y-95155060D01*
X187716592Y-95202679D01*
X187621354Y-95345536D01*
X187573735Y-95536012D01*
X187573735Y-95916964D01*
X187621354Y-96012202D01*
X187668973Y-96059821D01*
X187764211Y-96107440D01*
X187954687Y-96107440D01*
X188049925Y-96059821D01*
X188097544Y-96012202D01*
X188145163Y-95916964D01*
X188145163Y-95678869D01*
X188097544Y-95583631D01*
X188049925Y-95536012D01*
X187954687Y-95488393D01*
X187764211Y-95488393D01*
X187668973Y-95536012D01*
X187621354Y-95583631D01*
X187573735Y-95678869D01*
X163586259Y-102314298D02*
X163538640Y-102409536D01*
X163443401Y-102504774D01*
X163300544Y-102647631D01*
X163252925Y-102742869D01*
X163252925Y-102838107D01*
X163491020Y-102790488D02*
X163443401Y-102885726D01*
X163348163Y-102980964D01*
X163157687Y-103028583D01*
X162824354Y-103028583D01*
X162633878Y-102980964D01*
X162538640Y-102885726D01*
X162491020Y-102790488D01*
X162491020Y-102600012D01*
X162538640Y-102504774D01*
X162633878Y-102409536D01*
X162824354Y-102361917D01*
X163157687Y-102361917D01*
X163348163Y-102409536D01*
X163443401Y-102504774D01*
X163491020Y-102600012D01*
X163491020Y-102790488D01*
X162491020Y-101457155D02*
X162491020Y-101933345D01*
X162967211Y-101980964D01*
X162919592Y-101933345D01*
X162871973Y-101838107D01*
X162871973Y-101600012D01*
X162919592Y-101504774D01*
X162967211Y-101457155D01*
X163062449Y-101409536D01*
X163300544Y-101409536D01*
X163395782Y-101457155D01*
X163443401Y-101504774D01*
X163491020Y-101600012D01*
X163491020Y-101838107D01*
X163443401Y-101933345D01*
X163395782Y-101980964D01*
X158596459Y-93956298D02*
X158548840Y-94051536D01*
X158453601Y-94146774D01*
X158310744Y-94289631D01*
X158263125Y-94384869D01*
X158263125Y-94480107D01*
X158501220Y-94432488D02*
X158453601Y-94527726D01*
X158358363Y-94622964D01*
X158167887Y-94670583D01*
X157834554Y-94670583D01*
X157644078Y-94622964D01*
X157548840Y-94527726D01*
X157501220Y-94432488D01*
X157501220Y-94242012D01*
X157548840Y-94146774D01*
X157644078Y-94051536D01*
X157834554Y-94003917D01*
X158167887Y-94003917D01*
X158358363Y-94051536D01*
X158453601Y-94146774D01*
X158501220Y-94242012D01*
X158501220Y-94432488D01*
X157834554Y-93146774D02*
X158501220Y-93146774D01*
X157453601Y-93384869D02*
X158167887Y-93622964D01*
X158167887Y-93003917D01*
X169631459Y-114607898D02*
X169583840Y-114703136D01*
X169488601Y-114798374D01*
X169345744Y-114941231D01*
X169298125Y-115036469D01*
X169298125Y-115131707D01*
X169536220Y-115084088D02*
X169488601Y-115179326D01*
X169393363Y-115274564D01*
X169202887Y-115322183D01*
X168869554Y-115322183D01*
X168679078Y-115274564D01*
X168583840Y-115179326D01*
X168536220Y-115084088D01*
X168536220Y-114893612D01*
X168583840Y-114798374D01*
X168679078Y-114703136D01*
X168869554Y-114655517D01*
X169202887Y-114655517D01*
X169393363Y-114703136D01*
X169488601Y-114798374D01*
X169536220Y-114893612D01*
X169536220Y-115084088D01*
X168536220Y-114322183D02*
X168536220Y-113703136D01*
X168917173Y-114036469D01*
X168917173Y-113893612D01*
X168964792Y-113798374D01*
X169012411Y-113750755D01*
X169107649Y-113703136D01*
X169345744Y-113703136D01*
X169440982Y-113750755D01*
X169488601Y-113798374D01*
X169536220Y-113893612D01*
X169536220Y-114179326D01*
X169488601Y-114274564D01*
X169440982Y-114322183D01*
X208554420Y-97210345D02*
X207554420Y-97210345D01*
X207554420Y-96972250D01*
X207602040Y-96829393D01*
X207697278Y-96734155D01*
X207792516Y-96686536D01*
X207982992Y-96638917D01*
X208125849Y-96638917D01*
X208316325Y-96686536D01*
X208411563Y-96734155D01*
X208506801Y-96829393D01*
X208554420Y-96972250D01*
X208554420Y-97210345D01*
X208554420Y-95686536D02*
X208554420Y-96257964D01*
X208554420Y-95972250D02*
X207554420Y-95972250D01*
X207697278Y-96067488D01*
X207792516Y-96162726D01*
X207840135Y-96257964D01*
X207554420Y-95067488D02*
X207554420Y-94972250D01*
X207602040Y-94877012D01*
X207649659Y-94829393D01*
X207744897Y-94781774D01*
X207935373Y-94734155D01*
X208173468Y-94734155D01*
X208363944Y-94781774D01*
X208459182Y-94829393D01*
X208506801Y-94877012D01*
X208554420Y-94972250D01*
X208554420Y-95067488D01*
X208506801Y-95162726D01*
X208459182Y-95210345D01*
X208363944Y-95257964D01*
X208173468Y-95305583D01*
X207935373Y-95305583D01*
X207744897Y-95257964D01*
X207649659Y-95210345D01*
X207602040Y-95162726D01*
X207554420Y-95067488D01*
X208554420Y-80478155D02*
X207554420Y-80478155D01*
X207554420Y-80240060D01*
X207602040Y-80097202D01*
X207697278Y-80001964D01*
X207792516Y-79954345D01*
X207982992Y-79906726D01*
X208125849Y-79906726D01*
X208316325Y-79954345D01*
X208411563Y-80001964D01*
X208506801Y-80097202D01*
X208554420Y-80240060D01*
X208554420Y-80478155D01*
X208554420Y-79430536D02*
X208554420Y-79240060D01*
X208506801Y-79144821D01*
X208459182Y-79097202D01*
X208316325Y-79001964D01*
X208125849Y-78954345D01*
X207744897Y-78954345D01*
X207649659Y-79001964D01*
X207602040Y-79049583D01*
X207554420Y-79144821D01*
X207554420Y-79335298D01*
X207602040Y-79430536D01*
X207649659Y-79478155D01*
X207744897Y-79525774D01*
X207982992Y-79525774D01*
X208078230Y-79478155D01*
X208125849Y-79430536D01*
X208173468Y-79335298D01*
X208173468Y-79144821D01*
X208125849Y-79049583D01*
X208078230Y-79001964D01*
X207982992Y-78954345D01*
X203349944Y-72484440D02*
X203349944Y-71484440D01*
X203588040Y-71484440D01*
X203730897Y-71532060D01*
X203826135Y-71627298D01*
X203873754Y-71722536D01*
X203921373Y-71913012D01*
X203921373Y-72055869D01*
X203873754Y-72246345D01*
X203826135Y-72341583D01*
X203730897Y-72436821D01*
X203588040Y-72484440D01*
X203349944Y-72484440D01*
X204492801Y-71913012D02*
X204397563Y-71865393D01*
X204349944Y-71817774D01*
X204302325Y-71722536D01*
X204302325Y-71674917D01*
X204349944Y-71579679D01*
X204397563Y-71532060D01*
X204492801Y-71484440D01*
X204683278Y-71484440D01*
X204778516Y-71532060D01*
X204826135Y-71579679D01*
X204873754Y-71674917D01*
X204873754Y-71722536D01*
X204826135Y-71817774D01*
X204778516Y-71865393D01*
X204683278Y-71913012D01*
X204492801Y-71913012D01*
X204397563Y-71960631D01*
X204349944Y-72008250D01*
X204302325Y-72103488D01*
X204302325Y-72293964D01*
X204349944Y-72389202D01*
X204397563Y-72436821D01*
X204492801Y-72484440D01*
X204683278Y-72484440D01*
X204778516Y-72436821D01*
X204826135Y-72389202D01*
X204873754Y-72293964D01*
X204873754Y-72103488D01*
X204826135Y-72008250D01*
X204778516Y-71960631D01*
X204683278Y-71913012D01*
X200140420Y-105150155D02*
X199140420Y-105150155D01*
X199140420Y-104912060D01*
X199188040Y-104769202D01*
X199283278Y-104673964D01*
X199378516Y-104626345D01*
X199568992Y-104578726D01*
X199711849Y-104578726D01*
X199902325Y-104626345D01*
X199997563Y-104673964D01*
X200092801Y-104769202D01*
X200140420Y-104912060D01*
X200140420Y-105150155D01*
X199140420Y-104245393D02*
X199140420Y-103578726D01*
X200140420Y-104007298D01*
X206139944Y-122274440D02*
X206139944Y-121274440D01*
X206378040Y-121274440D01*
X206520897Y-121322060D01*
X206616135Y-121417298D01*
X206663754Y-121512536D01*
X206711373Y-121703012D01*
X206711373Y-121845869D01*
X206663754Y-122036345D01*
X206616135Y-122131583D01*
X206520897Y-122226821D01*
X206378040Y-122274440D01*
X206139944Y-122274440D01*
X207568516Y-121274440D02*
X207378040Y-121274440D01*
X207282801Y-121322060D01*
X207235182Y-121369679D01*
X207139944Y-121512536D01*
X207092325Y-121703012D01*
X207092325Y-122083964D01*
X207139944Y-122179202D01*
X207187563Y-122226821D01*
X207282801Y-122274440D01*
X207473278Y-122274440D01*
X207568516Y-122226821D01*
X207616135Y-122179202D01*
X207663754Y-122083964D01*
X207663754Y-121845869D01*
X207616135Y-121750631D01*
X207568516Y-121703012D01*
X207473278Y-121655393D01*
X207282801Y-121655393D01*
X207187563Y-121703012D01*
X207139944Y-121750631D01*
X207092325Y-121845869D01*
X204899944Y-66114440D02*
X204899944Y-65114440D01*
X205138040Y-65114440D01*
X205280897Y-65162060D01*
X205376135Y-65257298D01*
X205423754Y-65352536D01*
X205471373Y-65543012D01*
X205471373Y-65685869D01*
X205423754Y-65876345D01*
X205376135Y-65971583D01*
X205280897Y-66066821D01*
X205138040Y-66114440D01*
X204899944Y-66114440D01*
X206376135Y-65114440D02*
X205899944Y-65114440D01*
X205852325Y-65590631D01*
X205899944Y-65543012D01*
X205995182Y-65495393D01*
X206233278Y-65495393D01*
X206328516Y-65543012D01*
X206376135Y-65590631D01*
X206423754Y-65685869D01*
X206423754Y-65923964D01*
X206376135Y-66019202D01*
X206328516Y-66066821D01*
X206233278Y-66114440D01*
X205995182Y-66114440D01*
X205899944Y-66066821D01*
X205852325Y-66019202D01*
X209299944Y-61264440D02*
X209299944Y-60264440D01*
X209538040Y-60264440D01*
X209680897Y-60312060D01*
X209776135Y-60407298D01*
X209823754Y-60502536D01*
X209871373Y-60693012D01*
X209871373Y-60835869D01*
X209823754Y-61026345D01*
X209776135Y-61121583D01*
X209680897Y-61216821D01*
X209538040Y-61264440D01*
X209299944Y-61264440D01*
X210204706Y-60264440D02*
X210823754Y-60264440D01*
X210490420Y-60645393D01*
X210633278Y-60645393D01*
X210728516Y-60693012D01*
X210776135Y-60740631D01*
X210823754Y-60835869D01*
X210823754Y-61073964D01*
X210776135Y-61169202D01*
X210728516Y-61216821D01*
X210633278Y-61264440D01*
X210347563Y-61264440D01*
X210252325Y-61216821D01*
X210204706Y-61169202D01*
X205736420Y-85407393D02*
X206450706Y-85407393D01*
X206593563Y-85455012D01*
X206688801Y-85550250D01*
X206736420Y-85693107D01*
X206736420Y-85788345D01*
X205831659Y-84978821D02*
X205784040Y-84931202D01*
X205736420Y-84835964D01*
X205736420Y-84597869D01*
X205784040Y-84502631D01*
X205831659Y-84455012D01*
X205926897Y-84407393D01*
X206022135Y-84407393D01*
X206164992Y-84455012D01*
X206736420Y-85026440D01*
X206736420Y-84407393D01*
X180308333Y-99927142D02*
X180260714Y-99974761D01*
X180117857Y-100022380D01*
X180022619Y-100022380D01*
X179879761Y-99974761D01*
X179784523Y-99879523D01*
X179736904Y-99784285D01*
X179689285Y-99593809D01*
X179689285Y-99450952D01*
X179736904Y-99260476D01*
X179784523Y-99165238D01*
X179879761Y-99070000D01*
X180022619Y-99022380D01*
X180117857Y-99022380D01*
X180260714Y-99070000D01*
X180308333Y-99117619D01*
X181260714Y-100022380D02*
X180689285Y-100022380D01*
X180975000Y-100022380D02*
X180975000Y-99022380D01*
X180879761Y-99165238D01*
X180784523Y-99260476D01*
X180689285Y-99308095D01*
X184688773Y-102094602D02*
X184641154Y-102142221D01*
X184498297Y-102189840D01*
X184403059Y-102189840D01*
X184260201Y-102142221D01*
X184164963Y-102046983D01*
X184117344Y-101951745D01*
X184069725Y-101761269D01*
X184069725Y-101618412D01*
X184117344Y-101427936D01*
X184164963Y-101332698D01*
X184260201Y-101237460D01*
X184403059Y-101189840D01*
X184498297Y-101189840D01*
X184641154Y-101237460D01*
X184688773Y-101285079D01*
X185022106Y-101189840D02*
X185641154Y-101189840D01*
X185307820Y-101570793D01*
X185450678Y-101570793D01*
X185545916Y-101618412D01*
X185593535Y-101666031D01*
X185641154Y-101761269D01*
X185641154Y-101999364D01*
X185593535Y-102094602D01*
X185545916Y-102142221D01*
X185450678Y-102189840D01*
X185164963Y-102189840D01*
X185069725Y-102142221D01*
X185022106Y-102094602D01*
X189116182Y-90113826D02*
X189163801Y-90161445D01*
X189211420Y-90304302D01*
X189211420Y-90399540D01*
X189163801Y-90542398D01*
X189068563Y-90637636D01*
X188973325Y-90685255D01*
X188782849Y-90732874D01*
X188639992Y-90732874D01*
X188449516Y-90685255D01*
X188354278Y-90637636D01*
X188259040Y-90542398D01*
X188211420Y-90399540D01*
X188211420Y-90304302D01*
X188259040Y-90161445D01*
X188306659Y-90113826D01*
X188544754Y-89256683D02*
X189211420Y-89256683D01*
X188163801Y-89494779D02*
X188878087Y-89732874D01*
X188878087Y-89113826D01*
X208915182Y-107028726D02*
X208962801Y-107076345D01*
X209010420Y-107219202D01*
X209010420Y-107314440D01*
X208962801Y-107457298D01*
X208867563Y-107552536D01*
X208772325Y-107600155D01*
X208581849Y-107647774D01*
X208438992Y-107647774D01*
X208248516Y-107600155D01*
X208153278Y-107552536D01*
X208058040Y-107457298D01*
X208010420Y-107314440D01*
X208010420Y-107219202D01*
X208058040Y-107076345D01*
X208105659Y-107028726D01*
X208010420Y-106171583D02*
X208010420Y-106362060D01*
X208058040Y-106457298D01*
X208105659Y-106504917D01*
X208248516Y-106600155D01*
X208438992Y-106647774D01*
X208819944Y-106647774D01*
X208915182Y-106600155D01*
X208962801Y-106552536D01*
X209010420Y-106457298D01*
X209010420Y-106266821D01*
X208962801Y-106171583D01*
X208915182Y-106123964D01*
X208819944Y-106076345D01*
X208581849Y-106076345D01*
X208486611Y-106123964D01*
X208438992Y-106171583D01*
X208391373Y-106266821D01*
X208391373Y-106457298D01*
X208438992Y-106552536D01*
X208486611Y-106600155D01*
X208581849Y-106647774D01*
X199041873Y-71069202D02*
X198994254Y-71116821D01*
X198851397Y-71164440D01*
X198756159Y-71164440D01*
X198613301Y-71116821D01*
X198518063Y-71021583D01*
X198470444Y-70926345D01*
X198422825Y-70735869D01*
X198422825Y-70593012D01*
X198470444Y-70402536D01*
X198518063Y-70307298D01*
X198613301Y-70212060D01*
X198756159Y-70164440D01*
X198851397Y-70164440D01*
X198994254Y-70212060D01*
X199041873Y-70259679D01*
X199375206Y-70164440D02*
X200041873Y-70164440D01*
X199613301Y-71164440D01*
X234784173Y-120980902D02*
X234736554Y-121028521D01*
X234593697Y-121076140D01*
X234498459Y-121076140D01*
X234355601Y-121028521D01*
X234260363Y-120933283D01*
X234212744Y-120838045D01*
X234165125Y-120647569D01*
X234165125Y-120504712D01*
X234212744Y-120314236D01*
X234260363Y-120218998D01*
X234355601Y-120123760D01*
X234498459Y-120076140D01*
X234593697Y-120076140D01*
X234736554Y-120123760D01*
X234784173Y-120171379D01*
X235355601Y-120504712D02*
X235260363Y-120457093D01*
X235212744Y-120409474D01*
X235165125Y-120314236D01*
X235165125Y-120266617D01*
X235212744Y-120171379D01*
X235260363Y-120123760D01*
X235355601Y-120076140D01*
X235546078Y-120076140D01*
X235641316Y-120123760D01*
X235688935Y-120171379D01*
X235736554Y-120266617D01*
X235736554Y-120314236D01*
X235688935Y-120409474D01*
X235641316Y-120457093D01*
X235546078Y-120504712D01*
X235355601Y-120504712D01*
X235260363Y-120552331D01*
X235212744Y-120599950D01*
X235165125Y-120695188D01*
X235165125Y-120885664D01*
X235212744Y-120980902D01*
X235260363Y-121028521D01*
X235355601Y-121076140D01*
X235546078Y-121076140D01*
X235641316Y-121028521D01*
X235688935Y-120980902D01*
X235736554Y-120885664D01*
X235736554Y-120695188D01*
X235688935Y-120599950D01*
X235641316Y-120552331D01*
X235546078Y-120504712D01*
X232591182Y-62163226D02*
X232638801Y-62210845D01*
X232686420Y-62353702D01*
X232686420Y-62448940D01*
X232638801Y-62591798D01*
X232543563Y-62687036D01*
X232448325Y-62734655D01*
X232257849Y-62782274D01*
X232114992Y-62782274D01*
X231924516Y-62734655D01*
X231829278Y-62687036D01*
X231734040Y-62591798D01*
X231686420Y-62448940D01*
X231686420Y-62353702D01*
X231734040Y-62210845D01*
X231781659Y-62163226D01*
X232686420Y-61687036D02*
X232686420Y-61496560D01*
X232638801Y-61401321D01*
X232591182Y-61353702D01*
X232448325Y-61258464D01*
X232257849Y-61210845D01*
X231876897Y-61210845D01*
X231781659Y-61258464D01*
X231734040Y-61306083D01*
X231686420Y-61401321D01*
X231686420Y-61591798D01*
X231734040Y-61687036D01*
X231781659Y-61734655D01*
X231876897Y-61782274D01*
X232114992Y-61782274D01*
X232210230Y-61734655D01*
X232257849Y-61687036D01*
X232305468Y-61591798D01*
X232305468Y-61401321D01*
X232257849Y-61306083D01*
X232210230Y-61258464D01*
X232114992Y-61210845D01*
X165217082Y-99453002D02*
X165169463Y-99500621D01*
X165026606Y-99548240D01*
X164931368Y-99548240D01*
X164788511Y-99500621D01*
X164693273Y-99405383D01*
X164645654Y-99310145D01*
X164598035Y-99119669D01*
X164598035Y-98976812D01*
X164645654Y-98786336D01*
X164693273Y-98691098D01*
X164788511Y-98595860D01*
X164931368Y-98548240D01*
X165026606Y-98548240D01*
X165169463Y-98595860D01*
X165217082Y-98643479D01*
X166169463Y-99548240D02*
X165598035Y-99548240D01*
X165883749Y-99548240D02*
X165883749Y-98548240D01*
X165788511Y-98691098D01*
X165693273Y-98786336D01*
X165598035Y-98833955D01*
X166788511Y-98548240D02*
X166883749Y-98548240D01*
X166978987Y-98595860D01*
X167026606Y-98643479D01*
X167074225Y-98738717D01*
X167121844Y-98929193D01*
X167121844Y-99167288D01*
X167074225Y-99357764D01*
X167026606Y-99453002D01*
X166978987Y-99500621D01*
X166883749Y-99548240D01*
X166788511Y-99548240D01*
X166693273Y-99500621D01*
X166645654Y-99453002D01*
X166598035Y-99357764D01*
X166550416Y-99167288D01*
X166550416Y-98929193D01*
X166598035Y-98738717D01*
X166645654Y-98643479D01*
X166693273Y-98595860D01*
X166788511Y-98548240D01*
X171492380Y-115668095D02*
X170492380Y-115668095D01*
X170492380Y-115430000D01*
X170540000Y-115287142D01*
X170635238Y-115191904D01*
X170730476Y-115144285D01*
X170920952Y-115096666D01*
X171063809Y-115096666D01*
X171254285Y-115144285D01*
X171349523Y-115191904D01*
X171444761Y-115287142D01*
X171492380Y-115430000D01*
X171492380Y-115668095D01*
X171492380Y-114144285D02*
X171492380Y-114715714D01*
X171492380Y-114430000D02*
X170492380Y-114430000D01*
X170635238Y-114525238D01*
X170730476Y-114620476D01*
X170778095Y-114715714D01*
X184602380Y-108141666D02*
X184126190Y-108475000D01*
X184602380Y-108713095D02*
X183602380Y-108713095D01*
X183602380Y-108332142D01*
X183650000Y-108236904D01*
X183697619Y-108189285D01*
X183792857Y-108141666D01*
X183935714Y-108141666D01*
X184030952Y-108189285D01*
X184078571Y-108236904D01*
X184126190Y-108332142D01*
X184126190Y-108713095D01*
X184602380Y-107189285D02*
X184602380Y-107760714D01*
X184602380Y-107475000D02*
X183602380Y-107475000D01*
X183745238Y-107570238D01*
X183840476Y-107665476D01*
X183888095Y-107760714D01*
X192538820Y-110238026D02*
X192062630Y-110571360D01*
X192538820Y-110809455D02*
X191538820Y-110809455D01*
X191538820Y-110428502D01*
X191586440Y-110333264D01*
X191634059Y-110285645D01*
X191729297Y-110238026D01*
X191872154Y-110238026D01*
X191967392Y-110285645D01*
X192015011Y-110333264D01*
X192062630Y-110428502D01*
X192062630Y-110809455D01*
X191634059Y-109857074D02*
X191586440Y-109809455D01*
X191538820Y-109714217D01*
X191538820Y-109476121D01*
X191586440Y-109380883D01*
X191634059Y-109333264D01*
X191729297Y-109285645D01*
X191824535Y-109285645D01*
X191967392Y-109333264D01*
X192538820Y-109904693D01*
X192538820Y-109285645D01*
X179379620Y-90159326D02*
X178903430Y-90492660D01*
X179379620Y-90730755D02*
X178379620Y-90730755D01*
X178379620Y-90349802D01*
X178427240Y-90254564D01*
X178474859Y-90206945D01*
X178570097Y-90159326D01*
X178712954Y-90159326D01*
X178808192Y-90206945D01*
X178855811Y-90254564D01*
X178903430Y-90349802D01*
X178903430Y-90730755D01*
X178379620Y-89825993D02*
X178379620Y-89206945D01*
X178760573Y-89540279D01*
X178760573Y-89397421D01*
X178808192Y-89302183D01*
X178855811Y-89254564D01*
X178951049Y-89206945D01*
X179189144Y-89206945D01*
X179284382Y-89254564D01*
X179332001Y-89302183D01*
X179379620Y-89397421D01*
X179379620Y-89683136D01*
X179332001Y-89778374D01*
X179284382Y-89825993D01*
X173245520Y-109290826D02*
X172769330Y-109624160D01*
X173245520Y-109862255D02*
X172245520Y-109862255D01*
X172245520Y-109481302D01*
X172293140Y-109386064D01*
X172340759Y-109338445D01*
X172435997Y-109290826D01*
X172578854Y-109290826D01*
X172674092Y-109338445D01*
X172721711Y-109386064D01*
X172769330Y-109481302D01*
X172769330Y-109862255D01*
X172578854Y-108433683D02*
X173245520Y-108433683D01*
X172197901Y-108671779D02*
X172912187Y-108909874D01*
X172912187Y-108290826D01*
X192538820Y-114771926D02*
X192062630Y-115105260D01*
X192538820Y-115343355D02*
X191538820Y-115343355D01*
X191538820Y-114962402D01*
X191586440Y-114867164D01*
X191634059Y-114819545D01*
X191729297Y-114771926D01*
X191872154Y-114771926D01*
X191967392Y-114819545D01*
X192015011Y-114867164D01*
X192062630Y-114962402D01*
X192062630Y-115343355D01*
X191538820Y-113867164D02*
X191538820Y-114343355D01*
X192015011Y-114390974D01*
X191967392Y-114343355D01*
X191919773Y-114248117D01*
X191919773Y-114010021D01*
X191967392Y-113914783D01*
X192015011Y-113867164D01*
X192110249Y-113819545D01*
X192348344Y-113819545D01*
X192443582Y-113867164D01*
X192491201Y-113914783D01*
X192538820Y-114010021D01*
X192538820Y-114248117D01*
X192491201Y-114343355D01*
X192443582Y-114390974D01*
X177108333Y-118602380D02*
X176775000Y-118126190D01*
X176536904Y-118602380D02*
X176536904Y-117602380D01*
X176917857Y-117602380D01*
X177013095Y-117650000D01*
X177060714Y-117697619D01*
X177108333Y-117792857D01*
X177108333Y-117935714D01*
X177060714Y-118030952D01*
X177013095Y-118078571D01*
X176917857Y-118126190D01*
X176536904Y-118126190D01*
X177965476Y-117602380D02*
X177775000Y-117602380D01*
X177679761Y-117650000D01*
X177632142Y-117697619D01*
X177536904Y-117840476D01*
X177489285Y-118030952D01*
X177489285Y-118411904D01*
X177536904Y-118507142D01*
X177584523Y-118554761D01*
X177679761Y-118602380D01*
X177870238Y-118602380D01*
X177965476Y-118554761D01*
X178013095Y-118507142D01*
X178060714Y-118411904D01*
X178060714Y-118173809D01*
X178013095Y-118078571D01*
X177965476Y-118030952D01*
X177870238Y-117983333D01*
X177679761Y-117983333D01*
X177584523Y-118030952D01*
X177536904Y-118078571D01*
X177489285Y-118173809D01*
X162755320Y-67003526D02*
X162279130Y-67336860D01*
X162755320Y-67574955D02*
X161755320Y-67574955D01*
X161755320Y-67194002D01*
X161802940Y-67098764D01*
X161850559Y-67051145D01*
X161945797Y-67003526D01*
X162088654Y-67003526D01*
X162183892Y-67051145D01*
X162231511Y-67098764D01*
X162279130Y-67194002D01*
X162279130Y-67574955D01*
X161755320Y-66670193D02*
X161755320Y-66003526D01*
X162755320Y-66432098D01*
X162641020Y-109104026D02*
X162164830Y-109437360D01*
X162641020Y-109675455D02*
X161641020Y-109675455D01*
X161641020Y-109294502D01*
X161688640Y-109199264D01*
X161736259Y-109151645D01*
X161831497Y-109104026D01*
X161974354Y-109104026D01*
X162069592Y-109151645D01*
X162117211Y-109199264D01*
X162164830Y-109294502D01*
X162164830Y-109675455D01*
X162069592Y-108532598D02*
X162021973Y-108627836D01*
X161974354Y-108675455D01*
X161879116Y-108723074D01*
X161831497Y-108723074D01*
X161736259Y-108675455D01*
X161688640Y-108627836D01*
X161641020Y-108532598D01*
X161641020Y-108342121D01*
X161688640Y-108246883D01*
X161736259Y-108199264D01*
X161831497Y-108151645D01*
X161879116Y-108151645D01*
X161974354Y-108199264D01*
X162021973Y-108246883D01*
X162069592Y-108342121D01*
X162069592Y-108532598D01*
X162117211Y-108627836D01*
X162164830Y-108675455D01*
X162260068Y-108723074D01*
X162450544Y-108723074D01*
X162545782Y-108675455D01*
X162593401Y-108627836D01*
X162641020Y-108532598D01*
X162641020Y-108342121D01*
X162593401Y-108246883D01*
X162545782Y-108199264D01*
X162450544Y-108151645D01*
X162260068Y-108151645D01*
X162164830Y-108199264D01*
X162117211Y-108246883D01*
X162069592Y-108342121D01*
X165754520Y-91133526D02*
X165278330Y-91466860D01*
X165754520Y-91704955D02*
X164754520Y-91704955D01*
X164754520Y-91324002D01*
X164802140Y-91228764D01*
X164849759Y-91181145D01*
X164944997Y-91133526D01*
X165087854Y-91133526D01*
X165183092Y-91181145D01*
X165230711Y-91228764D01*
X165278330Y-91324002D01*
X165278330Y-91704955D01*
X165754520Y-90657336D02*
X165754520Y-90466860D01*
X165706901Y-90371621D01*
X165659282Y-90324002D01*
X165516425Y-90228764D01*
X165325949Y-90181145D01*
X164944997Y-90181145D01*
X164849759Y-90228764D01*
X164802140Y-90276383D01*
X164754520Y-90371621D01*
X164754520Y-90562098D01*
X164802140Y-90657336D01*
X164849759Y-90704955D01*
X164944997Y-90752574D01*
X165183092Y-90752574D01*
X165278330Y-90704955D01*
X165325949Y-90657336D01*
X165373568Y-90562098D01*
X165373568Y-90371621D01*
X165325949Y-90276383D01*
X165278330Y-90228764D01*
X165183092Y-90181145D01*
X183545220Y-90584717D02*
X183069030Y-90918050D01*
X183545220Y-91156145D02*
X182545220Y-91156145D01*
X182545220Y-90775193D01*
X182592840Y-90679955D01*
X182640459Y-90632336D01*
X182735697Y-90584717D01*
X182878554Y-90584717D01*
X182973792Y-90632336D01*
X183021411Y-90679955D01*
X183069030Y-90775193D01*
X183069030Y-91156145D01*
X183545220Y-89632336D02*
X183545220Y-90203764D01*
X183545220Y-89918050D02*
X182545220Y-89918050D01*
X182688078Y-90013288D01*
X182783316Y-90108526D01*
X182830935Y-90203764D01*
X182545220Y-89013288D02*
X182545220Y-88918050D01*
X182592840Y-88822812D01*
X182640459Y-88775193D01*
X182735697Y-88727574D01*
X182926173Y-88679955D01*
X183164268Y-88679955D01*
X183354744Y-88727574D01*
X183449982Y-88775193D01*
X183497601Y-88822812D01*
X183545220Y-88918050D01*
X183545220Y-89013288D01*
X183497601Y-89108526D01*
X183449982Y-89156145D01*
X183354744Y-89203764D01*
X183164268Y-89251383D01*
X182926173Y-89251383D01*
X182735697Y-89203764D01*
X182640459Y-89156145D01*
X182592840Y-89108526D01*
X182545220Y-89013288D01*
X187657982Y-78605940D02*
X187324649Y-78129750D01*
X187086554Y-78605940D02*
X187086554Y-77605940D01*
X187467506Y-77605940D01*
X187562744Y-77653560D01*
X187610363Y-77701179D01*
X187657982Y-77796417D01*
X187657982Y-77939274D01*
X187610363Y-78034512D01*
X187562744Y-78082131D01*
X187467506Y-78129750D01*
X187086554Y-78129750D01*
X188610363Y-78605940D02*
X188038935Y-78605940D01*
X188324649Y-78605940D02*
X188324649Y-77605940D01*
X188229411Y-77748798D01*
X188134173Y-77844036D01*
X188038935Y-77891655D01*
X189562744Y-78605940D02*
X188991316Y-78605940D01*
X189277030Y-78605940D02*
X189277030Y-77605940D01*
X189181792Y-77748798D01*
X189086554Y-77844036D01*
X188991316Y-77891655D01*
X188282320Y-90597417D02*
X187806130Y-90930750D01*
X188282320Y-91168845D02*
X187282320Y-91168845D01*
X187282320Y-90787893D01*
X187329940Y-90692655D01*
X187377559Y-90645036D01*
X187472797Y-90597417D01*
X187615654Y-90597417D01*
X187710892Y-90645036D01*
X187758511Y-90692655D01*
X187806130Y-90787893D01*
X187806130Y-91168845D01*
X188282320Y-89645036D02*
X188282320Y-90216464D01*
X188282320Y-89930750D02*
X187282320Y-89930750D01*
X187425178Y-90025988D01*
X187520416Y-90121226D01*
X187568035Y-90216464D01*
X187282320Y-89311702D02*
X187282320Y-88692655D01*
X187663273Y-89025988D01*
X187663273Y-88883131D01*
X187710892Y-88787893D01*
X187758511Y-88740274D01*
X187853749Y-88692655D01*
X188091844Y-88692655D01*
X188187082Y-88740274D01*
X188234701Y-88787893D01*
X188282320Y-88883131D01*
X188282320Y-89168845D01*
X188234701Y-89264083D01*
X188187082Y-89311702D01*
X185094620Y-120396917D02*
X184618430Y-120730250D01*
X185094620Y-120968345D02*
X184094620Y-120968345D01*
X184094620Y-120587393D01*
X184142240Y-120492155D01*
X184189859Y-120444536D01*
X184285097Y-120396917D01*
X184427954Y-120396917D01*
X184523192Y-120444536D01*
X184570811Y-120492155D01*
X184618430Y-120587393D01*
X184618430Y-120968345D01*
X185094620Y-119444536D02*
X185094620Y-120015964D01*
X185094620Y-119730250D02*
X184094620Y-119730250D01*
X184237478Y-119825488D01*
X184332716Y-119920726D01*
X184380335Y-120015964D01*
X184427954Y-118587393D02*
X185094620Y-118587393D01*
X184047001Y-118825488D02*
X184761287Y-119063583D01*
X184761287Y-118444536D01*
X220620182Y-114234440D02*
X220286849Y-113758250D01*
X220048754Y-114234440D02*
X220048754Y-113234440D01*
X220429706Y-113234440D01*
X220524944Y-113282060D01*
X220572563Y-113329679D01*
X220620182Y-113424917D01*
X220620182Y-113567774D01*
X220572563Y-113663012D01*
X220524944Y-113710631D01*
X220429706Y-113758250D01*
X220048754Y-113758250D01*
X221572563Y-114234440D02*
X221001135Y-114234440D01*
X221286849Y-114234440D02*
X221286849Y-113234440D01*
X221191611Y-113377298D01*
X221096373Y-113472536D01*
X221001135Y-113520155D01*
X222429706Y-113234440D02*
X222239230Y-113234440D01*
X222143992Y-113282060D01*
X222096373Y-113329679D01*
X222001135Y-113472536D01*
X221953516Y-113663012D01*
X221953516Y-114043964D01*
X222001135Y-114139202D01*
X222048754Y-114186821D01*
X222143992Y-114234440D01*
X222334468Y-114234440D01*
X222429706Y-114186821D01*
X222477325Y-114139202D01*
X222524944Y-114043964D01*
X222524944Y-113805869D01*
X222477325Y-113710631D01*
X222429706Y-113663012D01*
X222334468Y-113615393D01*
X222143992Y-113615393D01*
X222048754Y-113663012D01*
X222001135Y-113710631D01*
X221953516Y-113805869D01*
X210780420Y-119999917D02*
X210304230Y-120333250D01*
X210780420Y-120571345D02*
X209780420Y-120571345D01*
X209780420Y-120190393D01*
X209828040Y-120095155D01*
X209875659Y-120047536D01*
X209970897Y-119999917D01*
X210113754Y-119999917D01*
X210208992Y-120047536D01*
X210256611Y-120095155D01*
X210304230Y-120190393D01*
X210304230Y-120571345D01*
X210780420Y-119047536D02*
X210780420Y-119618964D01*
X210780420Y-119333250D02*
X209780420Y-119333250D01*
X209923278Y-119428488D01*
X210018516Y-119523726D01*
X210066135Y-119618964D01*
X209780420Y-118714202D02*
X209780420Y-118047536D01*
X210780420Y-118476107D01*
X204495182Y-60374440D02*
X204161849Y-59898250D01*
X203923754Y-60374440D02*
X203923754Y-59374440D01*
X204304706Y-59374440D01*
X204399944Y-59422060D01*
X204447563Y-59469679D01*
X204495182Y-59564917D01*
X204495182Y-59707774D01*
X204447563Y-59803012D01*
X204399944Y-59850631D01*
X204304706Y-59898250D01*
X203923754Y-59898250D01*
X205447563Y-60374440D02*
X204876135Y-60374440D01*
X205161849Y-60374440D02*
X205161849Y-59374440D01*
X205066611Y-59517298D01*
X204971373Y-59612536D01*
X204876135Y-59660155D01*
X206018992Y-59803012D02*
X205923754Y-59755393D01*
X205876135Y-59707774D01*
X205828516Y-59612536D01*
X205828516Y-59564917D01*
X205876135Y-59469679D01*
X205923754Y-59422060D01*
X206018992Y-59374440D01*
X206209468Y-59374440D01*
X206304706Y-59422060D01*
X206352325Y-59469679D01*
X206399944Y-59564917D01*
X206399944Y-59612536D01*
X206352325Y-59707774D01*
X206304706Y-59755393D01*
X206209468Y-59803012D01*
X206018992Y-59803012D01*
X205923754Y-59850631D01*
X205876135Y-59898250D01*
X205828516Y-59993488D01*
X205828516Y-60183964D01*
X205876135Y-60279202D01*
X205923754Y-60326821D01*
X206018992Y-60374440D01*
X206209468Y-60374440D01*
X206304706Y-60326821D01*
X206352325Y-60279202D01*
X206399944Y-60183964D01*
X206399944Y-59993488D01*
X206352325Y-59898250D01*
X206304706Y-59850631D01*
X206209468Y-59803012D01*
X212000182Y-65332440D02*
X211666849Y-64856250D01*
X211428754Y-65332440D02*
X211428754Y-64332440D01*
X211809706Y-64332440D01*
X211904944Y-64380060D01*
X211952563Y-64427679D01*
X212000182Y-64522917D01*
X212000182Y-64665774D01*
X211952563Y-64761012D01*
X211904944Y-64808631D01*
X211809706Y-64856250D01*
X211428754Y-64856250D01*
X212952563Y-65332440D02*
X212381135Y-65332440D01*
X212666849Y-65332440D02*
X212666849Y-64332440D01*
X212571611Y-64475298D01*
X212476373Y-64570536D01*
X212381135Y-64618155D01*
X213428754Y-65332440D02*
X213619230Y-65332440D01*
X213714468Y-65284821D01*
X213762087Y-65237202D01*
X213857325Y-65094345D01*
X213904944Y-64903869D01*
X213904944Y-64522917D01*
X213857325Y-64427679D01*
X213809706Y-64380060D01*
X213714468Y-64332440D01*
X213523992Y-64332440D01*
X213428754Y-64380060D01*
X213381135Y-64427679D01*
X213333516Y-64522917D01*
X213333516Y-64761012D01*
X213381135Y-64856250D01*
X213428754Y-64903869D01*
X213523992Y-64951488D01*
X213714468Y-64951488D01*
X213809706Y-64903869D01*
X213857325Y-64856250D01*
X213904944Y-64761012D01*
X200895420Y-118990917D02*
X200419230Y-119324250D01*
X200895420Y-119562345D02*
X199895420Y-119562345D01*
X199895420Y-119181393D01*
X199943040Y-119086155D01*
X199990659Y-119038536D01*
X200085897Y-118990917D01*
X200228754Y-118990917D01*
X200323992Y-119038536D01*
X200371611Y-119086155D01*
X200419230Y-119181393D01*
X200419230Y-119562345D01*
X199990659Y-118609964D02*
X199943040Y-118562345D01*
X199895420Y-118467107D01*
X199895420Y-118229012D01*
X199943040Y-118133774D01*
X199990659Y-118086155D01*
X200085897Y-118038536D01*
X200181135Y-118038536D01*
X200323992Y-118086155D01*
X200895420Y-118657583D01*
X200895420Y-118038536D01*
X199895420Y-117419488D02*
X199895420Y-117324250D01*
X199943040Y-117229012D01*
X199990659Y-117181393D01*
X200085897Y-117133774D01*
X200276373Y-117086155D01*
X200514468Y-117086155D01*
X200704944Y-117133774D01*
X200800182Y-117181393D01*
X200847801Y-117229012D01*
X200895420Y-117324250D01*
X200895420Y-117419488D01*
X200847801Y-117514726D01*
X200800182Y-117562345D01*
X200704944Y-117609964D01*
X200514468Y-117657583D01*
X200276373Y-117657583D01*
X200085897Y-117609964D01*
X199990659Y-117562345D01*
X199943040Y-117514726D01*
X199895420Y-117419488D01*
X229340182Y-116064440D02*
X229006849Y-115588250D01*
X228768754Y-116064440D02*
X228768754Y-115064440D01*
X229149706Y-115064440D01*
X229244944Y-115112060D01*
X229292563Y-115159679D01*
X229340182Y-115254917D01*
X229340182Y-115397774D01*
X229292563Y-115493012D01*
X229244944Y-115540631D01*
X229149706Y-115588250D01*
X228768754Y-115588250D01*
X229721135Y-115159679D02*
X229768754Y-115112060D01*
X229863992Y-115064440D01*
X230102087Y-115064440D01*
X230197325Y-115112060D01*
X230244944Y-115159679D01*
X230292563Y-115254917D01*
X230292563Y-115350155D01*
X230244944Y-115493012D01*
X229673516Y-116064440D01*
X230292563Y-116064440D01*
X230673516Y-115159679D02*
X230721135Y-115112060D01*
X230816373Y-115064440D01*
X231054468Y-115064440D01*
X231149706Y-115112060D01*
X231197325Y-115159679D01*
X231244944Y-115254917D01*
X231244944Y-115350155D01*
X231197325Y-115493012D01*
X230625897Y-116064440D01*
X231244944Y-116064440D01*
X198774182Y-67110440D02*
X198440849Y-66634250D01*
X198202754Y-67110440D02*
X198202754Y-66110440D01*
X198583706Y-66110440D01*
X198678944Y-66158060D01*
X198726563Y-66205679D01*
X198774182Y-66300917D01*
X198774182Y-66443774D01*
X198726563Y-66539012D01*
X198678944Y-66586631D01*
X198583706Y-66634250D01*
X198202754Y-66634250D01*
X199155135Y-66205679D02*
X199202754Y-66158060D01*
X199297992Y-66110440D01*
X199536087Y-66110440D01*
X199631325Y-66158060D01*
X199678944Y-66205679D01*
X199726563Y-66300917D01*
X199726563Y-66396155D01*
X199678944Y-66539012D01*
X199107516Y-67110440D01*
X199726563Y-67110440D01*
X200059897Y-66110440D02*
X200678944Y-66110440D01*
X200345611Y-66491393D01*
X200488468Y-66491393D01*
X200583706Y-66539012D01*
X200631325Y-66586631D01*
X200678944Y-66681869D01*
X200678944Y-66919964D01*
X200631325Y-67015202D01*
X200583706Y-67062821D01*
X200488468Y-67110440D01*
X200202754Y-67110440D01*
X200107516Y-67062821D01*
X200059897Y-67015202D01*
X191916182Y-67134440D02*
X191582849Y-66658250D01*
X191344754Y-67134440D02*
X191344754Y-66134440D01*
X191725706Y-66134440D01*
X191820944Y-66182060D01*
X191868563Y-66229679D01*
X191916182Y-66324917D01*
X191916182Y-66467774D01*
X191868563Y-66563012D01*
X191820944Y-66610631D01*
X191725706Y-66658250D01*
X191344754Y-66658250D01*
X192297135Y-66229679D02*
X192344754Y-66182060D01*
X192439992Y-66134440D01*
X192678087Y-66134440D01*
X192773325Y-66182060D01*
X192820944Y-66229679D01*
X192868563Y-66324917D01*
X192868563Y-66420155D01*
X192820944Y-66563012D01*
X192249516Y-67134440D01*
X192868563Y-67134440D01*
X193725706Y-66467774D02*
X193725706Y-67134440D01*
X193487611Y-66086821D02*
X193249516Y-66801107D01*
X193868563Y-66801107D01*
X209370420Y-114249917D02*
X208894230Y-114583250D01*
X209370420Y-114821345D02*
X208370420Y-114821345D01*
X208370420Y-114440393D01*
X208418040Y-114345155D01*
X208465659Y-114297536D01*
X208560897Y-114249917D01*
X208703754Y-114249917D01*
X208798992Y-114297536D01*
X208846611Y-114345155D01*
X208894230Y-114440393D01*
X208894230Y-114821345D01*
X208465659Y-113868964D02*
X208418040Y-113821345D01*
X208370420Y-113726107D01*
X208370420Y-113488012D01*
X208418040Y-113392774D01*
X208465659Y-113345155D01*
X208560897Y-113297536D01*
X208656135Y-113297536D01*
X208798992Y-113345155D01*
X209370420Y-113916583D01*
X209370420Y-113297536D01*
X208370420Y-112392774D02*
X208370420Y-112868964D01*
X208846611Y-112916583D01*
X208798992Y-112868964D01*
X208751373Y-112773726D01*
X208751373Y-112535631D01*
X208798992Y-112440393D01*
X208846611Y-112392774D01*
X208941849Y-112345155D01*
X209179944Y-112345155D01*
X209275182Y-112392774D01*
X209322801Y-112440393D01*
X209370420Y-112535631D01*
X209370420Y-112773726D01*
X209322801Y-112868964D01*
X209275182Y-112916583D01*
X210260420Y-107074917D02*
X209784230Y-107408250D01*
X210260420Y-107646345D02*
X209260420Y-107646345D01*
X209260420Y-107265393D01*
X209308040Y-107170155D01*
X209355659Y-107122536D01*
X209450897Y-107074917D01*
X209593754Y-107074917D01*
X209688992Y-107122536D01*
X209736611Y-107170155D01*
X209784230Y-107265393D01*
X209784230Y-107646345D01*
X209355659Y-106693964D02*
X209308040Y-106646345D01*
X209260420Y-106551107D01*
X209260420Y-106313012D01*
X209308040Y-106217774D01*
X209355659Y-106170155D01*
X209450897Y-106122536D01*
X209546135Y-106122536D01*
X209688992Y-106170155D01*
X210260420Y-106741583D01*
X210260420Y-106122536D01*
X209260420Y-105265393D02*
X209260420Y-105455869D01*
X209308040Y-105551107D01*
X209355659Y-105598726D01*
X209498516Y-105693964D01*
X209688992Y-105741583D01*
X210069944Y-105741583D01*
X210165182Y-105693964D01*
X210212801Y-105646345D01*
X210260420Y-105551107D01*
X210260420Y-105360631D01*
X210212801Y-105265393D01*
X210165182Y-105217774D01*
X210069944Y-105170155D01*
X209831849Y-105170155D01*
X209736611Y-105217774D01*
X209688992Y-105265393D01*
X209641373Y-105360631D01*
X209641373Y-105551107D01*
X209688992Y-105646345D01*
X209736611Y-105693964D01*
X209831849Y-105741583D01*
X205520420Y-114199917D02*
X205044230Y-114533250D01*
X205520420Y-114771345D02*
X204520420Y-114771345D01*
X204520420Y-114390393D01*
X204568040Y-114295155D01*
X204615659Y-114247536D01*
X204710897Y-114199917D01*
X204853754Y-114199917D01*
X204948992Y-114247536D01*
X204996611Y-114295155D01*
X205044230Y-114390393D01*
X205044230Y-114771345D01*
X204615659Y-113818964D02*
X204568040Y-113771345D01*
X204520420Y-113676107D01*
X204520420Y-113438012D01*
X204568040Y-113342774D01*
X204615659Y-113295155D01*
X204710897Y-113247536D01*
X204806135Y-113247536D01*
X204948992Y-113295155D01*
X205520420Y-113866583D01*
X205520420Y-113247536D01*
X204520420Y-112914202D02*
X204520420Y-112247536D01*
X205520420Y-112676107D01*
X191916182Y-70920440D02*
X191582849Y-70444250D01*
X191344754Y-70920440D02*
X191344754Y-69920440D01*
X191725706Y-69920440D01*
X191820944Y-69968060D01*
X191868563Y-70015679D01*
X191916182Y-70110917D01*
X191916182Y-70253774D01*
X191868563Y-70349012D01*
X191820944Y-70396631D01*
X191725706Y-70444250D01*
X191344754Y-70444250D01*
X192297135Y-70015679D02*
X192344754Y-69968060D01*
X192439992Y-69920440D01*
X192678087Y-69920440D01*
X192773325Y-69968060D01*
X192820944Y-70015679D01*
X192868563Y-70110917D01*
X192868563Y-70206155D01*
X192820944Y-70349012D01*
X192249516Y-70920440D01*
X192868563Y-70920440D01*
X193439992Y-70349012D02*
X193344754Y-70301393D01*
X193297135Y-70253774D01*
X193249516Y-70158536D01*
X193249516Y-70110917D01*
X193297135Y-70015679D01*
X193344754Y-69968060D01*
X193439992Y-69920440D01*
X193630468Y-69920440D01*
X193725706Y-69968060D01*
X193773325Y-70015679D01*
X193820944Y-70110917D01*
X193820944Y-70158536D01*
X193773325Y-70253774D01*
X193725706Y-70301393D01*
X193630468Y-70349012D01*
X193439992Y-70349012D01*
X193344754Y-70396631D01*
X193297135Y-70444250D01*
X193249516Y-70539488D01*
X193249516Y-70729964D01*
X193297135Y-70825202D01*
X193344754Y-70872821D01*
X193439992Y-70920440D01*
X193630468Y-70920440D01*
X193725706Y-70872821D01*
X193773325Y-70825202D01*
X193820944Y-70729964D01*
X193820944Y-70539488D01*
X193773325Y-70444250D01*
X193725706Y-70396631D01*
X193630468Y-70349012D01*
X204195420Y-114155917D02*
X203719230Y-114489250D01*
X204195420Y-114727345D02*
X203195420Y-114727345D01*
X203195420Y-114346393D01*
X203243040Y-114251155D01*
X203290659Y-114203536D01*
X203385897Y-114155917D01*
X203528754Y-114155917D01*
X203623992Y-114203536D01*
X203671611Y-114251155D01*
X203719230Y-114346393D01*
X203719230Y-114727345D01*
X203290659Y-113774964D02*
X203243040Y-113727345D01*
X203195420Y-113632107D01*
X203195420Y-113394012D01*
X203243040Y-113298774D01*
X203290659Y-113251155D01*
X203385897Y-113203536D01*
X203481135Y-113203536D01*
X203623992Y-113251155D01*
X204195420Y-113822583D01*
X204195420Y-113203536D01*
X204195420Y-112727345D02*
X204195420Y-112536869D01*
X204147801Y-112441631D01*
X204100182Y-112394012D01*
X203957325Y-112298774D01*
X203766849Y-112251155D01*
X203385897Y-112251155D01*
X203290659Y-112298774D01*
X203243040Y-112346393D01*
X203195420Y-112441631D01*
X203195420Y-112632107D01*
X203243040Y-112727345D01*
X203290659Y-112774964D01*
X203385897Y-112822583D01*
X203623992Y-112822583D01*
X203719230Y-112774964D01*
X203766849Y-112727345D01*
X203814468Y-112632107D01*
X203814468Y-112441631D01*
X203766849Y-112346393D01*
X203719230Y-112298774D01*
X203623992Y-112251155D01*
X211982182Y-66096440D02*
X211648849Y-65620250D01*
X211410754Y-66096440D02*
X211410754Y-65096440D01*
X211791706Y-65096440D01*
X211886944Y-65144060D01*
X211934563Y-65191679D01*
X211982182Y-65286917D01*
X211982182Y-65429774D01*
X211934563Y-65525012D01*
X211886944Y-65572631D01*
X211791706Y-65620250D01*
X211410754Y-65620250D01*
X212315516Y-65096440D02*
X212934563Y-65096440D01*
X212601230Y-65477393D01*
X212744087Y-65477393D01*
X212839325Y-65525012D01*
X212886944Y-65572631D01*
X212934563Y-65667869D01*
X212934563Y-65905964D01*
X212886944Y-66001202D01*
X212839325Y-66048821D01*
X212744087Y-66096440D01*
X212458373Y-66096440D01*
X212363135Y-66048821D01*
X212315516Y-66001202D01*
X213553611Y-65096440D02*
X213648849Y-65096440D01*
X213744087Y-65144060D01*
X213791706Y-65191679D01*
X213839325Y-65286917D01*
X213886944Y-65477393D01*
X213886944Y-65715488D01*
X213839325Y-65905964D01*
X213791706Y-66001202D01*
X213744087Y-66048821D01*
X213648849Y-66096440D01*
X213553611Y-66096440D01*
X213458373Y-66048821D01*
X213410754Y-66001202D01*
X213363135Y-65905964D01*
X213315516Y-65715488D01*
X213315516Y-65477393D01*
X213363135Y-65286917D01*
X213410754Y-65191679D01*
X213458373Y-65144060D01*
X213553611Y-65096440D01*
X219520420Y-74319917D02*
X219044230Y-74653250D01*
X219520420Y-74891345D02*
X218520420Y-74891345D01*
X218520420Y-74510393D01*
X218568040Y-74415155D01*
X218615659Y-74367536D01*
X218710897Y-74319917D01*
X218853754Y-74319917D01*
X218948992Y-74367536D01*
X218996611Y-74415155D01*
X219044230Y-74510393D01*
X219044230Y-74891345D01*
X218520420Y-73986583D02*
X218520420Y-73367536D01*
X218901373Y-73700869D01*
X218901373Y-73558012D01*
X218948992Y-73462774D01*
X218996611Y-73415155D01*
X219091849Y-73367536D01*
X219329944Y-73367536D01*
X219425182Y-73415155D01*
X219472801Y-73462774D01*
X219520420Y-73558012D01*
X219520420Y-73843726D01*
X219472801Y-73938964D01*
X219425182Y-73986583D01*
X219520420Y-72415155D02*
X219520420Y-72986583D01*
X219520420Y-72700869D02*
X218520420Y-72700869D01*
X218663278Y-72796107D01*
X218758516Y-72891345D01*
X218806135Y-72986583D01*
X219410420Y-102929917D02*
X218934230Y-103263250D01*
X219410420Y-103501345D02*
X218410420Y-103501345D01*
X218410420Y-103120393D01*
X218458040Y-103025155D01*
X218505659Y-102977536D01*
X218600897Y-102929917D01*
X218743754Y-102929917D01*
X218838992Y-102977536D01*
X218886611Y-103025155D01*
X218934230Y-103120393D01*
X218934230Y-103501345D01*
X218410420Y-102596583D02*
X218410420Y-101977536D01*
X218791373Y-102310869D01*
X218791373Y-102168012D01*
X218838992Y-102072774D01*
X218886611Y-102025155D01*
X218981849Y-101977536D01*
X219219944Y-101977536D01*
X219315182Y-102025155D01*
X219362801Y-102072774D01*
X219410420Y-102168012D01*
X219410420Y-102453726D01*
X219362801Y-102548964D01*
X219315182Y-102596583D01*
X218505659Y-101596583D02*
X218458040Y-101548964D01*
X218410420Y-101453726D01*
X218410420Y-101215631D01*
X218458040Y-101120393D01*
X218505659Y-101072774D01*
X218600897Y-101025155D01*
X218696135Y-101025155D01*
X218838992Y-101072774D01*
X219410420Y-101644202D01*
X219410420Y-101025155D01*
X217824182Y-66096440D02*
X217490849Y-65620250D01*
X217252754Y-66096440D02*
X217252754Y-65096440D01*
X217633706Y-65096440D01*
X217728944Y-65144060D01*
X217776563Y-65191679D01*
X217824182Y-65286917D01*
X217824182Y-65429774D01*
X217776563Y-65525012D01*
X217728944Y-65572631D01*
X217633706Y-65620250D01*
X217252754Y-65620250D01*
X218157516Y-65096440D02*
X218776563Y-65096440D01*
X218443230Y-65477393D01*
X218586087Y-65477393D01*
X218681325Y-65525012D01*
X218728944Y-65572631D01*
X218776563Y-65667869D01*
X218776563Y-65905964D01*
X218728944Y-66001202D01*
X218681325Y-66048821D01*
X218586087Y-66096440D01*
X218300373Y-66096440D01*
X218205135Y-66048821D01*
X218157516Y-66001202D01*
X219109897Y-65096440D02*
X219728944Y-65096440D01*
X219395611Y-65477393D01*
X219538468Y-65477393D01*
X219633706Y-65525012D01*
X219681325Y-65572631D01*
X219728944Y-65667869D01*
X219728944Y-65905964D01*
X219681325Y-66001202D01*
X219633706Y-66048821D01*
X219538468Y-66096440D01*
X219252754Y-66096440D01*
X219157516Y-66048821D01*
X219109897Y-66001202D01*
X217680182Y-106444440D02*
X217346849Y-105968250D01*
X217108754Y-106444440D02*
X217108754Y-105444440D01*
X217489706Y-105444440D01*
X217584944Y-105492060D01*
X217632563Y-105539679D01*
X217680182Y-105634917D01*
X217680182Y-105777774D01*
X217632563Y-105873012D01*
X217584944Y-105920631D01*
X217489706Y-105968250D01*
X217108754Y-105968250D01*
X218013516Y-105444440D02*
X218632563Y-105444440D01*
X218299230Y-105825393D01*
X218442087Y-105825393D01*
X218537325Y-105873012D01*
X218584944Y-105920631D01*
X218632563Y-106015869D01*
X218632563Y-106253964D01*
X218584944Y-106349202D01*
X218537325Y-106396821D01*
X218442087Y-106444440D01*
X218156373Y-106444440D01*
X218061135Y-106396821D01*
X218013516Y-106349202D01*
X219489706Y-105444440D02*
X219299230Y-105444440D01*
X219203992Y-105492060D01*
X219156373Y-105539679D01*
X219061135Y-105682536D01*
X219013516Y-105873012D01*
X219013516Y-106253964D01*
X219061135Y-106349202D01*
X219108754Y-106396821D01*
X219203992Y-106444440D01*
X219394468Y-106444440D01*
X219489706Y-106396821D01*
X219537325Y-106349202D01*
X219584944Y-106253964D01*
X219584944Y-106015869D01*
X219537325Y-105920631D01*
X219489706Y-105873012D01*
X219394468Y-105825393D01*
X219203992Y-105825393D01*
X219108754Y-105873012D01*
X219061135Y-105920631D01*
X219013516Y-106015869D01*
X233581182Y-102164440D02*
X233247849Y-101688250D01*
X233009754Y-102164440D02*
X233009754Y-101164440D01*
X233390706Y-101164440D01*
X233485944Y-101212060D01*
X233533563Y-101259679D01*
X233581182Y-101354917D01*
X233581182Y-101497774D01*
X233533563Y-101593012D01*
X233485944Y-101640631D01*
X233390706Y-101688250D01*
X233009754Y-101688250D01*
X233914516Y-101164440D02*
X234533563Y-101164440D01*
X234200230Y-101545393D01*
X234343087Y-101545393D01*
X234438325Y-101593012D01*
X234485944Y-101640631D01*
X234533563Y-101735869D01*
X234533563Y-101973964D01*
X234485944Y-102069202D01*
X234438325Y-102116821D01*
X234343087Y-102164440D01*
X234057373Y-102164440D01*
X233962135Y-102116821D01*
X233914516Y-102069202D01*
X235104992Y-101593012D02*
X235009754Y-101545393D01*
X234962135Y-101497774D01*
X234914516Y-101402536D01*
X234914516Y-101354917D01*
X234962135Y-101259679D01*
X235009754Y-101212060D01*
X235104992Y-101164440D01*
X235295468Y-101164440D01*
X235390706Y-101212060D01*
X235438325Y-101259679D01*
X235485944Y-101354917D01*
X235485944Y-101402536D01*
X235438325Y-101497774D01*
X235390706Y-101545393D01*
X235295468Y-101593012D01*
X235104992Y-101593012D01*
X235009754Y-101640631D01*
X234962135Y-101688250D01*
X234914516Y-101783488D01*
X234914516Y-101973964D01*
X234962135Y-102069202D01*
X235009754Y-102116821D01*
X235104992Y-102164440D01*
X235295468Y-102164440D01*
X235390706Y-102116821D01*
X235438325Y-102069202D01*
X235485944Y-101973964D01*
X235485944Y-101783488D01*
X235438325Y-101688250D01*
X235390706Y-101640631D01*
X235295468Y-101593012D01*
X165187982Y-106658240D02*
X164854649Y-106182050D01*
X164616554Y-106658240D02*
X164616554Y-105658240D01*
X164997506Y-105658240D01*
X165092744Y-105705860D01*
X165140363Y-105753479D01*
X165187982Y-105848717D01*
X165187982Y-105991574D01*
X165140363Y-106086812D01*
X165092744Y-106134431D01*
X164997506Y-106182050D01*
X164616554Y-106182050D01*
X166045125Y-105991574D02*
X166045125Y-106658240D01*
X165807030Y-105610621D02*
X165568935Y-106324907D01*
X166187982Y-106324907D01*
X167092744Y-106658240D02*
X166521316Y-106658240D01*
X166807030Y-106658240D02*
X166807030Y-105658240D01*
X166711792Y-105801098D01*
X166616554Y-105896336D01*
X166521316Y-105943955D01*
X179857142Y-115302380D02*
X179523809Y-114826190D01*
X179285714Y-115302380D02*
X179285714Y-114302380D01*
X179666666Y-114302380D01*
X179761904Y-114350000D01*
X179809523Y-114397619D01*
X179857142Y-114492857D01*
X179857142Y-114635714D01*
X179809523Y-114730952D01*
X179761904Y-114778571D01*
X179666666Y-114826190D01*
X179285714Y-114826190D01*
X180714285Y-114635714D02*
X180714285Y-115302380D01*
X180476190Y-114254761D02*
X180238095Y-114969047D01*
X180857142Y-114969047D01*
X181142857Y-114302380D02*
X181761904Y-114302380D01*
X181428571Y-114683333D01*
X181571428Y-114683333D01*
X181666666Y-114730952D01*
X181714285Y-114778571D01*
X181761904Y-114873809D01*
X181761904Y-115111904D01*
X181714285Y-115207142D01*
X181666666Y-115254761D01*
X181571428Y-115302380D01*
X181285714Y-115302380D01*
X181190476Y-115254761D01*
X181142857Y-115207142D01*
X162701082Y-80792226D02*
X162748701Y-80839845D01*
X162796320Y-80982702D01*
X162796320Y-81077940D01*
X162748701Y-81220798D01*
X162653463Y-81316036D01*
X162558225Y-81363655D01*
X162367749Y-81411274D01*
X162224892Y-81411274D01*
X162034416Y-81363655D01*
X161939178Y-81316036D01*
X161843940Y-81220798D01*
X161796320Y-81077940D01*
X161796320Y-80982702D01*
X161843940Y-80839845D01*
X161891559Y-80792226D01*
X161891559Y-80411274D02*
X161843940Y-80363655D01*
X161796320Y-80268417D01*
X161796320Y-80030321D01*
X161843940Y-79935083D01*
X161891559Y-79887464D01*
X161986797Y-79839845D01*
X162082035Y-79839845D01*
X162224892Y-79887464D01*
X162796320Y-80458893D01*
X162796320Y-79839845D01*
X175666666Y-111052380D02*
X175666666Y-111766666D01*
X175619047Y-111909523D01*
X175523809Y-112004761D01*
X175380952Y-112052380D01*
X175285714Y-112052380D01*
X176142857Y-112052380D02*
X176142857Y-111052380D01*
X176523809Y-111052380D01*
X176619047Y-111100000D01*
X176666666Y-111147619D01*
X176714285Y-111242857D01*
X176714285Y-111385714D01*
X176666666Y-111480952D01*
X176619047Y-111528571D01*
X176523809Y-111576190D01*
X176142857Y-111576190D01*
X177666666Y-112052380D02*
X177095238Y-112052380D01*
X177380952Y-112052380D02*
X177380952Y-111052380D01*
X177285714Y-111195238D01*
X177190476Y-111290476D01*
X177095238Y-111338095D01*
M02*
