M48
; DRILL file {KiCad (5.1.2)-2} date 1/11/2019 9:47:09 AM
; FORMAT={-:-/ absolute / inch / decimal}
; #@! TF.CreationDate,2019-11-01T09:47:09-03:00
; #@! TF.GenerationSoftware,Kicad,Pcbnew,(5.1.2)-2
; #@! TF.FileFunction,Plated,1,2,PTH
FMAT,2
INCH
T1C0.0276
T2C0.0315
T3C0.0354
T4C0.0394
T5C0.0402
T6C0.0472
T7C0.0591
T8C0.0689
T9C0.0787
T10C0.1181
%
G90
G05
T1
X6.2992Y-4.4173
X6.6496Y-2.8583
X6.7362Y-4.8228
X6.8031Y-4.3937
X6.811Y-4.8228
X7.0556Y-4.4108
X7.2634Y-3.3449
X7.3268Y-4.2246
X7.3734Y-2.8149
X8.0434Y-4.3749
X8.4034Y-4.0249
X8.6634Y-2.4449
X8.7205Y-4.3624
X9.0714Y-2.6229
X9.1024Y-4.3919
X9.1457Y-3.9706
X9.2992Y-4.9017
X9.3012Y-4.762
T2
X10.6693Y-2.3622
X10.6693Y-2.5591
X7.9489Y-3.075
X8.0276Y-3.075
X10.6693Y-4.4291
X10.6693Y-4.626
X10.6693Y-3.0512
X10.6693Y-3.248
X10.6693Y-3.7402
X10.6693Y-3.937
T3
X6.8898Y-4.4748
X6.8898Y-4.5748
T4
X6.6399Y-3.0266
X6.6399Y-3.3219
X7.7749Y-3.4239
X7.8749Y-3.4239
X7.9749Y-3.4239
T5
X6.9488Y-4.111
X6.9488Y-4.211
X6.9488Y-4.311
T6
X8.842Y-3.2493
X9.142Y-3.2493
X8.842Y-3.6824
X9.142Y-3.6824
T7
X9.6098Y-3.5894
X9.6098Y-3.8039
X9.6098Y-4.0185
X9.6114Y-2.8894
X9.6114Y-3.1039
X9.6114Y-3.3185
X9.6114Y-4.2794
X9.6114Y-4.4939
X9.6114Y-4.7085
X9.6098Y-2.1863
X9.6098Y-2.4009
X9.6098Y-2.6154
T8
X10.194Y-4.3421
X10.194Y-4.4949
X10.174Y-3.6749
X10.174Y-3.8276
X8.3696Y-3.3871
X8.3696Y-3.5398
X10.184Y-2.3721
X10.184Y-2.5249
X10.174Y-3.0249
X10.174Y-3.1776
T9
X8.5554Y-3.7814
X9.9528Y-2.4173
X10.2707Y-2.751
X10.2913Y-4.0866
T10
X10.0216Y-4.8445
X10.174Y-3.4244
T0
M30
