G04 #@! TF.GenerationSoftware,KiCad,Pcbnew,(5.1.2)-2*
G04 #@! TF.CreationDate,2019-11-04T11:05:10-03:00*
G04 #@! TF.ProjectId,PCB,5043422e-6b69-4636-9164-5f7063625858,rev?*
G04 #@! TF.SameCoordinates,Original*
G04 #@! TF.FileFunction,Legend,Bot*
G04 #@! TF.FilePolarity,Positive*
%FSLAX46Y46*%
G04 Gerber Fmt 4.6, Leading zero omitted, Abs format (unit mm)*
G04 Created by KiCad (PCBNEW (5.1.2)-2) date 2019-11-04 11:05:10*
%MOMM*%
%LPD*%
G04 APERTURE LIST*
%ADD10C,0.120000*%
%ADD11C,0.150000*%
G04 APERTURE END LIST*
D10*
X260874840Y-66631760D02*
X258674840Y-66631760D01*
X260874840Y-65331760D02*
X260874840Y-66631760D01*
X253844840Y-61841760D02*
X253844840Y-58161760D01*
X253844840Y-62611760D02*
X253844840Y-66291760D01*
X253844840Y-62611760D02*
X254104840Y-62611760D01*
X254104840Y-62611760D02*
X254104840Y-61841760D01*
X254104840Y-61841760D02*
X253844840Y-61841760D01*
X260834840Y-65021760D02*
X260834840Y-59431760D01*
X261724840Y-65021760D02*
X261724840Y-59431760D01*
X260584840Y-58161760D02*
X258674840Y-58161760D01*
X260584840Y-66291760D02*
X258674840Y-66291760D01*
X261974840Y-65021760D02*
X261974840Y-59431760D01*
X260584840Y-59431760D02*
X261974840Y-59431760D01*
X260584840Y-65021760D02*
X261974840Y-65021760D01*
X260584840Y-66291760D02*
X260584840Y-58161760D01*
X258674840Y-66291760D02*
X253844840Y-66291760D01*
X253844840Y-58161760D02*
X258674840Y-58161760D01*
X254098840Y-108199760D02*
X258928840Y-108199760D01*
X258928840Y-116329760D02*
X254098840Y-116329760D01*
X260838840Y-116329760D02*
X260838840Y-108199760D01*
X260838840Y-115059760D02*
X262228840Y-115059760D01*
X260838840Y-109469760D02*
X262228840Y-109469760D01*
X262228840Y-115059760D02*
X262228840Y-109469760D01*
X260838840Y-116329760D02*
X258928840Y-116329760D01*
X260838840Y-108199760D02*
X258928840Y-108199760D01*
X261978840Y-115059760D02*
X261978840Y-109469760D01*
X261088840Y-115059760D02*
X261088840Y-109469760D01*
X254358840Y-111879760D02*
X254098840Y-111879760D01*
X254358840Y-112649760D02*
X254358840Y-111879760D01*
X254098840Y-112649760D02*
X254358840Y-112649760D01*
X254098840Y-112649760D02*
X254098840Y-116329760D01*
X254098840Y-111879760D02*
X254098840Y-108199760D01*
X261128840Y-115369760D02*
X261128840Y-116669760D01*
X261128840Y-116669760D02*
X258928840Y-116669760D01*
X256220840Y-90841760D02*
X258420840Y-90841760D01*
X256220840Y-92141760D02*
X256220840Y-90841760D01*
X263250840Y-95631760D02*
X263250840Y-99311760D01*
X263250840Y-94861760D02*
X263250840Y-91181760D01*
X263250840Y-94861760D02*
X262990840Y-94861760D01*
X262990840Y-94861760D02*
X262990840Y-95631760D01*
X262990840Y-95631760D02*
X263250840Y-95631760D01*
X256260840Y-92451760D02*
X256260840Y-98041760D01*
X255370840Y-92451760D02*
X255370840Y-98041760D01*
X256510840Y-99311760D02*
X258420840Y-99311760D01*
X256510840Y-91181760D02*
X258420840Y-91181760D01*
X255120840Y-92451760D02*
X255120840Y-98041760D01*
X256510840Y-98041760D02*
X255120840Y-98041760D01*
X256510840Y-92451760D02*
X255120840Y-92451760D01*
X256510840Y-91181760D02*
X256510840Y-99311760D01*
X258420840Y-91181760D02*
X263250840Y-91181760D01*
X263250840Y-99311760D02*
X258420840Y-99311760D01*
X263250840Y-82801760D02*
X258420840Y-82801760D01*
X258420840Y-74671760D02*
X263250840Y-74671760D01*
X256510840Y-74671760D02*
X256510840Y-82801760D01*
X256510840Y-75941760D02*
X255120840Y-75941760D01*
X256510840Y-81531760D02*
X255120840Y-81531760D01*
X255120840Y-75941760D02*
X255120840Y-81531760D01*
X256510840Y-74671760D02*
X258420840Y-74671760D01*
X256510840Y-82801760D02*
X258420840Y-82801760D01*
X255370840Y-75941760D02*
X255370840Y-81531760D01*
X256260840Y-75941760D02*
X256260840Y-81531760D01*
X262990840Y-79121760D02*
X263250840Y-79121760D01*
X262990840Y-78351760D02*
X262990840Y-79121760D01*
X263250840Y-78351760D02*
X262990840Y-78351760D01*
X263250840Y-78351760D02*
X263250840Y-74671760D01*
X263250840Y-79121760D02*
X263250840Y-82801760D01*
X256220840Y-75631760D02*
X256220840Y-74331760D01*
X256220840Y-74331760D02*
X258420840Y-74331760D01*
X169710000Y-114061252D02*
X169710000Y-113538748D01*
X168290000Y-114061252D02*
X168290000Y-113538748D01*
X162890000Y-114086252D02*
X162890000Y-113563748D01*
X164310000Y-114086252D02*
X164310000Y-113563748D01*
D11*
X263207220Y-61888426D02*
X263921506Y-61888426D01*
X264064363Y-61840807D01*
X264159601Y-61745569D01*
X264207220Y-61602712D01*
X264207220Y-61507474D01*
X263207220Y-62269379D02*
X263207220Y-62888426D01*
X263588173Y-62555093D01*
X263588173Y-62697950D01*
X263635792Y-62793188D01*
X263683411Y-62840807D01*
X263778649Y-62888426D01*
X264016744Y-62888426D01*
X264111982Y-62840807D01*
X264159601Y-62793188D01*
X264207220Y-62697950D01*
X264207220Y-62412236D01*
X264159601Y-62316998D01*
X264111982Y-62269379D01*
X263461220Y-111926426D02*
X264175506Y-111926426D01*
X264318363Y-111878807D01*
X264413601Y-111783569D01*
X264461220Y-111640712D01*
X264461220Y-111545474D01*
X263794554Y-112831188D02*
X264461220Y-112831188D01*
X263413601Y-112593093D02*
X264127887Y-112354998D01*
X264127887Y-112974045D01*
X252793220Y-94918426D02*
X253507506Y-94918426D01*
X253650363Y-94870807D01*
X253745601Y-94775569D01*
X253793220Y-94632712D01*
X253793220Y-94537474D01*
X252793220Y-95870807D02*
X252793220Y-95394617D01*
X253269411Y-95346998D01*
X253221792Y-95394617D01*
X253174173Y-95489855D01*
X253174173Y-95727950D01*
X253221792Y-95823188D01*
X253269411Y-95870807D01*
X253364649Y-95918426D01*
X253602744Y-95918426D01*
X253697982Y-95870807D01*
X253745601Y-95823188D01*
X253793220Y-95727950D01*
X253793220Y-95489855D01*
X253745601Y-95394617D01*
X253697982Y-95346998D01*
X252793220Y-78408426D02*
X253507506Y-78408426D01*
X253650363Y-78360807D01*
X253745601Y-78265569D01*
X253793220Y-78122712D01*
X253793220Y-78027474D01*
X252793220Y-79313188D02*
X252793220Y-79122712D01*
X252840840Y-79027474D01*
X252888459Y-78979855D01*
X253031316Y-78884617D01*
X253221792Y-78836998D01*
X253602744Y-78836998D01*
X253697982Y-78884617D01*
X253745601Y-78932236D01*
X253793220Y-79027474D01*
X253793220Y-79217950D01*
X253745601Y-79313188D01*
X253697982Y-79360807D01*
X253602744Y-79408426D01*
X253364649Y-79408426D01*
X253269411Y-79360807D01*
X253221792Y-79313188D01*
X253174173Y-79217950D01*
X253174173Y-79027474D01*
X253221792Y-78932236D01*
X253269411Y-78884617D01*
X253364649Y-78836998D01*
X171102380Y-113157142D02*
X170626190Y-112823809D01*
X171102380Y-112585714D02*
X170102380Y-112585714D01*
X170102380Y-112966666D01*
X170150000Y-113061904D01*
X170197619Y-113109523D01*
X170292857Y-113157142D01*
X170435714Y-113157142D01*
X170530952Y-113109523D01*
X170578571Y-113061904D01*
X170626190Y-112966666D01*
X170626190Y-112585714D01*
X170435714Y-114014285D02*
X171102380Y-114014285D01*
X170054761Y-113776190D02*
X170769047Y-113538095D01*
X170769047Y-114157142D01*
X170102380Y-115014285D02*
X170102380Y-114538095D01*
X170578571Y-114490476D01*
X170530952Y-114538095D01*
X170483333Y-114633333D01*
X170483333Y-114871428D01*
X170530952Y-114966666D01*
X170578571Y-115014285D01*
X170673809Y-115061904D01*
X170911904Y-115061904D01*
X171007142Y-115014285D01*
X171054761Y-114966666D01*
X171102380Y-114871428D01*
X171102380Y-114633333D01*
X171054761Y-114538095D01*
X171007142Y-114490476D01*
X165702380Y-113182142D02*
X165226190Y-112848809D01*
X165702380Y-112610714D02*
X164702380Y-112610714D01*
X164702380Y-112991666D01*
X164750000Y-113086904D01*
X164797619Y-113134523D01*
X164892857Y-113182142D01*
X165035714Y-113182142D01*
X165130952Y-113134523D01*
X165178571Y-113086904D01*
X165226190Y-112991666D01*
X165226190Y-112610714D01*
X165035714Y-114039285D02*
X165702380Y-114039285D01*
X164654761Y-113801190D02*
X165369047Y-113563095D01*
X165369047Y-114182142D01*
X164702380Y-114991666D02*
X164702380Y-114801190D01*
X164750000Y-114705952D01*
X164797619Y-114658333D01*
X164940476Y-114563095D01*
X165130952Y-114515476D01*
X165511904Y-114515476D01*
X165607142Y-114563095D01*
X165654761Y-114610714D01*
X165702380Y-114705952D01*
X165702380Y-114896428D01*
X165654761Y-114991666D01*
X165607142Y-115039285D01*
X165511904Y-115086904D01*
X165273809Y-115086904D01*
X165178571Y-115039285D01*
X165130952Y-114991666D01*
X165083333Y-114896428D01*
X165083333Y-114705952D01*
X165130952Y-114610714D01*
X165178571Y-114563095D01*
X165273809Y-114515476D01*
M02*
