G04 #@! TF.GenerationSoftware,KiCad,Pcbnew,(5.1.2)-2*
G04 #@! TF.CreationDate,2019-11-04T11:05:10-03:00*
G04 #@! TF.ProjectId,PCB,5043422e-6b69-4636-9164-5f7063625858,rev?*
G04 #@! TF.SameCoordinates,Original*
G04 #@! TF.FileFunction,Paste,Bot*
G04 #@! TF.FilePolarity,Positive*
%FSLAX46Y46*%
G04 Gerber Fmt 4.6, Leading zero omitted, Abs format (unit mm)*
G04 Created by KiCad (PCBNEW (5.1.2)-2) date 2019-11-04 11:05:10*
%MOMM*%
%LPD*%
G04 APERTURE LIST*
%ADD10C,0.100000*%
%ADD11C,1.150000*%
G04 APERTURE END LIST*
D10*
G36*
X169474505Y-114251204D02*
G01*
X169498773Y-114254804D01*
X169522572Y-114260765D01*
X169545671Y-114269030D01*
X169567850Y-114279520D01*
X169588893Y-114292132D01*
X169608599Y-114306747D01*
X169626777Y-114323223D01*
X169643253Y-114341401D01*
X169657868Y-114361107D01*
X169670480Y-114382150D01*
X169680970Y-114404329D01*
X169689235Y-114427428D01*
X169695196Y-114451227D01*
X169698796Y-114475495D01*
X169700000Y-114499999D01*
X169700000Y-115150001D01*
X169698796Y-115174505D01*
X169695196Y-115198773D01*
X169689235Y-115222572D01*
X169680970Y-115245671D01*
X169670480Y-115267850D01*
X169657868Y-115288893D01*
X169643253Y-115308599D01*
X169626777Y-115326777D01*
X169608599Y-115343253D01*
X169588893Y-115357868D01*
X169567850Y-115370480D01*
X169545671Y-115380970D01*
X169522572Y-115389235D01*
X169498773Y-115395196D01*
X169474505Y-115398796D01*
X169450001Y-115400000D01*
X168549999Y-115400000D01*
X168525495Y-115398796D01*
X168501227Y-115395196D01*
X168477428Y-115389235D01*
X168454329Y-115380970D01*
X168432150Y-115370480D01*
X168411107Y-115357868D01*
X168391401Y-115343253D01*
X168373223Y-115326777D01*
X168356747Y-115308599D01*
X168342132Y-115288893D01*
X168329520Y-115267850D01*
X168319030Y-115245671D01*
X168310765Y-115222572D01*
X168304804Y-115198773D01*
X168301204Y-115174505D01*
X168300000Y-115150001D01*
X168300000Y-114499999D01*
X168301204Y-114475495D01*
X168304804Y-114451227D01*
X168310765Y-114427428D01*
X168319030Y-114404329D01*
X168329520Y-114382150D01*
X168342132Y-114361107D01*
X168356747Y-114341401D01*
X168373223Y-114323223D01*
X168391401Y-114306747D01*
X168411107Y-114292132D01*
X168432150Y-114279520D01*
X168454329Y-114269030D01*
X168477428Y-114260765D01*
X168501227Y-114254804D01*
X168525495Y-114251204D01*
X168549999Y-114250000D01*
X169450001Y-114250000D01*
X169474505Y-114251204D01*
X169474505Y-114251204D01*
G37*
D11*
X169000000Y-114825000D03*
D10*
G36*
X169474505Y-112201204D02*
G01*
X169498773Y-112204804D01*
X169522572Y-112210765D01*
X169545671Y-112219030D01*
X169567850Y-112229520D01*
X169588893Y-112242132D01*
X169608599Y-112256747D01*
X169626777Y-112273223D01*
X169643253Y-112291401D01*
X169657868Y-112311107D01*
X169670480Y-112332150D01*
X169680970Y-112354329D01*
X169689235Y-112377428D01*
X169695196Y-112401227D01*
X169698796Y-112425495D01*
X169700000Y-112449999D01*
X169700000Y-113100001D01*
X169698796Y-113124505D01*
X169695196Y-113148773D01*
X169689235Y-113172572D01*
X169680970Y-113195671D01*
X169670480Y-113217850D01*
X169657868Y-113238893D01*
X169643253Y-113258599D01*
X169626777Y-113276777D01*
X169608599Y-113293253D01*
X169588893Y-113307868D01*
X169567850Y-113320480D01*
X169545671Y-113330970D01*
X169522572Y-113339235D01*
X169498773Y-113345196D01*
X169474505Y-113348796D01*
X169450001Y-113350000D01*
X168549999Y-113350000D01*
X168525495Y-113348796D01*
X168501227Y-113345196D01*
X168477428Y-113339235D01*
X168454329Y-113330970D01*
X168432150Y-113320480D01*
X168411107Y-113307868D01*
X168391401Y-113293253D01*
X168373223Y-113276777D01*
X168356747Y-113258599D01*
X168342132Y-113238893D01*
X168329520Y-113217850D01*
X168319030Y-113195671D01*
X168310765Y-113172572D01*
X168304804Y-113148773D01*
X168301204Y-113124505D01*
X168300000Y-113100001D01*
X168300000Y-112449999D01*
X168301204Y-112425495D01*
X168304804Y-112401227D01*
X168310765Y-112377428D01*
X168319030Y-112354329D01*
X168329520Y-112332150D01*
X168342132Y-112311107D01*
X168356747Y-112291401D01*
X168373223Y-112273223D01*
X168391401Y-112256747D01*
X168411107Y-112242132D01*
X168432150Y-112229520D01*
X168454329Y-112219030D01*
X168477428Y-112210765D01*
X168501227Y-112204804D01*
X168525495Y-112201204D01*
X168549999Y-112200000D01*
X169450001Y-112200000D01*
X169474505Y-112201204D01*
X169474505Y-112201204D01*
G37*
D11*
X169000000Y-112775000D03*
D10*
G36*
X164074505Y-112226204D02*
G01*
X164098773Y-112229804D01*
X164122572Y-112235765D01*
X164145671Y-112244030D01*
X164167850Y-112254520D01*
X164188893Y-112267132D01*
X164208599Y-112281747D01*
X164226777Y-112298223D01*
X164243253Y-112316401D01*
X164257868Y-112336107D01*
X164270480Y-112357150D01*
X164280970Y-112379329D01*
X164289235Y-112402428D01*
X164295196Y-112426227D01*
X164298796Y-112450495D01*
X164300000Y-112474999D01*
X164300000Y-113125001D01*
X164298796Y-113149505D01*
X164295196Y-113173773D01*
X164289235Y-113197572D01*
X164280970Y-113220671D01*
X164270480Y-113242850D01*
X164257868Y-113263893D01*
X164243253Y-113283599D01*
X164226777Y-113301777D01*
X164208599Y-113318253D01*
X164188893Y-113332868D01*
X164167850Y-113345480D01*
X164145671Y-113355970D01*
X164122572Y-113364235D01*
X164098773Y-113370196D01*
X164074505Y-113373796D01*
X164050001Y-113375000D01*
X163149999Y-113375000D01*
X163125495Y-113373796D01*
X163101227Y-113370196D01*
X163077428Y-113364235D01*
X163054329Y-113355970D01*
X163032150Y-113345480D01*
X163011107Y-113332868D01*
X162991401Y-113318253D01*
X162973223Y-113301777D01*
X162956747Y-113283599D01*
X162942132Y-113263893D01*
X162929520Y-113242850D01*
X162919030Y-113220671D01*
X162910765Y-113197572D01*
X162904804Y-113173773D01*
X162901204Y-113149505D01*
X162900000Y-113125001D01*
X162900000Y-112474999D01*
X162901204Y-112450495D01*
X162904804Y-112426227D01*
X162910765Y-112402428D01*
X162919030Y-112379329D01*
X162929520Y-112357150D01*
X162942132Y-112336107D01*
X162956747Y-112316401D01*
X162973223Y-112298223D01*
X162991401Y-112281747D01*
X163011107Y-112267132D01*
X163032150Y-112254520D01*
X163054329Y-112244030D01*
X163077428Y-112235765D01*
X163101227Y-112229804D01*
X163125495Y-112226204D01*
X163149999Y-112225000D01*
X164050001Y-112225000D01*
X164074505Y-112226204D01*
X164074505Y-112226204D01*
G37*
D11*
X163600000Y-112800000D03*
D10*
G36*
X164074505Y-114276204D02*
G01*
X164098773Y-114279804D01*
X164122572Y-114285765D01*
X164145671Y-114294030D01*
X164167850Y-114304520D01*
X164188893Y-114317132D01*
X164208599Y-114331747D01*
X164226777Y-114348223D01*
X164243253Y-114366401D01*
X164257868Y-114386107D01*
X164270480Y-114407150D01*
X164280970Y-114429329D01*
X164289235Y-114452428D01*
X164295196Y-114476227D01*
X164298796Y-114500495D01*
X164300000Y-114524999D01*
X164300000Y-115175001D01*
X164298796Y-115199505D01*
X164295196Y-115223773D01*
X164289235Y-115247572D01*
X164280970Y-115270671D01*
X164270480Y-115292850D01*
X164257868Y-115313893D01*
X164243253Y-115333599D01*
X164226777Y-115351777D01*
X164208599Y-115368253D01*
X164188893Y-115382868D01*
X164167850Y-115395480D01*
X164145671Y-115405970D01*
X164122572Y-115414235D01*
X164098773Y-115420196D01*
X164074505Y-115423796D01*
X164050001Y-115425000D01*
X163149999Y-115425000D01*
X163125495Y-115423796D01*
X163101227Y-115420196D01*
X163077428Y-115414235D01*
X163054329Y-115405970D01*
X163032150Y-115395480D01*
X163011107Y-115382868D01*
X162991401Y-115368253D01*
X162973223Y-115351777D01*
X162956747Y-115333599D01*
X162942132Y-115313893D01*
X162929520Y-115292850D01*
X162919030Y-115270671D01*
X162910765Y-115247572D01*
X162904804Y-115223773D01*
X162901204Y-115199505D01*
X162900000Y-115175001D01*
X162900000Y-114524999D01*
X162901204Y-114500495D01*
X162904804Y-114476227D01*
X162910765Y-114452428D01*
X162919030Y-114429329D01*
X162929520Y-114407150D01*
X162942132Y-114386107D01*
X162956747Y-114366401D01*
X162973223Y-114348223D01*
X162991401Y-114331747D01*
X163011107Y-114317132D01*
X163032150Y-114304520D01*
X163054329Y-114294030D01*
X163077428Y-114285765D01*
X163101227Y-114279804D01*
X163125495Y-114276204D01*
X163149999Y-114275000D01*
X164050001Y-114275000D01*
X164074505Y-114276204D01*
X164074505Y-114276204D01*
G37*
D11*
X163600000Y-114850000D03*
M02*
